<?xml version="1.0" encoding="UTF-8"?>
<svg id="Layer_2" data-name="Layer 2" xmlns="http://www.w3.org/2000/svg" width="294" height="269" xmlns:xlink="http://www.w3.org/1999/xlink" viewBox="0 0 294 269">
  <defs>
    <filter id="drop-shadow-1" filterUnits="userSpaceOnUse">
      <feOffset dx="7" dy="7"/>
      <feGaussianBlur result="blur" stdDeviation="9"/>
      <feFlood flood-color="#000" flood-opacity=".5"/>
      <feComposite in2="blur" operator="in"/>
      <feComposite in="SourceGraphic"/>
    </filter>
  </defs>
  <g id="Capa_1" data-name="Capa 1">
    <g>
      <rect x="20" y="20" width="240" height="215" rx="39.51" ry="39.51" fill="#fff" filter="url(#drop-shadow-1)"/>
      <g>
        <polygon points="209.33 86.82 204.54 77.11 199.75 86.82 189.04 88.37 196.79 95.93 194.96 106.6 204.54 101.56 214.12 106.6 212.29 95.93 220.04 88.37 209.33 86.82" fill="#666"/>
        <path d="M246.94,78.4c-2.06-.03-4.13,0-6.54,0,.59-4.73-.3-8.54-5.51-10.18h-60.77c-4.99,1.49-5.87,5.08-5.71,9.18h4.68c-.05-5.36,.62-4.72,7.49-4.73,17.05,0,34.1,0,51.15,0,3.61,0,4.18,.48,4.14,3.74-.09,6.86,.16,13.75-.45,20.57-1.22,13.54-8.36,24.17-20.29,32.07-3.96,2.62-5.91,5.97-5.85,10.42,.05,3.93,.04,3.3,0,7.23-.02,1.97,.4,3.32,3.04,3.58,2.23,.22,3.76,1.49,4.05,3.83h.05v5.04c2.32,.02,4.64,.01,6.96,.04,.92,.01,2.56,1.31,2.62,2.09,.29,3.56,.12,17.98,.12,21.78h-43.2c0-3.2-.08-13.86,.03-19.54h-4.96c-.02,4.78-.11,17.24,.08,20.54,.07,1.19,1.33,3.5,4.93,3.5h43.01c4.47,0,4.89-1.81,4.92-2.74,.16-4.18,.19-19.2,.03-23.38-.15-4.08-3.07-6.59-7.5-6.81-.71-.03-1.41-.11-2.09-.16-.47-3.73-2.27-6.39-5.94-7.98-.65-.28-1.24-1.35-1.27-2.07-.13-3.34,0-2.12-.08-5.47-.05-2.67,1.18-4.63,3.52-6.12,7.48-4.76,13.23-10.9,17.4-18.34,.51-.9,1.64-1.73,2.68-2.12,5.25-1.94,9.39-5.02,12.34-9.46,3.46-5.22,4.76-10.98,4.96-16.98,.16-4.72-2.84-7.45-8.05-7.52Zm-7.72,28.43c-.22,.11-.5,.11-.54,.12,.57-3.9,1.38-7.82,1.67-11.77,.29-3.99,.06-8,.06-12.39,2.7,0,4.99-.18,7.21,.09,.92,.11,2.24,1.03,2.46,1.8,1.9,6.84-4.01,18.71-10.86,22.14Z" fill="#666"/>
        <path d="M103.47,75.03l1.39,.78c2.17,1.19,3.64,2.17,4.37,2.94,.37,.45,.86,1.06,1.39,1.92,.08,1.51,.16,3.15,.29,4.86,.04,.78,.08,1.35,.08,1.8,0,.49-.04,.98-.08,1.47v.61c-.12,.94-.45,1.55-.9,1.84-.25,.2-1.14,.45-2.7,.65-1.27,0-2.17-.37-2.66-1.1-.37-.9-.57-2.08-.53-3.6l.08-2.58v-2.29c-.12-.16-.33-.25-.57-.25-.2,0-.41,.04-.61,.08-1.51,0-2.33,.04-2.49,.16v2.04c0,2.53,.12,4.49,.37,5.93,.37,1.92,1.76,3.06,4.21,3.43,.37,.04,1.1,.08,2.21,.08,2.08,0,3.43-.08,4.05-.29,.86-.29,1.51-.57,1.92-.86,.86-.61,1.39-1.43,1.59-2.45,.04-.2,.08-1.67,.08-4.37,0-.33-.2-1.15-.2-1.47,.08-1.02,.08-1.76,.04-2.21-.12-1.92-1.02-3.64-2.7-5.19-.53-.49-1.92-1.35-4.13-2.57-1.92-1.06-3.06-1.96-3.47-2.74-.08-.2-.2-.69-.37-1.47v-.49l-.29-2.33,.49-2.41c.2-1.06,1.35-1.47,3.35-1.27,1.06,.12,1.8,.49,2.21,1.1,.08,.2,.2,.65,.37,1.43,.04,.2,.12,.65,.2,1.35l.08,1.72c0,.37,.04,.78,.08,1.19,.08,.2,.61,.29,1.59,.25,.49,0,1.02-.04,1.63-.12,.12-.04,.25-.16,.29-.33v-1.18c0-1.02-.04-1.68-.08-1.92v-.53l-.29-1.8c-.61-1.67-1.92-2.66-3.88-2.98-.69-.12-2-.16-3.96-.16l-.53,.08c-.74,0-1.55,.16-2.49,.53-.9,.33-1.47,.69-1.76,1.06-.61,.69-.9,2.25-.9,4.58,0,1.43,.08,2.41,.2,2.98,.49,1.84,1.51,3.19,3.02,4.08Zm.66-11.2h.16s-.04,.08-.16,.12v-.12Zm-3.43,6.29h-.08l-.08-.16s.12,.08,.16,.16Z" fill="#666"/>
        <path d="M117.24,79.56c0,3.55,.08,6.46,.29,8.7,.04,.2,.12,.57,.16,1.1,.08,1.15,.2,1.92,.37,2.29,.57,1.67,2.66,2.49,6.29,2.49,2.66,0,4.37-.53,5.11-1.63,.37-.57,.57-1.8,.57-3.64v-1.67c0-.25-.04-.57-.16-1.02-.12,0-.65-.04-1.59-.08-1.1-.04-1.69,.15-1.8,.56,.04,.09,.11,.7,.17,1.85,.04,1.51-.08,2.45-.37,2.74-.08,.12-.57,.33-1.47,.61-2.17,0-3.23-.37-3.23-1.1v-.78c0-.12-.08-1.55-.2-4.33-.04-.9-.08-1.31-.08-1.27,.08-.29,.61-.45,1.59-.49,.98-.04,2.49-.04,4.49,0,1.35,.04,2.08,0,2.21-.08,.16-.08,.25-.49,.25-1.23,.04-.45,.04-.94,0-1.47,0-.04-.08-.45-.25-1.31,0-.16,.04-.41,.08-.69-.12-.2-.16-.41-.16-.69,.04-.98,.08-1.67,.08-2.04-.04-1.92-1.02-3.15-2.94-3.64-.74-.2-2.29-.29-4.7-.29l-2.04,.37c-1.39,.25-2.25,1.1-2.57,2.58-.12,.49-.08,.78,.12,.86,0,.04-.08,.04-.2,.04,0,2.04,.08,3.11,.29,3.23v.04h-.29Zm3.68-.66c.04-.57,.08-1.14,.08-1.72,.08-.69,.29-1.27,.57-1.72,.12-.2,.57-.45,1.31-.65,1.27,0,2.08,.29,2.45,.86,.12,.2,.25,.86,.29,1.88,.04,1.06,.04,2.08-.08,3.02l.08,.61c.04,.24-.12,.37-.57,.41-.29,.04-.98,.04-2,0-1.1-.04-1.72-.08-1.84-.16-.29-.12-.41-.98-.29-2.53Z" fill="#666"/>
        <path d="M126.44,86.76s.03-.06,.04-.09c-.02-.03-.03,0-.04,.09Z" fill="#666"/>
        <path d="M136.24,64.77s0,0,.01,0c0,0,0,0,0,0,0,0,0,0-.02,0Z" fill="#666"/>
        <path d="M135.59,75.48s.04,.61,.04,1.72l.08,3.39c0,1.27,.04,2.45,.08,3.64l.16,3.68c0-.08,0,.73,.04,2.45,0,.69,.04,1.63,.16,2.82,0,.29,.16,.61,.45,1.06,.49,.37,1.27,.53,2.33,.53,1.27,.04,2.08,0,2.45-.12,.08,0,.12,0,.12-.04,0,.04-.37-.24-1.1-.86-.08-.12-.2-.69-.41-1.67,.04-.82,0-1.35-.08-1.59v-1.06l-.25-3.19,.08-.78c0-1.88-.08-4.7-.29-8.42-.04-.94,0-1.51,.2-1.8,1.59,0,2.45-.08,2.62-.29,.2-.2,.25-.61,.2-1.23-.04-.45-.29-.69-.65-.73h-1.47c-.65,0-1.02-.12-1.06-.33v-1.76c0-.69-.12-2.53-.12-3.23,0-1.02-.04-1.55-.16-1.63,0-.04,.25-.24,.25-.29,.04-.37,.12-.9,.29-1.59-.15,0-.34,0-.56,.04-.08-.03-.22-.06-.46-.12-.04,.04-.08,.08-.08,.16,0,.04,.04,.12,.08,.16-.12,0-.16,0-.16,.04h-.16l-.57-.04c-.37,0-.61,.08-.73,.2h-.2s-.04-.08-.16-.08c-.08,.05-.18,.15-.27,.25,.24,.04,.44,.16,.56,.28h-.12v-.08c-.16,0-.32-.08-.44-.2-.14,.16-.29,.35-.46,.65l.08,.69c0,.12-.04,.37-.08,.74,0-.12,.04,.29,.08,1.14-.12,.45-.2,2-.29,4.66-.04,.16-.16,.29-.37,.37v.04c.08,0-.45-.04-1.63-.12-1.35-.12-1.68,0-1.55,.78v.94c.12,.25,.69,.41,1.76,.45,1.1,.04,1.68,.16,1.8,.37Zm2.94-8.17h-.16c0-.08-.04-.16-.08-.29,.04,.08,.12,.16,.24,.2v.08Zm.12-2.33v.08h-.08s-.04-.12-.04-.16l.12,.08Zm-.29-.29s.12,.08,.16,.16h-.24v-.08s-.12,0-.2-.04c.08,0,.16,0,.29-.04Zm-1.47,4.29h.16s-.04,.08-.16,.12v-.12Zm-.45-2.33s.12,.04,.24,.08c-.04,0-.12,0-.24,.04v-.12Zm-.12,.49v-.04c.08,0,.2,0,.37,.04v.04h-.37s-.04,.04-.08,0c0-.04,.04-.04,.08-.04Z" fill="#666"/>
        <path d="M54.66,103.98c0-1.72-.12-2.82-.31-3.37-.92-2.64-3.43-4.05-7.66-4.29l-1.9-.18c-.18,.06-.55,.06-1.16,.12-5.45-.18-8.21,1.72-8.4,5.7-.06,.68,0,1.66,.06,2.94,.06,1.29,.12,2.27,.12,2.94-.12,.31-.25,.8-.31,1.35l.18,1.04-.18,.74c.12,1.29,.12,2.94,.06,5.02l-.06,1.29c0,.49,.12,1.65,.06,2.08-.06,2.88-.06,7.54-.06,13.97-.06,1.53-.12,2.27-.12,2.27-.06,.92,.24,2.51,.8,4.78,.43,.98,1.47,2.08,3.13,3.31,1.16,.55,3.61,.98,7.29,1.16,1.78,.12,3.37-.06,4.84-.55l1.53-.55c1.17-.61,1.84-2.7,2.02-6.31,.09-1.46,.15-2.22,.17-2.31-.06-.39-.11-.79-.11-1.12,0-.18,.06-.68,.18-1.35-.06-1.16-.18-2.88-.43-5.21-.18-.18-1.47-.37-3.86-.49l-1.65,.55c-.12,.06-.18,.24-.18,.49v.37c.06,.55,.06,1.23,0,2.14v3.86c-.18,.24-.37,.61-.43,1.04,0,.18,.06,.55,.18,1.16l-.18,1.16c-.06,.86-.24,1.84-.55,3-.06,.12-.98,.43-2.63,.86-1.78-.06-2.88-.67-3.43-1.9-.18-.49-.31-1.47-.24-3l-.06-6.62c0-.12,.06-.61,.18-1.47l-.18-1.59,.18-2.27c.06-.18,.06-.67,0-1.41,.12-.98,.18-1.96,.24-2.88l-.18-2.64c-.25-6.56-.31-11.34-.18-14.4,.06-1.53,.24-2.45,.55-2.76,.73-.61,1.84-.92,3.31-.86,1.59,.06,2.51,.68,2.82,1.96v.98l.18,1.04c-.12,.68-.18,.92-.18,.86,.06,1.23,0,3.31-.12,6.25l-.12,2.51c.43,.49,1.9,.8,4.54,.86l1.65,.06c.37-.06,.61-.18,.73-.49l-.06-2.21,.18-.92c-.12-.37-.18-2.64-.24-6.74Z" fill="#666"/>
        <path d="M54.77,135.13s0,.07,.01,.1c0-.1,0-.13-.01-.1Z" fill="#666"/>
        <path d="M76.47,133.27c0-6.07-.24-11.46-.8-16.12-.12-1.35-.8-2.39-2.08-3.13-.55-.37-1.1-.55-1.65-.55v-.31c0-.06-.55-.18-1.65-.37l-1.96-.25-1.65,.18c-.8-.06-1.29-.06-1.47,0-.18,0-.55,0-1.1,.06-.86,0-1.9,.18-3.06,.55-2.27,.68-3.55,1.84-3.86,3.37v1.23c-.18,2.39,0,2.51,0,3.68,0,4.6,.24,10.66,.8,18.14,0,.24,.12,.92,.43,2.08,1.16,2.14,4.29,3.25,9.25,3.31,2.88,0,5.09-.43,6.74-1.35,1.16-.67,1.9-1.72,2.08-3.12,.06-.43,.06-2.21,0-5.33v-2.08Zm-6.37,6.62c-.31,1.1-1.23,1.66-2.76,1.66-2.02,.06-3.25-.68-3.68-2.08-.06-.24-.12-1.47-.12-3.68v-1.35c-.05-.86-.06-1.35-.06-1.42,0-.25,0-.64,.06-1.15,0-.55,0-.98-.06-1.29,0-.55-.24-2.14-.24-2.7,0-.18,.06-.61,.12-1.35-.06-.24-.12-.61-.12-1.1v-1.72c-.18-2.21-.25-3.86-.12-5.03-.06-.31,0-.8,.24-1.47,.12-.31,.92-.61,2.33-1.04,3.49,.06,3.92,.73,3.92,2.88,0,.68,0,1.29-.06,1.78v.49c0,.18,.12,2.64,.31,7.42l.31,8.46c0,1.53,0,2.39-.06,2.7Z" fill="#666"/>
        <path d="M78.78,144.7s-.04-.05-.04-.09c.02,.12,.03,.14,.04,.09Z" fill="#666"/>
        <path d="M84.81,96.2h-1.04c-.06,.06-.37,0-.98-.12-.92,0-2.02,.06-3.31,.24-.12,.12-.24,.61-.31,1.47,.06,.37,.12,1.29,.12,2.82,0,.18-.06,.8-.12,1.72,0,.18,.06,.55,.12,.98,0,.12-.06,.43-.12,.86l.12,1.72c-.06,.61-.12,1.47-.12,2.64l.12,5.21c0,.06-.06,.25-.12,.55v.73c.12,.98,.18,2.76,.12,5.27,0,.06-.06,.37-.12,.86v1.29c0-.37-.06,.18-.12,1.59v1.59c0,.18,.06,.92,.12,2.21-.06,.18-.12,.61-.12,1.29-.06,1.96-.06,4.05,0,6.25,0,.67-.06,1.65-.12,2.94-.06,1.41-.12,2.39-.12,3v1.35c0,1.22,0,1.91-.02,2.05,.13,.49,.78,.77,2.04,.83,2.39,.12,3.86,.06,4.29-.24,.18-.12,.31-1.78,.31-5.02v-1.59c0-.24-.12-.55-.43-.98v-.06c-.06,0-.12,0-.12-.06h.12l.37-.43c.06-1.53,.06-3.8,.06-6.92v-1.35c-.06-1.1-.06-1.53-.06-1.35l.06-10.91c0-.8,.24-2.88,.24-3.68v-.61c-.06-.31-.12-.55-.12-.68,.06-1.78,0-2.7-.18-2.82,.31,0,.43-.37,.43-1.17l.18-10.85c-.06-.49-.43-.67-1.16-.61Zm-4.11,7.97h-.24v-.06c-.12,0-.18-.06-.18-.18,.06,0,.12,0,.12-.06h.43c-.06,.06-.12,.18-.12,.31Zm.8-.61h-.37v-.06h.25l1.23-.37c0,.43-.37,.55-1.1,.43Z" fill="#666"/>
        <path d="M94.43,145.29c.18-.12,.31-1.78,.31-5.02v-1.59c0-.24-.12-.55-.43-.98v-.06c-.06,0-.12,0-.12-.06h.12l.37-.43c.06-1.53,.06-3.8,.06-6.92v-1.35c-.06-1.1-.06-1.53-.06-1.35l.06-10.91c0-.8,.24-2.88,.24-3.68v-.61c-.06-.31-.12-.55-.12-.68,.06-1.78,0-2.7-.18-2.82,.31,0,.43-.37,.43-1.17l.18-10.85c-.06-.49-.43-.67-1.16-.61h-1.04c-.06,.06-.37,0-.98-.12-.92,0-2.02,.06-3.31,.24-.12,.12-.24,.61-.31,1.47,.06,.37,.12,1.29,.12,2.82,0,.18-.06,.8-.12,1.72,0,.18,.06,.55,.12,.98,0,.12-.06,.43-.12,.86l.12,1.72c-.06,.61-.12,1.47-.12,2.64l.12,5.21c0,.06-.06,.25-.12,.55v.73c.12,.98,.18,2.76,.12,5.27,0,.06-.06,.37-.12,.86v1.29c0-.37-.06,.18-.12,1.59v1.59c0,.18,.06,.92,.12,2.21-.06,.18-.12,.61-.12,1.29-.06,1.96-.06,4.05,0,6.25,0,.67-.06,1.65-.12,2.94-.06,1.41-.12,2.39-.12,3v1.35c0,1.22,0,1.91-.02,2.05,.13,.49,.78,.77,2.04,.83,2.39,.12,3.86,.06,4.29-.24Zm-4.41-41.12h-.24v-.06c-.12,0-.18-.06-.18-.18,.06,0,.12,0,.12-.06h.43c-.06,.06-.12,.18-.12,.31Zm.8-.61h-.37v-.06h.25l1.23-.37c0,.43-.37,.55-1.1,.43Z" fill="#666"/>
        <path d="M88.1,144.7s-.04-.05-.04-.09c.02,.12,.03,.14,.04,.09Z" fill="#666"/>
        <path d="M97.5,122.98c0,5.33,.12,9.68,.43,13.05,.06,.31,.18,.86,.24,1.65,.12,1.72,.31,2.88,.55,3.43,.86,2.51,3.98,3.74,9.44,3.74,3.98,0,6.56-.8,7.66-2.45,.55-.86,.86-2.7,.86-5.45v-2.51c0-.37-.06-.86-.25-1.53-.18,0-.98-.06-2.39-.12-1.65-.06-2.53,.22-2.7,.84,.07,.14,.16,1.05,.25,2.77,.06,2.27-.12,3.68-.55,4.11-.12,.18-.86,.49-2.21,.92-3.25,0-4.84-.55-4.84-1.65v-1.17c0-.18-.12-2.33-.31-6.5-.06-1.35-.12-1.96-.12-1.9,.12-.43,.92-.68,2.39-.74,1.47-.06,3.74-.06,6.74,0,2.02,.06,3.13,0,3.31-.12,.25-.12,.37-.74,.37-1.84,.06-.68,.06-1.41,0-2.21,0-.06-.12-.68-.37-1.96,0-.24,.06-.61,.12-1.04-.18-.31-.25-.61-.25-1.04,.06-1.47,.12-2.51,.12-3.06-.06-2.88-1.53-4.72-4.41-5.45-1.1-.31-3.43-.43-7.05-.43l-3.06,.55c-2.08,.37-3.37,1.66-3.86,3.86-.18,.73-.12,1.16,.18,1.29,0,.06-.12,.06-.31,.06,0,3.06,.12,4.66,.43,4.84v.06h-.43Zm5.51-.98c.06-.86,.12-1.72,.12-2.57,.12-1.04,.43-1.9,.86-2.57,.18-.31,.86-.67,1.96-.98,1.9,0,3.13,.43,3.68,1.29,.18,.31,.37,1.29,.43,2.82,.06,1.59,.06,3.13-.12,4.54l.12,.92c.06,.37-.18,.55-.86,.61-.43,.06-1.47,.06-3,0-1.66-.06-2.57-.12-2.76-.24-.43-.18-.61-1.47-.43-3.8Z" fill="#666"/>
        <path d="M111.29,133.76c0-.05,.05-.09,.06-.14-.02-.05-.04,0-.06,.14Z" fill="#666"/>
        <path d="M130.1,144.92c.49,0,1.04-.06,1.65-.12,2.02-.31,3.49-.86,4.29-1.65l.68-.98,.55-1.23v-3.62c0-1.65-.12-3-.37-4.1-.31-.06-1.1-.12-2.51-.18-1.29-.06-1.96-.06-2.08,.12-.06,.12-.18,.55-.24,1.29-.06,1.1-.12,1.72-.12,1.78,.24,2.21,.18,3.62-.18,4.23-.18,.31-1.04,.68-2.57,1.1-2.33,0-3.74-.55-4.29-1.72-.37-.8-.61-2.45-.67-4.84-.06-1.53,0-3.74,.06-6.62,.12-2.88,.18-4.6,.18-5.15-.06-1.66-.06-2.94,0-3.92-.06-.55,.12-1.35,.55-2.39,.55-.43,1.35-.67,2.51-.86,2.27-.31,3.55,.61,3.86,2.88,0,1.47,.18,3.06,.49,4.78,.31,.18,.92,.31,1.96,.31,1.53,.06,2.39,.06,2.51,0,.37-.06,.61-.43,.67-1.1,0-.24-.06-.86-.12-1.84l-.06-1.29v-1.29c.06-.92-.06-1.96-.37-3.19-.31-.55-1.04-1.17-2.21-1.78-1.16-.61-2.27-.98-3.31-1.1-.37-.06-1.96-.06-4.72-.12l-1.53,.18c-3.55,.68-5.45,2.21-5.76,4.6v4.04c-.06,.31-.12,.49-.12,.68,.06,.37,.18,1.04,.24,1.96,0,2.14,.06,5.88,.18,11.34,0,.18,.06,2.08,.24,5.58,.92,3.19,4.41,4.6,10.6,4.23Zm3.62-8.09c0,.18-.06,.12-.18-.18l.18,.18Z" fill="#666"/>
        <path d="M138.99,114.21v1.41c.18,.37,1.04,.61,2.64,.68,1.65,.06,2.51,.24,2.7,.55,.06,.06,.06,.92,.06,2.57l.12,5.09c0,1.9,.06,3.68,.12,5.45l.24,5.52c0-.12,0,1.1,.06,3.68,0,1.04,.06,2.45,.25,4.23,0,.43,.24,.92,.67,1.59,.73,.55,1.9,.8,3.49,.8,1.9,.06,3.13,0,3.68-.18,.12,0,.18,0,.18-.06,0,.06-.55-.37-1.65-1.29-.12-.18-.31-1.04-.61-2.51,.06-1.23,0-2.02-.12-2.39v-1.59l-.37-4.78,.12-1.16c0-2.82-.12-7.05-.43-12.62-.06-1.41,0-2.27,.31-2.7,2.39,0,3.68-.12,3.92-.43,.31-.31,.37-.92,.31-1.84-.06-.67-.43-1.04-.98-1.1h-2.21c-.98,0-1.53-.18-1.59-.49v-2.64c0-1.04-.18-3.8-.18-4.84,0-1.53-.06-2.33-.24-2.45,0-.06,.37-.37,.37-.43,.06-.55,.18-1.35,.43-2.39-.22,0-.51,0-.83,.06-.11-.04-.33-.09-.7-.18-.06,.06-.12,.12-.12,.25,0,.06,.06,.18,.12,.24-.18,0-.24,0-.24,.06h-.24l-.86-.06c-.55,0-.92,.12-1.1,.31h-.31c0-.06-.06-.12-.25-.12-.13,.08-.27,.21-.42,.37,.36,.06,.66,.24,.84,.42h-.18v-.12c-.24,0-.48-.12-.66-.3-.21,.23-.43,.55-.68,.97l.12,1.04c0,.18-.06,.55-.12,1.1,0-.18,.06,.43,.12,1.72-.18,.67-.31,3-.43,6.99-.06,.24-.24,.43-.55,.55v.06c.12,0-.68-.06-2.45-.18-2.02-.18-2.51,0-2.33,1.16Zm9.74-9.62h-.24c0-.12-.06-.24-.12-.43,.06,.12,.18,.25,.37,.31v.12Zm.18-3.49v.12h-.12c-.06-.06-.06-.18-.06-.24l.18,.12Zm-.43-.43c.06,.06,.18,.12,.24,.25h-.37v-.12c-.06,0-.18,0-.31-.06,.12,0,.24,0,.43-.06Zm-2.21,6.44h.24c0,.06-.06,.12-.24,.18v-.18Zm-.67-3.49c.06,0,.18,.06,.37,.12-.06,0-.18,0-.37,.06v-.18Zm-.18,.73v-.06c.12,0,.31,0,.55,.06v.06h-.55c0,.06-.06,.06-.12,0,0-.06,.06-.06,.12-.06Z" fill="#666"/>
        <path d="M145.3,100.79s0,0,.01,0c0,0,0,0,0,0,0,0,0,0-.01,0Z" fill="#666"/>
        <path d="M162.4,104.23c-.99-.09-1.85-.13-2.66-.16-.34-.01-.7-.03-1.02-.03-.49,.18-.8,.43-.98,.86,0,0-.06,.37-.12,1.1-.06,.86,.06,1.35,.37,1.47,.86,.18,1.53,.24,2.08,.18,1.16,.06,1.9,0,2.08-.06,.2-.07,.34-.2,.46-.35,.22-.29,.33-.71,.33-1.3,0-.98-.18-1.53-.55-1.72Z" fill="#666"/>
        <path d="M162.83,115.07c0-.98-.06-1.59-.12-1.84-.31-.43-.73-.61-1.35-.61-.31,0-.61,.06-.98,.12-.8,0-1.41,0-1.78-.06-.18,0-.73,0-1.65,.06l-.18,.43v5.39l.12,4.35v.86c-.06,.55-.12,1.1-.12,1.59v2.51c0,.49,.18,1.53,.18,2.02,0,1.04,0,2.45-.06,4.17-.18,2.27-.24,3.68-.24,4.23,0,.18,.06,.49,.12,1.04l-.37,5.58c0,.31,.25,.49,.68,.61,.92,.18,2.21,.25,3.98,.18,.67-.06,1.1-.18,1.35-.43,.06-.06,.06-.8,.06-2.21v-3.49l.12-1.1c.06,.18,.12-.74,.12-2.76v-.67c-.06-.43-.12-.74-.12-.98v-1.65c0-.43,.06-1.17,.12-2.21,.06-.92,.12-1.66,.12-2.21-.06-1.66-.12-3.98-.12-6.99-.06-.8-.06-1.72,0-2.76l.12-3.19Zm-3.13,3.06v-.18h.24c0,.06-.06,.12-.24,.18Z" fill="#666"/>
        <path d="M177.73,143.84c.06,.72,.31,1.15,.67,1.33,.92,.37,2.7,.43,5.21,.18,.49-.06,.8-.31,.98-.68v-1.1c0,.12-.06-.61-.25-2.14v-1.16c.06-1.04,.12-1.47,.12-1.17v-3.98c0-.61-.06-1.41-.12-2.39v-6.07c-.06-1.17-.12-1.59-.12-1.29,0-.93,0-2.4-.03-4.42,0-.5-.02-1.01-.03-1.58,0-1.23-.25-2.76-.68-4.54-.67-1.16-2.39-1.9-5.21-2.21-.02,0-.04,0-.06,0-1.14-.11-2.1-.06-2.89,.12-.63,0-1.63,.15-2.47,.28-.56,.08-1.06,.15-1.33,.15-.18-.18-.61-.37-1.16-.61l-4.96-.18c-.06,0-.18,0-.37,.06v9.5c.06,.31,.18,.86,.24,1.53-.06,.31-.12,.73-.12,1.41v1.47c0,.68,.06,2.76,.12,6.19l.12,5.39v5.39c0,1.23-.06,1.78-.12,1.72,.12,.18,.55,.31,1.23,.37,2.94,.12,4.6,0,5.03-.37,.24-.18,.31-.55,.24-1.17l-.12-1.23v-13.85c0-.61-.06-1.53-.12-2.7-.06-1.23-.06-2.14-.06-2.76,0-.31,0-1.53,.06-3.68,0-.61,.12-1.41,.37-2.33,.7-.95,1.7-1.42,2.97-1.44,.29,0,.57-.01,.89,.03,1.23,.18,1.9,.8,1.96,1.84v2.51c0-.18,.06,.55,.24,2.21,.06,.55,.06,1.53,0,2.94-.18,4.1-.18,8.88-.12,14.34v1.72c-.05,1.54-.11,2.29-.12,2.35Z" fill="#666"/>
        <path d="M187.59,116.18c-.37,2.55-.52,5.09-.53,7.64,0,.39-.03,.79-.02,1.18l.23,4.89,.26,5.46c0,.86,.06,2.45,.18,4.72l-.12,1.04c.18,.8,.49,1.47,.92,2.02,.49,.37,.98,.92,1.53,1.59l-1.35,1.35c-.73,.73-1.1,1.29-1.16,1.65-.45,1.66-.21,3.06,.66,4.23,.19,.25,.37,.51,.62,.74l1.78,1.35c.18,.18-.12,.55-.8,.98-.86,.55-1.35,.92-1.41,.98-.55,.8-.86,1.53-.8,2.27,0,.41,.14,.69,.44,.88,.1,.06,.22,.12,.36,.16,0,1.53,1.96,2.33,5.94,2.39h4.84c.37,0,1.41,0,3.13-.06,2.02-.06,3.19-.06,3.49-.12,2.42-.27,4.04-1.07,4.9-2.41,.51-.8,.76-1.79,.73-2.99,0-.46-.21-1.03-.56-1.67-.07-.12-.1-.22-.18-.35l-1.04-1.04c-1.53-1.04-5.02-1.59-10.54-1.59-1.78,0-3.19-.18-4.1-.49-.09-.03-.16-.08-.25-.12-1.3-.55-2.02-1.31-2.08-2.4-.06-1.53,1.65-2.51,5.21-2.94,.65-.09,1.25-.18,1.81-.27,2.99-.5,4.77-1.09,5.23-1.81,.8-1.1,1.23-3.55,1.23-7.35,0-1.47-.06-3.68-.12-6.62-.06-3-.12-5.21-.12-6.68v-3.06c0-.92,.06-1.53,.24-1.84,.37-.73,1.04-1.29,1.96-1.65,.43-.06,.98-.31,1.53-.61,.25-.18,.37-.67,.37-1.47,0-1.47-.06-1.65-2.45-1.65-3.31,.74-5.02,1.1-5.09,1.1-.74-.25-1.78-.55-3.06-.86-.18-.06-.92-.06-2.21-.06h-1.53l-.98,.12c-.98,0-1.59,.06-1.9,.18-2.76,0-4.47,1.04-5.21,3.19Zm3.55,19.92h-.12s-.12-.12-.31-.37l.43,.37Zm-.55,16.55c0-.06-.06-.06-.12-.12,.06,0,.12,0,.12-.06l.24,.18h-.24Zm8.03,6.56c-.76,0-1.42-.03-2.04-.08-2.54-.19-3.94-.79-4.09-1.82,.18-.31,.31-.8,.31-1.35h.12c.49-.18,1.35-.49,2.64-.8,2.39-.18,3.49-.12,4.96-.31,3,0,4.41,.73,4.17,2.14-.12,.68-.43,1.1-.98,1.41l-1.41,.43c-1.76,0-2.42,.17-3.02,.28-.21,.04-.42,.07-.66,.09Zm-5.82-41.18c.18-.61,.92-1.17,2.21-1.59,1.78,0,2.88,.18,3.37,.49s.73,1.35,.8,3.25l.49,6.74c-.18,1.84-.18,3.25-.12,4.17,0,.31,.06,.8,.12,1.53h.06v.06l-.18,.73c.06-.06,.12,1.04,.12,3.37,0-.1-.04,.31-.08,1.17-.01,.25-.03,.52-.04,.85,.12,1.16,0,1.96-.37,2.27-.18,.12-.86,.37-1.96,.8-.97,0-1.71-.05-2.19-.17-.09-.02-.19-.05-.26-.08-.86-.37-1.35-1.1-1.41-2.27v-2.64c-.04-.7-.07-1.34-.1-1.94-.13-2.58-.21-4.33-.21-5.23v-2.76c-.18-2.39-.24-4.6-.24-6.56v-2.21Z" fill="#666"/>
        <path d="M104.81,184.49c-.04-.07-.07-.17-.09-.28,.06-.2,.11-.41,.13-.64,.02-.2,.04-.41,.04-.64s-.01-.45-.04-.67c-.03-.22-.07-.45-.13-.67l.09-5.39-.09-2.88c0-.37,0-.64,.02-.79,0-.07,.01-.11,.03-.12-.05-.11-.1-.21-.21-.27-.16-.07-.37-.12-.64-.13-.19-.04-.36-.05-.51-.04-.16,.02-.3,.05-.41,.07-.22,0-.52,0-.88-.02-.36,0-.8,0-1.31-.02-.49-.04-.92-.06-1.31-.06-.36,0-.68,.02-.95,.06-.12-.04-.28-.06-.47-.06-.2,0-.43,.02-.69,.06v-.11c-.12,0-.21,.11-.26,.34-.06,.22-.09,.55-.09,.97,0,.3,.01,.54,.04,.73,.02,.16,.06,.27,.11,.32,.06,.1,.24,.16,.52,.19,.27,.02,.65,.03,1.14,.02,.41-.02,.73-.02,.95,0,.24,.01,.37,.05,.41,.11,.06,.06,.11,.17,.13,.34,.02,.15,.04,.35,.04,.6,0-.1-.02-.06-.04,.11-.01,.2-.02,.56-.04,1.08v1.14c.01,.14,.04,.34,.07,.6,.02,.26,.05,.59,.07,.97v1.29c0,.1,0,.21-.02,.34-.02,.12-.04,.27-.06,.43v.52c0,.45-.02,.82-.06,1.1-.05,.3-.1,.52-.15,.67-.19,.3-.46,.54-.82,.71-.36,.19-.82,.3-1.37,.34-.86,.06-1.57,.02-2.13-.13-.56-.12-.97-.34-1.22-.64-.16-.22-.29-.56-.39-1.01-.07-.44-.11-.98-.11-1.65,0-.98-.01-1.7-.04-2.15-.01-.45-.02-.62-.04-.51,0-.21,0-.64,.02-1.29,.01-.62,.03-1.48,.06-2.56,.01-.1,.03-.22,.06-.36,.01-.14,.02-.3,.02-.49v-4.08c0-.19-.02-.44-.06-.77-.02-.31-.06-.64-.09-.97-.02-.32-.04-.58-.04-.77v-.15c0-.21,.01-.57,.04-1.08v-1.29c0-.07,0-.16-.02-.24,0-.1,0-.22-.02-.37v-.65c0-.24,.01-.69,.04-1.35,.04-1.58,.12-2.71,.24-3.39,.02-.19,.07-.41,.13-.65,.07-.25,.17-.54,.3-.88,.17-.3,.51-.51,.99-.64,.49-.15,1.12-.21,1.89-.19,.6,.01,1.08,.09,1.46,.24,.39,.15,.67,.37,.86,.65,.09,.11,.16,.38,.22,.8,.07,.44,.15,1.02,.22,1.74,.05,.5,.09,1,.13,1.5,.03,.51,.04,1,.06,1.46,0,.19,0,.46,.02,.8,.02,.34,.04,.75,.06,1.23-.01,.14-.02,.3-.02,.49,.01,.19,.05,.4,.11,.64,.06,.06,.24,.11,.54,.13,.3,.02,.72,.04,1.27,.06,.51,.04,.93,.04,1.25,.02,.34-.01,.58-.03,.73-.06,.05-.01,.1-.04,.15-.07s.09-.09,.13-.15v-.73c-.04-1.47-.07-2.63-.09-3.48-.04-.84-.06-1.35-.07-1.53-.14-1.13-.37-2.09-.69-2.88-.31-.8-.71-1.39-1.2-1.78l-.56-.45c-.85-.35-1.64-.58-2.38-.69-.72-.11-1.38-.1-1.98,.04-.06,0-.17,0-.34,0-.15,0-.33-.01-.54-.04-.07,.02-.19,.04-.34,.04-.16,.01-.36,.02-.6,.04-1.27,0-2.33,.21-3.16,.62-.86,.39-1.5,.97-1.91,1.76-.19,.39-.33,.94-.43,1.66-.1,.7-.15,1.56-.15,2.58l-.02,.15c-.01,.17-.03,.48-.06,.92v1.59c.02,.14,.04,.26,.06,.37,.01,.1,.02,.19,.02,.28,0,.06-.01,.19-.04,.39-.01,.17-.05,.42-.11,.75l.07,1.03v.9c-.01,.4-.03,.68-.06,.84-.01,.14-.02,.18-.02,.11v1.12c.02,.36,.04,.67,.06,.94,.01,.27,.02,.5,.02,.69v2.79c0,2.46,.04,4.43,.11,5.93v1.61c.02,.12,.06,.27,.11,.45,.06,.19,.14,.4,.22,.64,.09,.87,.34,1.6,.75,2.17,.41,.57,.98,1,1.72,1.29,.45,.19,1.08,.34,1.91,.45,.81,.09,1.81,.13,2.99,.13l3.42-.11c.22,.01,.46,.03,.71,.06,.25,.01,.52,.02,.82,.02h.71c.24-.01,.49-.02,.75-.04,.17-.07,.29-.27,.36-.6,.06-.34,.06-.8,0-1.38-.02-.06-.05-.13-.07-.21Zm-1.08-21.81s-.04,.04,0,.11h-.09s-.01-.04-.04-.07c-.01-.04-.02-.08-.04-.13l.17,.09Zm-3.76-6.68s.02-.03,.04-.06h.09s-.01,.04-.04,.06c-.02,.02-.07,.04-.13,.06,0-.01,.01-.03,.04-.06Zm-8.29,6.23s-.06,0-.07-.02c-.01,0-.02-.01-.02-.04,0-.01,0-.04,.02-.07,.01-.02,.04-.05,.07-.07v.21Zm.24,15.32v-.22s.06,.04,.09,.07,.07,.09,.09,.15h-.19Z" fill="#666"/>
        <path d="M156.27,178.56c-.06-.01-.22-.02-.49-.04-.26-.01-.62-.03-1.08-.06-.59-.01-1.03,.03-1.35,.13-.25,.09-.4,.23-.45,.41,.01-.02,.03,.07,.06,.26,.04,.29,.08,.81,.13,1.57,.02,.75,0,1.35-.07,1.81-.06,.46-.16,.75-.28,.88-.1,.14-.59,.34-1.46,.62-1.08,0-1.89-.09-2.41-.28-.52-.16-.79-.43-.79-.8v-.77c0-.06-.02-.45-.06-1.16-.04-.71-.09-1.75-.15-3.1-.01-.45-.02-.78-.04-.99l-.06-.28c.09-.27,.62-.43,1.59-.47,.49-.02,1.1-.04,1.83-.04s1.61,.01,2.58,.04c.67,.01,1.2,.01,1.57,0,.35-.01,.55-.04,.62-.07,.16-.09,.24-.49,.24-1.22,.04-.44,.04-.92,0-1.44,0-.03-.02-.14-.06-.36s-.1-.53-.19-.95c0-.07,0-.17,.02-.3,.01-.11,.04-.24,.07-.39-.07-.09-.12-.19-.13-.3-.02-.11-.04-.24-.04-.37,.01-.49,.03-.9,.06-1.25,.01-.32,.02-.58,.02-.77-.02-.96-.28-1.73-.77-2.32-.47-.6-1.18-1.02-2.13-1.27-.36-.1-.93-.17-1.7-.22-.77-.04-1.75-.06-2.94-.06l-2,.37c-1.37,.24-2.22,1.08-2.54,2.54-.11,.46-.07,.74,.11,.84,0,.01-.02,.02-.06,.02-.02,.01-.07,.02-.13,.02,0,1,.02,1.76,.06,2.3,.05,.52,.12,.82,.22,.88v.06h-.28c0,1.75,.02,3.33,.06,4.75,.05,1.43,.12,2.71,.22,3.82,.02,.11,.05,.26,.07,.43,.04,.17,.07,.39,.09,.65,.04,.57,.08,1.05,.13,1.42,.07,.39,.15,.67,.22,.84,.27,.84,.93,1.45,1.96,1.85,1.02,.41,2.44,.62,4.25,.62,1.31,0,2.38-.13,3.22-.39,.86-.27,1.47-.68,1.81-1.22,.19-.29,.33-.73,.43-1.33s.15-1.35,.15-2.26v-1.65c0-.12-.02-.27-.06-.43-.02-.17-.06-.37-.11-.58Zm-8.86-5.4c-.05-.42-.04-1.02,.04-1.78,.01-.29,.03-.57,.06-.84,.01-.3,.02-.59,.02-.86,.04-.34,.1-.65,.19-.94,.11-.27,.24-.52,.37-.75,.05-.11,.19-.22,.41-.34,.21-.11,.51-.22,.88-.32,1.25,0,2.05,.28,2.41,.84,.06,.11,.12,.32,.19,.64,.04,.31,.07,.72,.09,1.22,.02,.52,.03,1.03,.02,1.53,0,.5-.03,.98-.09,1.46l.07,.62c.02,.11,0,.21-.09,.28-.1,.06-.26,.1-.47,.11-.14,.03-.38,.04-.73,.04-.32,0-.74-.01-1.25-.04-.54-.01-.95-.03-1.25-.06s-.49-.06-.56-.09c-.14-.07-.24-.32-.3-.73Z" fill="#666"/>
        <path d="M119.05,185.24l-.3-.47c-.11-.8-.19-1.4-.22-1.81-.06-.42-.07-.65-.04-.69v-.39c.01-.16,.02-.36,.04-.58-.05-.21-.09-.41-.11-.6-.01-.19-.02-.37-.02-.56v-1.44c-.02-.07-.05-.17-.07-.3-.04-.12-.06-.28-.07-.47,.01-.14,.03-.29,.06-.47,.01-.19,.02-.37,.02-.56l-.19-4.75c.01-.14,.02-.31,.02-.51,.01-.21,.02-.47,.02-.79,0-.02,0-.16-.02-.39,0-.25,0-.6-.02-1.05,0-.16-.04-.34-.11-.52-.05-.19-.12-.37-.22-.56,.02-.02,.06-.04,.11-.04h.22c-.19-.31-.34-.56-.45-.75-.09-.2-.14-.33-.17-.39-.16-.21-.34-.41-.52-.58-.2-.16-.41-.29-.64-.39,.01,0,.04,0,.07-.02,.02-.01,.05-.03,.07-.06l-1.23-.47c-.15-.06-.32-.12-.52-.17-.21-.05-.47-.11-.79-.17-.17-.01-.44-.04-.8-.07-.36-.01-.82-.02-1.37-.02h-.71c-.71,.11-1.27,.2-1.66,.26-.37,.07-.6,.13-.67,.17-.37,.09-.7,.2-.97,.34-.29,.15-.54,.32-.77,.51-.11,.07-.21,.17-.28,.3-.07,.11-.14,.24-.21,.37-.09,.14-.12,.26-.11,.37,0,.1,.05,.17,.15,.22l-.28,.58s-.03,.17-.06,.41c-.01,.25-.02,.59-.02,1.03v.64c-.01,.3-.02,.69-.04,1.18,0,.16,.04,.28,.11,.36v.13s-.03,.04-.06,.06c-.01,.02-.02,.06-.02,.09,0,.19,.15,.31,.45,.37,.3,.07,.75,.1,1.37,.07,.51-.04,.87-.07,1.07-.11,.22-.04,.37-.12,.43-.26,.05-.12,.09-.34,.11-.65l.5-3.4c.11-.17,.26-.32,.43-.45,.19-.11,.42-.19,.71-.22,.26-.05,.51-.06,.75-.04,.24,.01,.46,.05,.67,.11,.42,.15,.75,.32,.99,.5,.25,.17,.4,.36,.45,.54,0,.1,0,.22,.02,.37,0,.12,0,.28,.02,.47,.06,.3,.07,.64,.02,1.01-.05,.37-.15,.79-.3,1.25-.02,.16-.06,.32-.11,.47-.05,.17-.1,.34-.15,.5l-1.31,1.16-2.69,1.38-.65,.54-1.16,.73-.52,.43,.09,.19c-.4,0-.69,.31-.88,.94-.2,.62-.31,1.55-.34,2.77v2.02c.02,.5,.12,.95,.3,1.35,.19,.41,.46,.78,.82,1.1,.47,.4,1.03,.69,1.66,.88,.65,.16,1.38,.22,2.21,.17l2.3-.3c.34-.04,.59-.07,.77-.09l.28-.06,.73,.15c1.28,.34,2.37,.42,3.25,.26,.22-.04,.41-.11,.54-.22,.11-.09,.19-.21,.22-.36,0-.06-.02-.14-.07-.22-.04-.1-.08-.21-.13-.34Zm-9.71-3.85v-.13h.11s-.04,.08-.11,.13Zm5.29,.94c-.05,.71-.12,1.18-.21,1.4-.02,.01-.14,.06-.36,.15-.22,.1-.53,.22-.92,.36h-.84c-.22,0-.4-.01-.52-.04-.47-.02-.88-.14-1.22-.36-.32-.21-.58-.51-.77-.88l-.04-1.57c-.02-.5-.04-.9-.04-1.2s.01-.47,.04-.52c.04-.1,.08-.21,.13-.34,.04-.11,.06-.24,.07-.39,.1-.42,.26-.79,.49-1.08,.24-.29,.55-.52,.94-.69,.76-.35,1.68-.87,2.77-1.55,.15,.07,.27,.44,.36,1.08,.09,.65,.14,1.59,.17,2.82,0,1.17-.02,2.11-.06,2.81Z" fill="#666"/>
        <path d="M142.39,181.68c-.06-.82-.12-1.99-.19-3.5-.06-1.5-.15-3.34-.26-5.52l-.26-3.8c0-.12-.03-.31-.07-.56-.04-.25-.09-.56-.17-.94-.45-1.03-1.82-1.68-4.11-1.93-.24-.01-.46-.02-.67-.04-.21-.01-.41-.01-.58,0-.35,.02-.73,.07-1.14,.15-.42,.07-.89,.17-1.4,.3-.11,.01-.32,.07-.62,.19-.3,.1-.55,.16-.75,.17l-2.75-.8c-.59-.05-1.19-.06-1.81-.02-.62,.04-1.25,.12-1.89,.26-.22,.04-.44,.08-.64,.13-.21,.04-.41,.09-.6,.15-.11,0-.2-.02-.26-.06s-.13-.1-.21-.19c-.04-.17-.1-.28-.19-.32-.07-.04-.37-.06-.88-.07-.05,0-.11,0-.17,.02s-.14,.03-.24,.06h-1.91l-.15,.37v1.12c-.01,.06-.03,.1-.06,.11-.01,.01-.02,0-.02-.02l.51,13.84c-.02,.16-.04,.34-.06,.54s-.02,.41-.02,.62c.02,.29,.05,.69,.07,1.22,.02,.51,.05,1.14,.07,1.89-.02,.09-.04,.18-.06,.28-.01,.11-.02,.22-.02,.34,0,.1,0,.22,.02,.36s.03,.27,.06,.41c.12,.16,.49,.24,1.08,.24,.77,.01,1.38,.01,1.81,0,.45,0,.72-.01,.8-.04,.22-.07,.37-.2,.43-.37,.07-.19,.07-.45-.02-.79l-.19-8c0-.12-.01-.5-.04-1.14-.02-.62-.07-1.49-.15-2.6-.06-2.29-.09-3.54-.09-3.74,0-.36,.02-.66,.06-.9,.05-.25,.12-.44,.22-.56,.26-.34,.58-.58,.95-.73,.39-.14,.82-.17,1.31-.11,.34,.04,.62,.11,.84,.22,.22,.1,.39,.24,.51,.43,.07,.09,.14,.26,.19,.51,.05,.24,.09,.55,.11,.94,.09,.75,.15,1.62,.19,2.62,.04,1.01,.07,2.13,.09,3.35l.24,7.33c0,.36,0,.83,.02,1.4,.02,.56,.04,1.23,.06,2.02,.11,.1,.31,.17,.6,.21,.3,.04,.67,.06,1.12,.06,.3,0,.62,0,.95-.02,.35-.01,.74-.03,1.16-.06l.73-.19s.08-.12,.09-.28c.01-.17,0-.41-.02-.71-.02-.97-.06-2.33-.11-4.06-.06-1.75-.15-3.87-.26-6.38-.05-.4-.1-.94-.15-1.63-.04-.67-.08-1.5-.13-2.49-.02-.56-.03-1.03-.02-1.4,0-.35,.02-.6,.07-.75,.11-.4,.36-.7,.75-.9,.37-.21,.88-.32,1.51-.34,.45,0,.82,.07,1.12,.22,.29,.16,.49,.41,.6,.73l.17,1.66c.14,1.35,.25,2.84,.34,4.47,.07,1.62,.11,3.38,.11,5.27,0,.25,.02,.58,.06,.99,.04,.44,.06,.78,.06,1.03,0,.19,0,.57,.02,1.14,.02,.6,.04,1.39,.06,2.38-.01,.11-.02,.25-.02,.41,.01,.15,.05,.32,.11,.5,.06,.01,.24,.04,.54,.07,.3,.02,.72,.05,1.25,.07,.74,.05,1.27,.07,1.59,.06,.31-.02,.51-.07,.6-.13,.09-.05,.14-.12,.17-.22,0-.94,0-1.78-.02-2.54s-.04-1.44-.07-2.04Zm-21.1-4.68s-.05,.03-.11,.06v-.11h.15s-.01,.03-.04,.06Zm9.58-8.53s-.06-.04-.09-.07l.21,.11s-.07-.01-.11-.04Zm.92,14.12s-.05-.07-.07-.15l.13,.19s-.03-.02-.06-.04Z" fill="#666"/>
      </g>
    </g>
  </g>
</svg>