<?xml version="1.0" encoding="UTF-8"?>
<svg id="Layer_2" data-name="Layer 2" xmlns="http://www.w3.org/2000/svg" width="294" height="269" xmlns:xlink="http://www.w3.org/1999/xlink" viewBox="0 0 294 269">
  <defs>
    <filter id="drop-shadow-1" filterUnits="userSpaceOnUse">
      <feOffset dx="7" dy="7"/>
      <feGaussianBlur result="blur" stdDeviation="9"/>
      <feFlood flood-color="#000" flood-opacity=".5"/>
      <feComposite in2="blur" operator="in"/>
      <feComposite in="SourceGraphic"/>
    </filter>
  </defs>
  <g id="Capa_1" data-name="Capa 1">
    <g>
      <rect x="20" y="20" width="240" height="215" rx="39.51" ry="39.51" fill="#fff" filter="url(#drop-shadow-1)"/>
      <g>
        <g>
          <g>
            <path d="M60.7,166.95c-.45,.37-2.16,.52-5.21,.45-2.01,0-3.28-.07-3.72-.22-.45-.15-.75-.67-.82-1.64,0-.97,.22-3.42,.22-4.24,0-.07,0-.37-.07-.89,.07-.67,.07-1.12,.07-1.41,0-.89,0-1.56-.07-2.01,.07-.52,.07-.82,.07-.97-.07-1.12-.07-1.79-.07-2.01v-16.52c0,.52,0-.22,.07-2.16v-2.9c-.07-.3-.07-.52-.07-.67,0-1.04,0-2.23,.07-3.57v-2.53c0-.22-.07-2.23-.3-5.96-.15-3.72-.22-6.92-.22-9.6v-1.49c.07-.22,.22-.45,.3-.52,.67-.07,1.19-.15,1.56-.15v-.15c3.42,.15,6.1,.22,8.04,.22,.07,.22,.15,.67,.15,1.27v10.72c-.15,4.69-.22,11.54-.22,20.54,0,1.12,0,2.75,.07,4.91,.07,1.56,.07,3.2,0,4.84,0,.97,.07,2.31,.15,4.02,.22,1.86,.3,3.2,.3,4.02,0-.15,0,0,0,.37-.07,.45-.15,1.04-.15,1.86,0-.22,.07,.45,.15,2.01v2.01c0,1.41-.07,2.23-.3,2.38Zm-.67-18.24c-.15-.22-.45-.37-.82-.45,0,.3,.3,.45,.82,.45Z" fill="#666"/>
            <path d="M87.5,167.02c-.07,.07-.22,.07-.3,.07-2.31,.22-3.87,.15-4.69-.07-.37-.07-1.04-1.19-1.71-1.19-3.35,.82-5.81,1.27-7.37,1.27-4.46,0-7.37-1.27-8.71-3.8-.37-.67-.6-1.86-.6-3.5l-.67-10.12c.07,.22,.15-.82,.15-3.2,0-1.42-.07-3.05-.22-4.84-.07-.67-.07-1.49,0-2.31,.07-1.12,.07-1.86,.07-2.31,0-2.75,.22-4.62,.6-5.58,.52-1.49,1.71-2.53,3.72-3.13,.45-.07,.75-.15,.82-.15q0,.07,0,0c1.57-.37,4.24-.45,8.04-.22,.82,.07,1.34,.07,1.71,.15,.45,0,.75-.07,.82-.15,.07-.45,.15-.75,.15-.97,.07-1.19,.15-2.38,.15-3.65-.07-4.54-.15-6.7-.15-6.62l.22-2.9c-.07-.97-.07-2.75,0-5.21l.45-.3c.22-.15,.82-.22,1.71-.22,2.68-.07,4.02-.07,4.02-.07,.67,.22,.97,.6,.97,1.04,0,.07-.07,.15-.15,.15-.07,.15-.22,.22-.3,.22,.07,.07,.15,.07,.15,0,.07,.07,.07,.6,0,1.41-.07,1.04-.15,1.86-.15,2.46l.15,5.51v2.01c-.07,1.79-.15,2.46-.15,2.01,0,6.78,.07,11.69,.3,14.89l-.15,5.21v2.16c0,.45,.07,.97,.15,1.49v.74q0-.3,0,.07c-.07,.37-.15,.97-.15,1.79,0,.52,.07,2.08,.15,4.61,.22,4.09,.3,7,.3,8.71,.22,1.04,.45,1.79,.67,2.31l.67,1.27c.15,.52-.07,.89-.67,.97Zm-8.71-7c-.07-2.08-.15-3.42-.15-4.02l-.3-6.63c0-.67,.3-2.31,.3-2.9,0-5.28-.15-8.93-.52-10.94-.45-2.31-1.86-3.5-4.17-3.65-1.86,.82-2.98,1.49-3.2,2.01-.22,.37-.3,1.27-.3,2.83v5.28c0,.89,.15,1.71,.37,2.38,.07,.82,.07,3.42,0,7.74-.07,3.2,.15,5.73,.6,7.74,.45,1.94,1.71,2.9,3.87,2.9,1.86-.37,2.98-.82,3.35-1.41,.07-.67,.15-1.12,.15-1.34Z" fill="#666"/>
            <path d="M113.33,163.97c-1.34,2.01-4.47,2.98-9.31,2.98-6.62,0-10.42-1.49-11.46-4.54-.3-.67-.52-2.08-.67-4.17-.07-.97-.22-1.64-.3-2.01-.37-4.09-.52-9.38-.52-15.85h.52v-.07c-.37-.22-.52-2.16-.52-5.88,.22,0,.37,0,.37-.07-.37-.15-.45-.67-.22-1.56,.6-2.68,2.16-4.24,4.69-4.69l3.72-.67c4.39,0,7.22,.15,8.56,.52,3.5,.89,5.28,3.13,5.36,6.62,0,.67-.07,1.94-.15,3.72,0,.52,.07,.89,.3,1.27-.07,.52-.15,.97-.15,1.26,.3,1.56,.45,2.31,.45,2.38,.07,.97,.07,1.86,0,2.68,0,1.34-.15,2.08-.45,2.23-.22,.15-1.56,.22-4.02,.15-3.65-.07-6.4-.07-8.19,0-1.79,.07-2.75,.37-2.9,.89,0-.07,.07,.67,.15,2.31,.22,5.06,.37,7.67,.37,7.89v1.42c0,1.34,1.93,2.01,5.88,2.01,1.64-.52,2.53-.89,2.68-1.12,.52-.52,.74-2.23,.67-4.99-.15-2.83-.3-3.87-.37-3.2,.07-.89,1.19-1.26,3.35-1.19,1.71,.07,2.68,.15,2.9,.15,.22,.82,.3,1.42,.3,1.86v3.05c0,3.35-.37,5.58-1.04,6.63Zm-15.41-27.91c0,1.04-.07,2.08-.15,3.13-.22,2.83,0,4.39,.52,4.62,.22,.15,1.34,.22,3.35,.3,1.86,.07,3.13,.07,3.65,0,.82-.07,1.12-.3,1.04-.74l-.15-1.12c.22-1.71,.22-3.57,.15-5.51-.07-1.86-.3-3.05-.52-3.42-.67-1.04-2.16-1.56-4.47-1.56-1.34,.37-2.16,.82-2.38,1.19-.52,.82-.89,1.86-1.04,3.13Z" fill="#666"/>
            <path d="M140.8,166.72c-.22,.45-.6,.75-1.19,.82-3.05,.3-5.21,.22-6.33-.22-.45-.22-.74-.74-.82-1.64,0,.22,.07-.67,.15-2.83v-2.08c-.07-6.63-.07-12.43,.15-17.42,.07-1.71,.07-2.9,0-3.57-.22-2.01-.3-2.9-.3-2.68v-3.05c-.07-1.26-.89-2.01-2.38-2.23-2.08-.3-3.65,.3-4.69,1.71-.3,1.12-.45,2.08-.45,2.83-.07,2.61-.07,4.09-.07,4.46,0,.75,0,1.86,.07,3.35,.07,1.41,.15,2.53,.15,3.28v16.82l.15,1.49c.07,.75,0,1.19-.3,1.42-.52,.45-2.53,.59-6.1,.45-.82-.07-1.34-.22-1.49-.45,.07,.07,.15-.6,.15-2.08v-6.55l-.15-6.55c-.07-4.17-.15-6.7-.15-7.52v-1.79c0-.82,.07-1.34,.15-1.71-.07-.82-.22-1.49-.3-1.86v-11.54c.22-.07,.37-.07,.45-.07l6.03,.22c.67,.3,1.19,.52,1.41,.75,.82,0,3.35-.52,4.61-.52,.97-.22,2.16-.3,3.57-.15,3.42,.37,5.51,1.27,6.33,2.68,.52,2.16,.82,4.02,.82,5.51,.07,3.5,.07,5.88,.07,7.29,0-.37,.07,.15,.15,1.56v7.37c.07,1.19,.15,2.16,.15,2.9v4.84c0-.37-.07,.15-.15,1.42v1.41c.22,1.86,.3,2.75,.3,2.61v1.34Zm-19.58-7.74l-.3-.3c.07,.15,.22,.22,.3,.3Z" fill="#666"/>
            <path d="M161.64,131.97c-.3,.37-1.86,.52-4.76,.52-.37,.52-.45,1.56-.37,3.28,.37,6.77,.52,11.91,.52,15.33l-.15,1.41,.45,5.81v1.94c.15,.45,.22,1.41,.15,2.9,.37,1.79,.6,2.83,.75,3.05,1.34,1.12,2.01,1.64,2.01,1.56,0,.07-.07,.07-.22,.07-.67,.22-2.16,.3-4.47,.22-1.93,0-3.35-.3-4.24-.97-.52-.82-.82-1.42-.82-1.94-.22-2.16-.3-3.87-.3-5.14-.07-3.13-.07-4.61-.07-4.46l-.3-6.7c-.07-2.16-.15-4.32-.15-6.62l-.15-6.18c0-2.01,0-3.05-.07-3.13-.22-.37-1.27-.6-3.28-.67-1.94-.07-2.98-.37-3.2-.82v-1.71c-.22-1.41,.37-1.64,2.83-1.41,2.16,.15,3.13,.22,2.98,.22v-.07c.37-.15,.6-.37,.67-.67,.15-4.84,.3-7.67,.52-8.49-.07-1.56-.15-2.31-.15-2.08,.07-.67,.15-1.12,.15-1.34l-.15-1.26c.52-.89,.97-1.41,1.34-1.64,.22,0,.3,.07,.3,.15h.37c.22-.22,.67-.37,1.34-.37l1.04,.07h.3c0-.07,.07-.07,.3-.07-.07-.07-.15-.22-.15-.3,0-.15,.07-.22,.15-.3,.97,.22,1.19,.3,.75,.3v-.07c.45-.07,.82-.07,1.12-.07-.3,1.27-.45,2.23-.52,2.9,0,.07-.45,.45-.45,.52,.22,.15,.3,1.12,.3,2.98,0,1.27,.22,4.61,.22,5.88v3.2c.07,.37,.74,.6,1.93,.6h2.68c.67,.07,1.12,.52,1.19,1.34,.07,1.12,0,1.86-.37,2.23Zm-9.97-18.01c-.22-.22-.6-.45-1.04-.52,.22,.22,.52,.37,.82,.37v.15h.22Zm-.22,3.8c-.3-.07-.52-.07-.67-.07v.07c-.07,0-.15,0-.15,.07,.07,.07,.15,.07,.15,0h.67v-.07Zm0-.75c-.22-.07-.37-.15-.45-.15v.22c.22-.07,.37-.07,.45-.07Zm.67,4.1h-.3v.22c.22-.07,.3-.15,.3-.22Zm1.04-7.3l-.52-.15c.15,.07,.3,.15,.52,.15Zm1.19-.37v.15h.45c-.07-.15-.22-.22-.3-.3-.22,.07-.37,.07-.52,.07,.15,.07,.3,.07,.37,.07Zm.45,4.47c-.22-.07-.37-.22-.45-.37,.07,.22,.15,.37,.15,.52h.3v-.15Zm.22-4.1l-.22-.15c0,.07,0,.22,.07,.3h.15v-.15Z" fill="#666"/>
            <path d="M171.77,137.99c0,3.65,.07,6.47,.15,8.49,0,.67-.07,1.56-.15,2.68-.07,1.26-.15,2.16-.15,2.68v2.01c0,.3,.07,.67,.15,1.19v.82c0,2.46-.07,3.57-.15,3.35l-.15,1.34v4.24c0,1.71,0,2.61-.07,2.68-.3,.3-.82,.45-1.64,.52-2.16,.07-3.72,0-4.84-.22-.52-.15-.82-.37-.82-.74l.45-6.77c-.07-.67-.15-1.04-.15-1.27,0-.67,.07-2.38,.3-5.14,.07-2.08,.07-3.8,.07-5.06,0-.6-.22-1.86-.22-2.46v-3.05c0-.6,.07-1.27,.15-1.94v-1.04l-.15-5.28v-6.55l.22-.52c1.12-.07,1.79-.07,2.01-.07,.45,.07,1.19,.07,2.16,.07,.45-.07,.82-.15,1.19-.15,.75,0,1.27,.22,1.64,.75,.07,.3,.15,1.04,.15,2.23l-.15,3.87c-.07,1.27-.07,2.38,0,3.35Zm-.37-20.4c.45,.22,.67,.89,.67,2.08,0,1.12-.3,1.79-.97,2.01-.22,.07-1.12,.15-2.53,.07-.67,.07-1.49,0-2.53-.22-.37-.15-.52-.75-.45-1.79,.07-.89,.15-1.34,.15-1.34,.22-.52,.6-.82,1.19-1.04,1.27,0,2.75,.07,4.47,.22Zm-2.98,16.67h-.3v.22c.22-.07,.3-.15,.3-.22Z" fill="#666"/>
            <path d="M192.76,131.97c-.3,.37-1.86,.52-4.76,.52-.37,.52-.45,1.56-.37,3.28,.37,6.77,.52,11.91,.52,15.33l-.15,1.41,.45,5.81v1.94c.15,.45,.22,1.41,.15,2.9,.37,1.79,.6,2.83,.75,3.05,1.34,1.12,2.01,1.64,2.01,1.56,0,.07-.07,.07-.22,.07-.67,.22-2.16,.3-4.47,.22-1.93,0-3.35-.3-4.24-.97-.52-.82-.82-1.42-.82-1.94-.22-2.16-.3-3.87-.3-5.14-.07-3.13-.07-4.61-.07-4.46l-.3-6.7c-.07-2.16-.15-4.32-.15-6.62l-.15-6.18c0-2.01,0-3.05-.07-3.13-.22-.37-1.26-.6-3.27-.67-1.94-.07-2.98-.37-3.2-.82v-1.71c-.22-1.41,.37-1.64,2.83-1.41,2.16,.15,3.13,.22,2.98,.22v-.07c.37-.15,.6-.37,.67-.67,.15-4.84,.3-7.67,.52-8.49-.07-1.56-.15-2.31-.15-2.08,.07-.67,.15-1.12,.15-1.34l-.15-1.26c.52-.89,.97-1.41,1.34-1.64,.22,0,.3,.07,.3,.15h.37c.22-.22,.67-.37,1.34-.37l1.04,.07h.3c0-.07,.07-.07,.3-.07-.07-.07-.15-.22-.15-.3,0-.15,.07-.22,.15-.3,.97,.22,1.19,.3,.75,.3v-.07c.45-.07,.82-.07,1.12-.07-.3,1.27-.45,2.23-.52,2.9,0,.07-.45,.45-.45,.52,.22,.15,.3,1.12,.3,2.98,0,1.27,.22,4.61,.22,5.88v3.2c.07,.37,.74,.6,1.93,.6h2.68c.67,.07,1.12,.52,1.19,1.34,.07,1.12,0,1.86-.37,2.23Zm-9.97-18.01c-.22-.22-.6-.45-1.04-.52,.22,.22,.52,.37,.82,.37v.15h.22Zm-.22,3.8c-.3-.07-.52-.07-.67-.07v.07c-.07,0-.15,0-.15,.07,.07,.07,.15,.07,.15,0h.67v-.07Zm0-.75c-.22-.07-.37-.15-.45-.15v.22c.22-.07,.37-.07,.45-.07Zm.67,4.1h-.3v.22c.22-.07,.3-.15,.3-.22Zm1.04-7.3l-.52-.15c.15,.07,.3,.15,.52,.15Zm1.19-.37v.15h.45c-.07-.15-.22-.22-.3-.3-.22,.07-.37,.07-.52,.07,.15,.07,.3,.07,.37,.07Zm.45,4.47c-.22-.07-.37-.22-.45-.37,.07,.22,.15,.37,.15,.52h.3v-.15Zm.22-4.1l-.22-.15c0,.07,0,.22,.07,.3h.15v-.15Z" fill="#666"/>
            <path d="M219.85,128.54c-.82,3.65-1.56,6.85-2.31,9.6l-2.9,11.02c-.22,.74-.3,1.26-.3,1.64l-1.04,4.17-.45,2.75-4.02,16.45c-.89,3.65-1.49,5.88-1.86,6.7l-1.64,3.28c-.97,1.04-3.05,1.64-6.25,1.79-1.79,.07-2.9-.07-3.35-.45-.3-.22-.37-.89-.3-2.01,.22-1.12,.6-1.71,1.12-1.71,.07,.07,.15,.15,.22,.15,.22-.22,.45-.3,.67-.3,0,.07,.07,.07,.15,.07,.97-.37,1.79-.67,2.38-.82,1.27-.89,1.42-1.56,1.64-1.86l.67-2.9c.67-3.2,1.19-5.43,1.49-6.7,.6-2.83,.89-4.09,.89-3.79l-.22-.97c-.22-2.98-.37-4.84-.52-5.58-.45-1.56-.75-2.61-.97-3.2-.82-2.53-1.27-4.24-1.49-5.06-.45-1.86-.74-3.2-.82-3.95-.82-3.72-1.34-6.33-1.71-7.74-1.12-4.24-1.71-7.07-1.86-8.41-.45-2.68-.67-3.79-.67-3.35,.22-.3,.45-.52,.67-.6l2.68,.22c1.86-.15,3.42-.22,4.54-.15,.07,0,.15,.07,.15,.15,.45,1.26,.6,2.38,.52,3.35l.82,4.69,.52,2.31c1.12,5.21,1.79,8.71,2.16,10.57,.07,0,.15,.07,.15,.15h.37v-.07c.52-1.12,.97-2.53,1.34-4.09,.52-2.01,.97-3.35,1.19-4.17l1.11-5.43,1.04-5.21c.07-.6,.07-1.12,0-1.56,.07-.22,.22-.37,.3-.45v-.07l2.38,.15c2.16,0,3.28,.07,3.5,.15l.15,.15c0,.3-.07,.67-.15,1.12Zm-19.2,3.05c-.22,.22-.45,.3-.52,.37v.22h.15v.07h.15v-.07c.15-.22,.22-.37,.22-.6Zm4.84,45.85h-.22v.07h.07v.15c.07-.07,.15-.15,.15-.22Z" fill="#666"/>
          </g>
          <g>
            <path d="M98.24,104.67c0,.35-.1,.55-.35,.6-.55,.05-.99,.1-1.34,.1-1.79,.05-2.88-.2-3.33-.69v-.94l.1-2.33c.05-2.13,.05-3.42,0-3.87,0-.2,.2-.8,.2-1.04-.05-1.34-.1-2.08-.1-2.28,0-.4,.05-.79,.15-1.14l-.15-2.58v-1.84c0-1.24-.2-1.84-.65-1.84-.4-.05-1.44-.05-3.13,0-1.44-.05-2.28-.1-2.58-.1-.45,0-.75,.55-.79,1.69,.05-1.79,.1-1.14,.15,1.94,0-.15,0,.15-.05,.89,0,.89-.05,1.94-.1,3.18v2.38l-.1,3.92c0,.65-.05,1.04-.1,1.24v2.93c-.05,.25-.4,.4-.99,.45-.05,.05-.5,.05-1.39,.1-1.49,.05-2.38-.05-2.63-.3-.05-.05-.05-.5-.05-1.24,0-.45,0-1.69,.05-3.72,.05-1.54,.15-9.93,.3-25.21,0-.45-.2-1.64-.2-2.08,0-.84,.2-2.93,.2-3.77l-.1-2.68c.45-.2,.65-.35,.65-.4,.69,.1,1.54,.15,2.48,.15,.25-.05,.55-.05,.89,0,.55,.1,.84,.35,.99,.75,.05,.15,.1,.5,.1,1.09,0,.84-.05,1.54-.1,2.03,0,.45,0,.55,0,.35,.05,.65,.1,1.14,.1,1.49v3.52l.15,1.64-.15,.55c.05,1.89,.05,2.78,.05,2.73,0,.4,0,.69-.05,.84l.05,1.99c.05,.75,.45,1.14,1.19,1.19h1.24l1.24-.1c1.24-.1,2.28-.15,3.13-.1,.35-.1,.5-.45,.45-.99-.1-1.04-.15-1.44-.15-1.14,.05-1.59,.05-4.27,.05-7.99v-1.44c-.05-1.59-.05-3.18-.05-4.81,0-.69,0-1.09,.05-1.14,.2-.3,.49-.45,.89-.45,.05-.05,.15-.05,.2-.05v-.05c.94,.05,1.64,.15,2.04,.2v-.05c1.44-.15,2.18,.2,2.18,.94,.05,.35,.05,.79,0,1.34-.15,.65-.2,1.09-.2,1.29,0,.5,.05,.84,.1,1.09-.05,1.14-.1,2.04-.1,2.63l-.25,12.16v1.84c0,.35,0,.69,.05,1.14v1.04c-.05,.15-.05,.3-.05,.4,0,.35,0,.84,.05,1.39v.99l-.15,4.47,.1,.89c-.15,.64-.2,1.04-.2,1.19v5.66Z" fill="#666"/>
            <path d="M106.88,89.49c0,2.01,.04,3.57,.08,4.68,0,.37-.04,.86-.08,1.48-.04,.7-.08,1.19-.08,1.48v1.11c0,.17,.04,.37,.08,.66v.45c0,1.36-.04,1.97-.08,1.85l-.08,.74v2.34c0,.95,0,1.44-.04,1.48-.16,.17-.45,.25-.9,.29-1.19,.04-2.05,0-2.67-.12-.29-.08-.45-.21-.45-.41l.25-3.74c-.04-.37-.08-.57-.08-.7,0-.37,.04-1.31,.17-2.83,.04-1.15,.04-2.09,.04-2.79,0-.33-.12-1.03-.12-1.36v-1.68c0-.33,.04-.7,.08-1.07v-.57l-.08-2.92v-3.61l.12-.29c.62-.04,.99-.04,1.11-.04,.25,.04,.66,.04,1.19,.04,.25-.04,.45-.08,.66-.08,.41,0,.7,.12,.9,.41,.04,.16,.08,.57,.08,1.23l-.08,2.13c-.04,.7-.04,1.31,0,1.85Zm-.21-11.25c.25,.12,.37,.49,.37,1.15,0,.62-.16,.99-.53,1.11-.12,.04-.62,.08-1.4,.04-.37,.04-.82,0-1.4-.12-.2-.08-.29-.41-.25-.99,.04-.49,.08-.74,.08-.74,.12-.29,.33-.45,.66-.58,.7,0,1.52,.04,2.46,.12Zm-1.64,9.2h-.16v.12c.12-.04,.16-.08,.16-.12Z" fill="#666"/>
            <path d="M123.42,105.5s-.12,.04-.16,.04c-1.27,.12-2.13,.08-2.59-.04-.2-.04-.57-.66-.94-.66-1.85,.45-3.2,.7-4.07,.7-2.46,0-4.06-.7-4.8-2.09-.21-.37-.33-1.03-.33-1.93l-.37-5.58c.04,.12,.08-.45,.08-1.76,0-.78-.04-1.68-.12-2.67-.04-.37-.04-.82,0-1.27,.04-.62,.04-1.03,.04-1.27,0-1.52,.12-2.54,.33-3.08,.29-.82,.94-1.4,2.05-1.72,.25-.04,.41-.08,.45-.08t0,0c.86-.21,2.34-.25,4.43-.12,.45,.04,.74,.04,.95,.08,.25,0,.41-.04,.45-.08,.04-.25,.08-.41,.08-.53,.04-.66,.08-1.31,.08-2.01-.04-2.5-.08-3.7-.08-3.65l.12-1.6c-.04-.54-.04-1.52,0-2.87l.25-.17c.12-.08,.45-.12,.95-.12,1.48-.04,2.22-.04,2.22-.04,.37,.12,.54,.33,.54,.58,0,.04-.04,.08-.08,.08-.04,.08-.12,.12-.16,.12,.04,.04,.08,.04,.08,0,.04,.04,.04,.33,0,.78-.04,.57-.08,1.03-.08,1.35l.08,3.04v1.11c-.04,.98-.08,1.35-.08,1.11,0,3.74,.04,6.45,.16,8.21l-.08,2.87v1.19c0,.25,.04,.53,.08,.82v.41q0-.16,0,.04c-.04,.2-.08,.53-.08,.99,0,.29,.04,1.15,.08,2.54,.12,2.26,.16,3.86,.16,4.8,.12,.58,.25,.99,.37,1.27l.37,.7c.08,.29-.04,.49-.37,.53Zm-4.8-3.86c-.04-1.15-.08-1.89-.08-2.22l-.16-3.65c0-.37,.16-1.27,.16-1.6,0-2.92-.08-4.93-.29-6.03-.25-1.27-1.03-1.93-2.3-2.01-1.03,.45-1.64,.82-1.77,1.11-.12,.21-.16,.7-.16,1.56v2.91c0,.49,.08,.95,.21,1.31,.04,.45,.04,1.89,0,4.27-.04,1.76,.08,3.16,.33,4.27,.25,1.07,.95,1.6,2.13,1.6,1.03-.21,1.64-.45,1.85-.78,.04-.37,.08-.62,.08-.74Z" fill="#666"/>
            <path d="M140.33,105.5s-.12,.04-.16,.04c-1.27,.12-2.13,.08-2.59-.04-.2-.04-.57-.66-.94-.66-1.85,.45-3.2,.7-4.07,.7-2.46,0-4.06-.7-4.8-2.09-.21-.37-.33-1.03-.33-1.93l-.37-5.58c.04,.12,.08-.45,.08-1.76,0-.78-.04-1.68-.12-2.67-.04-.37-.04-.82,0-1.27,.04-.62,.04-1.03,.04-1.27,0-1.52,.12-2.54,.33-3.08,.29-.82,.94-1.4,2.05-1.72,.25-.04,.41-.08,.45-.08t0,0c.86-.21,2.34-.25,4.43-.12,.45,.04,.74,.04,.95,.08,.25,0,.41-.04,.45-.08,.04-.25,.08-.41,.08-.53,.04-.66,.08-1.31,.08-2.01-.04-2.5-.08-3.7-.08-3.65l.12-1.6c-.04-.54-.04-1.52,0-2.87l.25-.17c.12-.08,.45-.12,.95-.12,1.48-.04,2.22-.04,2.22-.04,.37,.12,.54,.33,.54,.58,0,.04-.04,.08-.08,.08-.04,.08-.12,.12-.16,.12,.04,.04,.08,.04,.08,0,.04,.04,.04,.33,0,.78-.04,.57-.08,1.03-.08,1.35l.08,3.04v1.11c-.04,.98-.08,1.35-.08,1.11,0,3.74,.04,6.45,.16,8.21l-.08,2.87v1.19c0,.25,.04,.53,.08,.82v.41q0-.16,0,.04c-.04,.2-.08,.53-.08,.99,0,.29,.04,1.15,.08,2.54,.12,2.26,.16,3.86,.16,4.8,.12,.58,.25,.99,.37,1.27l.37,.7c.08,.29-.04,.49-.37,.53Zm-4.8-3.86c-.04-1.15-.08-1.89-.08-2.22l-.16-3.65c0-.37,.16-1.27,.16-1.6,0-2.92-.08-4.93-.29-6.03-.25-1.27-1.03-1.93-2.3-2.01-1.03,.45-1.64,.82-1.77,1.11-.12,.21-.16,.7-.16,1.56v2.91c0,.49,.08,.95,.21,1.31,.04,.45,.04,1.89,0,4.27-.04,1.76,.08,3.16,.33,4.27,.25,1.07,.95,1.6,2.13,1.6,1.03-.21,1.64-.45,1.85-.78,.04-.37,.08-.62,.08-.74Z" fill="#666"/>
            <path d="M156.41,103.82c-.74,1.11-2.46,1.64-5.13,1.64-3.66,0-5.75-.82-6.32-2.5-.16-.37-.29-1.15-.37-2.3-.04-.54-.12-.9-.16-1.11-.21-2.26-.29-5.17-.29-8.74h.29v-.04c-.21-.12-.29-1.19-.29-3.24,.12,0,.2,0,.2-.04-.2-.08-.25-.37-.12-.86,.33-1.48,1.19-2.34,2.59-2.58l2.05-.37c2.42,0,3.98,.08,4.72,.29,1.93,.49,2.91,1.72,2.96,3.65,0,.37-.04,1.07-.08,2.05,0,.29,.04,.49,.16,.7-.04,.29-.08,.54-.08,.7,.16,.86,.25,1.27,.25,1.31,.04,.54,.04,1.03,0,1.48,0,.74-.08,1.15-.25,1.23-.12,.08-.86,.12-2.22,.08-2.01-.04-3.53-.04-4.52,0-.99,.04-1.52,.2-1.6,.49,0-.04,.04,.37,.08,1.27,.12,2.79,.2,4.23,.2,4.35v.78c0,.74,1.07,1.11,3.24,1.11,.9-.29,1.4-.49,1.48-.62,.29-.29,.41-1.23,.37-2.75-.08-1.56-.16-2.13-.21-1.76,.04-.49,.66-.7,1.85-.66,.95,.04,1.48,.08,1.6,.08,.12,.45,.16,.78,.16,1.03v1.68c0,1.85-.2,3.08-.57,3.65Zm-8.5-15.39c0,.57-.04,1.15-.08,1.72-.12,1.56,0,2.42,.29,2.54,.12,.08,.74,.12,1.85,.16,1.03,.04,1.72,.04,2.01,0,.45-.04,.62-.16,.58-.41l-.08-.62c.12-.94,.12-1.97,.08-3.04-.04-1.03-.16-1.68-.29-1.89-.37-.58-1.19-.86-2.46-.86-.74,.2-1.19,.45-1.31,.66-.29,.45-.49,1.03-.57,1.72Z" fill="#666"/>
            <path d="M173.4,105.34c-.12,.25-.33,.41-.66,.45-1.68,.16-2.87,.12-3.49-.12-.25-.12-.41-.41-.45-.9,0,.12,.04-.37,.08-1.56v-1.15c-.04-3.65-.04-6.86,.08-9.61,.04-.95,.04-1.6,0-1.97-.12-1.11-.16-1.6-.16-1.48v-1.68c-.04-.7-.49-1.11-1.31-1.23-1.15-.16-2.01,.16-2.59,.95-.16,.62-.25,1.15-.25,1.56-.04,1.44-.04,2.26-.04,2.46,0,.41,0,1.03,.04,1.85,.04,.78,.08,1.4,.08,1.81v9.28l.08,.82c.04,.41,0,.66-.16,.78-.29,.25-1.4,.33-3.37,.25-.45-.04-.74-.12-.82-.25,.04,.04,.08-.33,.08-1.15v-3.61l-.08-3.61c-.04-2.3-.08-3.69-.08-4.15v-.99c0-.45,.04-.74,.08-.95-.04-.45-.12-.82-.17-1.03v-6.36c.12-.04,.21-.04,.25-.04l3.33,.12c.37,.16,.66,.29,.78,.41,.45,0,1.85-.29,2.54-.29,.54-.12,1.19-.16,1.97-.08,1.89,.21,3.04,.7,3.49,1.48,.29,1.19,.45,2.22,.45,3.04,.04,1.93,.04,3.24,.04,4.02,0-.21,.04,.08,.08,.86v4.06c.04,.66,.08,1.19,.08,1.6v2.67c0-.2-.04,.08-.08,.78v.78c.12,1.03,.16,1.52,.16,1.44v.74Zm-10.8-4.27l-.17-.16c.04,.08,.12,.12,.17,.16Z" fill="#666"/>
          </g>
        </g>
        <g>
          <path d="M157.54,196.12c.26-5.11-7.83-4.55-11.56-3.23-3.03-1.38-6.56-1.01-9.65-.41-.57-1.29-3.12-.39-4.36-.61-.34,.31-.02,1.74-.27,1.93,.19,4.77,.73,18.61,.64,23.17-.01,1.37,6.21,1.4,5.07-.66-.02-.8-.24-10.72-.27-11.11,.14-4.12-2.3-12.26,3.82-10.22,2.05,2.28,.85,6.34,1.32,9.52,.09,3.06,.35,10.03,.39,13.06,1.57,.59,3.82,.36,5.54,0,.43-6.4-.87-14.43-.64-21.49,8.36-8.03,4.62,17.19,5.93,21.35,3.36,.44,5.88,.95,5.02-3.27-.24-5.57-.51-11.96-.95-18.04Zm-24.76,9.88s-.06,.04-.14,.07v-.14h.18s-.02,.04-.05,.07Zm11.63-10.36s-.07-.05-.11-.09l.25,.14s-.09-.02-.14-.05Z" fill="#666"/>
          <path d="M112.76,200.5c-2.3-1.34-6.23-.31-9.02-.57v-.14c-2.46,5.55,3.93,1.17,3.63,4.38-.28,2.47,.32,6.41-.07,9.22-.33,2.84-5.4,2.56-6.91,1.16-1.01-1.46-.44-5.18-.7-6.45,.52-7.43-.51-16.65,.29-24.06-.19-3.31,5.03-3.75,6.84-1.77,1,3.21,.55,7.09,.98,10.52,1.22,.22,3.87,.63,4.95-.09-.3-4.85,.76-10.19-3.18-13.18-6.08-2.2-15.76-1.25-14.36,7.29-.23,2.69,.06,6.33-.18,8.9,.98,8.55-3.7,23.81,9.59,22.1,2.03-.61,7.19,.98,8.22-.82-.02-4.76-.34-12.02-.09-16.52Zm-1.32-11.9s-.05,.05,0,.14h-.11c-.02-.06-.08-.16-.09-.25l.2,.11Zm-4.57-8.11s.03-.04,.05-.07h.11c-.02,.09-.1,.11-.2,.14,0-.02,.02-.04,.05-.07Zm-10.06,7.56s-.08,0-.09-.02c-.06-.05,0-.18,.09-.23v.25Zm.3,18.6v-.27c.09,.05,.18,.15,.23,.27h-.23Z" fill="#666"/>
          <path d="M171.17,208.43c.21,1.21,.51,4.34-.2,5.5-1.19,1.04-6.29,1.29-5.66-1.29-.26-7.5-2.06-8,6.93-7.5,4.44,.97,2.55-2.92,2.77-5.75-.37-3.08,.44-6.85-3.64-7.63-3.21-.55-11.97-1.24-11.02,4.22-.04,.04-.13,.04-.23,.05,.07,1.56-.14,2.94,.34,3.86v.07h-.34c.82,5.58-1.84,13.46,3.36,16.72,7.46,2.18,13.91,.58,11.77-8.79-1.04,.03-3.5-.58-4.09,.55Zm-6.68-7.11c.16-1.89-.48-5.32,1.32-6.68,1.56-.8,4.17-.28,4.23,1.41-.12,1.49,.89,5.85-.57,6.34-1.33-.22-4.73,.81-4.98-1.07Z" fill="#666"/>
          <path d="M128.53,195.46c.11-.08,.23-.03,.41-.05-.55-.83-.7-1.51-1.39-2.09-.24-.2-.5-.36-.77-.48,.05,0,.14-.04,.18-.09-2.93-1.42-11.76-2.18-12.09,2-.67,1.42-.54,3.41-.34,5.09,0,.06,.02,.2-.07,.23,0,1.12,2.74,.56,3.48,.52,1.1-.15,.91-4.44,1.27-5.25,4.06-3.14,6.16,2.01,4.25,5.5-2.03,2.06-5.57,3.21-7.7,5.16l.11,.23c-2.07,.69-1.28,4.89-1.48,6.95,.23,5,6.24,4.47,9.79,3.77,2.01-.1,4.93,1.55,6.11-.27-.66-1.21-1-3.23-.93-4.29-.49-5.36,.18-11.61-.84-16.92Zm-10.27,15.86v-.16h.14s-.05,.1-.14,.16Zm6.18,2.84c-3.99,1.8-6.29-.07-5.7-4.29,0-3.48,2.72-3.81,5.38-5.57,1.01,2.22,.71,7.45,.32,9.86Z" fill="#666"/>
          <polygon points="226.48 44.87 222.88 40.55 214.42 50.24 215.43 51.46 226.48 44.87" fill="#666"/>
          <path d="M215.99,52.56l.39,1.53c9.73-2.24,21.29,1.32,24.69,11.45l4.13-1.35c-4.68-11.37-18.15-15.25-29.21-11.62Z" fill="#666"/>
          <path d="M216.5,55.05l-.33,1.55c12.19,3.76,13.98,18.09,12.01,28.93l6.54,.71c.58-12.75-3.84-28.71-18.22-31.19Z" fill="#666"/>
          <path d="M191.84,90.39c2.81-.29,5.62-1.34,7.99-3.13,2.38-1.77,4.28-4.27,5.47-7.06,.62-1.39,1.03-2.87,1.32-4.36l.18-1.12c.05-.39,.14-.67,.13-1.38,.01-1.24-.24-2.59-.59-3.71-1.06-.46-2.37-.85-3.59-.96-.7-.08-.99-.03-1.37-.01l-1.12,.07c-1.49,.13-2.97,.38-4.4,.84-2.86,.87-5.49,2.43-7.52,4.51-2.04,2.07-3.48,4.62-4.24,7.29-.76,2.68-.85,5.46-.42,8.09,.04-2.67,.62-5.29,1.75-7.59,1.12-2.3,2.78-4.26,4.77-5.65,1.98-1.4,4.27-2.23,6.6-2.5,1.16-.16,2.34-.14,3.5-.03l.87,.11c.18,.02,.38,.04,.5,.07,.01,.12,.02,.36,.02,.56v.89c0,1.18-.11,2.38-.4,3.53-.53,2.31-1.64,4.51-3.31,6.3-1.67,1.8-3.9,3.15-6.4,3.87-2.49,.73-5.21,.85-7.89,.46h0s0,0,0,0c2.57,.85,5.36,1.24,8.17,.93Z" fill="#666"/>
          <path d="M212.9,51.43c-12.68,9.11-30.75,8.56-40.79,21.32-10.27-1.73-19.21,3.77-28.68,6.21,9,3.3,21.67-3.15,31.22,.31,8.53-12.99,25.61-16.16,37.42-25.41,4.97,11.85,4.46,27.08-3.8,37.32-8,9.9-21.23,6.16-32.38,9.38,32.28,13.01,49.02-14.67,39.14-43.63-.73-1.82-1.41-3.68-2.12-5.51Z" fill="#666"/>
        </g>
      </g>
    </g>
  </g>
</svg>