<?xml version="1.0" encoding="UTF-8"?>
<svg id="Layer_2" data-name="Layer 2" xmlns="http://www.w3.org/2000/svg" width="294" height="269" xmlns:xlink="http://www.w3.org/1999/xlink" viewBox="0 0 294 269">
  <defs>
    <filter id="drop-shadow-1" filterUnits="userSpaceOnUse">
      <feOffset dx="7" dy="7"/>
      <feGaussianBlur result="blur" stdDeviation="9"/>
      <feFlood flood-color="#000" flood-opacity=".5"/>
      <feComposite in2="blur" operator="in"/>
      <feComposite in="SourceGraphic"/>
    </filter>
  </defs>
  <g id="Capa_1" data-name="Capa 1">
    <g>
      <rect x="20" y="20" width="240" height="215" rx="39.51" ry="39.51" fill="#fff" filter="url(#drop-shadow-1)"/>
      <g>
        <g>
          <path d="M70.88,159.43c-.14,.15-.49,.22-1.12,.22-.21,0-.28-.07-.28-.15h-.21c-.77,.22-1.4,.29-1.89,.22-1.47,.15-2.46-.22-3.02-1.03-.35-.59-.49-1.54-.42-2.79,.21-2.35,.28-3.16,.28-2.5l-.49-11.38,.21-1.32c-.07-.29-.14-.51-.14-.73,0-.51,.07-.81,.14-.88,0-.51-.21-1.84-.21-2.35v-10.5l.07-1.17c-.49-6.39-.7-11.01-.7-13.8-.07-.07-.21-.15-.42-.15-.21,.81-.35,1.47-.35,1.84-.35,1.69-.63,2.94-.91,3.74l-.49,4.4c-1.05,6.46-1.68,10.35-1.9,11.31-.35,1.1-.56,1.98-.77,2.5l-.35,4.77c-.77,8-1.12,12.26-1.12,12.92-.35-.07-.56-.07-.63,0h-.14c0,.07,.07,.07,.14,.07v.07c.21,0,.42,0,.49-.07,.07,1.54,.07,2.64,0,3.45l.14,2.79c0,.22-.63,.66-.63,.88-2.31,0-3.65-.15-4.07-.37-.21-.07-.28-.29-.35-.59-1.05-6.09-1.82-10.35-2.31-12.7-1.4-8.44-2.39-14.83-3.02-19.01-.91-4.62-1.9-8.96-2.81-13.07-.14-.66-.42-1.1-.84-1.32-.28,.88-.35,1.54-.28,1.98,.07-.22,.14,2.64,.14,8.52v1.1c-.07,.81-.14,1.47-.14,2.06v3.16c0,1.17,.07,2.35,.28,3.52l-.28,2.28c.35,2.57,.49,4.04,.49,4.48v3.16c.07,.81,.28,1.62,.56,2.57,0,1.4,.07,3.45,.21,6.17,.07,1.91,.14,3.23,.14,3.96,.21,2.13,.21,3.38,0,3.6-.21,.37-1.26,.51-3.16,.51s-3.09-.22-3.51-.73c-.07-.22-.14-1.03-.14-2.57h.14c.07-.29,.07-.66,0-1.17s-.14-.88-.14-1.1c0-10.2-.07-16.59-.14-19.31v-4.26l-.28-4.77c-.07-1.1-.07-2.72,0-4.7,.07-3.82,.07-6.31,0-7.49-.07-.22-.07-2.35-.07-6.46,0-.95-.28-3.23-.28-4.18s.56-1.54,1.75-1.76h4.28c1.05-.22,2.31-.22,3.93,.15,1.12,.22,1.47,.37,1.12,.37-.07,.59,.07,1.76,.42,3.6,.56,3.01,1.19,6.9,1.89,11.6l.84,5.95c.07,.73,.56,3.3,1.4,7.71,.63,3.16,.91,5.73,.91,7.71h.35v-.15h.28c0,.37,.28-1.32,.77-4.99l1.12-8.88,.14-.88,.21-1.4v-.88c0-1.25,.35-3.74,1.12-7.49,.77-3.82,1.19-7.05,1.19-9.61v-1.91c.07-.29,.07-.51,.07-.73,.7-.07,1.82-.15,3.3-.15v-.07c.63,0,2.67,.15,3.3,.15l.28-.22h.49l-.42,.29h.56c0,.07,0,.15,.07,.15v-.15c.84-.22,1.54-.29,2.18-.29,1.26-.07,2.1,.15,2.53,.59,.07,.73,.07,1.32,0,1.69l.14,2.42-.14,1.32,.28,1.32-.14,2.13v1.32c.07,1.17,.14,1.62,.14,1.25,0,1.54-.07,2.72-.14,3.52,.07,.44,.14,.81,.14,1.03-.07,.51-.14,.88-.14,1.03l.14,1.47c-.07,1.1-.14,1.69-.14,1.83,.07,2.2,.14,3.82,.14,4.77,0,1.1-.42,3.74-.42,4.85,.49,2.72,.84,6.09,.91,9.98v14.39c.35,1.84,.21,3.01-.28,3.38Zm-25.75-47.71c-.21-.22-.42-.29-.49-.37-.07,.07-.14,.07-.14,.15,.07,.07,.14,.15,.14,.22h.49Zm21.75-5.73l-.77-.29c.21,.22,.49,.29,.77,.29Z" fill="#666"/>
          <path d="M96.57,157.3c.21,.44,.35,.81,.35,1.03-.07,.51-.49,.88-1.33,1.03-1.54,.29-3.44,.15-5.68-.44l-1.26-.37s-.63,.15-1.83,.37l-4,.51c-2.88,.22-5.12-.44-6.73-1.91-1.26-1.17-1.89-2.64-1.96-4.48v-3.67c.07-4.48,.77-6.75,2.11-6.75l-.14-.37,.91-.81,2.03-1.32,1.12-.95,4.7-2.57,2.25-2.13c.21-.59,.42-1.17,.49-1.76,.49-1.69,.7-3.01,.49-4.11-.07-.66-.07-1.17-.07-1.54-.21-.66-1.05-1.32-2.53-1.91-.7-.22-1.54-.29-2.46-.15-.98,.15-1.61,.59-1.96,1.25l-.56,2.79-.35,3.38c-.21,1.76-.07,1.69-2.81,1.91-2.1,.07-3.16-.15-3.16-.81,0-.15,.07-.22,.14-.29v-.22c-.14-.15-.21-.37-.21-.66,.07-1.76,.07-2.86,.07-3.3,0-1.62,.07-2.5,.14-2.64l.49-1.03c-.35-.22-.35-.59-.07-1.1,.21-.51,.49-.95,.84-1.25,.77-.66,1.75-1.17,3.02-1.54,.28-.07,1.61-.37,4.07-.73h1.26c1.89,0,3.16,.07,3.79,.15,1.05,.22,1.75,.44,2.24,.59l2.18,.88c-.07,.07-.21,.15-.28,.15,.77,.37,1.47,.95,2.03,1.76,.07,.22,.42,.95,1.05,2.06-.28,0-.49,0-.56,.07,.35,.73,.56,1.39,.56,1.98,.07,1.69,.07,2.57,.07,2.64,0,1.1,0,1.84-.07,2.35l.35,8.66c0,.73-.07,1.4-.14,1.91,.07,.66,.21,1.1,.28,1.39v2.64c0,.66,.07,1.32,.21,2.13-.07,.81-.07,1.39-.07,1.76-.07,.15,.07,1.69,.49,4.55l.49,.88Zm-16.7-7.27h-.21v.22c.14-.07,.21-.15,.21-.22Zm9.12-3.23c-.07-4.48-.42-6.83-.91-7.12-1.89,1.25-3.51,2.2-4.84,2.86-1.33,.59-2.11,1.69-2.46,3.23-.07,.51-.21,.95-.35,1.32-.07,.22-.07,1.32,0,3.16l.07,2.86c.63,1.39,1.76,2.2,3.44,2.28,.42,.07,1.19,.07,2.39,.07,1.33-.51,2.11-.88,2.18-.95,.35-.81,.49-3.38,.49-7.71Z" fill="#666"/>
          <path d="M116.91,125.15c-.14,.37-1.61,.51-4.42,.51-2.95,.22-4.91,.81-5.82,1.91-.49,.59-.7,1.83-.63,3.74v3.01c-.07,1.83-.07,4.26,0,7.12,.21,6.09,.28,9.91,.28,11.45v.88c.07,.66,.14,1.17,.14,1.62v5.36c-.28,.29-.77,.44-1.54,.44-2.67,.07-4.28,0-4.77-.22-.21-.15-.35-.29-.42-.51v-8.22c-.07-2.72-.07-4.62-.07-5.73v-10.42c-.07-2.42-.14-4.04-.14-4.77-.07-1.84-.14-2.72-.14-2.79,0-.81,.07-1.47,.14-1.83-.07-1.25-.14-2.13-.14-2.79v-1.03c0-.37,.21-.59,.63-.81,1.61,.07,3.3,.15,5.19,.15,.84-.22,1.47,.88,2.03,.88,1.05-.51,2.81-.88,5.26-.95,.28-.07,.84-.07,1.76-.07,1.89,0,2.81,.59,2.81,1.69,0,.81-.07,1.25-.14,1.4Z" fill="#666"/>
          <path d="M144.7,156.13c.84,1.76,1.19,2.72,1.12,2.94-.21,.51-1.47,.73-3.93,.66-1.61-.07-2.53-.15-2.88-.37-.49-.66-.77-1.1-.77-1.47-3.3-7.12-5.82-12.92-7.58-17.4,0,.07-.14,0-.42-.15v.07c-.77,.81-1.26,1.4-1.47,1.76l-2.03,3.38c0,1.17,.07,2.86,.28,5.07,.07,.73,.07,1.25,0,1.54,.14,2.35,.28,4.62,.49,6.9,0,.22-.07,.37-.14,.44-.63,.22-1.82,.37-3.51,.37-2.03,.07-3.3-.22-3.72-.81-.07-.22-.07-1.1-.07-2.64,0-3.23-.07-5.95-.14-8.08-.07-5.8-.14-9.84-.14-12.11-.21-5.5-.35-9.32-.49-11.45v-2.64c-.07-2.42-.21-4.04-.28-4.92v-1.69c.07-1.47,.14-2.06,.14-1.69s-.07-.29-.14-2.06v-5.8c-.07-1.91-.14-3.3-.14-4.11,.07-.22,.28-.37,.63-.59l2.46,.15c.14-.07,.56-.07,1.33-.07,1.26,0,2.11,.37,2.53,1.17,.28,.59,.35,1.47,.28,2.57-.21,1.91-.28,2.64-.28,2.28,0,.95-.07,2.35-.14,4.18-.07,1.83-.07,3.15-.07,4.11v1.62c.07,.81,.14,1.39,.14,1.61,.07,3.16,.07,5.29,.07,6.46,.07,3.82,.14,5.58,.14,5.29l-.14,2.57c-.07,1.39-.07,2.2,0,2.42,0,.07,.14,.22,.42,.44,.14,.15,.21,.15,.21,0h.28c7.02-11.23,7.44-12.11,7.86-12.41l2.11-2.71c.07-.07,.91-.07,2.53-.15h2.18c.84,.07,1.12,.29,.84,.73l-5.4,8.3c-1.19,1.25-1.82,2.27-2.03,2.94,0,.15,.14,.51,.42,1.1,1.96,4.77,3.23,7.78,3.79,8.96l5.68,13.28Zm-22.87-48.45h-.42v.22c.28-.07,.42-.15,.42-.22Zm14.73,20.04v-.15h.14l-.21-.15c0,.15,0,.22,.07,.29Zm5.96,30.17c-.21,0-.28,0-.35-.07,0,.07-.07,.07-.14,.07v.22h.49c.07-.15,.07-.22,0-.22Z" fill="#666"/>
          <path d="M168.98,156.42c-1.26,1.98-4.21,2.94-8.77,2.94-6.24,0-9.82-1.47-10.8-4.48-.28-.66-.49-2.06-.63-4.11-.07-.95-.21-1.61-.28-1.98-.35-4.04-.49-9.25-.49-15.63h.49v-.07c-.35-.22-.49-2.13-.49-5.8,.21,0,.35,0,.35-.07-.35-.15-.42-.66-.21-1.54,.56-2.64,2.03-4.18,4.42-4.63l3.51-.66c4.14,0,6.81,.15,8.07,.51,3.3,.88,4.98,3.08,5.05,6.53,0,.66-.07,1.91-.14,3.67,0,.51,.07,.88,.28,1.25-.07,.51-.14,.95-.14,1.25,.28,1.54,.42,2.28,.42,2.35,.07,.95,.07,1.83,0,2.64,0,1.32-.14,2.06-.42,2.2-.21,.15-1.47,.22-3.79,.15-3.44-.07-6.03-.07-7.72,0-1.68,.07-2.6,.37-2.74,.88,0-.07,.07,.66,.14,2.27,.21,4.99,.35,7.56,.35,7.78v1.4c0,1.32,1.82,1.98,5.54,1.98,1.54-.51,2.39-.88,2.53-1.1,.49-.51,.7-2.2,.63-4.92-.14-2.79-.28-3.82-.35-3.16,.07-.88,1.12-1.25,3.16-1.17,1.61,.07,2.53,.15,2.74,.15,.21,.81,.28,1.4,.28,1.84v3.01c0,3.3-.35,5.51-.98,6.53Zm-14.52-27.53c0,1.03-.07,2.06-.14,3.08-.21,2.79,0,4.33,.49,4.55,.21,.15,1.26,.22,3.16,.29,1.75,.07,2.95,.07,3.44,0,.77-.07,1.05-.29,.98-.73l-.14-1.1c.21-1.69,.21-3.52,.14-5.43-.07-1.83-.28-3.01-.49-3.38-.63-1.03-2.03-1.54-4.21-1.54-1.26,.37-2.03,.81-2.24,1.17-.49,.81-.84,1.84-.98,3.08Z" fill="#666"/>
          <path d="M189.61,124.86c-.28,.37-1.75,.51-4.49,.51-.35,.51-.42,1.54-.35,3.23,.35,6.68,.49,11.74,.49,15.12l-.14,1.39,.42,5.73v1.91c.14,.44,.21,1.39,.14,2.86,.35,1.76,.56,2.79,.7,3.01,1.26,1.1,1.89,1.62,1.89,1.54,0,.07-.07,.07-.21,.07-.63,.22-2.03,.29-4.21,.22-1.82,0-3.16-.29-4-.95-.49-.81-.77-1.4-.77-1.91-.21-2.13-.28-3.82-.28-5.06-.07-3.08-.07-4.55-.07-4.4l-.28-6.61c-.07-2.13-.14-4.26-.14-6.53l-.14-6.09c0-1.98,0-3.01-.07-3.08-.21-.37-1.19-.59-3.09-.66-1.83-.07-2.81-.37-3.02-.81v-1.69c-.21-1.39,.35-1.62,2.67-1.39,2.03,.15,2.95,.22,2.81,.22v-.07c.35-.15,.56-.37,.63-.66,.14-4.77,.28-7.56,.49-8.37-.07-1.54-.14-2.28-.14-2.06,.07-.66,.14-1.1,.14-1.32l-.14-1.25c.49-.88,.91-1.39,1.26-1.62,.21,0,.28,.07,.28,.15h.35c.21-.22,.63-.37,1.26-.37l.98,.07h.28c0-.07,.07-.07,.28-.07-.07-.07-.14-.22-.14-.29,0-.15,.07-.22,.14-.29,.91,.22,1.12,.29,.7,.29v-.07c.42-.07,.77-.07,1.05-.07-.28,1.25-.42,2.2-.49,2.86,0,.07-.42,.44-.42,.51,.21,.15,.28,1.1,.28,2.94,0,1.25,.21,4.55,.21,5.8v3.16c.07,.37,.7,.59,1.82,.59h2.53c.63,.07,1.05,.51,1.12,1.32,.07,1.1,0,1.84-.35,2.2Zm-9.4-17.76c-.21-.22-.56-.44-.98-.51,.21,.22,.49,.37,.77,.37v.15h.21Zm-.21,3.74c-.28-.07-.49-.07-.63-.07v.07c-.07,0-.14,0-.14,.07,.07,.07,.14,.07,.14,0h.63v-.07Zm0-.73c-.21-.07-.35-.15-.42-.15v.22c.21-.07,.35-.07,.42-.07Zm.63,4.04h-.28v.22c.21-.07,.28-.15,.28-.22Zm.98-7.2l-.49-.15c.14,.07,.28,.15,.49,.15Zm1.12-.37v.15h.42c-.07-.15-.21-.22-.28-.29-.21,.07-.35,.07-.49,.07,.14,.07,.28,.07,.35,.07Zm.42,4.41c-.21-.07-.35-.22-.42-.37,.07,.22,.14,.37,.14,.51h.28v-.15Zm.21-4.04l-.21-.15c0,.07,0,.22,.07,.29h.14v-.15Z" fill="#666"/>
        </g>
        <g>
          <path d="M107.31,58.94c-.33,.05-.61,.1-.84,.1l-4.21,.24c-.14,.2-.23,.34-.23,.49-.14,.24-.14,1.27-.09,3.18,.23,7.73,.33,13.12,.33,16.2v1.71c0,.24-.05,.39-.09,.54l.28,1.57c-.05,.98-.05,1.76,0,2.35,.05,.78,.05,1.71,.05,2.79-.05,.29-.05,.49-.05,.54l.14,1.52,.09,2.94c.05,.39,.14,.69,.19,.88,.09,.73-.89,1.08-2.9,1.08-1.12,0-1.78-.1-2.01-.29-.14-.54-.19-.93-.09-1.27v-4.11c0-.15,.28-.34,.28-.39-.23-.1-.33-1.13-.33-3.13,0-.64-.05-1.52-.14-2.69-.09-1.22-.14-2.1-.14-2.74l.19-1.13c-.14-1.86-.19-3.28-.19-4.31,0-.88,.09-1.32,.33-1.32v-.15c-.23-.2-.38-.39-.42-.54l.1-.93c-.14-2.59-.23-4.55-.23-5.87v-3.18c-.05-.73-.14-1.22-.19-1.47v-2.01c-.14-.2-1.17-.34-3.09-.44-1.26-.05-1.96-.15-2.2-.24-.19-.1-.28-.44-.28-1.08s.05-1.03,.19-1.17c.56-.15,1.08-.2,1.59-.2,1.17-.05,1.87-.05,2.01-.1,.7,0,2.11,.1,2.81,.1h1.08c.7-.05,1.22-.05,1.59-.05h2.81c.19,0,.93,.15,.98,.15,.19-.15,.7-.2,1.54-.15,.65,.05,1.03,.1,1.17,.15h.1c.05,1.52,.05,2.35-.1,2.45Zm-6.13,10.82h-.28v.15c.19-.05,.28-.1,.28-.15Z" fill="#666"/>
          <path d="M125.41,90.66v4.16c-.05,.24-.19,.54-.42,.78v.05c-.28,0-.75,0-1.45,.05-.7,.05-1.31,.05-1.78,0-.61-.05-1.03-.1-1.17-.24-.23-.54-.33-1.03-.33-1.42,0-.2,.05-.39,.09-.54-.05-1.71-.09-2.4-.09-2.1,0-.44,.05-.78,.09-1.03v-2.3c-.23-.98-.37-1.96-.37-2.89v-2.64c0-.44,0-.78-.05-1.03,.05-.44,.05-.83,.05-1.08,0-.54-.14-1.76-.14-2.3,.05-.64,.09-1.27,.09-2.01,0-.05-.05-.54-.19-1.47-.14-1.57-.75-2.4-1.78-2.45-1.68-.1-2.62,.49-2.85,1.71v6.51c.14,4.11,.19,7.83,.23,11.21,.14,2.79,.19,4.11,.19,3.87-.61,.15-1.5,.2-2.62,.2-1.26,0-2.11-.2-2.53-.64-.33-.29-.47-.83-.33-1.57,.05-.64,.14-1.32,.23-2.01,0-.73,0-2.15-.05-4.21v-1.76c0-.73-.19-2.55-.19-3.28,0-9.15-.05-14.73-.09-16.69-.09-3.87-.14-5.58-.14-5.04,0,.15,0-.1,.05-.83v-.83l-.05-2.15,.47-.39c2.71,.1,4.16,.29,4.4,.54v3.23c0,.83,.05,1.96,.1,3.48v2.79c0,.78-.19,2.59-.19,3.23l2.01-.2c.89-.1,1.96-.1,3.14,0,1.36,.1,2.25,.24,2.71,.44,1.17,.49,1.92,1.27,2.34,2.4,.14,1.52,.28,3.33,.33,5.34,0-.24-.05,.2-.09,1.22-.05,.64-.05,1.03,0,1.27,.23,1.57,.33,3.28,.19,5.19,0,.44,.05,.88,.1,1.22l.14,2.74c0-.15,0,.34-.05,1.47Zm-4.49-2.99c-.14-.05-.28-.05-.42-.05,.14,.15,.23,.24,.33,.24,.05-.1,.09-.15,.09-.2Zm2.2-4.21l-.33-.15,.14,.34h.19v-.2Z" fill="#666"/>
          <path d="M141.88,93.4c-.84,1.32-2.81,1.96-5.85,1.96-4.16,0-6.55-.98-7.21-2.99-.19-.44-.33-1.37-.42-2.74-.05-.64-.14-1.08-.19-1.32-.23-2.69-.33-6.17-.33-10.43h.33v-.05c-.23-.15-.33-1.42-.33-3.87,.14,0,.23,0,.23-.05-.23-.1-.28-.44-.14-1.03,.38-1.76,1.36-2.79,2.95-3.08l2.34-.44c2.76,0,4.54,.1,5.38,.34,2.2,.59,3.32,2.06,3.37,4.36,0,.44-.05,1.27-.09,2.45,0,.34,.05,.59,.19,.83-.05,.34-.1,.64-.1,.83,.19,1.03,.28,1.52,.28,1.57,.05,.64,.05,1.22,0,1.76,0,.88-.09,1.37-.28,1.47-.14,.1-.98,.15-2.53,.1-2.29-.05-4.02-.05-5.15,0-1.12,.05-1.73,.24-1.83,.59,0-.05,.05,.44,.09,1.52,.14,3.33,.23,5.04,.23,5.19v.93c0,.88,1.22,1.32,3.7,1.32,1.03-.34,1.59-.59,1.68-.73,.33-.34,.47-1.47,.42-3.28-.09-1.86-.19-2.55-.23-2.1,.05-.59,.75-.83,2.11-.78,1.08,.05,1.68,.1,1.82,.1,.14,.54,.19,.93,.19,1.22v2.01c0,2.2-.23,3.67-.65,4.36Zm-9.69-18.36c0,.69-.05,1.37-.09,2.06-.14,1.86,0,2.89,.33,3.03,.14,.1,.84,.15,2.11,.2,1.17,.05,1.96,.05,2.29,0,.52-.05,.7-.2,.65-.49l-.09-.73c.14-1.13,.14-2.35,.09-3.62-.05-1.22-.19-2.01-.33-2.25-.42-.69-1.36-1.03-2.81-1.03-.84,.24-1.36,.54-1.5,.78-.33,.54-.56,1.22-.65,2.06Z" fill="#666"/>
        </g>
        <g id="Layer6_0_FILL" data-name="Layer6 0 FILL">
          <path d="M145.84,184.86c0-.15-.03-.37-.09-.67-.04-.3-.11-.67-.19-1.12-.51-1.24-2.08-2.01-4.71-2.31-.27-.01-.53-.03-.77-.04-.24-.01-.46-.01-.66,0-.4,.03-.84,.09-1.31,.18-.49,.09-1.02,.21-1.61,.36-.13,.01-.36,.09-.71,.22-.34,.12-.63,.19-.86,.2l-3.15-.96c-.67-.06-1.36-.07-2.08-.02-.71,.04-1.43,.15-2.16,.31-.26,.04-.5,.1-.73,.16-.24,.04-.47,.1-.69,.18-.13,0-.23-.02-.3-.07-.07-.04-.15-.12-.24-.22-.04-.21-.11-.34-.21-.38-.09-.04-.42-.07-1.01-.09-.06,0-.12,0-.19,.02-.07,.01-.16,.04-.28,.07h-2.18l-.17,.45v1.34c-.01,.07-.04,.12-.06,.13-.01,.01-.02,0-.02-.02l.58,16.58c-.03,.19-.05,.41-.06,.65-.01,.24-.02,.49-.02,.74,.03,.34,.06,.83,.09,1.46,.03,.61,.06,1.37,.09,2.26-.03,.1-.05,.22-.06,.34-.01,.13-.02,.27-.02,.4,0,.12,0,.26,.02,.43,.01,.16,.04,.33,.06,.49,.14,.19,.56,.29,1.24,.29,.89,.01,1.58,.01,2.08,0,.51,0,.82-.01,.92-.04,.26-.09,.42-.24,.49-.45,.09-.22,.08-.54-.02-.94l-.21-9.59c0-.15-.01-.6-.04-1.37-.03-.75-.09-1.78-.17-3.11-.07-2.75-.11-4.24-.11-4.48,0-.43,.02-.79,.06-1.08,.06-.3,.14-.52,.26-.67,.3-.4,.66-.69,1.09-.87,.44-.16,.94-.21,1.5-.13,.39,.04,.71,.13,.96,.27,.26,.12,.45,.29,.58,.52,.09,.1,.16,.31,.21,.6,.06,.28,.1,.66,.13,1.12,.1,.9,.17,1.94,.21,3.14,.04,1.21,.08,2.55,.11,4.01l.28,8.78c0,.43,0,.99,.02,1.68,.03,.67,.05,1.48,.06,2.42,.13,.12,.36,.2,.69,.25,.34,.04,.77,.07,1.28,.07,.34,0,.71,0,1.09-.02,.4-.01,.84-.04,1.33-.07l.84-.22c.06-.03,.09-.14,.11-.34,.01-.21,0-.49-.02-.85-.03-1.16-.07-2.79-.13-4.86-.07-2.09-.17-4.64-.3-7.64-.06-.48-.11-1.13-.17-1.95-.04-.81-.09-1.8-.15-2.98-.03-.67-.04-1.23-.02-1.68,0-.42,.03-.72,.09-.9,.13-.48,.41-.84,.86-1.08,.43-.25,1.01-.39,1.73-.4,.51,0,.94,.09,1.28,.27,.33,.19,.56,.49,.69,.87l.19,1.99c.16,1.61,.29,3.4,.39,5.35,.09,1.94,.13,4.05,.13,6.32,0,.3,.02,.69,.06,1.19,.04,.52,.06,.93,.06,1.23,0,.22,0,.68,.02,1.37,.03,.72,.05,1.67,.06,2.85-.01,.13-.02,.3-.02,.49,.01,.18,.06,.38,.13,.6,.07,.01,.28,.04,.62,.09,.34,.03,.82,.06,1.43,.09,.84,.06,1.45,.08,1.82,.07,.36-.03,.59-.08,.69-.16,.1-.06,.16-.15,.19-.27,0-1.12,0-2.14-.02-3.05-.01-.91-.04-1.72-.09-2.44-.07-.99-.14-2.38-.21-4.19-.07-1.79-.17-4-.3-6.61l-.3-4.55m-12.38-.47s-.06-.04-.11-.09l.24,.13s-.09-.01-.13-.04m-10.96,10.22s-.06,.04-.13,.07v-.13h.17s-.01,.04-.04,.07m11.93,6.52l.15,.22s-.04-.02-.06-.04c-.03-.03-.06-.09-.09-.18m13.85-16.35c0,1.19,.02,2.11,.06,2.76,.06,.63,.14,.98,.26,1.05v.07h-.32c0,2.09,.02,3.99,.06,5.69,.06,1.72,.14,3.24,.26,4.57,.03,.13,.06,.31,.09,.52,.04,.21,.08,.47,.11,.78,.04,.69,.09,1.25,.15,1.7,.09,.46,.17,.8,.26,1.01,.31,1,1.06,1.74,2.25,2.22,1.17,.49,2.79,.74,4.86,.74,1.5,0,2.73-.16,3.68-.47,.98-.33,1.68-.81,2.08-1.46,.21-.34,.38-.87,.49-1.59s.17-1.62,.17-2.71v-1.97c0-.15-.02-.32-.06-.52-.03-.21-.07-.44-.13-.69-.07-.01-.26-.03-.56-.04-.3-.01-.71-.04-1.24-.07-.67-.01-1.18,.04-1.54,.16-.29,.11-.46,.28-.51,.49,.01-.03,.03,.08,.06,.31,.04,.34,.09,.97,.15,1.88,.03,.9,0,1.62-.09,2.17-.07,.55-.18,.9-.32,1.05-.11,.16-.67,.41-1.67,.74-1.24,0-2.16-.11-2.76-.34-.6-.19-.9-.52-.9-.96v-.92c0-.07-.02-.54-.06-1.39s-.1-2.09-.17-3.72c-.01-.54-.03-.93-.04-1.19l-.06-.34c.1-.33,.71-.52,1.82-.56,.56-.03,1.26-.04,2.1-.04,.86,0,1.84,.01,2.96,.04,.77,.01,1.37,.01,1.8,0,.4-.01,.64-.04,.71-.09,.19-.1,.28-.59,.28-1.46,.04-.52,.04-1.1,0-1.72,0-.03-.02-.17-.06-.43s-.11-.63-.21-1.14c0-.09,0-.21,.02-.36,.01-.13,.04-.29,.09-.47-.09-.1-.14-.22-.15-.36-.03-.13-.04-.28-.04-.45,.01-.58,.04-1.08,.06-1.5,.01-.39,.02-.69,.02-.92-.03-1.15-.32-2.08-.88-2.78-.54-.72-1.36-1.22-2.44-1.52-.41-.12-1.06-.21-1.95-.27-.89-.04-2.01-.07-3.36-.07l-2.29,.45c-1.57,.28-2.54,1.3-2.91,3.05-.13,.55-.09,.89,.13,1.01,0,.01-.02,.02-.06,.02-.03,.01-.08,.02-.15,.02m4.11,5.22c-.06-.51-.04-1.22,.04-2.13,.01-.34,.04-.68,.06-1.01,.01-.36,.02-.7,.02-1.03,.04-.4,.11-.78,.21-1.12,.13-.33,.27-.63,.43-.9,.06-.13,.21-.27,.47-.4,.24-.13,.58-.26,1.01-.38,1.43,0,2.35,.34,2.76,1.01,.07,.13,.14,.39,.21,.76,.04,.37,.08,.86,.11,1.46,.03,.63,.04,1.24,.02,1.84,0,.6-.04,1.18-.11,1.75l.09,.74c.03,.13,0,.25-.11,.34-.11,.07-.29,.12-.54,.13-.16,.03-.44,.04-.84,.04-.37,0-.85-.01-1.43-.04-.61-.01-1.09-.04-1.43-.07s-.56-.07-.64-.11c-.16-.09-.27-.38-.34-.87m-34.82-7.89c-.23-.19-.47-.35-.73-.47,.01,0,.04,0,.09-.02,.03-.01,.06-.04,.09-.07l-1.41-.56c-.17-.07-.37-.14-.6-.2-.24-.06-.54-.13-.9-.2-.2-.01-.51-.04-.92-.09-.41-.01-.94-.02-1.56-.02h-.81c-.81,.13-1.45,.24-1.91,.31-.43,.09-.69,.16-.77,.2-.43,.1-.8,.24-1.11,.4-.33,.18-.62,.38-.88,.6-.13,.09-.24,.21-.32,.36-.09,.13-.16,.28-.24,.45-.1,.16-.14,.31-.13,.45,0,.12,.06,.21,.17,.27l-.32,.69s-.04,.21-.06,.49c-.01,.3-.02,.71-.02,1.23v.76c-.01,.36-.03,.83-.04,1.41,0,.19,.04,.34,.13,.43v.16s-.04,.05-.06,.07c-.01,.03-.02,.07-.02,.11,0,.22,.17,.37,.51,.45,.34,.09,.86,.12,1.56,.09,.59-.04,.99-.09,1.22-.13,.26-.04,.42-.15,.49-.31,.06-.15,.1-.41,.13-.78l.58-4.08c.13-.21,.29-.39,.49-.54,.21-.13,.49-.22,.81-.27,.3-.06,.59-.07,.86-.04,.27,.01,.53,.06,.77,.13,.49,.18,.86,.38,1.13,.6,.29,.21,.46,.43,.51,.65,0,.12,0,.27,.02,.45,0,.15,0,.34,.02,.56,.07,.36,.08,.76,.02,1.21s-.17,.95-.34,1.5c-.03,.19-.07,.38-.13,.56-.06,.21-.11,.41-.17,.6l-1.5,1.39-3.08,1.66-.75,.65-1.33,.87-.6,.52,.11,.22c-.46,0-.79,.37-1.01,1.12-.23,.75-.36,1.85-.39,3.32v2.42c.03,.6,.14,1.14,.34,1.61,.21,.49,.53,.93,.94,1.32,.54,.48,1.18,.83,1.91,1.05,.74,.19,1.58,.26,2.53,.2l2.63-.36c.39-.04,.68-.08,.88-.11l.32-.07,.84,.18c1.47,.4,2.71,.51,3.73,.31,.26-.04,.46-.13,.62-.27,.13-.1,.21-.25,.26-.43,0-.07-.03-.16-.09-.27-.04-.12-.09-.25-.15-.4l-.34-.56c-.13-.96-.21-1.68-.26-2.17-.07-.51-.09-.78-.04-.83v-.47c.01-.19,.03-.43,.04-.69-.06-.25-.1-.49-.13-.72-.01-.22-.02-.45-.02-.67v-1.72c-.03-.09-.06-.21-.09-.36-.04-.15-.07-.34-.09-.56,.01-.16,.04-.35,.06-.56,.01-.22,.02-.45,.02-.67l-.21-5.69c.01-.16,.02-.37,.02-.6,.01-.25,.02-.57,.02-.94,0-.03,0-.19-.02-.47,0-.3,0-.72-.02-1.25,0-.19-.04-.4-.13-.63-.06-.22-.14-.45-.26-.67,.03-.03,.07-.04,.13-.04h.26c-.21-.37-.39-.67-.51-.9-.1-.24-.16-.4-.19-.47-.19-.25-.39-.49-.6-.69m-8.31,16.31c0-.36,.01-.57,.04-.63,.04-.12,.09-.25,.15-.4,.04-.13,.07-.29,.09-.47,.11-.51,.3-.94,.56-1.3,.27-.34,.63-.62,1.07-.83,.87-.42,1.93-1.04,3.17-1.86,.17,.09,.31,.52,.41,1.3,.1,.78,.16,1.9,.19,3.38,0,1.4-.02,2.52-.06,3.36-.06,.85-.14,1.41-.24,1.68-.03,.01-.16,.07-.41,.18-.26,.12-.61,.26-1.05,.43h-.96c-.26,0-.46-.01-.6-.04-.54-.03-1.01-.17-1.39-.43-.37-.25-.66-.6-.88-1.05l-.04-1.88c-.03-.6-.04-1.08-.04-1.43m-.32,1.28s-.04,.1-.13,.16v-.16h.13m-21.84-23.99l-.02,.18c-.01,.21-.04,.57-.06,1.1v1.9c.03,.16,.05,.31,.06,.45,.01,.12,.02,.23,.02,.34,0,.07-.01,.23-.04,.47-.01,.21-.06,.51-.13,.9l.09,1.23v1.08c-.01,.48-.04,.81-.06,1.01-.01,.17-.02,.21-.02,.13v1.34c.03,.43,.05,.81,.06,1.12,.01,.33,.02,.6,.02,.83v3.34c0,2.94,.04,5.31,.13,7.1v1.93c.03,.15,.07,.33,.13,.54,.07,.22,.16,.48,.26,.76,.1,1.05,.39,1.91,.86,2.6,.47,.69,1.13,1.2,1.97,1.55,.51,.22,1.24,.4,2.18,.54,.93,.1,2.07,.16,3.43,.16l3.92-.13c.26,.01,.53,.04,.81,.07,.29,.01,.6,.02,.94,.02h.81c.27-.01,.56-.03,.86-.04,.2-.09,.34-.33,.41-.72,.07-.4,.07-.96,0-1.66-.03-.07-.06-.16-.09-.25-.04-.09-.08-.2-.11-.34,.07-.24,.12-.49,.15-.76,.03-.24,.04-.49,.04-.76s-.01-.54-.04-.81c-.03-.27-.08-.54-.15-.81l.11-6.45-.11-3.45c0-.45,0-.76,.02-.94s.04-.2,.09-.07c-.04-.18-.14-.31-.3-.4-.19-.09-.43-.14-.73-.16-.21-.04-.41-.06-.58-.04-.19,.03-.34,.06-.47,.09-.26,0-.59,0-1.01-.02-.41,0-.91,0-1.5-.02-.56-.04-1.06-.07-1.5-.07-.41,0-.78,.02-1.09,.07-.14-.04-.32-.07-.54-.07-.23,0-.49,.02-.79,.07v-.13c-.14,0-.24,.13-.3,.4-.07,.27-.11,.66-.11,1.16,0,.36,.01,.65,.04,.87,.03,.19,.07,.32,.13,.38,.07,.12,.27,.19,.6,.22,.31,.03,.75,.04,1.31,.02,.47-.03,.84-.03,1.09,0,.27,.01,.43,.06,.47,.13,.07,.07,.12,.21,.15,.4,.03,.18,.04,.42,.04,.72,0-.12-.02-.08-.04,.13-.01,.24-.03,.67-.04,1.3v1.37c.01,.16,.04,.4,.09,.72,.03,.31,.06,.7,.09,1.16v1.55c0,.12,0,.25-.02,.4-.03,.15-.05,.32-.06,.52v.63c0,.54-.02,.98-.06,1.32-.06,.36-.11,.63-.17,.81-.21,.36-.53,.64-.94,.85-.41,.22-.94,.36-1.56,.4-.98,.07-1.8,.02-2.44-.16-.64-.15-1.11-.4-1.39-.76-.19-.27-.34-.67-.45-1.21-.09-.52-.13-1.18-.13-1.97,0-1.18-.01-2.04-.04-2.58-.01-.54-.03-.74-.04-.6,0-.25,0-.77,.02-1.55,.01-.75,.04-1.77,.06-3.07,.01-.12,.04-.26,.06-.43,.01-.16,.02-.36,.02-.58v-4.88c0-.22-.02-.53-.06-.92-.03-.37-.06-.76-.11-1.16-.03-.39-.04-.69-.04-.92v-.18c0-.25,.01-.69,.04-1.3v-1.55c0-.09,0-.19-.02-.29,0-.12,0-.27-.02-.45v-.78c0-.28,.01-.82,.04-1.61,.04-1.9,.14-3.25,.28-4.05,.03-.22,.08-.49,.15-.78,.09-.3,.2-.65,.34-1.05,.2-.36,.58-.61,1.13-.76,.56-.18,1.28-.25,2.16-.22,.69,.01,1.24,.11,1.67,.29,.44,.18,.77,.44,.99,.78,.1,.13,.19,.46,.26,.96,.09,.52,.17,1.22,.26,2.08,.06,.6,.11,1.19,.15,1.79,.03,.61,.05,1.19,.06,1.75,0,.22,0,.55,.02,.96,.03,.4,.05,.9,.06,1.48-.01,.16-.02,.36-.02,.58,.01,.22,.06,.48,.13,.76,.07,.07,.28,.13,.62,.16s.83,.05,1.46,.07c.59,.04,1.06,.05,1.43,.02,.39-.01,.66-.04,.84-.07,.06-.01,.11-.04,.17-.09,.06-.04,.11-.1,.15-.18v-.87c-.04-1.76-.08-3.15-.11-4.17-.04-1-.07-1.61-.09-1.84-.16-1.36-.42-2.51-.79-3.45-.36-.96-.81-1.67-1.37-2.13l-.64-.54c-.97-.42-1.88-.69-2.72-.83-.83-.13-1.58-.12-2.27,.04-.07,0-.2,0-.39,0-.17,0-.38-.01-.62-.04-.09,.03-.21,.04-.39,.04-.19,.01-.41,.03-.69,.04-1.46,0-2.66,.25-3.62,.74-.98,.46-1.71,1.16-2.18,2.11-.21,.46-.38,1.13-.49,1.99-.11,.84-.17,1.87-.17,3.09m10.99-6.25s.03-.04,.04-.07h.11s-.01,.05-.04,.07c-.03,.03-.08,.05-.15,.07,0-.01,.01-.04,.04-.07m4.11,7.89l.19,.11s-.04,.04,0,.13h-.11s-.01-.04-.04-.09c-.01-.04-.03-.1-.04-.16m-13.6-.43s-.07,0-.09-.02c-.01,0-.02-.01-.02-.04,0-.01,0-.04,.02-.09,.01-.03,.04-.06,.09-.09v.25m.49,18.35h-.21v-.27s.06,.04,.11,.09,.08,.1,.11,.18Z" fill="#666"/>
        </g>
        <g>
          <path d="M198.48,127.88v8.31h45.16v-8.31h-45.16Zm41.64,5.79c-.86,0-1.56-.73-1.56-1.63s.7-1.63,1.56-1.63,1.56,.73,1.56,1.63-.7,1.63-1.56,1.63Z" fill="#666"/>
          <path d="M198.48,139.82v8.31h45.16v-8.31h-45.16Zm41.64,5.79c-.86,0-1.56-.73-1.56-1.63s.7-1.63,1.56-1.63,1.56,.73,1.56,1.63-.7,1.63-1.56,1.63Z" fill="#666"/>
          <path d="M198.48,151.77v8.31h45.16v-8.31h-45.16Zm41.64,5.79c-.86,0-1.56-.73-1.56-1.63s.7-1.63,1.56-1.63,1.56,.73,1.56,1.63-.7,1.63-1.56,1.63Z" fill="#666"/>
          <polygon points="236.62 102.63 233.98 98.89 231.34 102.63 231.34 124.59 236.62 124.59 236.62 102.63" fill="#666"/>
          <g>
            <path d="M240.74,69.39c-.51-.71-1.01-1.44-1.52-2.15-.5-.69-1.58-1.21-2.42-1.27-2.5-.17-63.84-.03-66.28-.08-1.15-.02-1.92,.25-2.67,1.36-.48,.72-.99,1.42-1.48,2.14h74.38Z" fill="#666"/>
            <path d="M243.66,73.51h-80.16c-1.71,2.41-3.42,4.81-5.1,7.24-1.43,2.06-3.23,4.03-4.04,6.35-1.27,3.66,.68,8.56,3.68,10.88,3.33,2.58,7.78,3.04,11.09,.49,2.09-1.61,3.58-4.08,5.1-5.89,1.05,3.67,3.65,6.68,8.12,7.36,5.76,.87,9.15-2.45,11.4-7.84,1.94,5.12,5.08,8.18,10.3,7.94,4.96-.24,7.83-3.37,9.43-8.25,1.62,4.92,4.52,8.12,9.56,8.27,5.41,.16,8.53-3.14,10.26-8.35,2.37,7.87,9.34,10.68,15.57,6.46,4.36-2.96,5.49-9.45,2.42-13.81-2.54-3.61-5.07-7.22-7.61-10.83Z" fill="#666"/>
          </g>
        </g>
      </g>
    </g>
  </g>
</svg>