<?xml version="1.0" encoding="UTF-8"?>
<svg id="Layer_2" data-name="Layer 2" xmlns="http://www.w3.org/2000/svg" width="294" height="269" xmlns:xlink="http://www.w3.org/1999/xlink" viewBox="0 0 294 269">
  <defs>
    <filter id="drop-shadow-1" filterUnits="userSpaceOnUse">
      <feOffset dx="7" dy="7"/>
      <feGaussianBlur result="blur" stdDeviation="9"/>
      <feFlood flood-color="#000" flood-opacity=".5"/>
      <feComposite in2="blur" operator="in"/>
      <feComposite in="SourceGraphic"/>
    </filter>
  </defs>
  <g id="Capa_1" data-name="Capa 1">
    <g>
      <rect x="20" y="20" width="240" height="215" rx="39.51" ry="39.51" fill="#fff" filter="url(#drop-shadow-1)"/>
      <g>
        <g id="Layer2_1_MEMBER_0_FILL" data-name="Layer2 1 MEMBER 0 FILL">
          <path d="M216.9,69.05l-4.54-1.81,1.32,4.71-3.12,3.76,4.89,.2,2.61,4.13,1.69-4.58,4.74-1.21-3.84-3.04,.32-4.88-4.07,2.72Z" fill="#666"/>
        </g>
        <g id="Layer2_1_MEMBER_1_FILL" data-name="Layer2 1 MEMBER 1 FILL">
          <path d="M180.77,72.03l-3.87-2.89,.05,4.84-3.94,2.79,4.62,1.44,1.44,4.61,2.79-3.94,4.84,.06-2.89-3.88,1.56-4.58-4.58,1.55Z" fill="#666"/>
        </g>
        <g id="Layer2_1_MEMBER_2_FILL" data-name="Layer2 1 MEMBER 2 FILL">
          <path d="M208.09,97.33c.25-1.34,.39-2.12,.42-2.34,.12-1.22,0-2.47-.37-3.75-.34-1.19-.88-2.33-1.6-3.45-1.14-1.77-2.89-3.58-5.27-5.45-.78-.62-1.24-.99-1.37-1.1-.51-.43-.92-.84-1.23-1.24-.39-.48-.67-.99-.86-1.54-.19-.59-.24-1.16-.15-1.71,.12-.61,.43-1.25,.93-1.93,1.05-1.44,2.44-2.64,4.19-3.61,.81-.44,1.66-.83,2.57-1.15-1.92-2.1-4.01-3.79-6.28-5.06-.83,.51-1.58,1.05-2.24,1.62-1.19,1.03-2.16,2.18-2.9,3.46-.79,1.39-1.22,2.8-1.31,4.24-.07,.95,.04,1.82,.33,2.58,.36,.94,1.06,1.84,2.1,2.7,.52,.44,1.26,.97,2.22,1.59,.47,.3,.87,.56,1.21,.78,.02,0,.03,.02,.05,.03,.48,.28,.92,.59,1.32,.93,1.62,1.24,2.63,2.57,3.02,4.01,.33,1.22,.24,2.66-.25,4.32-.44,1.48-1.06,2.87-1.87,4.16,2.47,.65,4.92,1.29,7.33,1.91Z" fill="#666"/>
        </g>
        <g id="Layer2_1_MEMBER_3_FILL" data-name="Layer2 1 MEMBER 3 FILL">
          <path d="M213.99,99.56c.35-1.01,.56-1.59,.63-1.76,.39-.88,.97-1.68,1.73-2.4,.7-.67,1.51-1.24,2.44-1.72,1.46-.75,3.37-1.3,5.72-1.64,.77-.12,1.23-.19,1.36-.21,.52-.09,.96-.21,1.32-.36,.45-.17,.85-.41,1.19-.71,.36-.33,.62-.7,.77-1.1,.16-.46,.2-1.02,.12-1.68-.15-1.39-.63-2.75-1.43-4.1-.37-.62-.81-1.21-1.3-1.79,2.13-.68,4.21-1,6.26-.97,.36,.68,.66,1.34,.89,1.98,.41,1.17,.61,2.33,.61,3.49-.01,1.25-.27,2.38-.77,3.4-.33,.68-.74,1.22-1.24,1.63-.62,.5-1.45,.84-2.49,1.01-.53,.1-1.24,.16-2.13,.21-.44,.02-.81,.04-1.13,.05-.01,0-.03,0-.04,0-.43,0-.85,.04-1.26,.12-1.59,.2-2.8,.72-3.63,1.54-.7,.7-1.21,1.71-1.53,3.03-.28,1.18-.4,2.37-.36,3.56-1.94-.53-3.85-1.06-5.73-1.58Z" fill="#666"/>
        </g>
        <g id="Layer2_1_MEMBER_4_FILL" data-name="Layer2 1 MEMBER 4 FILL">
          <path d="M177.51,83.39c-.23-.08-.46-.16-.69-.24-.06,.17-.12,.34-.18,.5-.41,1.17-.61,2.33-.62,3.49,.02,1.24,.27,2.38,.77,3.39,.33,.68,.74,1.22,1.23,1.63,.62,.51,1.45,.84,2.5,1,.52,.1,1.23,.17,2.12,.21,.45,.02,.82,.04,1.13,.07,.03,0,.05,0,.06-.01,.43,0,.85,.04,1.25,.13,1.59,.2,2.8,.71,3.63,1.54,.71,.7,1.22,1.71,1.53,3.03,.28,1.17,.4,2.36,.35,3.57,1.94-.54,3.86-1.07,5.75-1.6-.36-1.01-.57-1.59-.65-1.75-.39-.88-.97-1.68-1.73-2.41-.68-.67-1.5-1.24-2.44-1.71-1.46-.75-3.37-1.29-5.72-1.63-.77-.12-1.22-.19-1.35-.21-.52-.09-.96-.22-1.32-.37-.45-.18-.85-.41-1.19-.7-.36-.34-.62-.7-.77-1.1-.17-.47-.21-1.03-.13-1.68,.13-1.23,.51-2.44,1.15-3.63-1.48-.45-3.05-.96-4.7-1.51Z" fill="#666"/>
        </g>
        <g id="Layer2_1_MEMBER_5_FILL" data-name="Layer2 1 MEMBER 5 FILL">
          <path d="M213.88,84.64l-1.88-1.41,.03,2.35-1.92,1.36,2.25,.7,.7,2.24,1.36-1.92,2.35,.03-1.41-1.89,.76-2.23-2.23,.75Z" fill="#666"/>
        </g>
        <g id="Layer2_1_MEMBER_6_FILL" data-name="Layer2 1 MEMBER 6 FILL">
          <path d="M194.02,84.64l-1.88-1.41,.03,2.35-1.92,1.36,2.25,.7,.7,2.24,1.36-1.92,2.35,.03-1.41-1.89,.76-2.23-2.23,.75Z" fill="#666"/>
        </g>
        <g id="Layer2_2_FILL" data-name="Layer2 2 FILL">
          <path d="M196.92,132.05c.13,.19,.27,.44,.41,.74l18.4-11.34,2.16-5.16c.48-1.05,.95-2.17,1.4-3.35l-24.32,15c.14,.34,.32,.77,.53,1.29,.35,.74,.82,1.68,1.42,2.83m1.71,4.6c.09,.68,.51,2.47,1.29,5.36-.84,5.69-1.44,9.27-1.81,10.76l-.99,3.18c-.1,.19-.31,.45-.62,.78-.29,.35-.86,.78-1.73,1.29-.42,.08-.92,.19-1.52,.35-.56,.13-1.18,.31-1.87,.53h-.16s-.08-.03-.12-.1c-.13,0-.29,.03-.47,.1-.14,.05-.3,.13-.47,.23-.06,0-.12-.01-.16-.04-.06-.04-.12-.08-.18-.12-.38,0-.7,.16-.97,.47-.25,.31-.46,.78-.64,1.4-.03,.6-.03,1.08,0,1.46,.08,.36,.22,.61,.43,.74,.66,.39,2.26,.55,4.79,.47,4.65-.16,7.67-.8,9.06-1.93l2.36-3.57c.25-.45,.6-1.29,1.05-2.49,.42-1.25,.77-3.03,1.05-5.34l.95-7.58h.02l.84-2.81,2.38-6.08,.68-2.46,1.44-3.64-14.63,9.04m3.98,17.69c-.04,.05-.08,.1-.12,.14v-.18h-.16v-.08h.37c0,.05-.03,.09-.1,.12m-9-30.3s.01,.05,.04,.08l27.79-17.15c0-.08,0-.15,0-.21l-.19-.16c-.18-.03-.67-.05-1.46-.08-.84-.04-2.03-.06-3.57-.06l-3.45-.12v.04s-.06,.05-.1,.08c-.53,0-1.1,0-1.71-.02h-.18l-19.19,11.85c.16,.45,.33,.96,.53,1.52,.42,1.16,.92,2.57,1.5,4.23m9.94-17.75c-3.1-.05-4.66-.08-4.68-.08-.82-.03-1.78-.03-2.88,0-1.12,0-2.34,.05-3.68,.14l-3.84-.21c-.16,.05-.32,.12-.49,.21-.17,.08-.31,.17-.43,.27,.12,.18,.42,1.2,.92,3.06,.1,.58,.38,1.5,.82,2.75,.22,.65,.49,1.37,.8,2.16l13.47-8.3m-10.7,4.72v-.19c.06-.05,.17-.1,.31-.14,.14-.05,.29-.13,.45-.23,0,.1-.03,.2-.08,.29l-.27,.27v.06h-.21v-.06h-.19Z" fill="#666"/>
        </g>
        <g id="Layer2_3_FILL" data-name="Layer2 3 FILL">
          <path d="M117.92,105.06c-.43-.03-1.06-.07-1.89-.14-.86-.03-1.93-.04-3.22-.04h-1.66c-1.66,.25-2.96,.44-3.88,.58-.88,.19-1.42,.32-1.6,.37-.86,.22-1.61,.5-2.26,.84-.68,.34-1.27,.72-1.79,1.15-.25,.18-.46,.41-.64,.68-.18,.29-.35,.58-.51,.88-.18,.34-.26,.63-.23,.88,0,.25,.1,.43,.31,.55l-.64,1.34c-.03,.09-.07,.41-.14,.95-.03,.58-.04,1.38-.04,2.4v1.52c-.03,.71-.06,1.64-.1,2.77,0,.36,.09,.64,.27,.84v.27c-.03,.05-.07,.1-.14,.14-.03,.06-.04,.14-.04,.23,0,.43,.35,.72,1.05,.88,.71,.18,1.77,.24,3.18,.18,1.2-.09,2.04-.18,2.53-.27,.52-.09,.84-.29,.97-.6,.12-.31,.21-.83,.27-1.56l.47-4.38,.72-3.55c.25-.43,.58-.78,1.01-1.05,.44-.27,.99-.45,1.66-.55,.62-.09,1.21-.12,1.75-.1,.56,.03,1.08,.12,1.58,.27,.97,.38,1.74,.78,2.3,1.21,.58,.39,.94,.8,1.05,1.23,0,.25,.01,.54,.04,.88,0,.31,.02,.68,.06,1.11,.16,.7,.17,1.48,.04,2.34-.12,.9-.34,1.88-.68,2.96-.06,.36-.16,.73-.27,1.09-.13,.4-.25,.79-.37,1.15l-3.04,2.73-6.31,3.27-1.52,1.23-2.71,1.71-1.25,1.01,.23,.45c-.92,0-1.62,.72-2.09,2.16-.45,1.48-.71,3.65-.78,6.51v4.68c.06,1.17,.31,2.23,.74,3.18,.43,.96,1.06,1.83,1.89,2.59,1.1,.92,2.41,1.6,3.92,2.03,1.49,.39,3.21,.53,5.14,.41l5.4-.68c.79-.1,1.39-.18,1.79-.23l.64-.14,1.7,.37c3.01,.77,5.55,.96,7.6,.58,.56-.09,.99-.26,1.29-.51,.29-.21,.45-.48,.51-.82,0-.16-.05-.34-.14-.57-.09-.21-.19-.47-.31-.78l-.7-1.09c-.27-1.84-.45-3.26-.55-4.25-.13-.97-.16-1.51-.1-1.6v-.94c.04-.36,.07-.81,.1-1.33-.09-.49-.17-.97-.23-1.42-.03-.44-.04-.88-.04-1.31v-3.35c-.06-.18-.13-.43-.19-.74-.09-.27-.15-.62-.18-1.05,.03-.34,.07-.71,.14-1.11,.03-.43,.04-.87,.04-1.33l-.45-11.11c.03-.3,.04-.7,.04-1.19,.03-.49,.04-1.09,.04-1.79,0-.06-.01-.38-.04-.94,0-.57-.01-1.4-.04-2.47,0-.38-.08-.78-.23-1.21-.13-.43-.32-.87-.57-1.33,.06-.06,.16-.1,.29-.1h.51c-.43-.7-.77-1.29-1.01-1.75-.22-.45-.36-.76-.43-.92-.36-.49-.77-.94-1.23-1.33-.47-.38-.96-.69-1.48-.94,.03,0,.08-.01,.18-.04,.06-.03,.13-.07,.19-.14l-2.9-1.11c-.34-.12-.75-.24-1.25-.37-.49-.12-1.09-.25-1.79-.41m-9.33,31.9c.23-.97,.62-1.82,1.15-2.53,.55-.68,1.27-1.21,2.16-1.6,1.78-.83,3.94-2.05,6.49-3.64,.34,.18,.61,1.03,.82,2.53,.22,1.51,.36,3.7,.43,6.59,0,2.75-.05,4.95-.16,6.59-.12,1.65-.29,2.73-.51,3.25-.05,.04-.32,.16-.82,.37-.52,.22-1.23,.5-2.12,.84h-1.97c-.52,0-.94-.03-1.25-.1-1.1-.06-2.04-.34-2.81-.82-.77-.49-1.36-1.19-1.79-2.09l-.1-3.68c-.06-1.17-.1-2.09-.1-2.77s.03-1.11,.1-1.23c.09-.25,.18-.51,.27-.78,.09-.29,.16-.6,.19-.94m-1.21,5.44c0,.09-.09,.18-.27,.27v-.27h.27m-20.38-62.14c-1.04,0-2.29-.02-3.76-.06-1.48-.05-3.17-.16-5.07-.31-.34,.06-1.18,.11-2.53,.14-1.35,.03-3.18,.01-5.48-.04-3.6-.1-5.69-.01-6.27,.27-.55,.3-.82,1.34-.82,3.12,0,2.52,.03,4.75,.1,6.68,.03,1.96,.08,3.63,.18,5.01,.06,.71,.11,1.75,.14,3.1,.04,1.38,.06,3.08,.06,5.11,0,.16-.02,.36-.06,.6-.03,.27-.07,.58-.14,.92l.19,6.59c0,.09-.02,.23-.06,.41-.03,.18-.07,.43-.14,.74-.03,.27-.04,.5-.04,.68,0,.22,.01,.39,.04,.51v7.56c.06,.3,.11,.68,.14,1.15,.04,.43,.06,.95,.06,1.56v4.6c-.04,1.3-.09,2.48-.16,3.55-.03,1.1-.04,2.13-.04,3.08,0,.44,.01,1.01,.04,1.71,.06,.74,.12,1.64,.16,2.71,.05,1.3,.1,2.45,.14,3.45,.03,1.05,.04,1.97,.04,2.77v3.41c0,.34-.01,.68-.04,1.01-.04,.34-.08,.69-.14,1.05v1.25c0,1.33,.19,2.08,.58,2.26h.1c.31,.16,.94,.25,1.89,.27,.92,.06,2.1,.06,3.55,0,.52,.06,1.13,.08,1.83,.04,.71-.03,1.51-.1,2.4-.21,.04-.25,.07-.65,.1-1.21,.03-.58,.07-1.35,.14-2.3v-5.67c-.06-.45-.11-.9-.14-1.33-.03-.4-.06-.77-.1-1.11,.04-.09,.07-.19,.1-.31,.03-.16,.07-.3,.14-.43v-.86c-.03-.56-.1-1.28-.23-2.16-.09-.9-.15-1.62-.18-2.16,0-2.22,.03-4.25,.08-6.08,.04-1.84,.07-3.48,.1-4.89,.06-.79,.1-1.48,.1-2.07s-.03-1.08-.1-1.42c-.09-1.6-.09-2.53,0-2.81l2.4-.19c2.39,.04,4.33,.06,5.81,.06s2.48-.02,3.04-.06c2.48-.27,4.58-.79,6.29-1.56,1.73-.77,3.08-1.78,4.05-3.04,.27-.36,.53-1.03,.78-1.99,.22-.92,.41-2.12,.57-3.59,.21-2.05,.33-4.18,.37-6.39,.03-2.21-.04-4.47-.19-6.78l-.55-7.64c-.31-2.55-1.25-4.55-2.81-6.02-1.57-1.44-3.79-2.33-6.65-2.67m-2.38,6.26c.86,.52,1.39,1.21,1.6,2.07,.16,.43,.28,.94,.37,1.52,.09,.62,.17,1.3,.23,2.03l.27,6.27c0,.21,.03,.48,.1,.82s.16,.75,.27,1.25c-.06,.58-.11,1.2-.14,1.83-.03,.65-.04,1.31-.04,1.99,.05,.83,.1,1.6,.14,2.3,.03,.7,.04,1.39,.04,2.07,.06,.53,.11,.92,.14,1.15,.03,.21,.05,.32,.06,.33l-.84,2.49-.88,.92s-.03,.08,0,.18l.27,.27h-.27c0,.31-.84,.6-2.53,.88l-3.41,.64c-.55,0-1.84,.1-3.9,.29-.96,0-1.73-.05-2.32-.16-.55-.05-.91-.16-1.09-.31-.06-.03-.1-.23-.1-.6v-1.56c-.16-3.53-.23-6.42-.23-8.65-.03-2.25,0-3.86,.06-4.83,.09-2.77,.15-4.79,.18-6.08l.1-1.75c0-.52-.05-1.18-.14-1.99-.09-.79-.2-1.73-.33-2.81-.06-.34-.11-.63-.14-.88-.03-.23-.04-.45-.04-.64,.03-.09,.1-.18,.21-.27,.13-.09,.27-.15,.43-.18v-.1c2.12,0,3.88,.03,5.28,.1,1.42,.03,2.47,.12,3.18,.27,1.48,.25,2.64,.63,3.47,1.15m61.75,20.58c-1.17,.22-2.1,.5-2.81,.84-.36-.1-.78-.34-1.25-.7-.43-.36-.94-.52-1.52-.47-1.26,0-2.46-.01-3.59-.04-1.17-.03-2.29-.07-3.37-.14-.27,.16-.49,.31-.64,.47-.12,.14-.18,.32-.18,.55v1.34c0,.43,.01,.93,.04,1.5,.04,.58,.08,1.28,.14,2.09-.05,.21-.1,.53-.14,.95-.03,.4-.04,.86-.04,1.38,0,.04,.01,.35,.04,.94,.04,.57,.08,1.46,.14,2.67,0,.45,.02,1.2,.06,2.24,.03,1.01,.07,2.31,.14,3.88v16.29c.03,1.2,.06,2.67,.1,4.42v10.58c.05,.13,.12,.25,.21,.37,.09,.09,.2,.18,.33,.27,.34,.16,1.05,.25,2.12,.27,1.07,.06,2.49,.06,4.27,0,.52,0,.95-.05,1.29-.14,.34-.09,.6-.23,.8-.41v-6.9c0-.27-.02-.58-.06-.92-.03-.34-.07-.73-.14-1.17v-1.09c0-1.01-.03-2.73-.1-5.16-.05-2.46-.14-5.64-.27-9.57-.05-1.84-.08-3.53-.08-5.07s.03-2.88,.08-4.05v-3.86c-.09-2.46,.19-4.07,.84-4.85,.61-.7,1.58-1.25,2.9-1.66,1.31-.39,2.95-.65,4.91-.78,1.91,0,3.35-.05,4.33-.14,.99-.12,1.53-.29,1.62-.51,.06-.09,.11-.29,.14-.6,.04-.27,.06-.67,.06-1.19,.03-.7-.29-1.24-.94-1.62-.61-.36-1.55-.55-2.81-.55h-1.52c-.39,.03-.68,.06-.88,.1-1.62,.05-3.03,.19-4.23,.41m20.62-17.69l.04,.39c0,.16-.01,.37-.04,.64-.03,.26-.07,.6-.14,1.01,.02,.01,.05,.18,.1,.51,.03,.45,.05,1.18,.08,2.16-.12,.52-.23,1.68-.35,3.49-.1,1.78-.2,4.21-.29,7.29-.09,.36-.36,.64-.82,.82v.1l-.84-.04c-.61-.06-1.6-.14-2.98-.23-1.53-.16-2.55-.11-3.04,.14-.52,.25-.7,.8-.55,1.66v2.16c.14,.3,.55,.53,1.23,.68,.68,.18,1.63,.31,2.86,.37,1.26,.04,2.23,.13,2.9,.27,.68,.16,1.08,.34,1.23,.57,.04,.05,.06,.4,.06,1.05,.03,.68,.04,1.64,.04,2.9l.19,7.83c0,1.47,.01,2.89,.04,4.27,.03,1.39,.07,2.77,.14,4.15l.37,9.76c.03,.92,.06,2.38,.1,4.37,0,.81,.03,1.74,.08,2.81,.06,1.1,.16,2.33,.29,3.68,0,.34,.09,.71,.27,1.11,.18,.4,.44,.84,.78,1.33,.55,.44,1.27,.77,2.16,.97,.88,.18,1.94,.27,3.18,.27,2.91,.09,4.8,0,5.67-.27h.18c.06-.03,.1-.06,.1-.1,0,.09-.84-.57-2.53-1.97-.09-.16-.21-.56-.37-1.21-.16-.64-.36-1.53-.6-2.67,.06-.95,.06-1.73,0-2.34-.03-.61-.08-1.06-.18-1.34v-2.44l-.57-7.37,.19-1.79c0-2.18-.05-4.9-.14-8.15-.13-3.22-.3-6.98-.51-11.28-.06-1.08-.06-1.96,0-2.63,.05-.7,.2-1.21,.45-1.52,1.84,0,3.27-.05,4.29-.14,.99-.12,1.57-.3,1.75-.55,.25-.22,.4-.57,.45-1.05,.06-.47,.08-1.05,.06-1.75-.06-.52-.23-.92-.51-1.21-.25-.27-.58-.44-1.01-.51h-3.41c-.74,0-1.33-.06-1.75-.18-.39-.12-.62-.3-.68-.55v-4.05c0-.58-.03-1.35-.1-2.3-.03-.96-.07-1.93-.14-2.9-.03-.95-.04-1.7-.04-2.26,0-1.17-.03-2.07-.1-2.71-.06-.62-.16-.98-.27-1.07,0-.04-1.44-.1-4.33-.19h-3m6.18,2.92v.18h-.37c0-.09-.02-.18-.06-.27-.05-.13-.1-.25-.14-.37,.04,.09,.1,.18,.19,.27,.12,.06,.24,.13,.37,.19m-4.25-.19v.1h-.82c0,.06-.03,.1-.1,.1-.03,0-.06-.03-.1-.1,0-.03,.02-.06,.06-.1,.03,0,.07,0,.14,0v-.1c.09,0,.19,0,.31,0,.16,.04,.32,.07,.51,.1m-.37-1.05c.12,.02,.23,.06,.33,.12-.02,0-.07,0-.14,.02-.13,0-.25,.03-.37,.1v-.33s.08,.03,.18,.1m1.17,5.44c-.06,.05-.18,.1-.33,.14v-.27h.41s-.03,.07-.08,.14Z" fill="#666"/>
        </g>
        <g id="Layer2_4_FILL" data-name="Layer2 4 FILL">
          <path d="M126.85,176.19c-.18-.07-.41-.14-.68-.2-.29-.07-.63-.15-1.02-.23-.24-.02-.59-.05-1.06-.09-.48-.01-1.08-.02-1.8-.02h-.93c-.93,.14-1.66,.26-2.17,.34-.5,.1-.81,.16-.92,.2-.48,.12-.9,.28-1.26,.47-.38,.19-.72,.41-1.01,.65-.14,.11-.27,.24-.38,.4-.1,.16-.19,.32-.27,.49-.11,.19-.16,.35-.14,.49,0,.14,.06,.25,.18,.32l-.36,.75s-.04,.23-.07,.54c-.01,.32-.02,.77-.02,1.35v.84c-.02,.4-.04,.92-.05,1.56,0,.2,.05,.36,.14,.47v.14s-.04,.06-.07,.07c-.01,.04-.02,.08-.02,.14,0,.24,.2,.4,.59,.49,.4,.11,.99,.14,1.78,.11,.67-.06,1.14-.11,1.42-.16,.3-.05,.48-.16,.54-.34,.07-.17,.13-.46,.16-.88l.27-2.44,.41-1.99c.13-.24,.32-.44,.56-.59s.55-.26,.93-.32c.35-.05,.68-.07,.99-.05,.31,.02,.6,.08,.88,.16,.55,.2,.98,.43,1.29,.68,.32,.22,.52,.44,.59,.68,0,.14,0,.31,.02,.5,0,.17,.01,.37,.04,.61,.08,.41,.09,.85,.02,1.33-.07,.5-.2,1.05-.38,1.65-.04,.2-.09,.41-.16,.63-.07,.22-.14,.43-.22,.65l-1.71,1.53-3.54,1.83-.84,.7-1.53,.95-.7,.57,.13,.25c-.51,0-.9,.41-1.17,1.22-.25,.83-.4,2.04-.43,3.65v2.64c.04,.65,.17,1.24,.41,1.78,.24,.54,.59,1.02,1.06,1.46,.62,.51,1.35,.89,2.19,1.13,.85,.23,1.81,.31,2.89,.23l3.04-.4c.44-.05,.78-.09,1.01-.13l.36-.07,.97,.2c1.69,.43,3.11,.54,4.26,.34,.31-.05,.55-.14,.72-.29,.16-.12,.25-.28,.29-.47,0-.08-.02-.19-.07-.31-.05-.12-.11-.26-.18-.43l-.4-.63c-.16-1.03-.26-1.82-.31-2.37-.07-.56-.09-.87-.05-.92v-.52c.02-.2,.04-.45,.05-.74-.05-.28-.09-.54-.13-.81-.02-.24-.04-.48-.04-.72v-1.9c-.02-.1-.05-.23-.09-.41-.06-.16-.1-.35-.11-.59,.01-.19,.04-.4,.07-.61,.02-.24,.04-.49,.04-.75l-.27-6.23c.02-.17,.04-.4,.04-.68,.01-.28,.02-.61,.02-1.01,0-.04,0-.2-.02-.5,0-.34-.01-.8-.04-1.4,0-.22-.04-.44-.13-.68-.07-.24-.17-.49-.31-.74,.04-.04,.08-.05,.14-.05h.29c-.24-.4-.43-.72-.56-.99-.13-.26-.21-.44-.23-.52-.22-.28-.45-.53-.7-.75-.26-.2-.54-.37-.83-.5,.01,0,.04-.01,.09-.04,.04-.01,.07-.04,.11-.07l-1.63-.63m-.97,14.55c.12,.84,.2,2.07,.23,3.7,0,1.54-.03,2.77-.09,3.68-.06,.93-.16,1.55-.29,1.85-.02,.01-.17,.08-.45,.2-.3,.12-.7,.28-1.2,.47h-1.11c-.29,0-.51-.02-.68-.05-.62-.04-1.15-.19-1.58-.47-.43-.28-.77-.66-1.01-1.15l-.05-2.08c-.04-.65-.05-1.16-.05-1.54s.02-.63,.05-.7c.05-.13,.1-.28,.14-.43,.06-.16,.1-.33,.11-.52,.14-.55,.36-1.02,.65-1.42,.31-.38,.72-.69,1.22-.92,.99-.47,2.21-1.15,3.65-2.05,.19,.11,.35,.59,.47,1.44m-6.65,6s-.05,.1-.16,.14v-.14h.16m-24.56-31.9c-.24,.5-.42,1.23-.54,2.17-.14,.92-.21,2.06-.22,3.4l-.02,.2c-.02,.23-.05,.62-.09,1.19v2.1c.04,.19,.07,.35,.09,.49,.01,.14,.02,.27,.02,.38,0,.08-.02,.25-.05,.5-.01,.25-.06,.58-.14,.99l.09,1.37v1.17c-.01,.54-.04,.91-.07,1.11l-.02,.14v1.49c.04,.47,.06,.87,.07,1.22,.01,.36,.02,.66,.02,.9v3.66c0,3.23,.05,5.83,.16,7.8v2.12c.04,.16,.09,.35,.16,.59,.06,.24,.16,.51,.29,.83,.12,1.14,.44,2.09,.97,2.86,.54,.75,1.29,1.32,2.26,1.71,.6,.24,1.43,.43,2.5,.56,1.08,.12,2.39,.18,3.93,.18l4.51-.14c.29,.01,.6,.04,.93,.07,.32,.02,.68,.04,1.08,.04h.93c.31-.02,.64-.04,.99-.05,.22-.08,.37-.34,.47-.77,.08-.46,.08-1.06,0-1.81-.04-.08-.07-.18-.11-.29-.04-.11-.07-.23-.11-.36,.07-.26,.13-.54,.16-.83,.04-.28,.05-.56,.05-.86s-.02-.58-.05-.88c-.04-.29-.09-.58-.16-.88l.11-7.08-.11-3.79c0-.49,0-.83,.02-1.02,.02-.19,.05-.22,.09-.09-.04-.18-.15-.32-.34-.43-.2-.11-.48-.17-.83-.18-.24-.04-.46-.05-.66-.04-.22,.02-.4,.05-.56,.09-.29,0-.66-.01-1.13-.04-.48,0-1.06,0-1.74-.02-.63-.04-1.2-.05-1.71-.05s-.9,.02-1.26,.05c-.16-.04-.37-.05-.63-.05s-.55,.02-.9,.05v-.13c-.16,0-.27,.14-.34,.43-.08,.3-.13,.72-.13,1.28,0,.4,.02,.71,.05,.95,.04,.23,.08,.37,.14,.41,.1,.14,.32,.23,.68,.25,.36,.04,.86,.05,1.49,.04,.55-.04,.98-.04,1.28,0,.31,.01,.49,.06,.54,.14,.07,.07,.13,.22,.16,.45,.03,.19,.05,.45,.05,.77,0-.13-.02-.08-.05,.16-.02,.25-.04,.72-.05,1.42v1.51c.01,.17,.05,.43,.11,.77,.04,.35,.07,.78,.11,1.29v1.67c0,.14-.01,.29-.04,.45-.04,.17-.06,.36-.07,.57v.68c0,.59-.03,1.07-.09,1.46-.05,.4-.11,.69-.18,.88-.24,.4-.6,.71-1.08,.93-.48,.24-1.08,.38-1.8,.43-1.14,.1-2.07,.05-2.8-.14-.73-.18-1.26-.47-1.58-.86-.23-.29-.4-.72-.52-1.31-.11-.57-.16-1.3-.16-2.17,0-1.29-.02-2.23-.05-2.82-.01-.59-.03-.81-.05-.68,0-.28,.01-.83,.04-1.67,.01-.83,.04-1.95,.07-3.36,.02-.14,.05-.3,.09-.47,.01-.19,.02-.41,.02-.65v-5.35c0-.25-.02-.59-.07-1.02-.04-.41-.08-.83-.14-1.26-.02-.43-.04-.77-.04-1.01v-.22c0-.28,.01-.75,.04-1.42v-1.71c0-.08,0-.19-.02-.31,0-.14,0-.31-.02-.5v-.84c0-.31,.01-.91,.04-1.8,.06-2.07,.17-3.55,.32-4.44,.04-.25,.1-.54,.18-.86,.1-.32,.22-.71,.38-1.17,.25-.37,.69-.65,1.33-.83,.63-.19,1.46-.27,2.48-.23,.78,.02,1.42,.13,1.92,.32,.49,.18,.86,.46,1.11,.84,.12,.16,.22,.51,.31,1.06,.11,.57,.2,1.34,.29,2.28,.07,.66,.13,1.31,.18,1.96,.04,.67,.06,1.32,.07,1.94,0,.24,.01,.59,.04,1.04,.02,.44,.05,.99,.07,1.63-.02,.18-.04,.4-.04,.65,.02,.24,.07,.51,.14,.83,.08,.08,.32,.14,.72,.18s.95,.06,1.65,.07c.67,.04,1.22,.05,1.65,.04,.46-.02,.78-.05,.97-.09,.06-.01,.13-.05,.2-.11,.07-.05,.13-.11,.16-.2v-.95c-.04-1.94-.07-3.46-.11-4.56-.05-1.1-.08-1.77-.11-2.01-.19-1.5-.49-2.77-.9-3.81-.42-1.03-.95-1.8-1.58-2.32l-.75-.61c-1.1-.44-2.14-.74-3.11-.9-.95-.13-1.81-.11-2.6,.05h-.45c-.18,0-.42-.02-.72-.05-.08,.04-.23,.05-.43,.05-.22,.01-.48,.03-.79,.05-1.66,0-3.05,.26-4.15,.79-1.13,.53-1.96,1.31-2.51,2.34m11.84-1.29s.04-.04,.05-.07h.14s-.02,.06-.05,.07c-.04,.04-.1,.06-.18,.07,0-.01,.01-.04,.04-.07m4.74,8.66l.22,.11c-.06,0-.06,.05,0,.16h-.11s-.02-.06-.05-.11c-.02-.05-.04-.1-.05-.16m-15.63-.74v.29s-.06-.01-.07-.04c-.02,0-.04-.02-.04-.05,0-.01,.01-.05,.04-.11,.01-.02,.04-.05,.07-.09m.57,20.41h-.23v-.31s.08,.04,.13,.09c.04,.06,.07,.13,.11,.22m65.44-11.41c0-.18-.02-.43-.07-.75-.05-.32-.13-.73-.23-1.22-.59-1.35-2.39-2.2-5.41-2.53-.31-.01-.6-.03-.88-.05-.28-.01-.53-.01-.77,0-.46,.04-.96,.11-1.51,.22-.55,.08-1.16,.22-1.83,.4-.13,.01-.4,.08-.81,.22-.4,.14-.72,.22-.97,.23l-3.63-1.06c-.75-.06-1.54-.07-2.37-.02-.81,.05-1.65,.16-2.5,.34-.29,.05-.56,.11-.83,.18-.28,.05-.54,.11-.79,.2-.14,0-.26-.02-.34-.07s-.17-.13-.25-.25c-.06-.23-.15-.37-.27-.41-.11-.06-.5-.1-1.17-.11-.05,0-.11,0-.2,.02-.08,.02-.19,.05-.32,.09h-2.5l-.22,.49v1.47c-.01,.08-.04,.14-.07,.16,0,0-.02,0-.02-.04l.66,18.2c-.04,.2-.06,.44-.07,.72-.02,.25-.04,.52-.04,.81,.04,.37,.07,.9,.11,1.6,.04,.67,.07,1.5,.11,2.48-.04,.11-.07,.23-.09,.36-.01,.14-.02,.29-.02,.45,0,.13,0,.29,.02,.47,.02,.17,.05,.35,.09,.54,.16,.2,.63,.31,1.42,.31,1.02,.02,1.81,.02,2.37,0,.59,0,.94-.02,1.06-.05,.3-.08,.49-.25,.57-.49,.08-.24,.08-.59-.02-1.04l-.27-10.49c0-.18-.02-.68-.05-1.51-.02-.83-.08-1.96-.18-3.41-.08-3.02-.13-4.66-.13-4.92,0-.48,.02-.87,.07-1.19,.07-.32,.17-.56,.29-.72,.35-.46,.77-.77,1.28-.95,.5-.19,1.07-.25,1.71-.16,.44,.05,.81,.14,1.11,.29,.29,.13,.51,.32,.66,.56,.08,.13,.16,.36,.23,.68,.07,.31,.13,.72,.16,1.22,.11,.98,.19,2.13,.23,3.43,.05,1.33,.09,2.8,.13,4.4l.31,9.65c0,.47,.01,1.08,.04,1.83,.04,.74,.06,1.63,.07,2.68,.16,.12,.43,.2,.81,.25,.37,.05,.86,.07,1.47,.07,.38,0,.8,0,1.24-.02,.47-.02,.98-.05,1.53-.07l.95-.23c.07-.04,.11-.17,.13-.4,.02-.23,.02-.54-.02-.93-.04-1.27-.09-3.04-.16-5.32-.08-2.3-.19-5.1-.32-8.39-.07-.51-.14-1.22-.22-2.12-.05-.9-.1-1.99-.16-3.29-.02-.74-.03-1.35-.02-1.83,0-.47,.02-.8,.07-.99,.16-.51,.49-.91,.99-1.19s1.17-.43,1.99-.45c.6,0,1.09,.11,1.47,.32,.38,.2,.65,.52,.81,.95l.2,2.17c.19,1.77,.34,3.73,.45,5.87,.1,2.13,.14,4.44,.14,6.93,0,.32,.03,.76,.09,1.31,.05,.57,.07,1.02,.07,1.35,0,.24,0,.74,.02,1.51,.04,.77,.07,1.8,.09,3.09-.02,.16-.04,.34-.04,.56,.02,.2,.07,.43,.13,.66,.1,.01,.34,.05,.74,.11,.4,.04,.95,.07,1.65,.11,.97,.05,1.66,.06,2.07,.04,.42-.01,.69-.06,.81-.14,.1-.07,.16-.18,.2-.32,0-1.22,0-2.33-.02-3.32-.02-1.01-.05-1.9-.07-2.68-.1-1.08-.19-2.61-.27-4.6-.08-1.96-.2-4.38-.34-7.24l-.36-4.99m-14.19-.52s-.07-.05-.11-.11l.25,.16s-.1-.02-.14-.05m1.2,18.56s-.07-.1-.09-.18l.16,.22s-.04-.02-.07-.04m-13.78-7.35s-.08,.04-.16,.07v-.16h.22s-.02,.05-.05,.09m44.46-13.74c-.62-.79-1.56-1.35-2.82-1.69-.47-.12-1.21-.22-2.23-.29-1.02-.05-2.3-.07-3.84-.07l-2.64,.5c-1.8,.3-2.91,1.41-3.34,3.32-.16,.62-.1,.99,.16,1.11,0,.02-.03,.04-.09,.04-.02,.01-.08,.02-.18,.02,0,1.32,.03,2.33,.09,3.04,.06,.68,.16,1.07,.29,1.15v.05h-.38c0,2.3,.03,4.39,.09,6.27,.06,1.88,.16,3.55,.29,5.01,.02,.14,.05,.32,.09,.54,.06,.25,.11,.54,.14,.88,.05,.74,.11,1.37,.18,1.87,.08,.5,.17,.87,.27,1.11,.37,1.09,1.23,1.9,2.59,2.43,1.35,.54,3.21,.81,5.57,.81,1.72,0,3.14-.17,4.24-.52,1.13-.36,1.92-.89,2.39-1.6,.24-.38,.43-.96,.56-1.74,.13-.79,.2-1.78,.2-2.96v-2.17c0-.16-.02-.35-.05-.57-.04-.23-.09-.48-.16-.75-.08-.01-.3-.02-.65-.04-.35-.02-.82-.05-1.42-.09-.78-.01-1.37,.05-1.76,.18-.34,.12-.55,.31-.61,.56,.02-.07,.05,.04,.09,.32,.05,.38,.1,1.07,.16,2.07,.04,.99,0,1.79-.09,2.39-.08,.6-.21,.99-.38,1.17-.12,.17-.76,.43-1.92,.79-1.41,0-2.46-.12-3.14-.36-.69-.22-1.04-.57-1.04-1.06v-1.01c0-.08-.02-.59-.07-1.53-.06-.93-.13-2.29-.22-4.08-.01-.59-.03-1.02-.05-1.29l-.05-.38c.11-.36,.8-.56,2.08-.61,.63-.04,1.43-.05,2.39-.05s2.14,.02,3.43,.05c.87,.01,1.55,.01,2.03,0,.47-.02,.74-.06,.83-.11,.22-.11,.32-.64,.32-1.6,.05-.57,.05-1.2,0-1.89,0-.04-.03-.19-.09-.47-.05-.28-.13-.69-.23-1.24,0-.11,.01-.24,.04-.4,.01-.16,.04-.33,.07-.52-.08-.12-.13-.26-.14-.41-.04-.13-.05-.29-.05-.49,.01-.65,.04-1.19,.07-1.63,.01-.43,.02-.77,.02-1.01-.02-1.26-.36-2.28-1.01-3.05m-4.26,2.98c.05,.41,.09,.94,.13,1.6,.04,.68,.04,1.35,.02,2.01,0,.66-.04,1.3-.13,1.92l.11,.79c.04,.16,0,.28-.13,.38-.12,.08-.32,.13-.61,.14-.18,.04-.5,.05-.95,.05-.43,0-.98-.02-1.65-.05-.71-.01-1.26-.04-1.65-.07-.4-.04-.63-.08-.72-.13-.19-.1-.32-.42-.4-.97s-.07-1.32,.02-2.32c.02-.38,.05-.75,.09-1.11,.01-.38,.02-.75,.02-1.11,.05-.46,.14-.87,.27-1.24,.13-.36,.29-.69,.49-.99,.07-.13,.25-.28,.54-.43,.28-.14,.66-.28,1.15-.41,1.63,0,2.69,.37,3.18,1.1,.08,.14,.16,.43,.23,.84Z" fill="#666"/>
        </g>
      </g>
    </g>
  </g>
</svg>