<?xml version="1.0" encoding="UTF-8"?>
<svg id="Layer_2" data-name="Layer 2" xmlns="http://www.w3.org/2000/svg" width="294" height="269" xmlns:xlink="http://www.w3.org/1999/xlink" viewBox="0 0 294 269">
  <defs>
    <filter id="drop-shadow-1" filterUnits="userSpaceOnUse">
      <feOffset dx="7" dy="7"/>
      <feGaussianBlur result="blur" stdDeviation="9"/>
      <feFlood flood-color="#000" flood-opacity=".5"/>
      <feComposite in2="blur" operator="in"/>
      <feComposite in="SourceGraphic"/>
    </filter>
  </defs>
  <g id="Capa_1" data-name="Capa 1">
    <g>
      <rect x="20" y="20" width="240" height="215" rx="39.51" ry="39.51" fill="#fff" filter="url(#drop-shadow-1)"/>
      <g>
        <g>
          <path d="M70.28,146.37c.07,.8,.15,1.38,.15,1.67,.07,.8,.07,1.6,0,2.47-.07,1.09-.15,1.82-.15,2.33l.15,2.33c-.22,1.75-1.09,3.05-2.47,3.86l-2.76,.87c-1.67,.44-2.98,.66-3.93,.66-3.27,.07-5.6,.07-6.91,.07-6.11,.07-9.46-.07-10.11-.44-.37-.22-.44-1.53-.22-3.93,0-.44-.07-.8-.15-1.16l.15-2.11c-.07-.51-.22-.87-.29-1.09,0-.8,.07-1.46,.15-1.89-.07-.29-.15-1.6-.15-3.93,0-.44-.07-1.24-.14-2.47-.07-1.09-.15-1.89-.15-2.47,.07-1.24,.15-1.82,.15-1.74v-4.58c0-.37-.07-.8-.22-1.24,0-.36,.22-1.24,.22-1.6l-.51-18.26c0,.22,0,0,0-.51,.07-.65,.14-1.45,.14-2.4v-5.75c0-1.09,.22-1.74,.58-1.96,.37-.22,1.6-.29,3.71-.29,1.24-.22,2.69-.29,4.44-.22l3.56,.15c.95-.22,2.62-.22,4.87,0,6.55,.58,9.89,3.85,10.04,9.75,0,1.67-.07,2.84-.15,3.49,.07,.87,.22,1.45,.29,1.82l-.29,1.53c.07,.8,.07,2.69,0,5.75v1.74c-.36,1.31-.8,2.18-1.31,2.62-1.53,1.24-2.69,2.04-3.35,2.55,0,.07,.66,.51,2.04,1.24,1.38,1.09,2.26,2.18,2.62,3.34v9.82Zm-19.49,11.06h.15l-.37-.29,.22,.29Zm.44,1.67l-.15-.07c0,.07-.07,.07-.14,.07v.07c.07-.07,.22-.07,.29-.07Zm.36-30.04c0,1.09,.58,1.6,1.82,1.6,.29-.07,1.24-.07,2.91-.07,1.02-.29,1.82-.44,2.47-.51,1.53-.36,2.47-1.02,2.98-1.96,.22-.66,.29-1.09,.29-1.38-.07,.66-.15-.73-.15-4.07v-4.22c0-.51-.07-1.31-.14-2.4v-4.44c0-1.6,.07-2.18,.14-1.82-.14-1.24-.87-2.04-2.11-2.4l-3.49-.44c-2.4-.15-3.93-.22-4.58-.22v.07c-.36,.15-.51,1.31-.51,3.42v1.02c.15,.87,.15,2.4,.07,4.58,.07,.29,.15,.58,.15,.8v1.16c0,.8,.07,1.45,.14,1.89v9.38Zm11.42,22.91c-.29-5.53-.51-9.82-.58-12.8,0-.87,.07-1.6,.15-2.18-.51-1.82-1.75-2.84-3.64-3.05l-6.55-.44c-.51,.36-.73,1.24-.66,2.55,.15,1.53,.22,2.47,.22,2.76v4c0,1.67,.07,3.71,.14,6.26,.07,2.26,.15,3.71,.15,4.51,0,.22-.07,.58-.15,1.09v1.09c.07,1.02,.58,1.6,1.46,1.67-.37-.07,.29-.07,1.82-.15l3.56-.07,1.31-.22c1.31-.51,2.18-1.31,2.62-2.55,.14-.37,.22-1.24,.14-2.47Zm1.02,4.15c-.07-.22-.29-.36-.51-.44-.07,.15-.14,.22-.14,.29s.07,.14,.14,.14v.15h.37v-.15h.14Z" fill="#666"/>
          <path d="M80.39,131.17c0,3.56,.07,6.33,.15,8.29,0,.65-.07,1.53-.15,2.62-.07,1.24-.15,2.11-.15,2.62v1.96c0,.29,.07,.65,.15,1.16v.8c0,2.4-.07,3.49-.15,3.27l-.15,1.31v4.15c0,1.67,0,2.55-.07,2.62-.29,.29-.8,.44-1.6,.51-2.11,.07-3.64,0-4.73-.22-.51-.14-.8-.36-.8-.73l.44-6.62c-.07-.66-.14-1.02-.14-1.24,0-.66,.07-2.33,.29-5.02,.07-2.04,.07-3.71,.07-4.95,0-.58-.22-1.82-.22-2.4v-2.98c0-.58,.07-1.24,.15-1.89v-1.02l-.15-5.16v-6.4l.22-.51c1.09-.07,1.75-.07,1.96-.07,.44,.07,1.16,.07,2.11,.07,.44-.07,.8-.15,1.16-.15,.73,0,1.24,.22,1.6,.73,.07,.29,.15,1.02,.15,2.18l-.15,3.78c-.07,1.24-.07,2.33,0,3.27Zm-.36-19.93c.44,.22,.65,.87,.65,2.04,0,1.09-.29,1.75-.95,1.96-.22,.07-1.09,.15-2.47,.07-.66,.07-1.45,0-2.47-.22-.37-.15-.51-.73-.44-1.75,.07-.87,.14-1.31,.14-1.31,.22-.51,.58-.8,1.16-1.02,1.24,0,2.69,.07,4.37,.22Zm-2.91,16.29h-.29v.22c.22-.07,.29-.14,.29-.22Z" fill="#666"/>
          <path d="M106.43,159.54c-.07,.07-.22,.07-.29,.07-2.25,.22-3.78,.14-4.58-.07-.36-.07-1.02-1.16-1.67-1.16-3.27,.8-5.67,1.24-7.2,1.24-4.36,0-7.2-1.24-8.51-3.71-.37-.66-.58-1.82-.58-3.42l-.66-9.89c.07,.22,.15-.8,.15-3.13,0-1.38-.07-2.98-.22-4.73-.07-.66-.07-1.45,0-2.26,.07-1.09,.07-1.82,.07-2.25,0-2.69,.22-4.51,.58-5.46,.51-1.45,1.67-2.47,3.64-3.05,.44-.07,.73-.15,.8-.15q0,.07,0,0c1.53-.36,4.15-.44,7.86-.22,.8,.07,1.31,.07,1.67,.14,.44,0,.73-.07,.8-.14,.07-.44,.15-.73,.15-.95,.07-1.16,.15-2.33,.15-3.57-.07-4.44-.15-6.55-.15-6.47l.22-2.84c-.07-.95-.07-2.69,0-5.09l.44-.29c.22-.15,.8-.22,1.67-.22,2.62-.07,3.93-.07,3.93-.07,.66,.22,.95,.58,.95,1.02,0,.07-.07,.15-.14,.15-.07,.15-.22,.22-.29,.22,.07,.07,.15,.07,.15,0,.07,.07,.07,.58,0,1.38-.07,1.02-.15,1.82-.15,2.4l.15,5.38v1.96c-.07,1.75-.15,2.4-.15,1.96,0,6.62,.07,11.42,.29,14.55l-.15,5.09v2.11c0,.44,.07,.95,.15,1.46v.73q0-.29,0,.07c-.07,.36-.15,.95-.15,1.75,0,.51,.07,2.04,.15,4.51,.22,4,.29,6.84,.29,8.51,.22,1.02,.44,1.75,.66,2.26l.65,1.24c.15,.51-.07,.87-.65,.95Zm-8.51-6.84c-.07-2.04-.15-3.34-.15-3.93l-.29-6.47c0-.66,.29-2.25,.29-2.84,0-5.16-.14-8.73-.51-10.69-.44-2.25-1.82-3.42-4.07-3.56-1.82,.8-2.91,1.45-3.13,1.96-.22,.37-.29,1.24-.29,2.76v5.16c0,.87,.15,1.67,.36,2.33,.07,.8,.07,3.34,0,7.56-.07,3.13,.15,5.6,.58,7.56,.44,1.89,1.67,2.84,3.78,2.84,1.82-.36,2.91-.8,3.27-1.38,.07-.66,.15-1.09,.15-1.31Z" fill="#666"/>
          <path d="M133.13,159.54c-.07,.07-.22,.07-.29,.07-2.25,.22-3.78,.14-4.58-.07-.36-.07-1.02-1.16-1.67-1.16-3.27,.8-5.67,1.24-7.2,1.24-4.36,0-7.2-1.24-8.51-3.71-.37-.66-.58-1.82-.58-3.42l-.66-9.89c.07,.22,.15-.8,.15-3.13,0-1.38-.07-2.98-.22-4.73-.07-.66-.07-1.45,0-2.26,.07-1.09,.07-1.82,.07-2.25,0-2.69,.22-4.51,.58-5.46,.51-1.45,1.67-2.47,3.64-3.05,.44-.07,.73-.15,.8-.15q0,.07,0,0c1.53-.36,4.15-.44,7.86-.22,.8,.07,1.31,.07,1.67,.14,.44,0,.73-.07,.8-.14,.07-.44,.14-.73,.14-.95,.07-1.16,.15-2.33,.15-3.57-.07-4.44-.15-6.55-.15-6.47l.22-2.84c-.07-.95-.07-2.69,0-5.09l.44-.29c.22-.15,.8-.22,1.67-.22,2.62-.07,3.93-.07,3.93-.07,.66,.22,.95,.58,.95,1.02,0,.07-.07,.15-.14,.15-.07,.15-.22,.22-.29,.22,.07,.07,.15,.07,.15,0,.07,.07,.07,.58,0,1.38-.07,1.02-.15,1.82-.15,2.4l.15,5.38v1.96c-.07,1.75-.15,2.4-.15,1.96,0,6.62,.07,11.42,.29,14.55l-.15,5.09v2.11c0,.44,.07,.95,.15,1.46v.73q0-.29,0,.07c-.07,.36-.15,.95-.15,1.75,0,.51,.07,2.04,.15,4.51,.22,4,.29,6.84,.29,8.51,.22,1.02,.44,1.75,.66,2.26l.65,1.24c.15,.51-.07,.87-.65,.95Zm-8.51-6.84c-.07-2.04-.15-3.34-.15-3.93l-.29-6.47c0-.66,.29-2.25,.29-2.84,0-5.16-.14-8.73-.51-10.69-.44-2.25-1.82-3.42-4.07-3.56-1.82,.8-2.91,1.45-3.13,1.96-.22,.37-.29,1.24-.29,2.76v5.16c0,.87,.15,1.67,.36,2.33,.07,.8,.07,3.34,0,7.56-.07,3.13,.15,5.6,.58,7.56,.44,1.89,1.67,2.84,3.78,2.84,1.82-.36,2.91-.8,3.27-1.38,.07-.66,.15-1.09,.15-1.31Z" fill="#666"/>
          <path d="M143.75,131.17c0,3.56,.07,6.33,.15,8.29,0,.65-.07,1.53-.15,2.62-.07,1.24-.15,2.11-.15,2.62v1.96c0,.29,.07,.65,.15,1.16v.8c0,2.4-.07,3.49-.15,3.27l-.15,1.31v4.15c0,1.67,0,2.55-.07,2.62-.29,.29-.8,.44-1.6,.51-2.11,.07-3.64,0-4.73-.22-.51-.14-.8-.36-.8-.73l.44-6.62c-.07-.66-.14-1.02-.14-1.24,0-.66,.07-2.33,.29-5.02,.07-2.04,.07-3.71,.07-4.95,0-.58-.22-1.82-.22-2.4v-2.98c0-.58,.07-1.24,.15-1.89v-1.02l-.15-5.16v-6.4l.22-.51c1.09-.07,1.75-.07,1.96-.07,.44,.07,1.16,.07,2.11,.07,.44-.07,.8-.15,1.16-.15,.73,0,1.24,.22,1.6,.73,.07,.29,.15,1.02,.15,2.18l-.15,3.78c-.07,1.24-.07,2.33,0,3.27Zm-.36-19.93c.44,.22,.65,.87,.65,2.04,0,1.09-.29,1.75-.95,1.96-.22,.07-1.09,.15-2.47,.07-.66,.07-1.45,0-2.47-.22-.37-.15-.51-.73-.44-1.75,.07-.87,.14-1.31,.14-1.31,.22-.51,.58-.8,1.16-1.02,1.24,0,2.69,.07,4.37,.22Zm-2.91,16.29h-.29v.22c.22-.07,.29-.14,.29-.22Z" fill="#666"/>
          <path d="M169.72,159.24c-.22,.44-.58,.73-1.16,.8-2.98,.29-5.09,.22-6.18-.22-.44-.22-.73-.73-.8-1.6,0,.22,.07-.65,.14-2.76v-2.04c-.07-6.47-.07-12.15,.15-17.02,.07-1.67,.07-2.84,0-3.49-.22-1.96-.29-2.84-.29-2.62v-2.98c-.07-1.24-.87-1.96-2.33-2.18-2.04-.29-3.56,.29-4.58,1.67-.29,1.09-.44,2.04-.44,2.76-.07,2.55-.07,4-.07,4.36,0,.73,0,1.82,.07,3.27,.07,1.38,.15,2.47,.15,3.2v16.44l.14,1.45c.07,.73,0,1.16-.29,1.38-.51,.44-2.47,.58-5.97,.44-.8-.07-1.31-.22-1.45-.44,.07,.07,.15-.58,.15-2.04v-6.4l-.15-6.4c-.07-4.07-.15-6.55-.15-7.35v-1.74c0-.8,.07-1.31,.15-1.67-.07-.8-.22-1.45-.29-1.82v-11.28c.22-.07,.36-.07,.44-.07l5.89,.22c.65,.29,1.16,.51,1.38,.73,.8,0,3.27-.51,4.51-.51,.95-.22,2.11-.29,3.49-.15,3.35,.36,5.38,1.24,6.18,2.62,.51,2.11,.8,3.93,.8,5.38,.07,3.42,.07,5.74,.07,7.13,0-.37,.07,.14,.14,1.53v7.2c.07,1.16,.15,2.11,.15,2.84v4.73c0-.36-.07,.15-.15,1.38v1.38c.22,1.82,.29,2.69,.29,2.55v1.31Zm-19.13-7.56l-.29-.29c.07,.14,.22,.22,.29,.29Z" fill="#666"/>
          <path d="M201.58,172.85c.07,3.78-2.11,5.89-6.69,6.4-.36,.07-1.74,.07-4.15,.14-2.04,.07-3.27,.07-3.71,.07h-5.75c-4.73-.07-7.05-1.02-7.05-2.84-.66-.22-.95-.58-.95-1.24-.07-.87,.29-1.74,.95-2.69,.07-.07,.66-.51,1.67-1.16,.8-.51,1.16-.95,.95-1.16l-2.11-1.6c-1.67-1.53-2.18-3.49-1.53-5.89,.07-.44,.51-1.09,1.38-1.96l1.6-1.6c-.65-.8-1.24-1.45-1.82-1.89-.51-.66-.87-1.45-1.09-2.4l.15-1.24c-.15-2.69-.22-4.58-.22-5.6l-.58-12.29c-.07-3.49,.15-6.98,.66-10.47,.87-2.55,2.91-3.78,6.18-3.78,.36-.15,1.09-.22,2.26-.22l1.16-.15h1.82c1.53,0,2.4,0,2.62,.07,1.53,.36,2.76,.73,3.64,1.02,.07,0,2.11-.44,6.04-1.31,2.84,0,2.91,.22,2.91,1.96,0,.95-.14,1.53-.44,1.75-.65,.36-1.31,.66-1.82,.73-1.09,.44-1.89,1.09-2.33,1.96-.22,.36-.29,1.09-.29,2.18v3.64c0,1.74,.07,4.36,.15,7.93,.07,3.49,.14,6.11,.14,7.86,0,4.51-.51,7.42-1.45,8.73-.66,1.02-3.49,1.82-8.36,2.47-4.22,.51-6.26,1.67-6.18,3.49,.07,1.38,1.02,2.33,2.76,2.98,1.09,.36,2.76,.58,4.87,.58,6.55,0,10.69,.66,12.51,1.89l1.24,1.24c.58,.95,.87,1.74,.87,2.4Zm-24.88-24.58c.07,.14,.22,.22,.29,.29l-.29-.29Zm.44,20.44l-.29-.22c0,.07-.07,.07-.15,.07,.07,.07,.15,.07,.15,.15h.29Zm.37-19.64l-.51-.44c.22,.29,.36,.44,.36,.44h.15Zm11.13,22.26c-1.74,.22-3.05,.15-5.89,.36-1.53,.37-2.55,.73-3.13,.95h-.15c0,.65-.15,1.24-.36,1.6,.22,1.53,2.69,2.26,7.27,2.26,1.09-.07,1.53-.44,4.36-.44l1.67-.51c.66-.36,1.02-.87,1.16-1.67,.29-1.67-1.38-2.55-4.95-2.55Zm-9.16-43.71v2.62c0,2.33,.07,4.95,.29,7.78v3.27c0,1.31,.15,4.15,.37,8.51v3.13c.07,1.38,.65,2.25,1.67,2.69,.51,.22,1.53,.29,2.91,.29,1.31-.51,2.11-.8,2.33-.95,.44-.37,.58-1.31,.44-2.69,.07-1.75,.15-2.55,.15-2.4,0-2.76-.07-4.07-.15-4l.22-.87v-.07h-.07c-.07-.87-.15-1.45-.15-1.82-.07-1.09-.07-2.76,.15-4.95l-.58-8c-.07-2.26-.36-3.49-.95-3.86s-1.89-.58-4-.58c-1.53,.51-2.4,1.16-2.62,1.89Zm9.53,24.66v.15c.07-.07,.07-.15,0-.15s-.07,0-.07-.07q0,.07,.07,.07Z" fill="#666"/>
        </g>
        <g>
          <path d="M111.61,59.96c-.34,.05-.63,.1-.87,.1l-4.37,.24c-.15,.19-.24,.34-.24,.49-.15,.24-.15,1.26-.1,3.15,.24,7.66,.34,13,.34,16.06v1.7c0,.24-.05,.39-.1,.53l.29,1.55c-.05,.97-.05,1.75,0,2.33,.05,.78,.05,1.7,.05,2.76-.05,.29-.05,.49-.05,.53l.15,1.5,.1,2.91c.05,.39,.15,.68,.2,.87,.1,.73-.92,1.07-3.01,1.07-1.16,0-1.84-.1-2.09-.29-.15-.53-.19-.92-.1-1.26v-4.07c0-.14,.29-.34,.29-.39-.24-.1-.34-1.11-.34-3.1,0-.63-.05-1.5-.15-2.67-.1-1.21-.14-2.09-.14-2.72l.19-1.12c-.15-1.84-.19-3.25-.19-4.27,0-.87,.1-1.31,.34-1.31v-.15c-.24-.19-.39-.39-.44-.53l.1-.92c-.15-2.57-.24-4.51-.24-5.82v-3.15c-.05-.73-.15-1.21-.2-1.45v-1.99c-.14-.2-1.21-.34-3.2-.44-1.31-.05-2.04-.15-2.28-.24-.19-.1-.29-.44-.29-1.07s.05-1.02,.19-1.16c.58-.15,1.11-.19,1.65-.19,1.21-.05,1.94-.05,2.08-.1,.73,0,2.18,.1,2.91,.1h1.11c.73-.05,1.26-.05,1.65-.05h2.91c.19,0,.97,.15,1.02,.15,.19-.15,.73-.19,1.6-.15,.68,.05,1.07,.1,1.21,.15h.1c.05,1.5,.05,2.33-.1,2.43Zm-6.35,10.72h-.29v.14c.2-.05,.29-.1,.29-.14Z" fill="#666"/>
          <path d="M130.38,91.39v4.12c-.05,.24-.2,.53-.44,.78v.05c-.29,0-.78,0-1.5,.05-.73,.05-1.36,.05-1.84,0-.63-.05-1.07-.1-1.21-.24-.24-.53-.34-1.02-.34-1.41,0-.19,.05-.39,.1-.53-.05-1.7-.1-2.38-.1-2.09,0-.44,.05-.78,.1-1.02v-2.28c-.24-.97-.39-1.94-.39-2.86v-2.62c0-.44,0-.78-.05-1.02,.05-.44,.05-.82,.05-1.07,0-.53-.15-1.75-.15-2.28,.05-.63,.1-1.26,.1-1.99,0-.05-.05-.53-.19-1.46-.15-1.55-.78-2.38-1.84-2.42-1.75-.1-2.72,.48-2.96,1.7v6.45c.14,4.07,.19,7.76,.24,11.11,.15,2.76,.2,4.07,.2,3.83-.63,.14-1.55,.19-2.72,.19-1.31,0-2.18-.19-2.62-.63-.34-.29-.49-.82-.34-1.55,.05-.63,.15-1.31,.24-1.99,0-.73,0-2.13-.05-4.17v-1.75c0-.73-.19-2.52-.19-3.25,0-9.07-.05-14.6-.1-16.54-.1-3.83-.15-5.53-.15-5,0,.15,0-.1,.05-.82v-.82l-.05-2.14,.49-.39c2.81,.1,4.32,.29,4.56,.53v3.2c0,.82,.05,1.94,.1,3.44v2.76c0,.78-.2,2.57-.2,3.2l2.09-.19c.92-.1,2.04-.1,3.25,0,1.41,.1,2.33,.24,2.81,.44,1.21,.49,1.99,1.26,2.43,2.38,.15,1.5,.29,3.3,.34,5.29,0-.24-.05,.19-.1,1.21-.05,.63-.05,1.02,0,1.26,.24,1.55,.34,3.25,.19,5.14,0,.44,.05,.87,.1,1.21l.14,2.72c0-.15,0,.34-.05,1.45Zm-4.66-2.96c-.14-.05-.29-.05-.44-.05,.15,.14,.24,.24,.34,.24,.05-.1,.1-.15,.1-.2Zm2.28-4.17l-.34-.15,.15,.34h.19v-.19Z" fill="#666"/>
          <path d="M147.45,94.11c-.87,1.31-2.91,1.94-6.06,1.94-4.32,0-6.79-.97-7.47-2.96-.19-.44-.34-1.36-.44-2.72-.05-.63-.15-1.07-.19-1.31-.24-2.67-.34-6.11-.34-10.33h.34v-.05c-.24-.15-.34-1.41-.34-3.83,.15,0,.24,0,.24-.05-.24-.1-.29-.44-.15-1.02,.39-1.75,1.41-2.76,3.05-3.06l2.43-.44c2.86,0,4.7,.1,5.58,.34,2.28,.58,3.44,2.04,3.49,4.32,0,.44-.05,1.26-.1,2.42,0,.34,.05,.58,.2,.82-.05,.34-.1,.63-.1,.82,.2,1.02,.29,1.5,.29,1.55,.05,.63,.05,1.21,0,1.74,0,.87-.1,1.36-.29,1.46-.14,.1-1.02,.14-2.62,.1-2.38-.05-4.17-.05-5.33,0-1.16,.05-1.8,.24-1.89,.58,0-.05,.05,.44,.1,1.5,.15,3.3,.24,4.99,.24,5.14v.92c0,.87,1.26,1.31,3.83,1.31,1.07-.34,1.65-.58,1.75-.73,.34-.34,.48-1.45,.44-3.25-.1-1.84-.2-2.52-.24-2.09,.05-.58,.78-.82,2.18-.78,1.11,.05,1.75,.1,1.89,.1,.15,.53,.2,.92,.2,1.21v1.99c0,2.18-.24,3.64-.68,4.32Zm-10.04-18.19c0,.68-.05,1.36-.1,2.04-.15,1.84,0,2.86,.34,3.01,.15,.1,.87,.15,2.18,.2,1.21,.05,2.04,.05,2.38,0,.53-.05,.73-.2,.68-.49l-.1-.73c.15-1.11,.15-2.33,.1-3.59-.05-1.21-.19-1.99-.34-2.23-.44-.68-1.41-1.02-2.91-1.02-.87,.24-1.41,.53-1.55,.78-.34,.53-.58,1.21-.68,2.04Z" fill="#666"/>
        </g>
        <g id="Layer6_0_FILL" data-name="Layer6 0 FILL">
          <path d="M144.25,184.73c0-.15-.03-.37-.09-.67-.04-.3-.11-.67-.2-1.11-.53-1.23-2.16-1.99-4.88-2.29-.28-.01-.55-.03-.8-.04-.25-.01-.48-.01-.69,0-.41,.03-.87,.09-1.35,.18-.5,.09-1.06,.21-1.66,.36-.13,.01-.38,.09-.73,.22-.36,.12-.65,.19-.89,.2l-3.26-.95c-.7-.06-1.41-.07-2.15-.02-.74,.04-1.49,.15-2.24,.31-.27,.04-.52,.1-.75,.16-.25,.04-.49,.1-.71,.18-.13,0-.24-.02-.31-.07-.07-.04-.16-.12-.24-.22-.04-.21-.12-.33-.22-.38-.09-.04-.44-.07-1.04-.09-.06,0-.13,0-.2,.02-.07,.01-.17,.04-.29,.07h-2.26l-.18,.44v1.33c-.01,.07-.04,.12-.07,.13-.01,.01-.02,0-.02-.02l.6,16.43c-.03,.19-.05,.41-.07,.64-.01,.24-.02,.48-.02,.73,.03,.34,.06,.82,.09,1.44,.03,.61,.06,1.35,.09,2.24-.03,.1-.05,.21-.07,.33-.01,.13-.02,.27-.02,.4,0,.12,0,.26,.02,.42,.01,.16,.04,.33,.07,.49,.15,.19,.58,.29,1.29,.29,.92,.01,1.64,.01,2.15,0,.53,0,.85-.01,.95-.04,.27-.09,.44-.24,.51-.44,.09-.22,.08-.53-.02-.93l-.22-9.5c0-.15-.01-.6-.04-1.35-.03-.74-.09-1.77-.18-3.09-.07-2.72-.11-4.2-.11-4.44,0-.43,.02-.78,.07-1.07,.06-.3,.15-.52,.27-.67,.31-.4,.69-.69,1.13-.87,.46-.16,.98-.21,1.55-.13,.4,.04,.73,.13,1,.27,.27,.12,.47,.29,.6,.51,.09,.1,.16,.3,.22,.6,.06,.28,.1,.65,.13,1.11,.1,.89,.18,1.92,.22,3.11,.04,1.2,.08,2.52,.11,3.97l.29,8.7c0,.43,0,.98,.02,1.66,.03,.67,.05,1.47,.07,2.4,.13,.12,.37,.2,.71,.24,.36,.04,.8,.07,1.33,.07,.36,0,.73,0,1.13-.02,.41-.01,.87-.04,1.38-.07l.87-.22c.06-.03,.1-.14,.11-.33,.01-.21,0-.49-.02-.84-.03-1.15-.07-2.76-.13-4.82-.07-2.07-.18-4.6-.31-7.57-.06-.47-.12-1.12-.18-1.93-.04-.8-.1-1.78-.16-2.95-.03-.67-.04-1.22-.02-1.66,0-.41,.03-.71,.09-.89,.13-.47,.43-.83,.89-1.07,.44-.25,1.04-.38,1.8-.4,.53,0,.98,.09,1.33,.27,.34,.19,.58,.48,.71,.87l.2,1.98c.16,1.6,.3,3.37,.4,5.31,.09,1.92,.13,4.01,.13,6.26,0,.3,.02,.69,.07,1.18,.04,.52,.07,.92,.07,1.22,0,.22,0,.67,.02,1.35,.03,.71,.05,1.65,.07,2.82-.01,.13-.02,.3-.02,.49,.01,.18,.06,.38,.13,.6,.07,.01,.29,.04,.64,.09,.36,.03,.85,.06,1.49,.09,.87,.06,1.5,.08,1.89,.07,.37-.03,.61-.08,.71-.16,.1-.06,.17-.15,.2-.27,0-1.11,0-2.12-.02-3.02-.01-.9-.04-1.71-.09-2.42-.07-.98-.15-2.36-.22-4.15-.07-1.78-.18-3.96-.31-6.55l-.31-4.51m-12.83-.47s-.07-.04-.11-.09l.24,.13s-.09-.01-.13-.04m-11.37,10.12s-.06,.04-.13,.07v-.13h.18s-.01,.04-.04,.07m12.36,6.46l.16,.22s-.04-.02-.07-.04c-.03-.03-.06-.09-.09-.18m14.36-16.2c0,1.18,.02,2.09,.07,2.73,.06,.62,.15,.97,.27,1.04v.07h-.33c0,2.07,.02,3.95,.07,5.64,.06,1.7,.15,3.21,.27,4.53,.03,.13,.06,.3,.09,.51,.04,.21,.08,.47,.11,.78,.04,.68,.1,1.24,.16,1.69,.09,.46,.18,.79,.27,1,.33,.99,1.1,1.72,2.33,2.2,1.21,.49,2.89,.73,5.04,.73,1.55,0,2.83-.16,3.82-.47,1.02-.33,1.74-.81,2.15-1.44,.22-.34,.39-.87,.51-1.58s.18-1.61,.18-2.69v-1.95c0-.15-.02-.32-.07-.51-.03-.21-.07-.44-.13-.69-.07-.01-.27-.03-.58-.04-.31-.01-.74-.04-1.29-.07-.7-.01-1.23,.04-1.6,.16-.3,.11-.48,.28-.53,.49,.01-.03,.04,.08,.07,.31,.04,.34,.1,.96,.16,1.86,.03,.89,0,1.61-.09,2.15-.07,.55-.18,.9-.33,1.04-.12,.16-.7,.41-1.73,.73-1.29,0-2.24-.11-2.86-.33-.62-.19-.93-.51-.93-.95v-.91c0-.07-.02-.53-.07-1.38s-.1-2.07-.18-3.68c-.01-.53-.03-.92-.04-1.18l-.07-.33c.1-.33,.73-.51,1.89-.55,.58-.03,1.3-.04,2.18-.04,.89,0,1.91,.01,3.06,.04,.8,.01,1.42,.01,1.86,0,.41-.01,.66-.04,.73-.09,.19-.1,.29-.58,.29-1.44,.04-.52,.04-1.09,0-1.71,0-.03-.02-.17-.07-.42s-.12-.63-.22-1.13c0-.09,0-.21,.02-.36,.01-.13,.04-.29,.09-.47-.09-.1-.14-.22-.16-.36-.03-.13-.04-.28-.04-.44,.01-.58,.04-1.07,.07-1.49,.01-.38,.02-.69,.02-.91-.03-1.14-.33-2.06-.91-2.75-.56-.71-1.41-1.21-2.53-1.51-.43-.12-1.1-.21-2.02-.27-.92-.04-2.08-.07-3.49-.07l-2.38,.44c-1.63,.28-2.63,1.29-3.02,3.02-.13,.55-.09,.88,.13,1,0,.01-.02,.02-.07,.02-.03,.01-.08,.02-.16,.02m4.26,5.17c-.06-.5-.04-1.21,.04-2.11,.01-.34,.04-.67,.07-1,.01-.36,.02-.7,.02-1.02,.04-.4,.12-.77,.22-1.11,.13-.33,.28-.62,.44-.89,.06-.13,.22-.27,.49-.4,.25-.13,.6-.26,1.04-.38,1.48,0,2.43,.33,2.86,1,.07,.13,.15,.38,.22,.75,.04,.37,.08,.85,.11,1.44,.03,.62,.04,1.23,.02,1.82,0,.59-.04,1.17-.11,1.73l.09,.73c.03,.13,0,.24-.11,.33-.12,.07-.3,.12-.55,.13-.16,.03-.45,.04-.87,.04-.38,0-.88-.01-1.49-.04-.64-.01-1.13-.04-1.49-.07s-.58-.07-.67-.11c-.16-.09-.28-.38-.36-.87m-36.09-7.81c-.24-.19-.49-.35-.75-.47,.01,0,.04,0,.09-.02,.03-.01,.06-.04,.09-.07l-1.47-.55c-.18-.07-.38-.14-.62-.2-.25-.06-.56-.13-.93-.2-.21-.01-.53-.04-.95-.09-.43-.01-.97-.02-1.62-.02h-.84c-.84,.13-1.5,.24-1.98,.31-.44,.09-.71,.16-.8,.2-.44,.1-.83,.24-1.15,.4-.34,.18-.64,.38-.91,.6-.13,.09-.24,.21-.33,.36-.09,.13-.17,.28-.24,.44-.1,.16-.15,.31-.13,.44,0,.12,.06,.21,.18,.27l-.33,.69s-.04,.21-.07,.49c-.01,.3-.02,.7-.02,1.22v.75c-.01,.36-.03,.82-.04,1.4,0,.19,.04,.33,.13,.42v.16s-.04,.05-.07,.07c-.01,.03-.02,.07-.02,.11,0,.22,.18,.37,.53,.44,.36,.09,.9,.12,1.62,.09,.61-.04,1.03-.09,1.27-.13,.27-.04,.44-.15,.51-.31,.06-.15,.1-.41,.13-.78l.6-4.04c.13-.21,.3-.38,.51-.53,.22-.13,.5-.22,.84-.27,.31-.06,.61-.07,.89-.04,.28,.01,.55,.06,.8,.13,.5,.18,.9,.38,1.18,.6,.3,.21,.47,.42,.53,.64,0,.12,0,.27,.02,.44,0,.15,0,.33,.02,.55,.07,.36,.08,.75,.02,1.2s-.18,.94-.36,1.49c-.03,.19-.07,.38-.13,.55-.06,.21-.12,.41-.18,.6l-1.55,1.38-3.2,1.64-.78,.64-1.38,.87-.62,.51,.11,.22c-.47,0-.82,.37-1.04,1.11-.24,.74-.37,1.84-.4,3.29v2.4c.03,.59,.15,1.12,.36,1.6,.22,.49,.55,.92,.98,1.31,.56,.47,1.22,.82,1.98,1.04,.77,.19,1.64,.26,2.62,.2l2.73-.36c.4-.04,.7-.08,.91-.11l.33-.07,.87,.18c1.52,.4,2.81,.5,3.86,.31,.27-.04,.48-.13,.64-.27,.13-.1,.22-.24,.27-.42,0-.07-.03-.16-.09-.27-.04-.12-.1-.25-.16-.4l-.36-.55c-.13-.95-.22-1.66-.27-2.15-.07-.5-.09-.78-.04-.82v-.47c.01-.19,.03-.42,.04-.69-.06-.25-.1-.49-.13-.71-.01-.22-.02-.44-.02-.67v-1.71c-.03-.09-.06-.21-.09-.36-.04-.15-.07-.33-.09-.55,.01-.16,.04-.35,.07-.55,.01-.22,.02-.44,.02-.67l-.22-5.64c.01-.16,.02-.36,.02-.6,.01-.25,.02-.56,.02-.93,0-.03,0-.18-.02-.47,0-.3,0-.71-.02-1.24,0-.19-.04-.4-.13-.62-.06-.22-.15-.44-.27-.67,.03-.03,.07-.04,.13-.04h.27c-.22-.37-.4-.67-.53-.89-.1-.24-.17-.39-.2-.47-.19-.25-.4-.48-.62-.69m-8.61,16.16c0-.36,.01-.56,.04-.62,.04-.12,.1-.25,.16-.4,.04-.13,.07-.29,.09-.47,.12-.5,.31-.93,.58-1.29,.28-.34,.65-.61,1.11-.82,.9-.41,2-1.03,3.29-1.84,.18,.09,.32,.52,.42,1.29,.1,.77,.17,1.89,.2,3.35,0,1.39-.02,2.5-.07,3.33-.06,.84-.14,1.4-.24,1.66-.03,.01-.17,.07-.42,.18-.27,.12-.63,.26-1.09,.42h-1c-.27,0-.47-.01-.62-.04-.56-.03-1.04-.17-1.44-.42-.38-.25-.69-.6-.91-1.04l-.04-1.86c-.03-.59-.04-1.07-.04-1.42m-.33,1.27s-.04,.1-.13,.16v-.16h.13m-22.64-23.77l-.02,.18c-.01,.21-.04,.57-.07,1.09v1.89c.03,.16,.05,.31,.07,.44,.01,.12,.02,.23,.02,.33,0,.07-.01,.23-.04,.47-.01,.21-.06,.5-.13,.89l.09,1.22v1.07c-.01,.47-.04,.81-.07,1-.01,.17-.02,.21-.02,.13v1.33c.03,.43,.05,.8,.07,1.11,.01,.33,.02,.6,.02,.82v3.31c0,2.92,.04,5.26,.13,7.04v1.91c.03,.15,.07,.33,.13,.53,.07,.22,.16,.47,.27,.75,.1,1.04,.4,1.89,.89,2.57,.49,.68,1.17,1.19,2.04,1.53,.53,.22,1.29,.4,2.26,.53,.96,.1,2.15,.16,3.55,.16l4.06-.13c.27,.01,.55,.04,.84,.07,.3,.01,.62,.02,.98,.02h.84c.28-.01,.58-.03,.89-.04,.21-.09,.35-.33,.42-.71,.07-.4,.07-.95,0-1.64-.03-.07-.06-.16-.09-.24-.04-.09-.08-.2-.11-.33,.07-.24,.13-.49,.16-.75,.03-.24,.04-.49,.04-.75s-.01-.53-.04-.8c-.03-.27-.08-.53-.16-.8l.11-6.39-.11-3.42c0-.44,0-.75,.02-.93s.04-.2,.09-.07c-.04-.18-.15-.31-.31-.4-.19-.09-.44-.14-.75-.16-.22-.04-.42-.06-.6-.04-.19,.03-.36,.06-.49,.09-.27,0-.61,0-1.04-.02-.43,0-.95,0-1.55-.02-.58-.04-1.1-.07-1.55-.07-.43,0-.81,.02-1.13,.07-.15-.04-.33-.07-.55-.07-.24,0-.51,.02-.82,.07v-.13c-.15,0-.25,.13-.31,.4-.07,.27-.11,.65-.11,1.15,0,.36,.01,.64,.04,.87,.03,.19,.07,.32,.13,.38,.07,.12,.28,.19,.62,.22,.33,.03,.78,.04,1.35,.02,.49-.03,.87-.03,1.13,0,.28,.01,.44,.06,.49,.13,.07,.07,.13,.21,.16,.4,.03,.18,.04,.42,.04,.71,0-.12-.02-.08-.04,.13-.01,.24-.03,.67-.04,1.29v1.35c.01,.16,.04,.4,.09,.71,.03,.31,.06,.7,.09,1.15v1.53c0,.12,0,.25-.02,.4-.03,.15-.05,.32-.07,.51v.62c0,.53-.02,.97-.07,1.31-.06,.36-.12,.62-.18,.8-.22,.36-.55,.64-.98,.84-.43,.22-.97,.36-1.62,.4-1.02,.07-1.86,.02-2.53-.16-.67-.15-1.15-.4-1.44-.75-.19-.27-.35-.67-.47-1.2-.09-.52-.13-1.17-.13-1.95,0-1.17-.01-2.02-.04-2.55-.01-.53-.03-.73-.04-.6,0-.25,0-.76,.02-1.53,.01-.74,.04-1.75,.07-3.04,.01-.12,.04-.26,.07-.42,.01-.16,.02-.36,.02-.58v-4.84c0-.22-.02-.53-.07-.91-.03-.37-.07-.75-.11-1.15-.03-.38-.04-.69-.04-.91v-.18c0-.25,.01-.68,.04-1.29v-1.53c0-.09,0-.18-.02-.29,0-.12,0-.27-.02-.44v-.78c0-.28,.01-.81,.04-1.6,.04-1.88,.14-3.22,.29-4.02,.03-.22,.08-.48,.16-.78,.09-.3,.21-.64,.36-1.04,.21-.36,.6-.61,1.18-.75,.58-.18,1.32-.25,2.24-.22,.71,.01,1.29,.11,1.73,.29,.46,.18,.8,.44,1.02,.78,.1,.13,.19,.45,.27,.95,.09,.52,.18,1.21,.27,2.06,.06,.59,.11,1.18,.16,1.78,.03,.61,.05,1.18,.07,1.73,0,.22,0,.54,.02,.95,.03,.4,.05,.89,.07,1.47-.01,.16-.02,.36-.02,.58,.01,.22,.06,.47,.13,.75,.07,.07,.29,.13,.64,.16s.86,.05,1.51,.07c.61,.04,1.1,.05,1.49,.02,.4-.01,.69-.04,.87-.07,.06-.01,.12-.04,.18-.09,.06-.04,.11-.1,.16-.18v-.87c-.04-1.75-.08-3.12-.11-4.13-.04-.99-.07-1.6-.09-1.82-.16-1.35-.44-2.49-.82-3.42-.37-.95-.84-1.65-1.42-2.11l-.67-.53c-1.01-.41-1.95-.69-2.82-.82-.86-.13-1.64-.12-2.35,.04-.07,0-.21,0-.4,0-.18,0-.39-.01-.64-.04-.09,.03-.22,.04-.4,.04-.19,.01-.43,.03-.71,.04-1.51,0-2.76,.24-3.75,.73-1.02,.46-1.78,1.15-2.26,2.09-.22,.46-.39,1.12-.51,1.98-.12,.84-.18,1.86-.18,3.06m11.39-6.19s.03-.04,.04-.07h.11s-.01,.05-.04,.07c-.03,.03-.08,.05-.16,.07,0-.01,.01-.04,.04-.07m4.26,7.81l.2,.11s-.04,.04,0,.13h-.11s-.01-.04-.04-.09c-.01-.04-.03-.1-.04-.16m-14.1-.42s-.07,0-.09-.02c-.01,0-.02-.01-.02-.04,0-.01,0-.04,.02-.09,.01-.03,.04-.06,.09-.09v.24m.51,18.18h-.22v-.27s.07,.04,.11,.09,.08,.1,.11,.18Z" fill="#666"/>
        </g>
        <g>
          <path d="M239.71,68.42c-.1,15.56-12.35,27.65-27.92,27.55-14.8-.09-27.18-12.57-27.22-27.12-.05-15.74,12.61-28.17,28.05-28.01,14.9,.16,27.19,12.63,27.09,27.59Zm-50.98-.15c-.27,12.56,10.16,23.32,22.87,23.6,12.85,.28,23.72-10,24-22.7,.29-13.06-9.92-23.86-22.76-24.19-13.14-.34-24.08,10.27-24.11,23.29Z" fill="#666"/>
          <path d="M206.18,107.04v-8.7h12.09c0,.59,0,1.26,0,1.92,0,2.02-.03,4.04,.02,6.06,.01,.55-.16,.8-1.17,.79-3.31-.04-6.63-.01-9.95-.02-.31,0-.62-.04-.99-.06Z" fill="#666"/>
          <path d="M231.35,68.3c.13,10.42-8.37,19.09-18.74,19.31-10.33,.23-19.32-7.9-19.61-18.42-.3-10.99,8.14-19.84,18.78-19.95,10.84-.12,19.43,8.25,19.57,19.06Zm-17.5-7.25c.12-.06,.25-.11,.37-.17,.29,.57,.65,1.11,.85,1.7,.33,.93,.81,1.57,1.9,1.37,.99-.17,1.52-.93,1.42-2.15-.2-2.3-1.66-3.59-3.65-4.47-.38-.17-.79-.62-.9-1.01-.23-.8-.63-1.28-1.46-1.33-.88-.05-1.53,.38-1.61,1.25-.07,.74-.48,.98-1.04,1.25-3.65,1.73-4.61,6.04-1.99,9.12,.58,.68,1.42,1.14,2.13,1.72,.26,.21,.7,.47,.71,.71,.06,2.21,.03,4.42,.03,6.76-1.34-.57-1.98-1.48-2.33-2.63-.31-1.04-1.07-1.38-2.04-1.2-.93,.18-1.49,.82-1.37,1.81,.08,.7,.22,1.43,.53,2.05,.85,1.69,2.3,2.74,4.05,3.35,.77,.27,1.29,.51,1.32,1.49,.02,.92,.77,1.19,1.63,1.18,.82,0,1.38-.42,1.39-1.18,.01-.87,.4-1.11,1.15-1.36,2.54-.83,4.05-2.63,4.51-5.25,.45-2.57-.47-4.64-2.54-6.18-.73-.55-1.58-.94-2.32-1.47-.31-.22-.69-.62-.7-.95-.08-1.47-.03-2.94-.03-4.41Z" fill="#666"/>
          <path d="M213.88,75.79v-5.3c1.25,.34,2.21,1.29,2.18,2.31-.04,1.29-.48,2.46-2.18,3Z" fill="#666"/>
          <path d="M210.61,60.89v3.48c-1.19-.99-1.19-2.04,0-3.48Z" fill="#666"/>
          <path d="M233.1,114.68c-1.77-2.74-4.84-4.39-8.22-4.39-3.49,0-6.99,0-10.48,0h-5.44s-5.43,0-5.43,0h-3.63c0-.32,0-.63,0-.95v-1.54c0-4.3-2.87-7.24-7.12-7.32-.27,0-.53,0-.8,0-1.55,0-2.93,.09-4.21,.27-6.33,.9-10.92,4.23-13.3,9.64-3.62,.56-5.85,3.02-6.05,6.54h4.07c.17-1.55,1.08-2.4,2.81-2.58,1.26-.13,2.19-.68,2.67-1.88,1.88-4.69,5.53-7.03,10.36-7.72,1.2-.17,2.43-.23,3.65-.23,.24,0,.49,0,.73,0,2.09,.04,3.16,1.21,3.16,3.28,0,1.08-.01,2.16,0,3.23,0,2.15,1.13,3.29,3.26,3.29,1.47,0,2.94,0,4.41,0,3.62,0,7.25,0,10.87,0s6.98,0,10.47,0c4.13,0,6.81,3.93,5.17,7.57-.94,2.08-2.62,3.15-4.91,3.25-.18,0-.36,0-.55,0-.31,0-.62,0-.93,0,3.2,2.14,4.2,3.96,3.58,6.76-.52,2.37-2.42,3.83-5.63,4.21,3.25,1.44,4.68,3.74,3.77,7.14-.6,2.24-2.58,3.41-6.25,3.73,.5,.21,.81,.32,1.11,.46,2.34,1.09,3.6,3.65,3.07,6.24-.5,2.42-2.57,4.26-5.1,4.26-.07,0-.13,0-.2,0-4.72-.18-9.44-.48-14.15-.82-.76-.05-1.51-.12-2.27-.18v4.05c.66,.05,1.32,.12,1.98,.17,3.9,.28,9.04,.62,14.28,.83,.12,0,.24,0,.36,0,4.36,0,8.17-3.15,9.06-7.49,.43-2.08,.17-4.15-.64-5.96,1.31-1.08,2.2-2.49,2.67-4.23,.7-2.62,.49-5.02-.55-7.05,1.22-1.18,2.06-2.69,2.45-4.46,.48-2.17,.27-3.99-.33-5.51,1.21-.93,2.18-2.18,2.88-3.72,1.31-2.91,1.08-6.24-.63-8.88Z" fill="#666"/>
        </g>
      </g>
    </g>
  </g>
</svg>