<?xml version="1.0" encoding="UTF-8"?>
<svg id="Layer_2" data-name="Layer 2" xmlns="http://www.w3.org/2000/svg" width="294" height="269" xmlns:xlink="http://www.w3.org/1999/xlink" viewBox="0 0 294 269">
  <defs>
    <filter id="drop-shadow-1" filterUnits="userSpaceOnUse">
      <feOffset dx="7" dy="7"/>
      <feGaussianBlur result="blur" stdDeviation="9"/>
      <feFlood flood-color="#000" flood-opacity=".5"/>
      <feComposite in2="blur" operator="in"/>
      <feComposite in="SourceGraphic"/>
    </filter>
  </defs>
  <g id="Capa_1" data-name="Capa 1">
    <g>
      <rect x="20" y="20" width="240" height="215" rx="39.51" ry="39.51" fill="#fff" filter="url(#drop-shadow-1)"/>
      <g>
        <text transform="translate(104.33 94.62)" fill="#666" font-family="GOODNEWSPERSONALUSE, &apos;GOOD NEWS PERSONAL USE&apos;" font-size="43.79" letter-spacing=".03em"><tspan x="0" y="0">The</tspan></text>
        <text transform="translate(34 148.96)" fill="#666" font-family="GOODNEWSPERSONALUSE, &apos;GOOD NEWS PERSONAL USE&apos;" font-size="65.68" letter-spacing="0em"><tspan x="0" y="0">Abstract </tspan></text>
        <g id="Layer6_0_FILL" data-name="Layer6 0 FILL">
          <path d="M149.39,174.69c0-.13-.03-.33-.08-.6-.04-.27-.1-.6-.18-1-.48-1.11-1.95-1.8-4.41-2.06-.25-.01-.49-.03-.72-.04-.23-.01-.43-.01-.62,0-.37,.03-.78,.08-1.22,.16-.45,.08-.96,.19-1.5,.32-.12,.01-.34,.08-.66,.2-.32,.11-.59,.17-.8,.18l-2.95-.86c-.63-.05-1.28-.06-1.94-.02-.67,.04-1.34,.13-2.02,.28-.24,.04-.47,.09-.68,.14-.23,.04-.44,.09-.64,.16-.12,0-.21-.02-.28-.06-.07-.04-.14-.11-.22-.2-.04-.19-.11-.3-.2-.34-.08-.04-.39-.07-.94-.08-.05,0-.11,0-.18,.02-.07,.01-.15,.03-.26,.06h-2.04l-.16,.4v1.2c-.01,.07-.03,.11-.06,.12-.01,.01-.02,0-.02-.02l.54,14.83c-.03,.17-.05,.37-.06,.58-.01,.21-.02,.43-.02,.66,.03,.31,.05,.74,.08,1.3,.03,.55,.05,1.22,.08,2.02-.03,.09-.05,.19-.06,.3-.01,.12-.02,.24-.02,.36,0,.11,0,.23,.02,.38,.01,.15,.03,.29,.06,.44,.13,.17,.52,.26,1.16,.26,.83,.01,1.48,.01,1.94,0,.48,0,.77-.01,.86-.04,.24-.08,.39-.21,.46-.4,.08-.2,.07-.48-.02-.84l-.2-8.58c0-.13-.01-.54-.04-1.22-.03-.67-.08-1.6-.16-2.79-.07-2.46-.1-3.79-.1-4.01,0-.39,.02-.71,.06-.96,.05-.27,.13-.47,.24-.6,.28-.36,.62-.62,1.02-.78,.41-.15,.88-.19,1.4-.12,.36,.04,.66,.12,.9,.24,.24,.11,.42,.26,.54,.46,.08,.09,.15,.27,.2,.54,.05,.25,.09,.59,.12,1,.09,.8,.16,1.74,.2,2.81,.04,1.08,.07,2.28,.1,3.59l.26,7.86c0,.39,0,.89,.02,1.5,.03,.6,.05,1.32,.06,2.16,.12,.11,.33,.18,.64,.22,.32,.04,.72,.06,1.2,.06,.32,0,.66,0,1.02-.02,.37-.01,.79-.03,1.24-.06l.78-.2c.05-.03,.09-.13,.1-.3,.01-.19,0-.44-.02-.76-.03-1.04-.07-2.49-.12-4.35-.07-1.87-.16-4.15-.28-6.83-.05-.43-.11-1.01-.16-1.74-.04-.72-.09-1.61-.14-2.67-.03-.6-.03-1.1-.02-1.5,0-.37,.03-.64,.08-.8,.12-.43,.39-.75,.8-.96,.4-.23,.94-.35,1.62-.36,.48,0,.88,.08,1.2,.24,.31,.17,.52,.43,.64,.78l.18,1.78c.15,1.44,.27,3.04,.36,4.79,.08,1.74,.12,3.62,.12,5.65,0,.27,.02,.62,.06,1.06,.04,.47,.06,.84,.06,1.1,0,.2,0,.61,.02,1.22,.03,.64,.05,1.49,.06,2.55-.01,.12-.02,.27-.02,.44,.01,.16,.05,.34,.12,.54,.07,.01,.26,.04,.58,.08,.32,.03,.77,.05,1.34,.08,.79,.05,1.36,.07,1.7,.06,.33-.03,.55-.07,.64-.14,.09-.05,.15-.13,.18-.24,0-1,0-1.91-.02-2.73-.01-.82-.04-1.54-.08-2.18-.07-.88-.13-2.13-.2-3.75-.07-1.6-.16-3.57-.28-5.91l-.28-4.07m-11.58-.42s-.06-.04-.1-.08l.22,.12s-.08-.01-.12-.04m-10.26,9.14s-.05,.03-.12,.06v-.12h.16s-.01,.03-.04,.06m11.16,5.83l.14,.2s-.03-.02-.06-.04c-.03-.03-.05-.08-.08-.16m12.97-14.63c0,1.07,.02,1.89,.06,2.47,.05,.56,.13,.88,.24,.94v.06h-.3c0,1.87,.02,3.57,.06,5.09,.05,1.54,.13,2.9,.24,4.09,.03,.12,.05,.27,.08,.46,.04,.19,.07,.42,.1,.7,.04,.61,.09,1.12,.14,1.52,.08,.41,.16,.71,.24,.9,.29,.9,1,1.56,2.1,1.98,1.1,.44,2.61,.66,4.55,.66,1.4,0,2.55-.14,3.45-.42,.92-.29,1.57-.73,1.94-1.3,.2-.31,.35-.78,.46-1.42s.16-1.45,.16-2.43v-1.76c0-.13-.02-.29-.06-.46-.03-.19-.07-.39-.12-.62-.07-.01-.24-.03-.52-.04-.28-.01-.67-.03-1.16-.06-.63-.01-1.11,.03-1.44,.14-.27,.1-.43,.25-.48,.44,.01-.02,.03,.07,.06,.28,.04,.31,.09,.87,.14,1.68,.03,.8,0,1.45-.08,1.94-.07,.49-.17,.81-.3,.94-.11,.15-.63,.37-1.56,.66-1.16,0-2.02-.1-2.59-.3-.56-.17-.84-.46-.84-.86v-.82c0-.07-.02-.48-.06-1.24s-.09-1.87-.16-3.33c-.01-.48-.03-.84-.04-1.06l-.06-.3c.09-.29,.66-.46,1.7-.5,.52-.03,1.18-.04,1.96-.04,.8,0,1.72,.01,2.77,.04,.72,.01,1.28,.01,1.68,0,.37-.01,.59-.04,.66-.08,.17-.09,.26-.53,.26-1.3,.04-.47,.04-.98,0-1.54,0-.03-.02-.15-.06-.38s-.11-.57-.2-1.02c0-.08,0-.19,.02-.32,.01-.12,.04-.26,.08-.42-.08-.09-.13-.2-.14-.32-.03-.12-.04-.25-.04-.4,.01-.52,.03-.97,.06-1.34,.01-.35,.02-.62,.02-.82-.03-1.03-.3-1.86-.82-2.49-.51-.64-1.27-1.1-2.28-1.36-.39-.11-1-.19-1.82-.24-.83-.04-1.88-.06-3.15-.06l-2.14,.4c-1.47,.25-2.38,1.16-2.73,2.73-.12,.49-.08,.79,.12,.9,0,.01-.02,.02-.06,.02-.03,.01-.07,.02-.14,.02m3.85,4.67c-.05-.45-.04-1.09,.04-1.9,.01-.31,.03-.61,.06-.9,.01-.32,.02-.63,.02-.92,.04-.36,.11-.69,.2-1,.12-.29,.25-.56,.4-.8,.05-.12,.2-.24,.44-.36,.23-.12,.54-.23,.94-.34,1.34,0,2.2,.3,2.59,.9,.07,.12,.13,.35,.2,.68,.04,.33,.07,.77,.1,1.3,.03,.56,.03,1.11,.02,1.64,0,.53-.03,1.06-.1,1.56l.08,.66c.03,.12,0,.22-.1,.3-.11,.07-.27,.11-.5,.12-.15,.03-.41,.04-.78,.04-.35,0-.79-.01-1.34-.04-.57-.01-1.02-.03-1.34-.06s-.52-.06-.6-.1c-.15-.08-.25-.34-.32-.78m-32.59-7.05c-.21-.17-.44-.31-.68-.42,.01,0,.04,0,.08-.02,.03-.01,.05-.03,.08-.06l-1.32-.5c-.16-.07-.35-.13-.56-.18-.23-.05-.51-.11-.84-.18-.19-.01-.47-.04-.86-.08-.39-.01-.88-.02-1.46-.02h-.76c-.76,.12-1.36,.21-1.78,.28-.4,.08-.64,.14-.72,.18-.4,.09-.75,.21-1.04,.36-.31,.16-.58,.34-.82,.54-.12,.08-.22,.19-.3,.32-.08,.12-.15,.25-.22,.4-.09,.15-.13,.28-.12,.4,0,.11,.05,.19,.16,.24l-.3,.62s-.03,.19-.06,.44c-.01,.27-.02,.63-.02,1.1v.68c-.01,.32-.03,.74-.04,1.26,0,.17,.04,.3,.12,.38v.14s-.03,.05-.06,.06c-.01,.03-.02,.06-.02,.1,0,.2,.16,.33,.48,.4,.32,.08,.81,.11,1.46,.08,.55-.04,.93-.08,1.14-.12,.24-.04,.39-.13,.46-.28,.05-.13,.09-.37,.12-.7l.54-3.65c.12-.19,.27-.35,.46-.48,.2-.12,.45-.2,.76-.24,.28-.05,.55-.07,.8-.04,.25,.01,.49,.05,.72,.12,.45,.16,.81,.34,1.06,.54,.27,.19,.43,.38,.48,.58,0,.11,0,.24,.02,.4,0,.13,0,.3,.02,.5,.07,.32,.07,.68,.02,1.08s-.16,.85-.32,1.34c-.03,.17-.07,.34-.12,.5-.05,.19-.11,.37-.16,.54l-1.4,1.24-2.89,1.48-.7,.58-1.24,.78-.56,.46,.1,.2c-.43,0-.74,.33-.94,1-.21,.67-.33,1.66-.36,2.97v2.16c.03,.53,.13,1.02,.32,1.44,.2,.44,.49,.84,.88,1.18,.51,.43,1.1,.74,1.78,.94,.69,.17,1.48,.23,2.36,.18l2.47-.32c.36-.04,.63-.07,.82-.1l.3-.06,.78,.16c1.38,.36,2.54,.45,3.49,.28,.24-.04,.43-.12,.58-.24,.12-.09,.2-.22,.24-.38,0-.07-.03-.15-.08-.24-.04-.11-.09-.23-.14-.36l-.32-.5c-.12-.86-.2-1.5-.24-1.94-.07-.45-.08-.7-.04-.74v-.42c.01-.17,.03-.38,.04-.62-.05-.23-.09-.44-.12-.64-.01-.2-.02-.4-.02-.6v-1.54c-.03-.08-.05-.19-.08-.32-.04-.13-.07-.3-.08-.5,.01-.15,.03-.31,.06-.5,.01-.2,.02-.4,.02-.6l-.2-5.09c.01-.15,.02-.33,.02-.54,.01-.23,.02-.51,.02-.84,0-.03,0-.17-.02-.42,0-.27,0-.64-.02-1.12,0-.17-.04-.36-.12-.56-.05-.2-.13-.4-.24-.6,.03-.03,.07-.04,.12-.04h.24c-.2-.33-.36-.6-.48-.8-.09-.21-.15-.35-.18-.42-.17-.23-.36-.43-.56-.62m-7.78,14.59c0-.32,.01-.51,.04-.56,.04-.11,.09-.23,.14-.36,.04-.12,.07-.26,.08-.42,.11-.45,.28-.84,.52-1.16,.25-.31,.59-.55,1-.74,.82-.37,1.8-.93,2.97-1.66,.16,.08,.29,.47,.38,1.16,.09,.69,.15,1.7,.18,3.03,0,1.26-.02,2.26-.06,3.01-.05,.76-.13,1.26-.22,1.5-.03,.01-.15,.07-.38,.16-.24,.11-.57,.23-.98,.38h-.9c-.24,0-.43-.01-.56-.04-.51-.03-.94-.15-1.3-.38-.35-.23-.62-.54-.82-.94l-.04-1.68c-.03-.53-.04-.96-.04-1.28m-.3,1.14s-.04,.09-.12,.14v-.14h.12m-20.44-21.47l-.02,.16c-.01,.19-.03,.51-.06,.98v1.7c.03,.15,.05,.28,.06,.4,.01,.11,.02,.21,.02,.3,0,.07-.01,.21-.04,.42-.01,.19-.05,.45-.12,.8l.08,1.1v.96c-.01,.43-.03,.73-.06,.9-.01,.15-.02,.19-.02,.12v1.2c.03,.39,.05,.72,.06,1,.01,.29,.02,.54,.02,.74v2.99c0,2.63,.04,4.75,.12,6.35v1.72c.03,.13,.07,.29,.12,.48,.07,.2,.15,.43,.24,.68,.09,.94,.36,1.71,.8,2.32,.44,.61,1.06,1.08,1.84,1.38,.48,.2,1.16,.36,2.04,.48,.87,.09,1.94,.14,3.21,.14l3.67-.12c.24,.01,.49,.03,.76,.06,.27,.01,.56,.02,.88,.02h.76c.25-.01,.52-.03,.8-.04,.19-.08,.31-.29,.38-.64,.07-.36,.07-.86,0-1.48-.03-.07-.05-.14-.08-.22-.04-.08-.07-.18-.1-.3,.07-.21,.11-.44,.14-.68,.03-.21,.04-.44,.04-.68s-.01-.48-.04-.72c-.03-.24-.07-.48-.14-.72l.1-5.77-.1-3.09c0-.4,0-.68,.02-.84s.04-.18,.08-.06c-.04-.16-.13-.28-.28-.36-.17-.08-.4-.13-.68-.14-.2-.04-.38-.05-.54-.04-.17,.03-.32,.05-.44,.08-.24,0-.55,0-.94-.02-.39,0-.86,0-1.4-.02-.52-.04-.99-.06-1.4-.06-.39,0-.73,.02-1.02,.06-.13-.04-.3-.06-.5-.06-.21,0-.46,.02-.74,.06v-.12c-.13,0-.23,.12-.28,.36-.07,.24-.1,.59-.1,1.04,0,.32,.01,.58,.04,.78,.03,.17,.07,.29,.12,.34,.07,.11,.25,.17,.56,.2,.29,.03,.7,.03,1.22,.02,.44-.03,.78-.03,1.02,0,.25,.01,.4,.05,.44,.12,.07,.07,.11,.19,.14,.36,.03,.16,.04,.38,.04,.64,0-.11-.02-.07-.04,.12-.01,.21-.03,.6-.04,1.16v1.22c.01,.15,.04,.36,.08,.64,.03,.28,.05,.63,.08,1.04v1.38c0,.11,0,.23-.02,.36-.03,.13-.05,.29-.06,.46v.56c0,.48-.02,.88-.06,1.18-.05,.32-.11,.56-.16,.72-.2,.32-.49,.57-.88,.76-.39,.2-.88,.32-1.46,.36-.92,.07-1.68,.02-2.28-.14-.6-.13-1.04-.36-1.3-.68-.17-.24-.31-.6-.42-1.08-.08-.47-.12-1.06-.12-1.76,0-1.06-.01-1.82-.04-2.3-.01-.48-.03-.66-.04-.54,0-.23,0-.69,.02-1.38,.01-.67,.03-1.58,.06-2.75,.01-.11,.03-.23,.06-.38,.01-.15,.02-.32,.02-.52v-4.37c0-.2-.02-.47-.06-.82-.03-.33-.06-.68-.1-1.04-.03-.35-.04-.62-.04-.82v-.16c0-.23,.01-.61,.04-1.16v-1.38c0-.08,0-.17-.02-.26,0-.11,0-.24-.02-.4v-.7c0-.25,.01-.73,.04-1.44,.04-1.7,.13-2.91,.26-3.63,.03-.2,.07-.43,.14-.7,.08-.27,.19-.58,.32-.94,.19-.32,.54-.55,1.06-.68,.52-.16,1.2-.23,2.02-.2,.64,.01,1.16,.1,1.56,.26,.41,.16,.72,.39,.92,.7,.09,.12,.17,.41,.24,.86,.08,.47,.16,1.09,.24,1.86,.05,.53,.1,1.07,.14,1.6,.03,.55,.05,1.07,.06,1.56,0,.2,0,.49,.02,.86,.03,.36,.05,.8,.06,1.32-.01,.15-.02,.32-.02,.52,.01,.2,.05,.43,.12,.68,.07,.07,.26,.11,.58,.14s.77,.05,1.36,.06c.55,.04,1,.05,1.34,.02,.36-.01,.62-.03,.78-.06,.05-.01,.11-.04,.16-.08,.05-.04,.1-.09,.14-.16v-.78c-.04-1.58-.07-2.82-.1-3.73-.04-.9-.07-1.44-.08-1.64-.15-1.22-.39-2.24-.74-3.09-.33-.86-.76-1.49-1.28-1.9l-.6-.48c-.91-.37-1.76-.62-2.55-.74-.77-.12-1.48-.11-2.12,.04-.07,0-.19,0-.36,0-.16,0-.35-.01-.58-.04-.08,.03-.2,.04-.36,.04-.17,.01-.39,.03-.64,.04-1.36,0-2.49,.22-3.39,.66-.92,.41-1.6,1.04-2.04,1.88-.2,.41-.35,1.01-.46,1.78-.11,.75-.16,1.68-.16,2.77m10.28-5.59s.03-.03,.04-.06h.1s-.01,.05-.04,.06c-.03,.03-.07,.05-.14,.06,0-.01,.01-.03,.04-.06m3.85,7.05l.18,.1s-.04,.04,0,.12h-.1s-.01-.04-.04-.08c-.01-.04-.03-.09-.04-.14m-12.73-.38s-.07,0-.08-.02c-.01,0-.02-.01-.02-.04,0-.01,0-.04,.02-.08,.01-.03,.04-.05,.08-.08v.22m.46,16.41h-.2v-.24s.06,.04,.1,.08,.07,.09,.1,.16Z" fill="#666"/>
        </g>
        <g>
          <polygon points="214.77 89.69 172.85 89.69 167.81 94.73 219.81 94.73 214.77 89.69" fill="#666"/>
          <polygon points="193.81 68.73 175.59 86.95 212.03 86.95 193.81 68.73" fill="#666"/>
        </g>
        <g>
          <polygon points="226.35 106.65 226.35 148.56 221.31 153.6 221.31 101.6 226.35 106.65" fill="#666"/>
          <polygon points="247.31 127.6 229.09 145.83 229.09 109.38 247.31 127.6" fill="#666"/>
        </g>
      </g>
    </g>
  </g>
</svg>