<?xml version="1.0" encoding="UTF-8"?>
<svg id="Layer_2" data-name="Layer 2" xmlns="http://www.w3.org/2000/svg" width="294" height="269" xmlns:xlink="http://www.w3.org/1999/xlink" viewBox="0 0 294 269">
  <defs>
    <filter id="drop-shadow-1" filterUnits="userSpaceOnUse">
      <feOffset dx="7" dy="7"/>
      <feGaussianBlur result="blur" stdDeviation="9"/>
      <feFlood flood-color="#000" flood-opacity=".5"/>
      <feComposite in2="blur" operator="in"/>
      <feComposite in="SourceGraphic"/>
    </filter>
  </defs>
  <g id="Capa_1" data-name="Capa 1">
    <g>
      <rect x="20" y="20" width="240" height="215" rx="39.51" ry="39.51" fill="#fff" filter="url(#drop-shadow-1)"/>
      <g>
        <path d="M172.52,198.97c-.08-1-.15-2.42-.23-4.25-.08-1.82-.18-4.05-.32-6.7l-.32-4.61c0-.15-.03-.38-.09-.68-.05-.3-.11-.68-.2-1.14-.55-1.26-2.21-2.04-5-2.34-.29-.02-.56-.03-.82-.05-.26-.02-.49-.02-.7,0-.42,.03-.89,.09-1.39,.18-.51,.09-1.08,.21-1.7,.36-.14,.02-.39,.09-.75,.23-.36,.12-.67,.19-.91,.2l-3.34-.98c-.71-.06-1.45-.07-2.2-.02-.76,.05-1.52,.15-2.29,.32-.27,.05-.53,.1-.77,.16-.26,.05-.5,.11-.73,.18-.14,0-.24-.02-.32-.07s-.16-.12-.25-.23c-.05-.21-.12-.34-.23-.39-.09-.05-.45-.08-1.07-.09-.06,0-.13,0-.2,.02s-.17,.04-.3,.07h-2.32l-.18,.45v1.36c-.02,.08-.04,.12-.07,.14-.01,.01-.02,0-.02-.02l.61,16.81c-.03,.2-.05,.42-.07,.66s-.02,.49-.02,.75c.03,.35,.06,.84,.09,1.48,.03,.62,.06,1.39,.09,2.29-.03,.11-.05,.22-.07,.34-.02,.14-.02,.27-.02,.41,0,.12,0,.27,.02,.43s.04,.33,.07,.5c.15,.2,.59,.3,1.32,.3,.94,.02,1.67,.02,2.2,0,.55,0,.87-.02,.98-.05,.27-.09,.45-.24,.52-.45,.09-.23,.08-.55-.02-.95l-.23-9.72c0-.15-.02-.61-.05-1.39-.03-.76-.09-1.81-.18-3.16-.08-2.79-.11-4.3-.11-4.54,0-.44,.02-.8,.07-1.09,.06-.3,.15-.53,.27-.68,.32-.41,.7-.7,1.16-.89,.47-.17,1-.21,1.59-.14,.41,.05,.75,.14,1.02,.27,.27,.12,.48,.3,.61,.52,.09,.11,.17,.31,.23,.61,.06,.29,.11,.67,.14,1.14,.11,.91,.18,1.97,.23,3.18,.05,1.23,.08,2.58,.11,4.07l.3,8.9c0,.44,0,1.01,.02,1.7,.03,.68,.05,1.5,.07,2.45,.14,.12,.38,.2,.73,.25,.36,.05,.82,.07,1.36,.07,.36,0,.75,0,1.16-.02,.42-.02,.89-.04,1.41-.07l.89-.23c.06-.03,.1-.14,.11-.34,.02-.21,0-.5-.02-.86-.03-1.18-.08-2.82-.14-4.93-.08-2.12-.18-4.7-.32-7.75-.06-.48-.12-1.14-.18-1.98-.05-.82-.1-1.82-.16-3.02-.03-.68-.04-1.25-.02-1.7,0-.42,.03-.73,.09-.91,.14-.48,.44-.85,.91-1.09,.45-.26,1.07-.39,1.84-.41,.55,0,1,.09,1.36,.27,.35,.2,.59,.49,.73,.89l.2,2.02c.17,1.64,.3,3.45,.41,5.43,.09,1.97,.14,4.1,.14,6.41,0,.3,.02,.7,.07,1.2,.05,.53,.07,.95,.07,1.25,0,.23,0,.69,.02,1.39,.03,.73,.05,1.69,.07,2.88-.02,.14-.02,.3-.02,.5,.02,.18,.06,.39,.14,.61,.08,.02,.3,.05,.66,.09,.36,.03,.87,.06,1.52,.09,.89,.06,1.54,.08,1.93,.07,.38-.03,.62-.08,.73-.16,.11-.06,.17-.15,.2-.27,0-1.14,0-2.17-.02-3.09-.02-.92-.05-1.75-.09-2.48Zm-25.62-5.68s-.06,.04-.14,.07v-.14h.18s-.02,.04-.05,.07Zm11.63-10.36s-.07-.05-.11-.09l.25,.14s-.09-.02-.14-.05Zm1.11,17.15s-.06-.09-.09-.18l.16,.23s-.04-.02-.07-.05Z" fill="#666"/>
        <path d="M189.38,195.18c-.08-.02-.27-.03-.59-.05-.32-.02-.76-.04-1.32-.07-.71-.02-1.26,.04-1.64,.16-.31,.12-.49,.28-.55,.5,.01-.03,.04,.08,.07,.32,.05,.35,.1,.98,.16,1.91,.03,.91,0,1.64-.09,2.2-.08,.56-.19,.92-.34,1.07-.12,.17-.71,.42-1.77,.75-1.32,0-2.29-.11-2.93-.34-.64-.2-.95-.52-.95-.98v-.93c0-.08-.02-.55-.07-1.41-.05-.86-.11-2.12-.18-3.77-.02-.55-.03-.95-.05-1.2l-.07-.34c.11-.33,.75-.52,1.93-.57,.59-.03,1.33-.05,2.23-.05s1.95,.02,3.13,.05c.82,.02,1.45,.02,1.91,0,.42-.02,.67-.05,.75-.09,.2-.11,.3-.6,.3-1.48,.05-.53,.05-1.11,0-1.75,0-.03-.02-.17-.07-.43-.05-.26-.12-.64-.23-1.16,0-.09,0-.21,.02-.36,.02-.14,.05-.3,.09-.48-.09-.11-.14-.23-.16-.36-.03-.14-.05-.29-.05-.45,.02-.59,.04-1.1,.07-1.52,.02-.39,.02-.7,.02-.93-.03-1.17-.34-2.1-.93-2.82-.58-.73-1.44-1.24-2.59-1.54-.44-.12-1.13-.21-2.07-.27-.94-.05-2.13-.07-3.57-.07l-2.43,.45c-1.67,.29-2.7,1.32-3.09,3.09-.14,.56-.09,.9,.14,1.02,0,.02-.02,.02-.07,.02-.03,.02-.08,.02-.16,.02,0,1.21,.02,2.14,.07,2.79,.06,.64,.15,.99,.27,1.07v.07h-.34c0,2.12,.02,4.04,.07,5.77,.06,1.74,.15,3.29,.27,4.63,.03,.14,.06,.31,.09,.52,.05,.21,.08,.48,.11,.8,.05,.7,.1,1.27,.16,1.73,.09,.47,.18,.81,.27,1.02,.33,1.01,1.13,1.76,2.39,2.25,1.24,.5,2.96,.75,5.16,.75,1.59,0,2.89-.16,3.91-.48,1.04-.33,1.78-.83,2.2-1.48,.23-.35,.4-.89,.52-1.61,.12-.73,.18-1.64,.18-2.75v-2c0-.15-.02-.33-.07-.52-.03-.21-.08-.45-.14-.7Zm-10.77-6.56c-.06-.51-.05-1.23,.05-2.16,.02-.35,.04-.69,.07-1.02,.02-.36,.02-.71,.02-1.04,.05-.41,.12-.79,.23-1.14,.14-.33,.29-.64,.45-.91,.06-.14,.23-.27,.5-.41,.26-.14,.61-.27,1.07-.39,1.51,0,2.49,.34,2.93,1.02,.08,.14,.15,.39,.23,.77,.05,.38,.08,.87,.11,1.48,.03,.64,.04,1.26,.02,1.86,0,.61-.04,1.2-.11,1.77l.09,.75c.03,.14,0,.25-.11,.34-.12,.08-.31,.12-.57,.14-.17,.03-.46,.05-.89,.05-.39,0-.9-.02-1.52-.05-.65-.02-1.16-.04-1.52-.07s-.59-.07-.68-.11c-.17-.09-.29-.39-.36-.89Z" fill="#666"/>
        <path d="M144.17,203.29l-.36-.57c-.14-.97-.23-1.7-.27-2.2-.08-.51-.09-.8-.05-.84v-.48c.02-.2,.03-.43,.05-.7-.06-.26-.11-.5-.14-.73-.02-.23-.02-.45-.02-.68v-1.75c-.03-.09-.06-.21-.09-.36-.05-.15-.08-.34-.09-.57,.02-.17,.04-.36,.07-.57,.02-.23,.02-.45,.02-.68l-.23-5.77c.02-.17,.02-.37,.02-.61,.02-.26,.02-.58,.02-.95,0-.03,0-.19-.02-.48,0-.3,0-.73-.02-1.27,0-.2-.05-.41-.14-.64-.06-.23-.15-.45-.27-.68,.03-.03,.08-.05,.14-.05h.27c-.23-.38-.41-.68-.55-.91-.11-.24-.17-.4-.2-.48-.2-.26-.41-.49-.64-.7-.24-.2-.5-.36-.77-.48,.02,0,.05,0,.09-.02,.03-.02,.06-.04,.09-.07l-1.5-.57c-.18-.08-.39-.14-.64-.2-.26-.06-.58-.13-.95-.2-.21-.02-.54-.05-.98-.09-.44-.02-.99-.02-1.66-.02h-.86c-.86,.14-1.54,.24-2.02,.32-.45,.09-.73,.16-.82,.2-.45,.11-.85,.24-1.18,.41-.35,.18-.66,.39-.93,.61-.14,.09-.25,.21-.34,.36-.09,.14-.17,.29-.25,.45-.11,.17-.15,.32-.14,.45,0,.12,.06,.21,.18,.27l-.34,.7s-.04,.21-.07,.5c-.02,.3-.02,.72-.02,1.25v.77c-.02,.36-.03,.84-.05,1.43,0,.2,.05,.34,.14,.43v.16s-.04,.05-.07,.07c-.02,.03-.02,.07-.02,.11,0,.23,.18,.38,.55,.45,.36,.09,.92,.12,1.66,.09,.62-.05,1.05-.09,1.29-.14,.27-.05,.45-.15,.52-.32,.06-.15,.11-.42,.14-.8l.61-4.13c.14-.21,.31-.39,.52-.55,.23-.14,.51-.23,.86-.27,.32-.06,.62-.08,.91-.05,.29,.02,.56,.06,.82,.14,.51,.18,.92,.39,1.2,.61,.3,.21,.48,.43,.55,.66,0,.12,0,.27,.02,.45,0,.15,0,.34,.02,.57,.08,.36,.08,.77,.02,1.23-.06,.45-.18,.96-.36,1.52-.03,.2-.08,.39-.14,.57-.06,.21-.12,.42-.18,.61l-1.59,1.41-3.27,1.68-.8,.66-1.41,.89-.64,.52,.11,.23c-.48,0-.84,.38-1.07,1.14-.24,.76-.38,1.88-.41,3.36v2.45c.03,.61,.15,1.15,.36,1.64,.23,.5,.56,.95,1,1.34,.58,.48,1.25,.84,2.02,1.07,.79,.2,1.68,.27,2.68,.2l2.79-.36c.41-.05,.72-.08,.93-.11l.34-.07,.89,.18c1.56,.41,2.88,.51,3.95,.32,.27-.05,.49-.14,.66-.27,.14-.11,.23-.25,.27-.43,0-.08-.03-.17-.09-.27-.05-.12-.1-.26-.16-.41Zm-11.79-4.68v-.16h.14s-.05,.1-.14,.16Zm6.43,1.14c-.06,.86-.14,1.43-.25,1.7-.03,.02-.17,.08-.43,.18-.27,.12-.64,.27-1.11,.43h-1.02c-.27,0-.48-.02-.64-.05-.58-.03-1.07-.17-1.48-.43-.39-.26-.7-.61-.93-1.07l-.05-1.91c-.03-.61-.05-1.09-.05-1.45s.02-.58,.05-.64c.05-.12,.1-.26,.16-.41,.05-.14,.08-.3,.09-.48,.12-.51,.32-.95,.59-1.32,.29-.35,.67-.63,1.14-.84,.92-.42,2.04-1.05,3.36-1.89,.18,.09,.33,.53,.43,1.32,.11,.79,.17,1.93,.2,3.43,0,1.42-.02,2.56-.07,3.41Z" fill="#666"/>
        <path d="M126.82,187.72s.05,.04,.06,.08c-.02-.07-.04-.09-.06-.08Z" fill="#666"/>
        <path d="M126.88,202.38c-.05-.09-.08-.2-.11-.34,.08-.24,.13-.5,.16-.77,.03-.24,.05-.5,.05-.77s-.02-.55-.05-.82c-.03-.27-.08-.55-.16-.82l.11-6.54-.11-3.5c0-.45,0-.77,.02-.95,0-.09,.02-.13,.03-.14-.06-.13-.12-.26-.26-.33-.2-.09-.45-.14-.77-.16-.23-.05-.43-.06-.61-.05-.2,.03-.36,.06-.5,.09-.27,0-.63,0-1.07-.02-.44,0-.97,0-1.59-.02-.59-.05-1.12-.07-1.59-.07-.44,0-.83,.02-1.16,.07-.15-.05-.34-.07-.57-.07-.24,0-.52,.02-.84,.07v-.14c-.15,0-.26,.14-.32,.41-.08,.27-.11,.67-.11,1.18,0,.36,.02,.66,.05,.89,.03,.2,.08,.33,.14,.39,.08,.12,.29,.2,.64,.23,.33,.03,.8,.04,1.39,.02,.5-.03,.89-.03,1.16,0,.29,.02,.45,.06,.5,.14,.08,.08,.13,.21,.16,.41,.03,.18,.04,.43,.05,.73,0-.12-.02-.08-.05,.14-.02,.24-.03,.68-.05,1.32v1.39c.02,.17,.05,.41,.09,.73,.03,.32,.06,.71,.09,1.18v1.57c0,.12,0,.26-.02,.41-.03,.15-.05,.33-.07,.52v.64c0,.55-.02,.99-.07,1.34-.06,.36-.12,.64-.18,.82-.23,.36-.56,.65-1,.86-.44,.23-.99,.36-1.66,.41-1.04,.08-1.91,.02-2.59-.16-.68-.15-1.17-.41-1.48-.77-.2-.27-.36-.68-.48-1.23-.09-.53-.14-1.2-.14-2,0-1.2-.02-2.07-.05-2.61-.02-.55-.03-.75-.05-.61,0-.26,0-.78,.02-1.57,.02-.76,.04-1.79,.07-3.11,.02-.12,.04-.27,.07-.43,.02-.17,.02-.36,.02-.59v-4.95c0-.23-.02-.54-.07-.93-.03-.38-.07-.77-.11-1.18-.03-.39-.05-.7-.05-.93v-.18c0-.26,.02-.7,.05-1.32v-1.57c0-.09,0-.19-.02-.3,0-.12,0-.27-.02-.45v-.8c0-.29,.02-.83,.05-1.64,.05-1.92,.14-3.29,.3-4.11,.03-.23,.08-.49,.16-.8,.09-.3,.21-.66,.36-1.07,.21-.36,.61-.62,1.2-.77,.59-.18,1.36-.26,2.29-.23,.73,.02,1.32,.11,1.77,.3,.47,.18,.82,.45,1.04,.8,.11,.14,.2,.46,.27,.98,.09,.53,.18,1.23,.27,2.11,.06,.61,.11,1.21,.16,1.82,.03,.62,.05,1.21,.07,1.77,0,.23,0,.55,.02,.98,.03,.41,.05,.91,.07,1.5-.02,.17-.02,.36-.02,.59,.02,.23,.06,.48,.14,.77,.08,.08,.3,.13,.66,.16,.36,.03,.88,.05,1.54,.07,.62,.05,1.13,.05,1.52,.02,.41-.02,.7-.04,.89-.07,.06-.02,.12-.05,.18-.09s.11-.11,.16-.18v-.89c-.05-1.79-.08-3.2-.11-4.23-.05-1.01-.08-1.64-.09-1.86-.17-1.38-.45-2.54-.84-3.5-.38-.97-.86-1.69-1.45-2.16l-.68-.55c-1.03-.42-1.99-.7-2.88-.84-.88-.14-1.68-.12-2.41,.05h-.41c-.18,0-.4-.02-.66-.05-.09,.03-.23,.05-.41,.05-.2,.02-.44,.03-.73,.05-1.54,0-2.82,.25-3.84,.75-1.04,.47-1.82,1.18-2.32,2.14-.23,.47-.4,1.14-.52,2.02-.12,.85-.18,1.9-.18,3.13l-.02,.18c-.02,.21-.04,.58-.07,1.11v1.93c.03,.17,.05,.32,.07,.45,.02,.12,.02,.23,.02,.34,0,.08-.02,.23-.05,.48-.02,.21-.06,.51-.14,.91l.09,1.25v1.09c-.02,.48-.04,.83-.07,1.02-.01,.17-.02,.22-.02,.14v1.36c.03,.44,.05,.82,.07,1.14,.02,.33,.02,.61,.02,.84v3.38c0,2.98,.05,5.38,.14,7.2v1.95c.03,.15,.08,.33,.14,.55,.08,.23,.17,.48,.27,.77,.11,1.06,.41,1.94,.91,2.64,.5,.7,1.2,1.22,2.09,1.57,.55,.23,1.32,.41,2.32,.55,.98,.11,2.2,.16,3.63,.16l4.16-.14c.27,.02,.56,.04,.86,.07,.3,.02,.64,.02,1,.02h.86c.29-.02,.59-.03,.91-.05,.21-.09,.36-.33,.43-.73,.08-.41,.08-.97,0-1.68-.03-.08-.06-.16-.09-.25Zm-1.32-26.49s-.05,.05,0,.14h-.11s-.02-.05-.05-.09c-.02-.05-.03-.1-.05-.16l.2,.11Zm-4.57-8.11s.03-.04,.05-.07h.11s-.02,.05-.05,.07c-.03,.03-.08,.05-.16,.07,0-.02,.02-.04,.05-.07Zm-10.06,7.56s-.08,0-.09-.02c-.02,0-.02-.02-.02-.05,0-.02,0-.05,.02-.09,.02-.03,.05-.06,.09-.09v.25Zm.3,18.6v-.27s.07,.05,.11,.09c.05,.05,.08,.11,.11,.18h-.23Z" fill="#666"/>
        <path d="M142.44,56.8c-.03,.36-.05,.61-.05,.73l.02,.95c.03,.85,.07,2.23,.11,4.16,.03,.98,.05,2.87,.07,5.66,.02,2.79,.02,6.47,.02,11.04,0,.26,.02,.6,.05,1.02,.03,.42,.07,.84,.11,1.25,.03,.42,.05,.76,.05,1.02v1.75c.03,1.04,.05,1.92,.05,2.61v1.64c-.05,.33-.1,.67-.16,1-.03,.35-.06,.68-.09,1-.06,.36-.06,.67,0,.93,.06,.27,.17,.48,.34,.61,.23,.23,.56,.39,1,.5,.44,.11,.99,.16,1.66,.16,.59,0,1.11-.02,1.57-.05,.45-.03,.84-.08,1.16-.16l-.02-.8c-.03-.65-.09-1.67-.18-3.07-.02-1.7-.04-3.48-.07-5.34-.05-1.88-.1-3.85-.16-5.91v-6.5c.12-.62,.43-1.08,.93-1.36,.5-.29,1.18-.41,2.04-.36,.55,.02,.98,.23,1.29,.64,.32,.42,.51,1.02,.59,1.79,.08,.48,.13,.85,.16,1.09s.05,.38,.05,.41c0,.36-.02,.7-.05,1.02-.02,.33-.04,.66-.07,.98,.02,.3,.05,.69,.09,1.16,.03,.47,.05,.85,.07,1.14,0,.14,0,.3-.02,.48,0,.18,0,.39-.02,.61,.02,.12,.02,.27,.02,.45,.02,.17,.02,.36,.02,.57v2.66c0,.45,.03,.93,.09,1.43,.08,.47,.17,.95,.3,1.45v2.29c-.03,.12-.05,.26-.07,.43-.02,.18-.02,.38-.02,.59l.02,.3c.02,.35,.04,.95,.07,1.82-.03,.06-.05,.14-.07,.23-.02,.11-.02,.2-.02,.3,0,.21,.02,.44,.07,.68,.06,.23,.14,.48,.25,.75,.09,.06,.23,.11,.43,.16,.21,.05,.48,.08,.8,.09,.26,.03,.54,.05,.84,.05,.32,0,.66-.02,1.02-.05,.36-.02,.67-.03,.93-.05h.59v-.05c.12-.14,.22-.27,.3-.39,.06-.15,.11-.29,.16-.41v-4.16c.02-.56,.03-.97,.05-1.23l-.16-3c-.03-.17-.05-.36-.07-.57-.02-.21-.02-.42-.02-.64,.06-.95,.08-1.86,.05-2.73-.05-.86-.12-1.69-.23-2.48-.03-.12-.05-.29-.05-.5,0-.2,.02-.46,.05-.8,.02-.5,.03-.86,.05-1.07,.02-.17,.04-.23,.05-.18-.03-1-.08-1.93-.14-2.79-.08-.89-.15-1.73-.23-2.5-.21-.56-.52-1.04-.93-1.43-.39-.39-.89-.71-1.5-.95-.24-.12-.61-.21-1.09-.27-.45-.08-1.04-.14-1.75-.18-.61-.05-1.19-.07-1.75-.07s-1.08,.02-1.54,.07l-2.11,.18c.02-.21,.04-.52,.07-.93,.03-.39,.05-.81,.07-1.25,.03-.41,.05-.75,.07-1.02v-2.79c-.03-.74-.05-1.4-.07-1.98-.02-.56-.02-1.05-.02-1.48v-3.23c-.12-.12-.57-.22-1.34-.3-.77-.11-1.86-.18-3.27-.23l-.48,.39,.05,2.16v.82Zm13.83,23.76v.18h-.18l-.14-.32,.32,.14Zm-2.5,4.16c.08,.02,.15,.03,.23,.05,0,.03-.02,.06-.05,.09-.02,.02-.03,.05-.05,.09-.05,0-.1-.02-.16-.05-.05-.05-.11-.11-.2-.18h.23Z" fill="#666"/>
        <path d="M124.65,55.96c.14,.05,.39,.09,.75,.14,.38,.03,.9,.06,1.57,.09,2,.11,3.08,.25,3.25,.43v2.02c.02,.12,.05,.3,.09,.55,.03,.26,.06,.57,.09,.93v3.18c0,.65,.02,1.47,.07,2.45,.03,.98,.09,2.13,.18,3.43l-.11,.93c.05,.06,.1,.14,.16,.23,.08,.11,.17,.2,.27,.3v.14c-.11,0-.19,.11-.25,.34-.05,.23-.07,.55-.07,.98,0,.53,.02,1.15,.05,1.86s.08,1.54,.14,2.48l-.18,1.11c0,.32,.02,.7,.05,1.16,.02,.44,.05,.97,.09,1.59,.05,.58,.08,1.09,.11,1.54,.02,.44,.02,.82,.02,1.14,0,.98,.03,1.73,.09,2.25s.15,.8,.27,.84c-.02,.03-.06,.08-.14,.16-.11,.09-.17,.17-.18,.25v4.11c-.05,.15-.05,.33-.02,.55,.02,.21,.07,.45,.16,.73,.11,.09,.33,.16,.68,.2s.82,.07,1.41,.07c1.06,.03,1.84-.04,2.34-.2,.51-.18,.75-.45,.7-.82-.02-.09-.05-.21-.09-.36-.03-.14-.07-.31-.11-.52l-.23-4.45v-.18c0-.08,.02-.2,.05-.36v-1.5c-.02-.47-.03-.89-.05-1.27-.05-.59-.05-1.38,0-2.36l-.32-1.57c.03-.08,.05-.15,.07-.23,.02-.08,.04-.18,.07-.32v-1.7c0-1.54-.04-3.66-.11-6.36-.05-2.7-.13-5.97-.25-9.84-.02-.95-.02-1.7-.02-2.23,.02-.53,.05-.85,.11-.95,0-.08,.02-.16,.07-.25,.05-.08,.11-.16,.2-.25l4.38-.25c.14,0,.27,0,.41-.02,.15-.03,.31-.05,.48-.07,.06-.05,.1-.28,.11-.7,0-.41,0-.99-.02-1.75h-.11c-.06-.06-.2-.11-.41-.14-.2-.02-.47-.04-.82-.07-.86-.05-1.4,0-1.61,.14-.05,0-.2-.02-.45-.07-.26-.05-.45-.07-.57-.07h-3.63c-.27,.02-.6,.03-.98,.05h-1.11c-.39,0-.89-.02-1.48-.05-.58-.03-1.06-.05-1.45-.05-.09,.02-.31,.03-.66,.05-.36,.02-.85,.03-1.45,.05-.27,0-.55,.02-.82,.05-.29,.03-.58,.08-.86,.16-.06,.08-.11,.21-.14,.41-.03,.2-.05,.45-.05,.77s.02,.59,.07,.77c.05,.2,.11,.32,.2,.36Zm9.52,10.86h.3s-.1,.09-.3,.14v-.14Z" fill="#666"/>
        <path d="M160.05,75c0,2.12,.02,4.04,.07,5.77,.06,1.74,.15,3.29,.27,4.63,.03,.14,.06,.31,.09,.52,.05,.21,.08,.48,.11,.8,.05,.7,.1,1.27,.16,1.73,.09,.47,.18,.81,.27,1.02,.33,1.01,1.13,1.76,2.39,2.25,1.24,.5,2.96,.75,5.16,.75,1.59,0,2.89-.16,3.91-.48,1.05-.33,1.78-.83,2.2-1.48,.23-.35,.4-.89,.52-1.61,.12-.73,.18-1.64,.18-2.75v-2c0-.15-.02-.33-.07-.52-.03-.21-.08-.45-.14-.7-.08-.02-.27-.03-.59-.05-.32-.02-.76-.04-1.32-.07-.71-.02-1.26,.04-1.64,.16-.31,.12-.49,.28-.55,.5,.01-.03,.04,.08,.07,.32,.05,.35,.1,.98,.16,1.91,.03,.91,0,1.64-.09,2.2-.08,.56-.19,.92-.34,1.07-.12,.17-.71,.42-1.77,.75-1.32,0-2.29-.11-2.93-.34-.64-.2-.95-.52-.95-.98v-.93c0-.08-.02-.55-.07-1.41-.05-.86-.11-2.12-.18-3.77-.02-.55-.03-.95-.05-1.2l-.07-.34c.11-.33,.75-.52,1.93-.57,.59-.03,1.33-.05,2.23-.05s1.95,.02,3.13,.05c.82,.02,1.45,.02,1.91,0,.42-.02,.67-.05,.75-.09,.2-.11,.3-.6,.3-1.48,.05-.53,.05-1.11,0-1.75,0-.03-.02-.17-.07-.43-.05-.26-.12-.64-.23-1.16,0-.09,0-.21,.02-.36,.02-.14,.05-.3,.09-.48-.09-.11-.14-.23-.16-.36-.03-.14-.05-.29-.05-.45,.02-.59,.04-1.1,.07-1.52,.02-.39,.02-.7,.02-.93-.03-1.17-.34-2.1-.93-2.82-.58-.73-1.44-1.24-2.59-1.54-.44-.12-1.13-.21-2.07-.27-.94-.05-2.13-.07-3.57-.07l-2.43,.45c-1.67,.29-2.7,1.32-3.09,3.09-.14,.56-.09,.9,.14,1.02,0,.02-.02,.02-.07,.02-.03,.02-.08,.02-.16,.02,0,1.21,.02,2.14,.07,2.79,.06,.64,.15,.99,.27,1.07v.07h-.34Zm4.41-.8c.02-.35,.04-.69,.07-1.02,.02-.36,.02-.71,.02-1.04,.05-.41,.12-.79,.23-1.14,.14-.33,.29-.64,.45-.91,.06-.14,.23-.27,.5-.41,.26-.14,.61-.27,1.07-.39,1.51,0,2.49,.34,2.93,1.02,.08,.14,.15,.39,.23,.77,.05,.38,.08,.87,.11,1.48,.03,.64,.04,1.26,.02,1.86,0,.61-.04,1.2-.11,1.77l.09,.75c.03,.14,0,.25-.11,.34-.12,.08-.31,.12-.57,.14-.17,.03-.46,.05-.89,.05-.39,0-.9-.02-1.52-.05-.65-.02-1.16-.04-1.52-.07-.36-.03-.59-.07-.68-.11-.17-.09-.29-.39-.36-.89-.06-.51-.05-1.23,.05-2.16Z" fill="#666"/>
        <path d="M120.63,159.23c4.22-.17,7.17-.93,8.95-2.28l1.69-1.35c1.01-1.27,1.43-4.39,1.35-9.37,0-3.37-.08-9.45-.34-18.15-.08-.76-.17-2.03-.42-3.88v-5.57c.08-.34,.08-.76,0-1.27l-.17-1.01c.08-2.19,.08-3.29,0-3.38-.17-1.52-.25-2.87-.25-4.14-.08-4.56-.34-7.34-.67-8.27-1.44-5.48-6.84-8.36-16.38-8.69-1.27,.08-3.21,0-5.65-.08-1.52-.08-3.46,0-5.74,.34-.51,.25-.76,.76-.76,1.43-.08,.59-.08,1.18,0,1.94,.08,.42,.25,.93,.34,1.52v8.86c0,1.26,0,2.95,.08,5.15v.07c-5.88,0-11.76,0-17.64,0-1.78,0-2.74,.97-2.74,2.75,0,2.85,0,5.7,0,8.55v.81h-1c-6.79,0-13.58,0-20.38,0-1.92,0-2.86,.94-2.86,2.87,0,9.35,0,18.7,0,28.05,0,2.18,.88,3.07,3.04,3.07,5.99,0,11.97,0,17.96,0,3.55,0,7.1-.03,10.65-.07,1.05-.01,1.94-.71,2.2-1.7,.08-.32,.08-.68,.08-1.01,0-3.06,0-6.13,0-9.32h6.07c1.81,0,3.63,0,5.44,0,.03,1.71,.07,3.73,.11,6.13l.17,4.56c-.08,2.03,.42,3.12,1.69,3.38h1.94c1.1-.08,2.11-.08,2.87-.08,0,0,3.46,.08,10.38,.17Zm-31.79-4.51c-9.22-.01-18.44,0-27.67-.01-.19,0-.38-.03-.61-.04v-28.95h21.71v.76c0,5.23,0,10.46,0,15.69,0,2.02,.91,2.92,2.95,2.92,1.41,0,2.82,0,4.26,0,.02,.25,.06,.44,.06,.62,0,2.77-.02,5.55,0,8.32,0,.56-.17,.69-.71,.69Zm-4.07-12.18v-28.92h28.91v28.92h-28.91Zm28.74,2.54c1.65,0,2.67-1.01,2.68-2.61,0-1.09,0-2.19,0-3.28,0-8.42,0-16.85,0-25.27,0-1.84-.94-2.81-2.77-2.81-.99,0-1.98,0-2.96,0l.29-3.36-.34-1.18v-5.49c0-2.2,.59-3.46,1.69-3.8,5.57,0,8.61,.84,9.12,2.45,.51,.59,.76,2.53,.76,5.99v5.23c.08,2.11,.34,7.26,.59,15.62l.34,14.6c0,1.1,.25,4.05,.25,5.15,0,.25,0,.68-.08,1.18v1.1c.08,1.27-.25,2.78-.93,4.73l-2.79,1.1c-4.05,0-6.33-.42-6.84-1.18l-.25-5.06-.22-3.1c.49,0,.97,0,1.46,0Z" fill="#666"/>
        <path d="M145.87,144.12c-.08-.59-.17-1.01-.17-1.35v-2.28c0-.59,.08-1.6,.17-3.04,.08-1.27,.17-2.28,.17-3.04-.08-2.28-.17-5.49-.17-9.62-.08-1.1-.08-2.36,0-3.8l.17-4.39c0-1.35-.08-2.2-.17-2.53-.42-.59-1.01-.84-1.86-.84-.42,0-.84,.08-1.35,.17-1.1,0-1.94,0-2.45-.08-.25,0-1.01,0-2.28,.08l-.25,.59v7.43l.17,5.99v1.18c-.08,.76-.17,1.52-.17,2.2v3.46c0,.68,.25,2.11,.25,2.79,0,1.43,0,3.37-.08,5.74-.25,3.12-.34,5.06-.34,5.82,0,.25,.08,.67,.17,1.43l-.5,7.68c0,.42,.34,.67,.93,.84,1.27,.25,3.04,.34,5.49,.25,.93-.08,1.52-.25,1.86-.59,.08-.08,.08-1.1,.08-3.04v-4.81l.17-1.52c.08,.25,.17-1.01,.17-3.8v-.93Zm-4.14-23.29v-.25h.34c0,.08-.08,.17-.34,.25Z" fill="#666"/>
        <path d="M140.38,101.41c-.68,.25-1.1,.59-1.35,1.18,0,0-.08,.51-.17,1.52-.08,1.18,.08,1.86,.51,2.03,1.18,.25,2.11,.34,2.87,.25,1.61,.08,2.62,0,2.87-.08,.76-.25,1.1-1.01,1.1-2.28,0-1.35-.25-2.11-.76-2.36-1.94-.17-3.63-.25-5.06-.25Z" fill="#666"/>
        <path d="M150.85,119.39v5.57c-.08,.42-.17,.67-.17,.93,.08,.51,.25,1.44,.34,2.7,0,2.95,.08,8.1,.25,15.61,0,.25,.08,2.87,.34,7.68,1.27,4.39,6.08,6.33,14.6,5.82,.67,0,1.43-.08,2.28-.17,2.78-.42,4.81-1.18,5.91-2.28l.93-1.35,.76-1.69v-4.98c0-2.28-.17-4.14-.51-5.65-.42-.08-1.52-.17-3.46-.25-1.77-.08-2.7-.08-2.87,.17-.08,.17-.25,.76-.34,1.77-.08,1.52-.17,2.36-.17,2.45,.34,3.04,.25,4.98-.25,5.82-.25,.42-1.43,.93-3.54,1.52-3.21,0-5.15-.76-5.91-2.36-.51-1.1-.84-3.38-.93-6.67-.08-2.11,0-5.15,.08-9.12,.17-3.97,.25-6.33,.25-7.09-.08-2.28-.08-4.05,0-5.4-.08-.76,.17-1.86,.76-3.29,.76-.59,1.86-.93,3.46-1.18,3.12-.42,4.89,.84,5.32,3.97,0,2.03,.25,4.22,.68,6.58,.42,.25,1.27,.42,2.7,.42,2.11,.08,3.29,.08,3.46,0,.51-.08,.84-.59,.93-1.52,0-.34-.08-1.18-.17-2.53l-.08-1.77v-1.77c.08-1.27-.08-2.7-.51-4.39-.42-.76-1.43-1.6-3.04-2.45s-3.12-1.35-4.56-1.52c-.51-.08-2.7-.08-6.5-.17l-2.11,.25c-4.89,.93-7.51,3.04-7.93,6.33Zm20.34,27.18c0,.25-.08,.17-.25-.25l.25,.25Z" fill="#666"/>
        <path d="M199.81,142.35c0-.07,.06-.12,.08-.19-.03-.07-.06-.01-.08,.19Z" fill="#666"/>
        <path d="M206.9,141.16c-.25,0-1.35-.08-3.29-.17-2.27-.08-3.48,.3-3.72,1.16,.09,.19,.21,1.45,.34,3.82,.08,3.12-.17,5.06-.76,5.65-.17,.25-1.18,.68-3.04,1.27-4.47,0-6.67-.76-6.67-2.28v-1.6c0-.25-.17-3.21-.42-8.95-.08-1.86-.17-2.7-.17-2.62,.17-.59,1.27-.93,3.29-1.01,2.03-.08,5.15-.08,9.28,0,2.78,.08,4.31,0,4.56-.17,.34-.17,.51-1.01,.51-2.53,.08-.93,.08-1.94,0-3.04,0-.08-.17-.93-.51-2.7,0-.34,.08-.84,.17-1.43-.25-.42-.34-.84-.34-1.44,.08-2.03,.17-3.46,.17-4.22-.08-3.97-2.11-6.5-6.08-7.51-1.52-.42-4.73-.59-9.71-.59l-4.22,.76c-2.87,.51-4.64,2.28-5.32,5.32-.25,1.01-.17,1.6,.25,1.77,0,.08-.17,.08-.42,.08,0,4.22,.17,6.41,.59,6.67v.08h-.59c0,7.34,.17,13.33,.59,17.98,.08,.42,.25,1.18,.34,2.28,.17,2.36,.42,3.97,.76,4.73,1.18,3.46,5.49,5.15,13,5.15,5.49,0,9.03-1.1,10.55-3.38,.76-1.18,1.18-3.71,1.18-7.51v-3.46c0-.51-.08-1.18-.34-2.11Zm-18.49-15.02c.08-1.18,.17-2.36,.17-3.55,.17-1.43,.59-2.62,1.18-3.54,.25-.42,1.18-.93,2.7-1.35,2.62,0,4.3,.59,5.06,1.77,.25,.42,.51,1.77,.59,3.88,.08,2.2,.08,4.31-.17,6.25l.17,1.27c.08,.51-.25,.76-1.18,.84-.59,.08-2.03,.08-4.14,0-2.28-.08-3.55-.17-3.8-.34-.59-.25-.84-2.03-.59-5.23Z" fill="#666"/>
        <path d="M90.78,132.9c-2.03,0-3.65,1.6-3.67,3.64-.01,2.02,1.59,3.65,3.62,3.7,1.94,.05,3.68-1.67,3.69-3.65,.01-2.01-1.64-3.68-3.64-3.69Zm-.05,4.85c-.61-.01-1.14-.56-1.13-1.2,0-.59,.51-1.14,1.08-1.17,.65-.04,1.25,.51,1.26,1.15,.01,.63-.58,1.22-1.21,1.21Z" fill="#666"/>
        <path d="M107.58,132.9c-1.97,.06-3.57,1.73-3.51,3.64-.02,2.35,1.81,3.66,3.7,3.67,2,.01,3.64-1.81,3.58-3.76-.06-2.02-1.76-3.61-3.78-3.55Zm.15,4.84c-.63,.03-1.2-.55-1.2-1.21,0-.59,.51-1.13,1.09-1.15,.66-.03,1.24,.51,1.25,1.16,0,.6-.54,1.17-1.14,1.2Z" fill="#666"/>
        <path d="M107.75,115.95c-2.04-.03-3.68,1.61-3.69,3.69,0,1.96,1.6,3.58,3.61,3.64,1.95,.05,3.69-1.65,3.7-3.63,.01-2.02-1.59-3.66-3.62-3.7Zm-.09,4.84c-.64-.03-1.16-.61-1.12-1.27,.04-.62,.6-1.13,1.21-1.1,.65,.04,1.17,.62,1.13,1.26-.04,.6-.63,1.13-1.22,1.1Z" fill="#666"/>
        <path d="M99.2,124.46c-2.08,.02-3.62,1.59-3.61,3.67,.01,2.04,1.64,3.62,3.71,3.59,2.04-.03,3.61-1.66,3.59-3.72-.02-1.98-1.66-3.56-3.68-3.54Zm.03,4.82c-.6,0-1.15-.53-1.17-1.15-.02-.64,.53-1.23,1.16-1.24,.61,0,1.2,.6,1.19,1.23-.01,.59-.58,1.15-1.18,1.16Z" fill="#666"/>
        <path d="M90.77,123.27c1.9,0,3.61-1.64,3.63-3.47,.01-2.17-1.58-3.87-3.62-3.87-1.99,0-3.65,1.64-3.67,3.6-.02,2.08,1.61,3.74,3.66,3.74Zm.02-4.84c.69,.01,1.14,.5,1.15,1.22,0,.59-.56,1.13-1.17,1.13-.67,0-1.2-.52-1.2-1.19,0-.63,.58-1.18,1.23-1.16Z" fill="#666"/>
        <path d="M74.75,135.32c-2.76,.18-4.75,2.49-4.58,5.35,.14,2.44,2.58,4.57,5.03,4.4,2.71-.18,4.76-2.36,4.62-4.92,.07-2.96-2.59-4.99-5.08-4.83Zm.22,7.28c-1.33,0-2.33-1.11-2.34-2.61,0-1.18,1.14-2.19,2.5-2.21,1.23-.01,2.26,1.08,2.29,2.43,.03,1.24-1.15,2.38-2.45,2.38Z" fill="#666"/>
      </g>
    </g>
  </g>
</svg>