<?xml version="1.0" encoding="UTF-8"?>
<svg id="Layer_2" data-name="Layer 2" xmlns="http://www.w3.org/2000/svg" width="294" height="269" xmlns:xlink="http://www.w3.org/1999/xlink" viewBox="0 0 294 269">
  <defs>
    <filter id="drop-shadow-1" filterUnits="userSpaceOnUse">
      <feOffset dx="7" dy="7"/>
      <feGaussianBlur result="blur" stdDeviation="9"/>
      <feFlood flood-color="#000" flood-opacity=".5"/>
      <feComposite in2="blur" operator="in"/>
      <feComposite in="SourceGraphic"/>
    </filter>
  </defs>
  <g id="Capa_1" data-name="Capa 1">
    <g>
      <rect x="20" y="20" width="240" height="215" rx="39.51" ry="39.51" fill="#fff" filter="url(#drop-shadow-1)"/>
      <text transform="translate(113.07 95.59)" fill="#666" font-family="GOODNEWSPERSONALUSE, &apos;GOOD NEWS PERSONAL USE&apos;" font-size="42.08" letter-spacing=".03em"><tspan x="0" y="0">The</tspan></text>
      <g id="Layer6_0_FILL" data-name="Layer6 0 FILL">
        <path d="M156.37,172.55c0-.13-.03-.32-.08-.58-.04-.26-.1-.58-.17-.96-.46-1.07-1.87-1.73-4.24-1.98-.24-.01-.48-.03-.69-.04-.22-.01-.42-.01-.6,0-.36,.03-.75,.08-1.17,.15-.44,.08-.92,.18-1.44,.31-.12,.01-.33,.08-.64,.19-.31,.1-.57,.16-.77,.17l-2.83-.83c-.6-.05-1.23-.06-1.87-.02-.64,.04-1.29,.13-1.95,.27-.23,.04-.45,.08-.65,.13-.22,.04-.42,.09-.62,.15-.12,0-.21-.02-.27-.06-.06-.04-.13-.1-.21-.19-.04-.18-.1-.29-.19-.33-.08-.04-.38-.06-.91-.08-.05,0-.11,0-.17,.02-.06,.01-.15,.03-.25,.06h-1.96l-.15,.39v1.16c-.01,.06-.03,.1-.06,.12-.01,.01-.02,0-.02-.02l.52,14.25c-.03,.17-.04,.35-.06,.56-.01,.21-.02,.42-.02,.64,.03,.3,.05,.71,.08,1.25,.03,.53,.05,1.17,.08,1.95-.03,.09-.04,.19-.06,.29-.01,.12-.02,.23-.02,.35,0,.1,0,.22,.02,.37,.01,.14,.03,.28,.06,.42,.13,.17,.5,.25,1.12,.25,.8,.01,1.42,.01,1.87,0,.46,0,.74-.01,.83-.04,.23-.08,.38-.21,.44-.39,.08-.19,.07-.46-.02-.81l-.19-8.24c0-.13-.01-.52-.04-1.17-.03-.64-.08-1.53-.15-2.68-.06-2.36-.1-3.65-.1-3.85,0-.37,.02-.68,.06-.92,.05-.26,.13-.45,.23-.58,.27-.35,.6-.6,.98-.75,.4-.14,.85-.18,1.35-.12,.35,.04,.64,.12,.87,.23,.23,.1,.4,.25,.52,.44,.08,.09,.14,.26,.19,.52,.05,.24,.09,.57,.12,.96,.09,.77,.15,1.67,.19,2.7,.04,1.04,.07,2.19,.1,3.45l.25,7.55c0,.37,0,.85,.02,1.44,.03,.58,.04,1.27,.06,2.08,.12,.1,.32,.17,.62,.21,.31,.04,.69,.06,1.16,.06,.31,0,.64,0,.98-.02,.36-.01,.76-.03,1.19-.06l.75-.19c.05-.03,.08-.12,.1-.29,.01-.18,0-.42-.02-.73-.03-1-.06-2.39-.12-4.18-.06-1.8-.15-3.99-.27-6.57-.05-.41-.1-.97-.15-1.68-.04-.69-.08-1.55-.13-2.56-.03-.58-.03-1.06-.02-1.44,0-.36,.03-.62,.08-.77,.12-.41,.37-.72,.77-.92,.39-.22,.91-.33,1.56-.35,.46,0,.85,.08,1.16,.23,.3,.17,.5,.42,.62,.75l.17,1.71c.14,1.39,.26,2.92,.35,4.6,.08,1.67,.12,3.48,.12,5.43,0,.26,.02,.6,.06,1.02,.04,.45,.06,.8,.06,1.06,0,.19,0,.58,.02,1.17,.03,.62,.04,1.43,.06,2.45-.01,.12-.02,.26-.02,.42,.01,.15,.05,.33,.12,.52,.06,.01,.25,.04,.56,.08,.31,.03,.74,.05,1.29,.08,.76,.05,1.3,.07,1.64,.06,.32-.03,.53-.07,.62-.13,.09-.05,.15-.13,.17-.23,0-.96,0-1.84-.02-2.62-.01-.78-.04-1.48-.08-2.1-.06-.85-.13-2.05-.19-3.6-.06-1.54-.15-3.44-.27-5.68l-.27-3.91m-11.13-.4s-.06-.04-.1-.08l.21,.12s-.08-.01-.12-.04m-9.86,8.78s-.05,.03-.12,.06v-.12h.15s-.01,.03-.04,.06m10.73,5.61l.13,.19s-.03-.02-.06-.04c-.03-.03-.05-.08-.08-.15m12.46-14.06c0,1.03,.02,1.82,.06,2.37,.05,.54,.13,.84,.23,.91v.06h-.29c0,1.8,.02,3.43,.06,4.89,.05,1.48,.13,2.79,.23,3.93,.03,.12,.05,.26,.08,.44,.04,.18,.07,.4,.1,.67,.04,.59,.08,1.08,.13,1.46,.08,.4,.15,.69,.23,.87,.28,.86,.96,1.5,2.02,1.91,1.05,.42,2.51,.64,4.37,.64,1.35,0,2.45-.13,3.31-.4,.89-.28,1.51-.7,1.87-1.25,.19-.3,.34-.75,.44-1.37s.15-1.39,.15-2.33v-1.69c0-.13-.02-.28-.06-.44-.03-.18-.06-.38-.12-.6-.06-.01-.23-.03-.5-.04-.27-.01-.64-.03-1.12-.06-.6-.01-1.07,.03-1.39,.13-.26,.1-.41,.24-.46,.42,.01-.02,.03,.07,.06,.27,.04,.3,.08,.83,.13,1.62,.03,.77,0,1.39-.08,1.87-.06,.48-.16,.78-.29,.91-.1,.14-.6,.35-1.5,.64-1.12,0-1.95-.1-2.48-.29-.54-.17-.81-.44-.81-.83v-.79c0-.06-.02-.46-.06-1.19s-.09-1.8-.15-3.2c-.01-.46-.03-.8-.04-1.02l-.06-.29c.09-.28,.64-.44,1.64-.48,.5-.03,1.13-.04,1.89-.04,.77,0,1.66,.01,2.66,.04,.69,.01,1.23,.01,1.62,0,.36-.01,.57-.04,.64-.08,.17-.09,.25-.51,.25-1.25,.04-.45,.04-.94,0-1.48,0-.03-.02-.15-.06-.37s-.1-.55-.19-.98c0-.08,0-.18,.02-.31,.01-.12,.04-.25,.08-.4-.08-.09-.12-.19-.13-.31-.03-.12-.04-.24-.04-.39,.01-.5,.03-.93,.06-1.29,.01-.33,.02-.6,.02-.79-.03-.99-.29-1.78-.79-2.39-.49-.62-1.22-1.05-2.2-1.31-.37-.1-.96-.18-1.75-.23-.8-.04-1.8-.06-3.02-.06l-2.06,.39c-1.41,.24-2.29,1.12-2.62,2.62-.12,.48-.08,.76,.12,.87,0,.01-.02,.02-.06,.02-.03,.01-.07,.02-.13,.02m3.7,4.49c-.05-.44-.04-1.05,.04-1.83,.01-.3,.03-.58,.06-.87,.01-.31,.02-.6,.02-.89,.04-.35,.1-.67,.19-.96,.12-.28,.24-.54,.39-.77,.05-.12,.19-.23,.42-.35,.22-.12,.52-.22,.91-.33,1.28,0,2.11,.29,2.48,.87,.06,.12,.13,.33,.19,.65,.04,.32,.07,.74,.1,1.25,.03,.54,.03,1.07,.02,1.58,0,.51-.03,1.01-.1,1.5l.08,.64c.03,.12,0,.21-.1,.29-.1,.06-.26,.1-.48,.12-.14,.03-.39,.04-.75,.04-.33,0-.76-.01-1.29-.04-.55-.01-.98-.03-1.29-.06s-.5-.06-.58-.1c-.14-.08-.24-.33-.31-.75m-31.32-6.78c-.21-.17-.42-.3-.65-.4,.01,0,.04,0,.08-.02,.03-.01,.05-.03,.08-.06l-1.27-.48c-.15-.06-.33-.12-.54-.17-.22-.05-.49-.11-.81-.17-.18-.01-.46-.04-.83-.08-.37-.01-.84-.02-1.41-.02h-.73c-.73,.12-1.3,.21-1.71,.27-.39,.08-.62,.13-.69,.17-.39,.09-.72,.21-1,.35-.3,.15-.56,.33-.79,.52-.12,.08-.21,.18-.29,.31-.08,.12-.15,.24-.21,.39-.09,.14-.13,.27-.12,.39,0,.1,.05,.18,.15,.23l-.29,.6s-.03,.18-.06,.42c-.01,.26-.02,.61-.02,1.06v.65c-.01,.31-.03,.71-.04,1.21,0,.17,.04,.29,.12,.37v.13s-.03,.04-.06,.06c-.01,.03-.02,.06-.02,.1,0,.19,.15,.32,.46,.39,.31,.08,.78,.1,1.41,.08,.53-.04,.89-.08,1.1-.12,.23-.04,.38-.13,.44-.27,.05-.13,.09-.35,.12-.67l.52-3.51c.12-.18,.26-.33,.44-.46,.19-.12,.44-.19,.73-.23,.27-.05,.53-.06,.77-.04,.24,.01,.48,.05,.69,.12,.44,.15,.78,.33,1.02,.52,.26,.18,.41,.37,.46,.56,0,.1,0,.23,.02,.39,0,.13,0,.29,.02,.48,.06,.31,.07,.65,.02,1.04s-.15,.82-.31,1.29c-.03,.17-.06,.33-.12,.48-.05,.18-.1,.35-.15,.52l-1.35,1.19-2.77,1.43-.67,.56-1.19,.75-.54,.44,.1,.19c-.41,0-.71,.32-.91,.96-.21,.64-.32,1.59-.35,2.85v2.08c.03,.51,.13,.98,.31,1.39,.19,.42,.48,.8,.85,1.14,.49,.41,1.06,.71,1.71,.91,.67,.17,1.43,.22,2.27,.17l2.37-.31c.35-.04,.61-.07,.79-.1l.29-.06,.75,.15c1.32,.35,2.44,.44,3.35,.27,.23-.04,.42-.12,.56-.23,.12-.09,.19-.21,.23-.37,0-.06-.03-.14-.08-.23-.04-.1-.08-.22-.13-.35l-.31-.48c-.12-.82-.19-1.44-.23-1.87-.06-.44-.08-.67-.04-.71v-.4c.01-.17,.03-.37,.04-.6-.05-.22-.09-.42-.12-.62-.01-.19-.02-.39-.02-.58v-1.48c-.03-.08-.05-.18-.08-.31-.04-.13-.06-.29-.08-.48,.01-.14,.03-.3,.06-.48,.01-.19,.02-.39,.02-.58l-.19-4.89c.01-.14,.02-.31,.02-.52,.01-.22,.02-.49,.02-.81,0-.03,0-.16-.02-.4,0-.26,0-.62-.02-1.08,0-.17-.04-.35-.12-.54-.05-.19-.13-.39-.23-.58,.03-.03,.06-.04,.12-.04h.23c-.19-.32-.35-.58-.46-.77-.09-.21-.15-.34-.17-.4-.17-.22-.35-.42-.54-.6m-7.47,14.02c0-.31,.01-.49,.04-.54,.04-.1,.08-.22,.13-.35,.04-.12,.06-.25,.08-.4,.1-.44,.27-.81,.5-1.12,.24-.3,.57-.53,.96-.71,.78-.36,1.73-.89,2.85-1.6,.15,.08,.28,.45,.37,1.12,.09,.67,.15,1.64,.17,2.91,0,1.21-.02,2.17-.06,2.89-.05,.73-.12,1.21-.21,1.44-.03,.01-.15,.06-.37,.15-.23,.1-.55,.22-.94,.37h-.87c-.23,0-.41-.01-.54-.04-.49-.03-.91-.15-1.25-.37-.33-.22-.6-.52-.79-.91l-.04-1.62c-.03-.51-.04-.92-.04-1.23m-.29,1.1s-.04,.08-.12,.13v-.13h.12m-19.65-20.63l-.02,.15c-.01,.18-.03,.49-.06,.94v1.64c.03,.14,.04,.27,.06,.39,.01,.1,.02,.2,.02,.29,0,.06-.01,.2-.04,.4-.01,.18-.05,.44-.12,.77l.08,1.06v.92c-.01,.41-.03,.7-.06,.87-.01,.15-.02,.18-.02,.12v1.16c.03,.37,.05,.69,.06,.96,.01,.28,.02,.52,.02,.71v2.87c0,2.53,.04,4.57,.12,6.11v1.66c.03,.13,.06,.28,.12,.46,.06,.19,.14,.41,.23,.65,.09,.9,.35,1.64,.77,2.23,.42,.59,1.01,1.03,1.77,1.33,.46,.19,1.12,.35,1.96,.46,.83,.09,1.86,.13,3.08,.13l3.52-.12c.23,.01,.48,.03,.73,.06,.26,.01,.54,.02,.85,.02h.73c.24-.01,.5-.03,.77-.04,.18-.08,.3-.28,.37-.62,.06-.35,.06-.82,0-1.43-.03-.06-.05-.13-.08-.21-.04-.08-.07-.17-.1-.29,.06-.21,.11-.42,.13-.65,.03-.21,.04-.42,.04-.65s-.01-.46-.04-.69c-.03-.23-.07-.46-.13-.69l.1-5.55-.1-2.97c0-.39,0-.65,.02-.81s.04-.17,.08-.06c-.04-.15-.13-.27-.27-.35-.17-.08-.39-.12-.65-.13-.19-.04-.37-.05-.52-.04-.17,.03-.31,.05-.42,.08-.23,0-.53,0-.91-.02-.37,0-.82,0-1.35-.02-.5-.04-.95-.06-1.35-.06-.37,0-.7,.02-.98,.06-.13-.04-.29-.06-.48-.06-.21,0-.44,.02-.71,.06v-.12c-.13,0-.22,.12-.27,.35-.06,.23-.1,.57-.1,1,0,.31,.01,.56,.04,.75,.03,.17,.06,.28,.12,.33,.06,.1,.24,.17,.54,.19,.28,.03,.67,.03,1.17,.02,.42-.03,.75-.03,.98,0,.24,.01,.39,.05,.42,.12,.06,.06,.11,.18,.13,.35,.02,.16,.04,.36,.04,.62,0-.1-.02-.07-.04,.12-.01,.21-.03,.58-.04,1.12v1.17c.01,.14,.04,.35,.08,.62,.03,.27,.05,.6,.08,1v1.33c0,.1,0,.22-.02,.35-.03,.13-.04,.28-.06,.44v.54c0,.46-.02,.84-.06,1.14-.05,.31-.1,.54-.15,.69-.19,.31-.48,.55-.85,.73-.37,.19-.84,.31-1.41,.35-.89,.06-1.62,.02-2.2-.13-.58-.13-1-.35-1.25-.65-.17-.23-.3-.58-.4-1.04-.08-.45-.12-1.01-.12-1.7,0-1.01-.01-1.75-.04-2.22-.01-.46-.03-.64-.04-.52,0-.22,0-.66,.02-1.33,.01-.64,.03-1.52,.06-2.64,.01-.1,.03-.22,.06-.37,.01-.14,.02-.31,.02-.5v-4.2c0-.19-.02-.46-.06-.79-.03-.32-.06-.65-.1-1-.03-.33-.04-.6-.04-.79v-.15c0-.22,.01-.59,.04-1.12v-1.33c0-.08,0-.16-.02-.25,0-.1,0-.23-.02-.39v-.67c0-.24,.01-.71,.04-1.39,.04-1.63,.12-2.79,.25-3.49,.03-.19,.07-.42,.13-.67,.08-.26,.18-.56,.31-.91,.18-.31,.52-.53,1.02-.65,.5-.15,1.15-.22,1.95-.19,.62,.01,1.12,.1,1.5,.25,.4,.15,.69,.38,.89,.67,.09,.12,.17,.39,.23,.83,.08,.45,.15,1.05,.23,1.79,.05,.51,.1,1.03,.13,1.54,.03,.53,.05,1.03,.06,1.5,0,.19,0,.47,.02,.83,.03,.35,.04,.77,.06,1.27-.01,.14-.02,.31-.02,.5,.01,.19,.05,.41,.12,.65,.06,.06,.25,.11,.56,.13s.74,.04,1.31,.06c.53,.04,.96,.04,1.29,.02,.35-.01,.6-.03,.75-.06,.05-.01,.1-.04,.15-.08,.05-.04,.1-.09,.13-.15v-.75c-.04-1.52-.07-2.71-.1-3.58-.04-.86-.06-1.39-.08-1.58-.14-1.17-.38-2.16-.71-2.97-.32-.82-.73-1.43-1.23-1.83l-.58-.46c-.87-.36-1.69-.6-2.45-.71-.74-.12-1.43-.1-2.04,.04-.06,0-.18,0-.35,0-.15,0-.34-.01-.56-.04-.08,.03-.19,.04-.35,.04-.17,.01-.37,.03-.62,.04-1.31,0-2.39,.21-3.26,.64-.89,.4-1.54,1-1.96,1.81-.19,.4-.34,.97-.44,1.71-.1,.72-.15,1.61-.15,2.66m9.88-5.37s.03-.03,.04-.06h.1s-.01,.04-.04,.06c-.03,.03-.07,.04-.13,.06,0-.01,.01-.03,.04-.06m3.7,6.78l.17,.1s-.04,.04,0,.12h-.1s-.01-.04-.04-.08c-.01-.04-.03-.08-.04-.13m-12.23-.37s-.06,0-.08-.02c-.01,0-.02-.01-.02-.04,0-.01,0-.04,.02-.08,.01-.03,.04-.05,.08-.08v.21m.44,15.78h-.19v-.23s.06,.04,.1,.08,.07,.09,.1,.15Z" fill="#666"/>
      </g>
      <path d="M84.74,115.69l-1.76,.19c-.82-.07-1.33-.07-1.54,0h-.42c-.21,.02-.45,.04-.72,.06-.46,0-.96,.05-1.5,.16-.55,.09-1.12,.24-1.73,.45-1.2,.35-2.13,.83-2.79,1.41-.67,.6-1.09,1.3-1.27,2.09v1.3c-.05,.82-.07,1.43-.07,1.86,0,.41,.02,.76,.04,1.04,.02,.28,.03,.6,.03,.98,0,2.4,.07,5.19,.22,8.36,.13,3.16,.35,6.71,.63,10.65,0,.12,.03,.35,.1,.71,.08,.35,.19,.84,.35,1.45,.62,1.12,1.74,1.98,3.35,2.56,1.64,.57,3.76,.87,6.35,.92,1.5,0,2.84-.12,4.02-.35,1.17-.24,2.18-.59,3.02-1.07,.63-.35,1.13-.81,1.48-1.35,.37-.55,.62-1.2,.73-1.96,.07-.43,.07-2.29,0-5.57v-2.17c0-3.18-.06-6.18-.19-9.01-.15-2.82-.37-5.44-.66-7.86-.07-.71-.28-1.34-.63-1.9-.36-.54-.87-1.01-1.54-1.41-.59-.37-1.17-.56-1.76-.56v-.35c0-.06-.58-.18-1.73-.37l-2.03-.24m-2.76,3.79c1.19,.02,2.08,.12,2.66,.32,.61,.19,1.01,.51,1.19,.95,.17,.41,.26,1,.26,1.76,0,.35-.01,.69-.04,.99,0,.32,0,.6-.03,.86v.53c0,.08,.02,.76,.07,2.06,.07,1.3,.15,3.2,.24,5.68l.32,8.88v1.87c-.02,.47-.04,.79-.07,.95-.31,1.15-1.27,1.73-2.88,1.73-1.07,.02-1.91-.15-2.55-.5-.65-.37-1.09-.93-1.31-1.66-.02-.15-.05-.54-.1-1.17-.02-.65-.03-1.55-.03-2.71,0-.47,0-.82,0-1.05v-.36c-.02-.62-.04-1.06-.07-1.3v-.12c0-.14,0-.32,0-.53,.03-.2,.05-.46,.07-.76,0-.29,0-.55,0-.78,0-.23-.02-.42-.07-.56,0-.34-.04-.81-.12-1.41-.09-.6-.13-1.07-.13-1.41,0-.11,0-.27,.03-.5,.03-.23,.06-.53,.1-.91-.04-.13-.07-.31-.1-.52-.02-.18-.03-.4-.03-.65v-1.78c-.1-1.17-.16-2.18-.19-3.04-.02-.88,0-1.63,.06-2.25-.04-.16-.04-.37,0-.62,.04-.25,.12-.55,.26-.91,.06-.16,.3-.33,.72-.5,.39-.19,.97-.39,1.73-.6m25.46-1.76c-.1-.33-.22-.57-.36-.73-.96,.06-1.8,.15-2.53,.27-.8,.14-1.44,.33-1.93,.56-.25-.06-.53-.22-.85-.47-.29-.25-.63-.35-1.02-.3-.86,0-1.68-.01-2.46-.04-.79-.02-1.55-.05-2.29-.1-.19,.12-.34,.22-.43,.32-.09,.12-.13,.24-.13,.39v.91c0,.29,0,.63,.03,1.04,.02,.39,.05,.86,.1,1.41-.05,.15-.08,.37-.1,.66-.02,.28-.03,.59-.03,.94,0,.03,0,.24,.03,.63,.02,.4,.05,1.01,.1,1.81,0,.32,0,.83,.03,1.54,.02,.69,.05,1.57,.1,2.63v11.11c0,.82,.03,1.82,.06,3.01v7.22c.04,.08,.09,.16,.16,.24,.06,.06,.13,.12,.22,.19,.23,.11,.71,.16,1.44,.17,.73,.05,1.7,.05,2.92,0,.36,0,.65-.02,.88-.07,.24-.07,.42-.16,.53-.29v-4.71c0-.19,0-.4-.03-.63-.02-.23-.05-.49-.1-.78v-.75c0-.7-.01-1.88-.04-3.53-.05-1.67-.12-3.84-.2-6.52-.05-1.26-.07-2.4-.07-3.44s.02-1.98,.07-2.78v-2.63c-.06-1.67,.13-2.76,.56-3.28,.42-.49,1.08-.87,1.97-1.14,.72-.22,1.57-.38,2.55-.47,.08-.07,.15-.13,.23-.2,.4-.37,.71-.81,.94-1.31-.07-.12-.18-.41-.33-.88m21.88-2.1c.02-.12,.03-.24,.03-.35l-.13-.13c-.1-.02-.39-.04-.88-.06-.5-.02-1.2-.03-2.12-.03l-2.07-.13v.06s-.1,.09-.14,.13c-.03,.06-.07,.13-.12,.23,.07,.31,.07,.68,0,1.12l-1.86,7.7c-.1,.3-.24,.69-.43,1.18-.16,.49-.36,1.1-.59,1.83-.17,.57-.35,1.11-.53,1.63-.19,.49-.4,.93-.63,1.32v.06h-.32s-.02-.04-.07-.06c-.02-.04-.04-.06-.06-.06-.16-.66-.39-1.63-.68-2.91-.32-1.27-.71-2.84-1.19-4.74l-1.17-5.07c.04-.35,.01-.73-.07-1.12-.05-.41-.17-.85-.36-1.31,0-.02,0-.04-.03-.07-.05-.02-.08-.03-.1-.03-.48,0-1.06,0-1.73,0-.66,.02-1.39,.05-2.19,.1l-2.33-.14c-.09,.03-.18,.08-.27,.14-.11,.08-.19,.16-.26,.24,.07,.15,.24,.98,.53,2.48,.06,.47,.23,1.22,.5,2.26,.25,1.02,.61,2.29,1.09,3.81,.16,.52,.36,1.25,.59,2.19,.26,.94,.57,2.08,.92,3.43,.02,.27,.09,.64,.22,1.11,.13,.5,.29,1.08,.47,1.74,.11,.3,.25,.75,.43,1.37,.14,.41,.32,.91,.53,1.48l.36,1.7,.24,.66c.16,.41,.39,.94,.69,1.57l.91,2.63c-.03,.1-.05,.19-.07,.29-.06-.17-.11-.34-.14-.49,0,0-.01,.02-.01,.03,.04,.16,.09,.34,.14,.52-.14,.55-.3,1.16-.46,1.83l-.6,2.1c-.07,.12-.19,.29-.37,.53-.17,.22-.52,.5-1.04,.83-.25,.05-.55,.12-.91,.23-.34,.1-.71,.22-1.12,.36h-.1s-.04-.02-.06-.07c-.09,0-.18,.02-.27,.07-.1,.03-.19,.08-.29,.16-.05,0-.08-.01-.1-.04-.05-.02-.08-.04-.1-.07-.23,0-.43,.11-.59,.32-.14,.21-.27,.52-.37,.92-.02,.4-.02,.72,0,.96,.04,.25,.12,.42,.26,.5,.39,.27,1.35,.37,2.88,.32,2.77-.11,4.58-.54,5.43-1.3l1.41-2.36c.14-.3,.36-.85,.63-1.66,.24-.83,.56-1.89,.96-3.21l.65-2.2s.03,0,.04,0l.86-2.96,.4-2.01,.88-3.01c0-.12,.02-.28,.07-.47,.03-.19,.1-.43,.22-.71l2.48-7.96c.35-1.01,.67-2.09,.98-3.24,.25-.89,.51-1.83,.78-2.82,.02-.24,.06-.46,.13-.66,.04-.11,.08-.21,.13-.3,.02-.15,.05-.29,.09-.4m-16.87,3.09v.06h-.13v-.06h-.12v-.16s.09-.06,.17-.09c.08-.04,.17-.11,.29-.2,0,.1-.02,.18-.07,.24-.04,.06-.09,.12-.14,.2m6.23,26.11s-.05,.06-.07,.09v-.12h-.1v-.04h.22s-.01,.05-.04,.07m43.55-28.97c-.56-.14-1.45-.26-2.69-.36-1.23-.05-2.78-.07-4.66-.07l-3.21,.59c-2.18,.37-3.53,1.72-4.04,4.03-.19,.77-.13,1.22,.19,1.37,0,.02-.03,.03-.1,.03-.04,.02-.11,.03-.22,.03,0,1.58,.03,2.81,.1,3.67,.08,.83,.19,1.3,.35,1.41v.07h-.45c0,2.77,.03,5.3,.1,7.58,.08,2.27,.19,4.3,.35,6.09,.03,.16,.07,.38,.12,.66,.07,.29,.12,.64,.16,1.05,.06,.9,.13,1.66,.22,2.26,.11,.61,.23,1.07,.36,1.37,.42,1.31,1.46,2.29,3.12,2.94,1.63,.65,3.88,.98,6.74,.98,2.09,0,3.81-.21,5.15-.63,1.36-.44,2.32-1.09,2.88-1.94,.3-.46,.53-1.16,.71-2.1,.14-.97,.22-2.17,.22-3.6v-2.65c0-.18-.02-.41-.06-.69-.04-.27-.11-.57-.2-.89-.1-.03-.36-.05-.78-.07-.42-.02-1-.05-1.73-.1-.94-.02-1.65,.05-2.13,.22-.41,.14-.65,.36-.72,.66,.02-.04,.05,.1,.09,.42,.07,.45,.13,1.29,.2,2.5,.04,1.2,0,2.16-.1,2.89-.11,.73-.26,1.2-.46,1.41-.14,.21-.92,.54-2.33,.98-1.72,0-2.99-.15-3.83-.45-.83-.28-1.25-.71-1.25-1.28v-1.24c0-.11-.03-.72-.1-1.86-.06-1.12-.14-2.77-.24-4.95-.02-.71-.04-1.23-.06-1.57l-.07-.45c.13-.43,.97-.68,2.5-.75,.78-.04,1.75-.06,2.92-.06s2.57,.02,4.14,.06c1.07,.03,1.89,.03,2.48,0,.57-.02,.9-.06,1.01-.13,.25-.12,.37-.77,.37-1.94,.06-.68,.06-1.44,0-2.29,0-.04-.03-.23-.09-.56-.07-.34-.16-.84-.29-1.51,0-.12,0-.28,.03-.46,.03-.19,.06-.4,.09-.63-.1-.14-.15-.31-.17-.5-.05-.16-.07-.36-.07-.59,.02-.78,.05-1.43,.1-1.97,.02-.52,.03-.93,.03-1.24-.04-1.53-.45-2.76-1.22-3.7-.76-.96-1.9-1.64-3.43-2.03m-7.28,3.8c.34-.17,.8-.34,1.38-.5,2,0,3.29,.45,3.87,1.34,.1,.17,.19,.51,.27,1.01,.07,.51,.12,1.16,.17,1.96,.03,.83,.03,1.64,.01,2.43,0,.8-.05,1.57-.14,2.32l.13,.98c.03,.19-.03,.34-.17,.43-.14,.12-.38,.18-.71,.2-.24,.04-.63,.06-1.17,.06s-1.2-.02-2.01-.06c-.85-.02-1.52-.05-2-.1-.49-.04-.78-.09-.88-.16-.23-.11-.39-.49-.49-1.17-.08-.66-.06-1.6,.04-2.82,.02-.45,.05-.9,.1-1.34,.02-.47,.03-.92,.03-1.35,.06-.54,.16-1.04,.32-1.51,.16-.44,.36-.84,.59-1.19,.08-.16,.29-.34,.65-.52m41.62,4.89c-.05-.65-.06-1.39-.03-2.22h-6.13l.06,5.14c-.03,.28-.05,.56-.07,.83-.04,.29-.06,.56-.06,.82v2.63c.02,.27,.05,.62,.09,1.07,.06,.42,.1,.78,.13,1.07,0,.55-.01,1.18-.04,1.91,0,.73-.01,1.54-.04,2.45-.09,1.19-.15,2.15-.2,2.88-.05,.76-.07,1.28-.07,1.55,0,.1,.02,.23,.07,.39,.02,.18,.04,.42,.07,.71l-.39,5.87c0,.14,.07,.26,.2,.36,.12,.12,.3,.2,.53,.24,.47,.12,1.05,.18,1.73,.2,.68,.05,1.49,.05,2.43,0,.35-.02,.63-.07,.85-.16,.25-.06,.44-.15,.56-.29,.02-.03,.03-.24,.03-.62,.03-.39,.04-.96,.04-1.7v-3.67l.13-1.17c.02,.12,.05-.07,.09-.56,.02-.48,.03-1.25,.03-2.32v-.69c-.05-.23-.08-.43-.09-.59-.02-.16-.03-.31-.03-.45v-1.76c0-.21,0-.51,.03-.91,0-.38,.04-.84,.09-1.38,.02-.48,.05-.92,.1-1.32,.02-.37,.03-.71,.03-1.01-.04-.87-.07-1.92-.1-3.14-.02-1.2-.03-2.6-.03-4.19m-6.23-8.23l.06,4.04h6.23l.07-2.04c0-.52,0-.93-.03-1.24-.05-.33-.08-.56-.1-.71-.16-.2-.36-.35-.6-.46-.22-.11-.49-.16-.81-.16-.16,0-.33,0-.5,.03-.16,.02-.34,.05-.53,.1h-1.09c-.32-.02-.57-.04-.76-.07h-.59c-.27,0-.64,.02-1.12,.07l-.22,.43m27.5,.26c-.9-.37-2.1-.65-3.58-.82-.6-.06-1.16-.08-1.66-.06-.52,.03-.99,.09-1.41,.19-.37,0-.82,.04-1.34,.13-.56,.06-1.07,.13-1.55,.22-.48,.06-.84,.09-1.09,.09-.11-.08-.26-.17-.47-.29-.21-.1-.46-.21-.75-.33l-5.21-.2s-.07,0-.14,0c-.07,0-.14,.02-.23,.07v9.96c.02,.14,.06,.36,.13,.65,.04,.27,.08,.58,.13,.94-.05,.14-.08,.35-.1,.6-.02,.23-.03,.52-.03,.88v1.53c0,.36,0,1.09,.03,2.17,.02,1.08,.05,2.53,.1,4.33l.12,11.3c0,.64,0,1.11-.03,1.41-.03,.29-.06,.42-.09,.4,.06,.09,.2,.17,.43,.24,.21,.07,.49,.11,.85,.13,1.54,.07,2.75,.07,3.61,0,.87-.07,1.42-.19,1.66-.37,.12-.11,.21-.25,.26-.43,.04-.21,.04-.47,0-.79l-.14-1.3v-14.51c0-.33,0-.72-.03-1.19-.03-.49-.06-1.04-.09-1.64-.04-.64-.06-1.21-.06-1.7v-2.4c0-.63,.02-1.51,.06-2.63,0-.34,.03-.7,.09-1.09,.07-.42,.16-.88,.29-1.37,.46-.6,1.03-1.03,1.7-1.28,.67-.25,1.45-.32,2.35-.2,.65,.12,1.16,.33,1.51,.63,.33,.33,.51,.76,.56,1.3v.68c0,.45,0,1.1,0,1.94,0-.04,.03,.11,.07,.45,.04,.4,.1,1.04,.17,1.9,.07,.58,.07,1.6,0,3.07-.08,2.18-.12,4.52-.14,7.02-.02,2.5,0,5.19,.03,8.06v1.78c-.04,.94-.07,1.61-.1,2.01l-.03,.45c.05,.37,.12,.68,.22,.91,.13,.23,.3,.4,.49,.5,.49,.16,1.18,.27,2.09,.32,.93,.02,2.05-.04,3.37-.17,.26-.04,.48-.11,.66-.22,.16-.12,.28-.27,.36-.46v-1.17l-.06-.47c-.04-.39-.1-.98-.19-1.77v-1.24c.05-.54,.08-.91,.1-1.12,.02-.16,.03-.22,.03-.19,0-1.33,0-2.34,0-3.02v-1.05c0-.33,0-.7-.03-1.12-.02-.4-.05-.87-.1-1.4v-6.38c-.05-.59-.08-1.01-.1-1.25v-.14c-.01-.6-.01-1.4-.01-2.39-.02-1.05-.04-2.32-.07-3.83,0-.65-.07-1.38-.2-2.17-.12-.79-.29-1.66-.52-2.6-.36-.6-.98-1.09-1.89-1.47m-17.59,25.96s-.07-.08-.12-.14l.17,.19s-.04-.02-.06-.04m40.39-25.78c-.37-.12-.83-.26-1.38-.42-.54-.14-1.15-.3-1.83-.46-.1-.05-.33-.07-.71-.07h-3.24l-.99,.13c-.54,0-.97,.01-1.3,.04-.31,.03-.55,.08-.72,.14-1.45,0-2.62,.27-3.51,.82-.91,.56-1.56,1.4-1.94,2.53-.44,3.07-.63,6.15-.56,9.23l.49,10.89c0,.43,.02,1.07,.07,1.91,0,.82,.05,1.82,.12,3.01l-.12,1.11c.19,.83,.51,1.53,.96,2.12,.28,.19,.54,.44,.78,.73,.28,.27,.57,.58,.86,.94l-1.42,1.42c-.37,.38-.67,.71-.88,.99-.19,.3-.3,.54-.33,.73-.59,2.12-.14,3.85,1.34,5.18l1.83,1.44c.1,.1,.07,.24-.07,.43-.14,.16-.4,.36-.76,.59-.45,.29-.8,.53-1.05,.72-.25,.17-.38,.28-.4,.32-.3,.41-.52,.81-.66,1.19-.14,.39-.21,.79-.19,1.19,0,.27,.07,.5,.22,.69,.12,.16,.34,.28,.63,.36,0,.83,.51,1.44,1.53,1.86,1.05,.42,2.6,.65,4.68,.68h6.19c.54,0,1.26-.02,2.16-.07,1.06-.02,1.89-.04,2.5-.07,.63-.02,1.02-.04,1.17-.06,2.03-.24,3.54-.82,4.52-1.73,.97-.94,1.44-2.25,1.41-3.91,0-.59-.26-1.3-.79-2.14h.03l-1.09-1.09c-.8-.55-2.11-.95-3.94-1.22-1.85-.29-4.22-.43-7.11-.43-.94,0-1.78-.05-2.5-.14-.7-.08-1.3-.2-1.8-.36-.77-.3-1.35-.67-1.76-1.11-.42-.41-.65-.92-.68-1.53-.04-.83,.39-1.48,1.28-1.97,.93-.54,2.33-.91,4.19-1.12,2.15-.29,3.84-.6,5.07-.95,1.25-.38,2.01-.8,2.29-1.24,.42-.59,.75-1.51,.98-2.78,.21-1.3,.32-2.94,.32-4.94,0-.77,0-1.73-.03-2.88-.02-1.15-.05-2.5-.1-4.06-.03-1.56-.06-2.94-.09-4.12-.02-1.17-.03-2.13-.03-2.88v-3.22c0-.48,.02-.88,.07-1.19,.03-.32,.09-.56,.17-.72,.19-.4,.47-.74,.82-1.01,.33-.3,.74-.54,1.25-.72,.21-.05,.46-.13,.75-.26,.28-.1,.56-.23,.85-.39,.26-.2,.39-.72,.39-1.55,.04-.75-.08-1.23-.36-1.44-.27-.23-1.01-.32-2.22-.27-1.74,.37-3.05,.65-3.93,.83-.9,.19-1.37,.29-1.41,.29m-5.58,3.11c.59,.09,1.02,.21,1.28,.37,.26,.16,.45,.52,.56,1.07,.14,.57,.23,1.35,.26,2.36l.55,7.04c-.12,.97-.17,1.82-.17,2.56-.02,.73,0,1.33,.04,1.81,0,.16,0,.37,.03,.62,.02,.28,.05,.6,.1,.98h.04v.06l-.17,.79s.05,.24,.09,.82c.03,.59,.04,1.49,.04,2.72l-.04,.42c-.04,.35-.07,.91-.09,1.68,.06,.63,.06,1.15,0,1.54-.07,.4-.21,.69-.42,.85-.08,.07-.29,.16-.65,.29-.35,.14-.81,.33-1.4,.56-.62,0-1.16-.02-1.6-.07-.42-.04-.75-.11-.98-.22-.45-.18-.81-.46-1.07-.83-.25-.4-.38-.91-.39-1.51v-2.76c-.12-1.92-.19-3.51-.23-4.78-.06-1.25-.09-2.16-.09-2.75v-2.89c-.12-1.26-.18-2.46-.2-3.61-.05-1.15-.07-2.24-.07-3.25v-2.32c.1-.33,.34-.63,.73-.92,.37-.27,.9-.52,1.58-.75,.91,0,1.66,.04,2.25,.13m-1.07,23.43v-.13s.03,0,.03,.03c0,.05,0,.08-.03,.1m-10.16-2.95h-.13l-.1-.1s-.12-.14-.22-.27l.45,.37m-.69-.69l.24,.24s-.06-.04-.12-.09c-.04-.04-.08-.09-.13-.16m.13,18.05s0-.04-.03-.07c-.02,0-.05-.02-.1-.06h.07s.03-.05,.03-.07l.29,.2h-.26m7.82,3.48c.25-.11,.59-.23,1.02-.37,.47-.14,1.04-.31,1.71-.49,1.23-.08,2.22-.12,2.96-.14,.76-.03,1.51-.08,2.26-.16,1.57,0,2.72,.19,3.45,.58,.74,.37,1.04,.93,.91,1.66v.03c-.06,.34-.17,.63-.35,.88-.16,.22-.39,.41-.68,.56l-1.48,.47c-.82,0-1.44,.03-1.89,.1-.46,.04-.83,.09-1.09,.14-.27,.07-.56,.11-.88,.13-2.02,0-3.57-.16-4.65-.49-1.08-.33-1.66-.82-1.74-1.48,.08-.16,.15-.37,.22-.63,.05-.23,.07-.49,.07-.78h.14m-47-62.85c-.48,0-1.01,.02-1.6,.07-.57,.03-1.19,.09-1.89,.19-.07,.07-.12,.23-.17,.49s-.1,.61-.14,1.05c.05,.21,.08,.55,.1,1.02,.03,.49,.04,1.14,.04,1.94,0,.12-.01,.32-.04,.6-.02,.32-.05,.71-.1,1.19,0,.11,.01,.25,.04,.45,.04,.16,.07,.36,.1,.59,0,.06-.01,.17-.04,.33-.02,.16-.05,.36-.1,.58l.14,1.78c-.03,.34-.06,.72-.1,1.17-.03,.46-.04,1-.04,1.61l.14,5.47s-.01,.09-.04,.2c-.02,.08-.05,.2-.1,.37v.79c.07,.49,.12,1.2,.14,2.14,.03,.92,.03,2.04,0,3.37,0,.04-.01,.13-.04,.29-.02,.16-.05,.37-.1,.62v1.25s-.01,.04-.03,.22c-.02,.3-.05,.81-.09,1.54v1.67c0,.11,0,.36,.01,.76,.03,.37,.06,.89,.1,1.55-.04,.12-.07,.28-.1,.5,0,.21-.01,.49-.01,.85-.07,2.07-.07,4.27,0,6.59,0,.34,0,.76-.03,1.28-.05,.52-.08,1.12-.1,1.8-.05,.73-.08,1.35-.1,1.87-.02,.53-.03,.95-.03,1.25v3.31c0,.21-.01,.32-.01,.33,.05,.22,.23,.4,.53,.53,.37,.15,.9,.24,1.58,.27,1.27,.07,2.28,.08,3.05,.04,.76-.03,1.25-.12,1.47-.29,.09-.06,.16-.53,.23-1.41,.06-.87,.09-2.15,.09-3.84v-1.7c0-.13-.03-.28-.09-.45-.09-.16-.2-.35-.35-.56v-.07s-.08,0-.1-.03c-.03,0-.05,0-.07-.03h.17l.37-.47c0-.8,.03-1.79,.06-2.99v-5.7c-.04-.57-.06-.96-.06-1.19l.06-11.66c0-.29,.02-.69,.06-1.19,.05-.48,.1-.97,.14-1.48,.03-.5,.04-.9,.04-1.19v-.6c-.03-.18-.06-.34-.09-.46-.02-.12-.03-.21-.03-.27,.02-.94,.02-1.65,0-2.13-.05-.48-.11-.75-.19-.82,.14,0,.25-.11,.33-.32,.07-.19,.1-.49,.1-.89l.19-11.4c-.02-.27-.13-.46-.33-.58-.19-.08-.48-.11-.88-.1h-1.08s-.14,.05-.32,0c-.16,0-.4-.05-.72-.12m-.78,5.25s-.09-.11-.12-.17l.26,.2s-.1,0-.14-.03m-1.84,2.53h.26l1.3-.37c0,.23-.11,.38-.32,.45-.19,.05-.47,.05-.85,0h-.39v-.07m-.45,.53c0,.07-.01,.13-.01,.19h-.26v-.06c-.12,0-.19-.07-.19-.2,.02,0,.05,0,.1-.03,.02,0,.03,0,.03-.03h.43s-.05,.06-.1,.13m-10.71-8.06c-.07,.07-.13,.23-.19,.49-.05,.26-.09,.61-.13,1.05,.04,.21,.07,.55,.1,1.02,.02,.49,.03,1.14,.03,1.94,0,.12,0,.32-.03,.6-.03,.32-.06,.71-.1,1.19,0,.11,0,.25,.03,.45,.05,.16,.08,.36,.1,.59,0,.06,0,.17-.03,.33-.03,.16-.06,.36-.1,.58l.13,1.78c-.02,.34-.05,.72-.1,1.17-.02,.46-.03,1-.03,1.61l.13,5.47s0,.09-.03,.2c-.03,.08-.06,.2-.1,.37v.79c.07,.49,.11,1.2,.13,2.14,.03,.92,.03,2.04,0,3.37,0,.04,0,.13-.03,.29-.03,.16-.06,.37-.1,.62v1.27c0-.05-.02,.01-.04,.2-.02,.3-.04,.81-.07,1.54v1.67c0,.11,0,.36,.01,.76,.02,.37,.05,.89,.1,1.55-.05,.12-.08,.28-.1,.5,0,.21-.01,.49-.01,.85-.07,2.07-.07,4.27,0,6.59,0,.34-.01,.76-.04,1.28-.04,.52-.07,1.12-.1,1.8-.04,.73-.07,1.35-.09,1.87-.03,.53-.04,.95-.04,1.25v3.31c0,.21-.01,.32-.01,.33,.06,.22,.24,.4,.53,.53,.37,.15,.91,.24,1.6,.27,1.26,.07,2.27,.08,3.05,.04,.75-.03,1.23-.12,1.45-.29,.09-.06,.16-.53,.23-1.41,.06-.87,.09-2.15,.09-3.84v-1.7c0-.13-.03-.28-.09-.45-.09-.16-.2-.35-.35-.56v-.07s-.08,0-.1-.03c-.02,0-.04,0-.06-.03h.16l.39-.47c0-.8,.02-1.79,.04-2.99v-5.7c-.03-.57-.04-.96-.04-1.19l.04-11.66c0-.29,.02-.69,.07-1.19,.04-.48,.08-.97,.13-1.48,.03-.5,.04-.9,.04-1.19v-.6c-.03-.18-.05-.34-.07-.46-.03-.12-.04-.21-.04-.27,.03-.94,.03-1.65,0-2.13-.04-.48-.1-.75-.17-.82,.14,0,.25-.11,.33-.32,.07-.19,.1-.49,.1-.89l.17-11.4c-.02-.27-.13-.46-.33-.58-.18-.08-.47-.11-.88-.1h-1.08s-.13,.05-.32,0c-.16,0-.4-.05-.71-.12-.49,0-1.03,.02-1.61,.07-.57,.03-1.19,.09-1.87,.19m1.76,7.6v-.07h.24l1.3-.37c0,.23-.11,.38-.32,.45-.18,.05-.47,.05-.85,0h-.37m1.84-2.6c-.06-.05-.1-.11-.12-.17l.24,.2s-.09,0-.13-.03m-2.29,3.07c0,.07-.01,.13-.01,.19h-.27v-.06c-.12,0-.19-.07-.19-.2,.03,0,.06,0,.1-.03,.03,0,.04,0,.04-.03h.43s-.06,.06-.1,.13m-35.04-.23s-.05,0-.1,.01c-.09,0-.17,.02-.24,.07v-.06c-.19,.11-.4,.23-.62,.37-.03,.05-.05,.1-.07,.16l-.13,.42s.06,0,.1,.01c0,.13-.06,.37-.2,.71v.29c-.09,.35-.17,1.15-.24,2.39-.07,1.21-.12,2.86-.17,4.95-.07,.25-.26,.44-.59,.56v.06l-.56-.03c-.28-.02-.68-.05-1.21-.09-.18,.16-.33,.36-.43,.59-.19,.43-.25,1.01-.19,1.73,.04,.31,.1,.65,.19,1.04,.83,.03,1.48,.09,1.93,.19,.46,.11,.75,.23,.86,.37,0,.05,.01,.29,.01,.73,.02,.45,.03,1.11,.03,1.97l.13,5.33c0,1.01,0,1.98,.03,2.92,.03,.94,.06,1.88,.09,2.82l.27,6.65c0,.63,.02,1.63,.04,2.99,0,.54,.02,1.18,.07,1.91,.04,.75,.1,1.58,.17,2.5,0,.23,.07,.48,.2,.76,.12,.26,.3,.56,.53,.91,.37,.29,.87,.5,1.48,.65,.6,.13,1.32,.2,2.16,.2,1.99,.06,3.27,0,3.86-.2,.07,0,.11,0,.12,0,.05-.02,.07-.04,.07-.07,0,.07-.58-.38-1.73-1.34-.06-.1-.14-.36-.24-.81-.11-.45-.24-1.06-.4-1.83,.04-.64,.04-1.18,0-1.6-.02-.42-.06-.72-.13-.91,0-.55,0-.97,0-1.27v-.4l-.39-5.02,.14-1.21c0-1.5-.03-3.35-.1-5.56-.08-2.21-.2-4.77-.36-7.69-.03-.74-.03-1.33,0-1.78,.05-.49,.15-.84,.32-1.05,1.27,0,2.24-.03,2.92-.09,.68-.09,1.08-.21,1.19-.37,.16-.14,.27-.39,.32-.73,.05-.31,.06-.7,.03-1.18-.04-.36-.15-.64-.35-.83-.16-.18-.39-.29-.69-.33h-2.33c-.49,0-.88-.04-1.17-.13-.28-.08-.44-.2-.49-.37v-2.76c0-.39-.02-.92-.06-1.57-.02-.64-.05-1.3-.09-1.97-.03-.64-.04-1.15-.04-1.53,0-.8-.02-1.42-.06-1.87-.05-.41-.11-.65-.19-.71,0,0,0-.02,.01-.03-.17,.03-.35,.06-.53,.09-.76,.13-1.31,.25-1.67,.35-.61,.15-1.15,.34-1.6,.56-.03,0-.06,.02-.09,.04,.06,.02,.12,.04,.17,.07m2.91,.76v.13h-.24c0-.07-.01-.13-.04-.2-.03-.08-.06-.16-.09-.24,.03,.07,.07,.13,.13,.2,.09,.03,.17,.07,.24,.12m-2.88-.12v.04h-.58s-.01,.07-.04,.07c-.03,0-.05-.02-.07-.07,0,0,0-.02,.03-.04,.03,0,.06,0,.09,0v-.07c.07,0,.14,0,.23,0,.11,.02,.22,.04,.35,.07m.53,2.96s-.12,.08-.23,.1v-.19h.29s-.02,.04-.06,.09m-73.52-7.27c-.29,0-.53,.03-.72,.09-.19,.05-.34,.12-.45,.22h-.3s-.02-.07-.06-.09c-.03-.02-.1-.03-.2-.03-.17,.08-.35,.23-.53,.46-.19,.26-.4,.58-.63,.95l.13,1.09c0,.11,0,.25-.03,.45s-.05,.42-.1,.69c0,0,.03,.12,.07,.35,.02,.31,.04,.8,.06,1.47-.09,.35-.17,1.15-.24,2.39-.07,1.21-.13,2.86-.19,4.95-.07,.25-.26,.44-.58,.56v.06l-.56-.03c-.41-.03-1.09-.08-2.03-.14-1.05-.12-1.74-.08-2.07,.1-.36,.16-.48,.54-.37,1.12v1.48c.1,.19,.37,.35,.83,.46,.47,.12,1.12,.21,1.94,.24,.86,.03,1.52,.09,1.97,.19,.47,.11,.76,.23,.86,.37,0,.05,.01,.29,.01,.73,.03,.45,.04,1.11,.04,1.97l.13,5.33c0,1.01,0,1.98,.03,2.92,.03,.94,.06,1.88,.09,2.82l.27,6.65c0,.63,.02,1.63,.04,2.99,0,.54,.02,1.18,.07,1.91,.04,.75,.1,1.58,.17,2.5,0,.23,.07,.48,.2,.76,.12,.26,.3,.56,.53,.91,.37,.29,.87,.5,1.48,.65,.6,.13,1.32,.2,2.14,.2,2,.06,3.29,0,3.87-.2,.07,0,.11,0,.12,0,.05-.02,.07-.04,.07-.07,0,.07-.58-.38-1.73-1.34-.06-.1-.14-.36-.24-.81-.11-.45-.24-1.06-.4-1.83,.03-.64,.03-1.18,0-1.6-.02-.42-.06-.72-.13-.91,0-.55,0-.97,0-1.27v-.4l-.39-5.02,.13-1.21c0-1.5-.03-3.35-.1-5.56-.08-2.21-.19-4.77-.35-7.69-.03-.74-.03-1.33,0-1.78,.05-.49,.15-.84,.32-1.05,1.27,0,2.24-.03,2.92-.09,.67-.09,1.07-.21,1.19-.37,.16-.14,.27-.39,.32-.73,.05-.31,.06-.7,.03-1.18-.04-.36-.15-.64-.35-.83-.16-.18-.39-.29-.69-.33h-2.33c-.5,0-.89-.04-1.18-.13-.27-.08-.43-.2-.47-.37v-2.76c0-.39-.02-.92-.07-1.57,0-.64-.03-1.3-.07-1.97-.03-.64-.04-1.15-.04-1.53,0-.8-.02-1.42-.06-1.87-.05-.41-.11-.65-.19-.71,0-.05,.06-.12,.19-.23,.11-.11,.16-.19,.17-.26,.03-.26,.09-.6,.17-1.02,.07-.42,.16-.9,.27-1.44-.12,0-.26,0-.45,0-.12,0-.25,.01-.4,.04-.13-.04-.38-.1-.75-.19-.02,.03-.05,.06-.09,.1-.02,.05-.03,.1-.03,.16,0,.04,0,.08,.03,.13,.04,.05,.07,.09,.09,.13h-.19s-.07,.03-.07,.06l-1.15-.06m-.43,.75l.43,.13c-.08,0-.16,0-.26-.03-.05-.02-.11-.05-.17-.1m-1.04,.29v-.14c-.13,0-.26-.02-.37-.07-.13-.07-.24-.15-.32-.26,.18,.04,.35,.1,.49,.19,.17,.09,.3,.18,.39,.29h-.19m-.03,2.62s-.05,0-.1,.01c-.09,0-.17,.02-.24,.07v-.24s.06,.02,.12,.07c.08,.02,.15,.05,.23,.09m3.09-2.78v.12h-.13s-.04-.06-.06-.12c0-.04,0-.08,0-.13l.19,.13m-.72-.32s-.09-.04-.16-.06h.19c.07-.03,.15-.05,.24-.07,.05,.02,.1,.05,.14,.1,.04,.04,.08,.09,.12,.14h-.37v-.12s-.09,0-.16,0m.53,3.99h-.26c0-.07,0-.13-.03-.2-.03-.08-.06-.16-.09-.24,.03,.07,.07,.13,.12,.2,.1,.03,.18,.07,.26,.12v.13m-2.88-.24v.04h-.58s-.02,.07-.06,.07c-.02,0-.04-.02-.06-.07,0,0,0-.02,.03-.04,.02,0,.05,0,.09,0v-.07c.07,0,.14,0,.23,0,.1,.02,.21,.04,.35,.07m.59,2.88s-.02,.04-.06,.09c-.05,.05-.12,.08-.23,.1v-.19h.29m-31.12-8.79c-.49,.55-.85,1.43-1.08,2.65-.22,1.19-.33,2.71-.33,4.55,0,1.12,.03,2.07,.09,2.85,.05,.77,.12,1.38,.23,1.83,.37,1.43,.95,2.7,1.74,3.8,.82,1.06,1.81,1.93,2.99,2.63l2.19,1.21c1.7,.94,3.12,1.8,4.27,2.58,1.15,.75,2.02,1.44,2.6,2.07,.29,.33,.62,.74,.99,1.25,.38,.5,.78,1.09,1.19,1.77,.07,1.18,.13,2.41,.19,3.7,.09,1.27,.17,2.58,.24,3.94,.05,.6,.08,1.14,.1,1.61,.03,.45,.04,.85,.04,1.21,0,.37-.01,.76-.04,1.17-.02,.37-.05,.75-.1,1.12v.98c-.1,.73-.26,1.35-.49,1.86-.26,.48-.57,.83-.92,1.04-.18,.16-.63,.34-1.34,.53-.71,.16-1.67,.33-2.89,.49-1.01,0-1.86-.14-2.56-.43-.69-.3-1.23-.73-1.63-1.3-.28-.71-.5-1.54-.66-2.48-.14-.94-.2-2-.17-3.17l.13-7.64c-.1-.13-.22-.23-.37-.29-.14-.07-.32-.1-.53-.1-.14,0-.3,.01-.46,.04-.17,.02-.34,.04-.49,.07-1.18,0-2.1,.01-2.75,.04-.65,.04-1.04,.12-1.17,.23v3.18c0,2,.06,3.77,.17,5.31,.08,1.54,.21,2.88,.39,4.02,.3,1.51,1,2.71,2.12,3.61,1.08,.9,2.59,1.5,4.5,1.78,.3,.02,.74,.05,1.34,.1,.56,.02,1.27,.03,2.14,.03,1.64,0,2.99-.03,4.06-.1,1.06-.08,1.83-.19,2.32-.35,.66-.22,1.25-.45,1.76-.68,.5-.21,.92-.44,1.25-.68,1.33-.96,2.17-2.25,2.52-3.86,.02-.16,.05-.82,.09-1.97,.02-1.15,.03-2.78,.03-4.89-.02-.29-.07-.68-.14-1.17-.12-.48-.17-.87-.17-1.17,.07-.79,.1-1.47,.1-2.06s0-1.03-.03-1.4c-.11-1.5-.52-2.93-1.24-4.29-.7-1.36-1.71-2.65-3.04-3.86-.41-.39-1.15-.93-2.22-1.6-1.09-.67-2.51-1.49-4.25-2.45-1.53-.83-2.74-1.61-3.64-2.32-.89-.73-1.5-1.4-1.81-2.01-.14-.31-.35-1.07-.6-2.29v-.78l-.43-3.68,.75-3.79c.17-.82,.71-1.4,1.61-1.74,.87-.33,2.11-.41,3.7-.24,1.67,.19,2.82,.77,3.45,1.73,.07,.17,.15,.44,.24,.79,.11,.37,.22,.87,.35,1.48,.02,.16,.06,.41,.12,.75,.07,.36,.13,.8,.2,1.34l.12,2.73c0,.27,0,.56,.03,.88,.05,.32,.08,.64,.1,.96,.12,.33,.96,.46,2.5,.39,.38,0,.78-.01,1.19-.04,.45-.04,.91-.09,1.38-.14,.09-.05,.17-.12,.24-.2,.1-.08,.16-.18,.2-.32v-1.87c0-.8,0-1.44-.03-1.94-.05-.53-.08-.89-.1-1.08v-.85l-.43-2.82c-.51-1.31-1.26-2.36-2.26-3.12-1.03-.78-2.31-1.3-3.86-1.55-.55-.08-1.33-.13-2.36-.17-1.04-.05-2.33-.07-3.89-.07l-.82,.13c-.58,0-1.19,.07-1.84,.22-.65,.12-1.34,.34-2.07,.63-.71,.26-1.3,.52-1.77,.78-.45,.3-.78,.59-.99,.88m4.66,.88v-.17h.27s-.01,.06-.04,.09c-.04,.04-.12,.07-.23,.09m-5.4,9.73h-.12l-.13-.24s.09,.05,.13,.1c.04,.04,.08,.09,.12,.14m-.12,.53l.43,.2c-.07,0-.12-.02-.17-.07-.07-.02-.15-.06-.26-.13Z" fill="#666"/>
      <g id="Layer0_0_FILL" data-name="Layer0 0 FILL">
        <path d="M212.82,84.93c-.07-.05-.14-.1-.21-.14-.39-.12-.86-.26-1.41-.41,.15,.15,.35,.3,.62,.44,.14,.07,.35,.18,.65,.33,1.14,.6,2.16,1.57,3.07,2.91,.41,.61,.88,1.48,1.41,2.61,.38,1.01,.71,2.03,1,3.05,.32,1.52,.57,2.82,.76,3.89,.09,1,.14,1.67,.16,2.01,.05,.89,.09,1.55,.11,1.99,.03,.44,.06,1.1,.08,1.98,.02,.88,.06,1.65,.13,2.31,.07,.65,.18,1.94,.33,3.86,.01,.17,.03,.32,.03,.47,.1-.57,.18-1.25,.25-2.06,.14-1.48,.23-2.83,.27-4.06l.27-2.55c.18-1.71,.33-3.06,.47-4.03,.12-.37,.26-.72,.41-1.06,.4-.55,.85-1.07,1.36-1.57,1-.99,2.16-1.81,3.46-2.45,2.12-1.04,4.36-1.55,6.72-1.52,.34,0,.61,0,.81,0,.5,.02,1.02,.05,1.55,.09,.38,.02,.64,.03,.79,.03,.28-.01,.53-.06,.73-.14-2.17-.78-4.45-1.08-6.83-.89-2.37,.2-4.57,.86-6.59,1.98-1.39,.77-2.43,1.65-3.11,2.66-.05,.08-.11,.15-.16,.22-.07,.1-.14,.2-.21,.3-.07-.87-.17-1.53-.28-2.01-.15-.6-.51-1.5-1.08-2.69-.3-.63-.56-1.16-.79-1.6-.2-.26-.4-.51-.58-.73-.94-1.14-1.93-2-2.99-2.59-.54-.27-.93-.49-1.19-.65m-4.32-.27l-1.74,5.23-4.28,1.03,4.02,.02-2.77,10.67c6.35,.34,11.34,2.91,14.97,7.72l-.21-1.03-1.01-2.2c-2.52-3.91-6.11-6.17-10.78-6.78-.25-.06-.51-.09-.76-.08l2.56-14.58m3.76,21.83c-3.98-1.35-8.03-1.57-12.14-.65-.73,.15-1.45,.36-2.17,.65l3.43-13.93-6.21,16.36c4.17-1.44,8.47-2.11,12.89-2.01,2.17,.05,4.21,.57,6.1,1.57,2.07,1.1,3.85,2.54,5.34,4.33,.02,.02,.03,.03,.05,.05,3.05-3.08,6.6-4.85,10.64-5.31,5.14-.62,9.72-.16,13.74,1.38l-6.21-16.36,3.43,13.93c-3.86-1.38-7.82-1.62-11.89-.73-3.72,.84-6.7,2.75-8.93,5.71-.32,.4-.57,.84-.77,1.33-1.56-3.06-3.99-5.16-7.29-6.31m34.32,4.16c-.66-.03-1.35-.11-2.06-.22-3.29-.67-6.59-1.26-9.91-1.77-4.16-.63-8,.21-11.51,2.51l-1.87,1.64,25.36-.05,1.39-1.98-5.47-15.3,4.06,15.16m-51.1-10.04l1.06-5.04-5.2,14.55,.63,2.64,26.4,.06c-.39-.4-.82-.77-1.3-1.11-4.15-2.91-8.72-3.86-13.71-2.85-3.58,.7-7.19,1.29-10.83,1.79l2.94-10.04Z" fill="#666"/>
      </g>
    </g>
  </g>
</svg>