<?xml version="1.0" encoding="UTF-8"?>
<svg id="Layer_2" data-name="Layer 2" xmlns="http://www.w3.org/2000/svg" width="294" height="269" xmlns:xlink="http://www.w3.org/1999/xlink" viewBox="0 0 294 269">
  <defs>
    <filter id="drop-shadow-1" filterUnits="userSpaceOnUse">
      <feOffset dx="7" dy="7"/>
      <feGaussianBlur result="blur" stdDeviation="9"/>
      <feFlood flood-color="#000" flood-opacity=".5"/>
      <feComposite in2="blur" operator="in"/>
      <feComposite in="SourceGraphic"/>
    </filter>
  </defs>
  <g id="Capa_1" data-name="Capa 1">
    <g>
      <rect x="20" y="20" width="240" height="215" rx="39.51" ry="39.51" fill="#fff" filter="url(#drop-shadow-1)"/>
      <g>
        <path d="M52.48,103.96c-.5,0-1.27,.11-2.25,.28-.17,.05-.17,.77-.11,2.03v2.75c.17,1.27,.38,3.63,.71,6.99,0,.17-.06,.66-.11,1.49,.17,.55,.28,1.15,.28,1.87v1.81c.06,1.38,.11,1.98,.11,1.82l-.17,2.42,.38,2.37c0,.38-.22,1.21-.22,1.49l.22,1.21-.11,.72h-.11v.05c-.28,0-.55-.49-.88-1.48-.28-.77-.77-2.2-1.6-4.23-.94-2.64-2.48-7.26-4.62-13.91-.17-.38-.33-1.15-.61-2.26l-.5-1.37-.71-2.09c-.44-.99-.93-1.6-1.48-1.76-.16-.06-.77-.11-1.76-.11-.55,0-1.21,.06-1.98,.22h-.99c0,.05-.06,.6-.11,1.76-.05,1.21-.05,2.31,0,3.3,.06,1.54,.11,2.69,.11,3.41,0,4.45-.06,7.1-.11,7.87,.06,.33,.17,.77,.22,1.37-.06,.83-.11,5.89-.11,15.29v1.6c.06,.61,0,1.81-.22,3.63,.16,.88,.22,1.54,.22,1.98v1.76c-.12,.6-.18,.96-.21,1.03,.07,.36,.39,.62,.86,.67h1.71c1.27-.06,1.98-.22,2.2-.55v-1.7c0-.38,0-1.21,.05-2.48,.06-1.15,.11-2.04,.11-2.53v-.82c-.06-.38-.11-.66-.11-.88,.06-.27,.11-.61,.11-.99l-.11-1.37v-1.04c0-.22,0-.55-.05-1.05-.06,.33-.11-.55-.11-2.58v-3.63c-.06-.38-.17-1.04-.22-2.09-.27-4.01-.22-7.48,.11-10.39h.11v-.06h.38v.06c0,.06,.06,.33,.22,.71,3.36,9.02,5.56,15.57,6.71,19.64l.61,1.1c.16,.38,.82,2.15,1.87,5.39l1.37,3.63c0,.38,.22,.83,.61,1.38,.33,.16,.88,.22,1.6,.16,.6,0,.99-.16,1.26-.44,.06,0,.06-.06,0-.11v-2.81c.06-1.21,0-2.97-.16-5.34,0-.38,.16-1.32,.16-1.7v-1.87c0-.28-.16-.5-.49-.61v-.06c.22,0,.33-.16,.38-.5,0-.44,0-1.1-.06-2.03,.16-1.82,.22-3.3,.16-4.51-.11-.27-.16-.55-.11-.77l.11-.66c.06-.61,.06-1.6,0-2.97,0-.27-.16-1.48-.16-2.14,0-.22,0-.99,.06-2.37,.06-1.15,.11-1.98,.11-2.37v-1.32c-.05-1.21-.11-1.65-.11-1.32v-4.29c0-.33,.06-1.32,.22-2.92,.06-1.54-.06-2.42-.38-2.58-.22-.06-.99-.11-2.31-.17Zm-6.99,20.35l.27,.28c-.16,0-.22-.11-.27-.28Zm7.81,17.88h-.22c0,.11-.11,.17-.38,.11-.27,0-.44-.06-.49-.11,.06,0,.11,0,.11-.05h.99v.05Z" fill="#666"/>
        <path d="M35.77,147.24s-.01-.03-.01-.04c0,.06,0,.07,.01,.04Z" fill="#666"/>
        <path d="M57.27,126.96s0,0,0,0c0,.06,0,.06,0,0Z" fill="#666"/>
        <path d="M75.14,145.98c-.16-.38-.33-.71-.38-.99,0-.6-.06-1.48-.11-2.64-.05-1.15-.05-2.04-.05-2.53-.06-1.27-.17-3.58-.22-6.88l-.27-8.47v-.61c.06-.38,.06-.66,.06-.88v-3.08c0-.82,.06-1.15,.11-1.1-.11-.11-1.65-.22-4.62-.33-.16,0-.27,.06-.33,.17-.11,0-.33-.06-.66-.17v.11c-.06,.06-.11,.27-.11,.6l.17,5.67c.22,5.66,.33,10.34,.33,13.91v1.32c-.06,1.04-.11,1.48-.11,1.32,.06,1.16,.06,1.82-.11,1.98-.16,.5-.88,.88-2.09,1.15-1.49,0-2.53-.22-3.03-.66-.16-.16-.27-.5-.44-.99l-.28-4.46c-.06-.83-.16-2.37-.22-4.56-.06-1.05-.06-1.92-.06-2.64-.06-.6-.11-.82-.11-.71v-2.47c-.06-.28-.16-.77-.22-1.49-.06-.82-.06-1.98,.11-3.35,.05-1.71,.11-2.81,.11-3.41,0-.77-.38-1.21-1.21-1.27-1.26-.06-2.47-.06-3.63-.06-.17,.06-.33,.22-.5,.44,.06,.55,.06,1.37,.06,2.42v3.08c-.04,1.53-.05,2.36-.05,2.54,0,.08,.11,1.02,.27,2.91-.16,.88-.16,1.76-.11,2.69l.38,9.85,.5,1.48c.17,.5,.33,.99,.61,1.48,.83,.99,2.14,1.65,4.07,1.92,1.15,.17,2.15,.17,2.97,0,.16,0,1.48-.27,4.35-.99,.66,0,1.43,.83,1.59,.88,.66,.22,1.71,.27,3.08,.11,.44-.05,.66-.16,.66-.38,0,.06-.17-.22-.5-.93Zm-14.41-25.36c.06,.05,.11,.16,.27,.22-.16,0-.22-.06-.27-.22Z" fill="#666"/>
        <path d="M107.71,147.25c0-2.53-.06-4.62-.11-6.22-.17-2.25-.33-6.38-.6-12.32l-.39-5.17c0-.38-.11-1.04-.33-2.04-.6-1.43-2.47-2.31-5.61-2.64-.66-.06-1.21-.11-1.71-.06-.94,.06-2.09,.28-3.46,.61-.22,0-1.38,.49-1.87,.49l-3.74-1.1c-1.6-.16-3.3-.06-5.06,.33-.6,.11-1.15,.22-1.7,.38-.28,0-.44-.11-.61-.33-.22-.49,0-.49-1.48-.55-.11,0-.27,.06-.55,.11h-2.58l-.22,.5v1.54c-.05,.17-.11,.22-.11,.11l.33,10.34,.38,8.58c-.06,.44-.11,.99-.11,1.59,.06,.77,.17,2.2,.22,4.24-.06,.22-.11,.49-.11,.83,0,.27,.06,.66,.11,1.04,.16,.22,.66,.33,1.48,.33,2.09,.06,3.3,0,3.58-.06,.6-.16,.77-.66,.55-1.6v-1.21l-.16-2.97-.11-6.71c0-.38-.06-2.09-.22-5.12-.11-3.14-.17-4.84-.17-5.12,0-.99,.11-1.65,.38-1.98,.71-.93,1.76-1.32,3.08-1.15,.94,.11,1.54,.38,1.87,.88,.17,.27,.33,.94,.38,1.98,.22,2.04,.33,4.79,.38,8.14l.33,10.01c0,.99,.05,2.53,.11,4.68,.33,.22,1.1,.33,2.37,.33,.77,0,1.71-.06,2.86-.11l.99-.22c.17-.06,.17-.55,.11-1.38-.06-2.64-.22-7.37-.5-14.24-.16-1.05-.27-2.92-.38-5.61-.06-1.54-.06-2.53,.06-2.92,.33-1.1,1.38-1.65,3.08-1.7,1.27,0,2.04,.44,2.37,1.32l.22,2.26c.38,3.68,.6,8.14,.6,13.31,0,.6,.17,2.14,.17,2.75,0,.5,.06,2.09,.11,4.79-.05,.33-.05,.77,.11,1.27,.17,.06,.99,.17,2.48,.22,3.02,.17,3.02,0,3.19-.44Zm-29.04-12.54v-.17h.22c0,.06-.05,.11-.22,.17Zm14.36,7.37l.22,.27c-.06-.06-.17-.11-.22-.27Z" fill="#666"/>
        <path d="M111.18,108.58c0,.06,0,.17-.06,.22,0-.05,0-.11,.06-.11v-.11Z" fill="#666"/>
        <path d="M111.89,108.69h-.27c.06,.06,.11,.11,.27,.16v-.16Z" fill="#666"/>
        <path d="M127.01,137.95v-3.68c.06-2.09,.11-3.8,.11-5.12v-6.77c-.6-2.48-2.64-3.74-6.22-3.79-.94,0-1.48,0-1.71,.06-.44,.06-.93,.06-1.48,.06-.71,0-1.54-.06-2.37-.11,.06-.27-.06-.55-.38-.94l.5-.5c0-1.1,.11,.38,.38-5.34v-1.49c0-.71,.22-1.32,.22-1.15-.16-.27-.66-.44-1.48-.44-.27,0-.66,.05-1.1,.11l-1.32-.16-.49,.38c-.11,0-.28,0-.55-.06h-.5c0,.16,.11,.38,.28,.66-.06,0-.17,0-.22,.06-.06,.17-.06,.33-.06,.6,.11,0,.28,0,.5-.05v.05c0,.06-.16,.11-.5,.22,0,.88,.11,1.37,.28,1.48-.06,.06-.22,.06-.38,.06,0,2.97-.11,2.65-.33,8.75,.17,0,.33,0,.5,.06v.06h-.5c.06,.66,.11,1.65,.11,2.97,0,.88-.16,2.97-.16,3.85s-.06,2.2-.11,3.96c-.06,1.76-.11,3.08-.11,3.96v1.1c0,1.82-.06,4.29-.11,7.43-.04,2.05-.09,3.15-.14,3.31l.74,.16c.71,.06,1.43,.06,2.09-.05,.38-.06,1.43-.99,2.09-.99l1.87,.61c1.38,.33,2.7,.49,3.96,.49,4.73,0,7.04-2.42,6.93-7.26l-.33-2.53Zm-14.63-28.94v-.06h-.11v-.06h.22c0,.06-.06,.06-.11,.11Zm2.75,17.06v-.06h-.06v-.06h.27c0,.06-.06,.06-.22,.11Zm6.54,.77v3.96c-.06,.66-.11,1.21-.11,1.7,0,.28,.06,.99,.11,2.15v2.97c0,.17-.06,.38-.11,.66l-.05,1.76c0,.44-.06,1.27-.11,2.48,0,.38-.11,.88-.33,1.43-.33,.38-.77,.6-1.38,.66-.16,.06-.5,.06-.99,.11-1.6-.06-2.53-.5-2.86-1.37-.17-.5-.22-1.32-.11-2.48,0,.16-.11-.38-.16-1.21-.06-.55-.06-2.97,0-7.26,0-1.43,0-3.36,.06-5.78,0-1.04,.05-2.31,.22-3.68,.33-.55,1.21-.99,2.69-1.38,1.76,.22,2.81,.94,3.14,2.15v3.14Zm3.85-4.68c-.06-.06-.06-.11-.06-.22l.17,.11c-.06,0-.11,.06-.11,.11Z" fill="#666"/>
        <path d="M109.66,147.53h-.03s.02,.03,.03,0Z" fill="#666"/>
        <path d="M141.65,137.51s.04-.08,.05-.12c-.02-.04-.04,0-.05,.12Z" fill="#666"/>
        <path d="M144.12,136.63c-1.48-.05-2.27,.2-2.42,.76,.06,.13,.14,.94,.22,2.49,.06,2.04-.11,3.3-.49,3.69-.11,.17-.77,.44-1.98,.83-2.92,0-4.35-.5-4.35-1.48v-1.05c0-.16-.11-2.09-.28-5.83-.05-1.21-.11-1.76-.11-1.7,.11-.38,.83-.61,2.14-.66,1.32-.06,3.36-.06,6.05,0,1.81,.06,2.81,0,2.97-.11,.22-.11,.33-.66,.33-1.65,.06-.61,.06-1.27,0-1.98,0-.06-.11-.61-.33-1.76,0-.22,.06-.55,.11-.93-.17-.28-.22-.55-.22-.94,.06-1.32,.11-2.25,.11-2.75-.06-2.58-1.37-4.23-3.96-4.89-.99-.28-3.08-.38-6.33-.38l-2.75,.49c-1.87,.33-3.02,1.49-3.46,3.47-.16,.66-.11,1.04,.17,1.15,0,.05-.11,.05-.27,.05,0,2.75,.11,4.18,.38,4.35v.06h-.38c0,4.79,.11,8.69,.38,11.72,.05,.28,.16,.77,.22,1.48,.11,1.54,.27,2.59,.5,3.08,.77,2.25,3.58,3.35,8.47,3.35,3.58,0,5.89-.71,6.88-2.2,.49-.77,.77-2.42,.77-4.9v-2.25c0-.33-.06-.77-.22-1.38-.16,0-.88-.05-2.14-.11Zm-9.9-9.68c.06-.77,.11-1.54,.11-2.31,.11-.93,.38-1.7,.77-2.31,.16-.27,.77-.6,1.76-.88,1.71,0,2.81,.38,3.3,1.15,.16,.27,.33,1.15,.38,2.53,.06,1.43,.06,2.81-.11,4.07l.11,.83c.06,.33-.17,.49-.77,.55-.38,.06-1.32,.06-2.69,0-1.49-.06-2.31-.11-2.48-.22-.38-.17-.55-1.32-.38-3.41Z" fill="#666"/>
        <path d="M160.13,119.53c-.71,0-1.15,0-1.38,.06-1.92,.06-3.3,.33-4.12,.71-.44,0-.94-.82-1.6-.66-1.48,0-2.81-.06-4.07-.11-.33,.17-.49,.33-.49,.61v.77c0,.5,.06,1.15,.11,2.09-.05,.27-.11,.77-.11,1.37,0,.06,.06,.71,.11,2.09,0,.55,.06,1.76,.11,3.58v7.81c0,.83,0,2.25,.06,4.29v6.16c.06,.16,.17,.27,.33,.38,.38,.16,1.65,.22,3.74,.16,.6,0,.99-.11,1.21-.33v-4.01c0-.33-.06-.72-.11-1.21v-.66c0-1.15-.06-4.01-.22-8.58-.05-2.14-.05-3.96,0-5.33v-2.25c-.05-1.43,.11-2.37,.5-2.81,.71-.83,2.25-1.27,4.56-1.43,2.2,0,3.36-.11,3.47-.38,.05-.11,.11-.44,.11-1.05,0-.83-.71-1.27-2.2-1.27Z" fill="#666"/>
        <path d="M165.69,145.87c1.32,1.27,3.79,1.92,7.48,1.87,2.64,0,4.51-.33,5.56-.93,1.92-1.1,2.69-2.92,2.37-5.5-.11-.99-.22-2.09-.28-3.25-.27-1.15-.83-2.09-1.76-2.86-.38-.22-1.48-.83-3.19-1.87,0,0-1.04-.71-3.19-2.09-1.76-1.15-2.75-2.14-3.02-2.91-.17-.33-.27-1.1-.33-2.31-.06-.88,0-1.92,.22-3.19,.33-.83,1.43-1.21,3.25-1.15,2.47,.11,3.46,1.76,3.08,4.89-.17,.83-.17,1.38,0,1.54,.33,0,1.04,.06,2.2,.17,.94,.11,1.65,.11,2.15,.06,0-.17-.06-.55-.11-1.15-.06-.83-.06-1.48-.06-2.09-.06-1.15-.33-2.53-.71-4.02-.16-.16-.83-.71-2.09-1.65-1.26-.61-2.97-.94-5.22-.94l-2.2,.22-.16,.27h-1.43l-.88,.27c-1.6,.5-2.59,1.48-3.08,2.97,0,.49,0,.93-.06,1.26-.33,1.54-.38,3.19-.11,5.01,.17,1.37,1.32,2.58,3.35,3.63l2.26,1.1c1.15,.72,2.2,1.43,3.19,2.26l.77,.49c.38,.5,.82,.94,1.32,1.43,.11,.27,.33,.99,.66,2.25l.44,1.87c0,1.65-.49,2.69-1.48,3.08l-1.43,.33c-1.82,0-3.02-.22-3.63-.71-.55-.38-.83-1.1-.88-2.14l-.22-2.97c0-.99-.06-1.54-.11-1.6-.27-.22-.83-.33-1.65-.33-.55,.06-1.26,.11-2.09,.28-.28,.11-.44,.44-.5,.93v1.54c.06,1.05,.11,1.48,.11,1.21-.17,2.15,.33,3.74,1.48,4.73Z" fill="#666"/>
        <path d="M88.88,78.91c1.5,.07,2.31,.18,2.42,.33v1.5c.04,.18,.11,.55,.15,1.1v2.38c0,.99,.07,2.46,.18,4.4l-.07,.7c.04,.11,.15,.26,.33,.4v.11c-.18,0-.26,.33-.26,.99,0,.77,.04,1.83,.15,3.23l-.15,.84c0,.48,.04,1.14,.11,2.05,.07,.88,.11,1.54,.11,2.02,0,1.5,.07,2.27,.26,2.35,0,.04-.22,.18-.22,.29v3.08c-.07,.26-.04,.55,.07,.95,.18,.15,.7,.22,1.58,.22,1.58,0,2.35-.26,2.27-.81-.04-.15-.11-.37-.15-.66l-.07-2.2-.11-1.14s0-.18,.04-.4c0-.81,0-1.5-.04-2.09-.04-.44-.04-1.03,0-1.76l-.22-1.17c.04-.11,.07-.22,.07-.4v-1.28c0-2.31-.07-6.34-.26-12.14-.04-1.43-.04-2.2,.07-2.38,0-.11,.07-.22,.18-.37l3.3-.18c.18,0,.4-.04,.66-.07,.11-.07,.11-.7,.07-1.83h-.07c-.11-.04-.4-.07-.92-.11-.66-.04-1.06,0-1.21,.11-.04,0-.62-.11-.77-.11h-2.2c-.29,0-.7,0-1.25,.04h-.84c-.55,0-1.65-.07-2.2-.07-.11,.04-.66,.04-1.58,.07-.4,0-.81,.04-1.25,.15-.11,.11-.15,.4-.15,.88s.07,.73,.22,.81c.18,.07,.73,.15,1.72,.18Zm5.39,8h.22s-.07,.07-.22,.11v-.11Z" fill="#666"/>
        <path d="M101.27,79.93c.01,.14,.05,1.41,.11,3.82,.04,1.47,.07,5.65,.07,12.51,0,.55,.15,1.91,.15,2.46v1.32c.04,1.54,.04,2.6,.04,3.15-.07,.51-.15,1.03-.18,1.5-.11,.55,0,.95,.26,1.17,.33,.33,.99,.48,1.98,.48,.88,0,1.57-.04,2.05-.15,0-.13-.05-1.11-.15-2.9-.04-2.53-.07-5.32-.18-8.4v-4.88c.18-.92,.92-1.36,2.24-1.28,.81,.04,1.28,.66,1.39,1.83,.11,.7,.15,1.06,.15,1.1,0,.55-.04,1.03-.07,1.5,0,.4,.11,1.32,.11,1.72,0,.18,0,.48-.04,.81,.04,.18,.04,.44,.04,.77v1.98c0,.7,.11,1.43,.29,2.16v1.72c-.04,.18-.07,.44-.07,.77,0-.22,.04,.29,.07,1.58-.04,.11-.07,.26-.07,.4,0,.29,.07,.66,.26,1.06,.11,.11,.44,.15,.92,.18,.37,.04,.84,.04,1.39,0,.55-.04,.92-.04,1.14-.04v-.04c.18-.18,.29-.4,.33-.59v-3.12c.04-.84,.04-1.21,.04-1.1l-.11-2.05c-.04-.26-.07-.59-.07-.92,.11-1.43,.04-2.71-.15-3.89-.04-.18-.04-.48,0-.95,.04-.77,.07-1.1,.07-.92-.04-1.5-.15-2.86-.26-4-.33-.84-.92-1.43-1.83-1.8-.37-.15-1.06-.26-2.13-.33-.92-.07-1.76-.07-2.46,0l-1.58,.15c0-.48,.15-1.83,.15-2.42v-2.09c-.04-1.14-.07-1.98-.07-2.6v-2.42c-.18-.18-1.32-.33-3.45-.4l-.37,.29,.04,1.61v.62c-.02,.31-.03,.49-.03,.58Zm10.41,17.24v.15h-.15l-.11-.26,.26,.11Zm-1.72,3.15s-.04,.07-.07,.15c-.07,0-.15-.07-.26-.18,.11,0,.22,0,.33,.04Z" fill="#666"/>
        <path d="M101.27,79.98s0,.03,0-.04c0-.03,0-.03,0,.04Z" fill="#666"/>
        <path d="M105.75,106.2s0,0,0,0c0,.02,0,.03,0,0Z" fill="#666"/>
        <path d="M115.43,93c0,3.19,.07,5.79,.26,7.81,.04,.18,.11,.51,.15,.99,.07,1.03,.18,1.72,.33,2.05,.51,1.5,2.38,2.24,5.65,2.24,2.38,0,3.92-.48,4.59-1.47,.33-.51,.51-1.61,.51-3.26v-1.5c0-.22-.04-.51-.15-.92-.11,0-.59-.04-1.43-.07-.99-.03-1.51,.13-1.62,.51,.04,.08,.09,.62,.15,1.66,.04,1.36-.07,2.2-.33,2.46-.07,.11-.51,.29-1.32,.55-1.94,0-2.9-.33-2.9-.99v-.7c0-.11-.07-1.39-.18-3.89-.04-.81-.07-1.17-.07-1.14,.07-.26,.55-.4,1.43-.44,.88-.04,2.24-.04,4.03,0,1.21,.04,1.87,0,1.98-.07,.15-.07,.22-.44,.22-1.1,.04-.4,.04-.84,0-1.32,0-.04-.07-.4-.22-1.17,0-.15,.04-.37,.07-.62-.11-.18-.15-.37-.15-.62,.04-.88,.07-1.5,.07-1.83-.04-1.72-.92-2.82-2.64-3.26-.66-.18-2.05-.26-4.22-.26l-1.83,.33c-1.25,.22-2.02,.99-2.31,2.31-.11,.44-.07,.7,.11,.77,0,.04-.07,.04-.18,.04,0,1.83,.07,2.79,.26,2.9v.04h-.26Zm3.3-.59c.04-.51,.07-1.03,.07-1.54,.07-.62,.26-1.14,.51-1.54,.11-.18,.51-.4,1.17-.59,1.14,0,1.87,.26,2.2,.77,.11,.18,.22,.77,.26,1.69,.04,.95,.04,1.87-.07,2.71l.07,.55c.04,.22-.11,.33-.51,.37-.26,.04-.88,.04-1.8,0-.99-.04-1.54-.07-1.65-.15-.26-.11-.37-.88-.26-2.27Z" fill="#666"/>
        <path d="M123.68,99.45s.03-.05,.04-.08c-.01-.03-.03,0-.04,.08Z" fill="#666"/>
        <path d="M90.89,177.95c-.03-.07-.06-.15-.08-.25,.06-.18,.1-.37,.12-.57,.02-.18,.03-.37,.03-.57s-.01-.4-.03-.6-.06-.4-.12-.6l.08-4.83-.08-2.59c0-.34,0-.57,.02-.7,0-.06,.01-.1,.02-.11-.04-.1-.09-.19-.19-.25-.15-.07-.34-.11-.57-.12-.17-.03-.32-.04-.45-.03-.15,.02-.27,.04-.37,.07-.2,0-.46,0-.79-.02-.32,0-.72,0-1.18-.02-.44-.03-.83-.05-1.17-.05-.32,0-.61,.02-.86,.05-.11-.03-.25-.05-.42-.05-.18,0-.39,.02-.62,.05v-.1c-.11,0-.19,.1-.23,.3-.06,.2-.08,.49-.08,.87,0,.27,.01,.49,.03,.65,.02,.15,.06,.24,.1,.29,.06,.09,.21,.15,.47,.17,.25,.02,.59,.03,1.02,.02,.37-.02,.65-.02,.86,0,.21,.01,.34,.04,.37,.1,.06,.06,.1,.16,.12,.3,.02,.14,.03,.32,.03,.54,0-.09-.01-.06-.03,.1-.01,.18-.02,.5-.03,.97v1.02c.01,.12,.03,.3,.07,.54,.02,.24,.04,.53,.07,.87v1.16c0,.09,0,.19-.02,.3-.02,.11-.04,.24-.05,.39v.47c0,.4-.02,.73-.05,.99-.04,.27-.09,.47-.13,.6-.17,.27-.41,.48-.74,.64-.32,.17-.73,.27-1.23,.3-.77,.06-1.41,.02-1.91-.12-.5-.11-.87-.3-1.09-.57-.15-.2-.26-.5-.35-.91-.07-.39-.1-.88-.1-1.48,0-.88-.01-1.53-.03-1.93-.01-.4-.02-.55-.03-.45,0-.19,0-.58,.02-1.16,.01-.56,.03-1.33,.05-2.3,.01-.09,.03-.2,.05-.32,.01-.12,.02-.27,.02-.44v-3.66c0-.17-.02-.4-.05-.69-.02-.28-.05-.57-.08-.87-.02-.29-.03-.52-.03-.69v-.13c0-.19,.01-.51,.03-.97v-1.16c0-.07,0-.14-.02-.22,0-.09,0-.2-.02-.34v-.59c0-.21,.01-.62,.03-1.21,.03-1.42,.11-2.43,.22-3.04,.02-.17,.06-.36,.12-.59,.07-.22,.16-.49,.27-.79,.16-.27,.45-.46,.89-.57,.44-.13,1-.19,1.7-.17,.54,.01,.97,.08,1.31,.22,.35,.13,.6,.33,.77,.59,.08,.1,.15,.34,.2,.72,.07,.39,.13,.91,.2,1.56,.04,.45,.08,.9,.12,1.34,.02,.46,.04,.9,.05,1.31,0,.17,0,.41,.02,.72,.02,.3,.04,.67,.05,1.11-.01,.12-.02,.27-.02,.44,.01,.17,.04,.36,.1,.57,.06,.06,.22,.1,.49,.12,.27,.02,.65,.04,1.14,.05,.46,.03,.83,.04,1.12,.02,.3-.01,.52-.03,.65-.05,.04-.01,.09-.03,.13-.07s.08-.08,.12-.13v-.65c-.03-1.32-.06-2.36-.08-3.12-.03-.75-.06-1.21-.07-1.38-.12-1.02-.33-1.88-.62-2.59-.28-.72-.64-1.25-1.07-1.59l-.5-.4c-.76-.31-1.47-.52-2.13-.62-.65-.1-1.24-.09-1.78,.03-.06,0-.16,0-.3,0-.13,0-.3-.01-.49-.03-.07,.02-.17,.03-.3,.03-.15,.01-.32,.02-.54,.03-1.14,0-2.09,.18-2.84,.55-.77,.35-1.34,.87-1.71,1.58-.17,.35-.3,.84-.39,1.49-.09,.63-.13,1.4-.13,2.32l-.02,.13c-.01,.16-.03,.43-.05,.82v1.43c.02,.12,.04,.23,.05,.34,.01,.09,.02,.17,.02,.25,0,.06-.01,.17-.03,.35-.01,.16-.04,.38-.1,.67l.07,.92v.81c-.01,.36-.03,.61-.05,.76,0,.13-.02,.16-.02,.1v1.01c.02,.32,.04,.6,.05,.84,.01,.25,.02,.45,.02,.62v2.5c0,2.2,.03,3.98,.1,5.32v1.44c.02,.11,.06,.25,.1,.4,.06,.17,.12,.36,.2,.57,.08,.78,.3,1.43,.67,1.95,.37,.51,.88,.9,1.54,1.16,.4,.17,.97,.3,1.71,.4,.73,.08,1.62,.12,2.69,.12l3.07-.1c.2,.01,.41,.03,.64,.05,.22,.01,.47,.02,.74,.02h.64c.21-.01,.44-.02,.67-.03,.16-.07,.26-.25,.32-.54,.06-.3,.06-.72,0-1.24-.02-.06-.04-.12-.07-.18Zm-.97-19.57s-.03,.03,0,.1h-.08s-.01-.03-.03-.07c-.01-.03-.02-.07-.03-.12l.15,.08Zm-3.37-5.99s.02-.03,.03-.05h.08s-.01,.04-.03,.05c-.02,.02-.06,.04-.12,.05,0-.01,.01-.03,.03-.05Zm-7.44,5.59s-.06,0-.07-.02c-.01,0-.02-.01-.02-.03,0-.01,0-.03,.02-.07,.01-.02,.03-.04,.07-.07v.18Zm.22,13.75v-.2s.05,.03,.08,.07,.06,.08,.08,.13h-.17Z" fill="#666"/>
        <path d="M137.07,172.63c-.06-.01-.2-.02-.44-.03s-.56-.03-.97-.05c-.53-.01-.93,.03-1.21,.12-.23,.08-.36,.21-.4,.37,.01-.02,.03,.06,.05,.23,.03,.26,.07,.73,.12,1.41,.02,.67,0,1.21-.07,1.63-.06,.41-.14,.68-.25,.79-.09,.12-.53,.31-1.31,.55-.97,0-1.7-.08-2.17-.25-.47-.15-.7-.39-.7-.72v-.69c0-.06-.02-.4-.05-1.04-.03-.64-.08-1.57-.13-2.79-.01-.4-.02-.7-.03-.89l-.05-.25c.08-.25,.55-.39,1.43-.42,.44-.02,.98-.03,1.64-.03,.67,0,1.44,.01,2.32,.03,.6,.01,1.07,.01,1.41,0,.31-.01,.5-.03,.55-.07,.15-.08,.22-.44,.22-1.09,.03-.39,.03-.82,0-1.29,0-.02-.02-.13-.05-.32-.03-.19-.09-.48-.17-.86,0-.07,0-.16,.02-.27,.01-.1,.03-.22,.07-.35-.07-.08-.11-.17-.12-.27-.02-.1-.03-.21-.03-.34,.01-.44,.03-.81,.05-1.12,.01-.29,.02-.52,.02-.69-.02-.86-.25-1.56-.69-2.08-.43-.54-1.06-.92-1.91-1.14-.32-.09-.83-.16-1.53-.2-.69-.03-1.57-.05-2.64-.05l-1.8,.34c-1.23,.21-1.99,.97-2.28,2.28-.1,.41-.07,.67,.1,.76,0,.01-.02,.02-.05,.02-.02,.01-.06,.02-.12,.02,0,.9,.02,1.58,.05,2.06,.04,.47,.11,.73,.2,.79v.05h-.25c0,1.57,.02,2.99,.05,4.26,.04,1.29,.11,2.43,.2,3.42,.02,.1,.04,.23,.07,.39,.03,.16,.06,.35,.08,.59,.03,.51,.07,.94,.12,1.28,.07,.35,.13,.6,.2,.76,.25,.75,.83,1.3,1.76,1.66,.92,.37,2.19,.55,3.81,.55,1.18,0,2.14-.12,2.89-.35,.77-.25,1.31-.61,1.63-1.09,.17-.26,.3-.65,.39-1.19,.09-.54,.13-1.21,.13-2.03v-1.48c0-.11-.02-.24-.05-.39-.02-.16-.06-.33-.1-.52Zm-7.96-4.85c-.04-.38-.03-.91,.03-1.59,.01-.26,.03-.51,.05-.76,.01-.27,.02-.53,.02-.77,.03-.3,.09-.58,.17-.84,.1-.25,.21-.47,.34-.67,.04-.1,.17-.2,.37-.3,.19-.1,.45-.2,.79-.29,1.12,0,1.84,.25,2.17,.76,.06,.1,.11,.29,.17,.57,.03,.28,.06,.64,.08,1.09,.02,.47,.03,.93,.02,1.38,0,.45-.03,.88-.08,1.31l.07,.55c.02,.1,0,.18-.08,.25-.09,.06-.23,.09-.42,.1-.12,.02-.34,.03-.65,.03-.29,0-.67-.01-1.12-.03-.48-.01-.86-.03-1.12-.05s-.44-.05-.5-.08c-.12-.07-.21-.29-.27-.65Z" fill="#666"/>
        <path d="M90.84,167.12s.04,.03,.04,.06c-.02-.05-.03-.07-.04-.06Z" fill="#666"/>
        <path d="M124.61,175.43c-.06-.74-.11-1.78-.17-3.14-.06-1.34-.13-2.99-.24-4.95l-.24-3.41c0-.11-.02-.28-.07-.5-.03-.22-.08-.5-.15-.84-.4-.93-1.63-1.5-3.69-1.73-.21-.01-.41-.02-.6-.03-.19-.01-.36-.01-.52,0-.31,.02-.65,.07-1.02,.13-.38,.07-.8,.16-1.26,.27-.1,.01-.29,.07-.55,.17-.27,.09-.49,.14-.67,.15l-2.47-.72c-.53-.04-1.07-.05-1.63-.02s-1.12,.11-1.7,.24c-.2,.03-.39,.07-.57,.12-.19,.03-.37,.08-.54,.13-.1,0-.18-.02-.24-.05-.06-.03-.12-.09-.18-.17-.03-.16-.09-.25-.17-.29-.07-.03-.33-.06-.79-.07-.04,0-.1,0-.15,.02-.06,.01-.13,.03-.22,.05h-1.71l-.13,.34v1.01c-.01,.06-.03,.09-.05,.1-.01,0-.02,0-.02-.02l.45,12.42c-.02,.15-.04,.31-.05,.49s-.02,.36-.02,.55c.02,.26,.04,.62,.07,1.09,.02,.46,.04,1.02,.07,1.7-.02,.08-.04,.16-.05,.25-.01,.1-.02,.2-.02,.3,0,.09,0,.2,.02,.32,.01,.12,.03,.25,.05,.37,.11,.15,.44,.22,.97,.22,.69,.01,1.24,.01,1.63,0,.4,0,.64-.01,.72-.03,.2-.07,.33-.18,.39-.34,.07-.17,.06-.4-.02-.7l-.17-7.18c0-.11-.01-.45-.03-1.02-.02-.56-.07-1.34-.13-2.33-.06-2.06-.08-3.18-.08-3.36,0-.32,.02-.59,.05-.81,.04-.22,.11-.39,.2-.5,.23-.3,.52-.52,.86-.65,.35-.12,.74-.16,1.18-.1,.3,.03,.55,.1,.76,.2,.2,.09,.35,.22,.45,.39,.07,.08,.12,.23,.17,.45,.04,.21,.08,.49,.1,.84,.08,.67,.13,1.45,.17,2.35,.03,.91,.06,1.91,.08,3l.22,6.58c0,.32,0,.74,.02,1.26,.02,.5,.04,1.11,.05,1.81,.1,.09,.28,.15,.54,.18,.27,.03,.6,.05,1.01,.05,.27,0,.55,0,.86-.02,.31-.01,.66-.03,1.04-.05l.65-.17s.07-.11,.08-.25c.01-.16,0-.37-.02-.64-.02-.87-.06-2.09-.1-3.64-.06-1.57-.13-3.47-.24-5.72-.04-.36-.09-.84-.13-1.46-.03-.6-.07-1.35-.12-2.23-.02-.5-.03-.92-.02-1.26,0-.31,.02-.54,.07-.67,.1-.36,.32-.63,.67-.81,.34-.19,.79-.29,1.36-.3,.4,0,.74,.07,1.01,.2,.26,.15,.44,.36,.54,.65l.15,1.49c.12,1.21,.22,2.55,.3,4.01,.07,1.45,.1,3.03,.1,4.73,0,.22,.02,.52,.05,.89,.03,.39,.05,.7,.05,.92,0,.17,0,.51,.02,1.02,.02,.54,.04,1.25,.05,2.13-.01,.1-.02,.22-.02,.37,.01,.13,.04,.29,.1,.45,.06,.01,.22,.03,.49,.07,.27,.02,.64,.04,1.12,.07,.66,.04,1.14,.06,1.43,.05,.28-.02,.46-.06,.54-.12,.08-.04,.13-.11,.15-.2,0-.84,0-1.6-.02-2.28-.01-.68-.03-1.29-.07-1.83Zm-18.93-4.2s-.04,.03-.1,.05v-.1h.13s-.01,.03-.03,.05Zm8.59-7.65s-.05-.03-.08-.07l.18,.1s-.07-.01-.1-.03Zm.82,12.67s-.04-.07-.07-.13l.12,.17s-.03-.02-.05-.03Z" fill="#666"/>
        <path d="M103.66,178.62l-.27-.42c-.1-.72-.17-1.26-.2-1.63-.06-.38-.07-.59-.03-.62v-.35c.01-.15,.02-.32,.03-.52-.04-.19-.08-.37-.1-.54-.01-.17-.02-.34-.02-.5v-1.29c-.02-.07-.04-.16-.07-.27-.03-.11-.06-.25-.07-.42,.01-.12,.03-.26,.05-.42,.01-.17,.02-.34,.02-.5l-.17-4.26c.01-.12,.02-.27,.02-.45,.01-.19,.02-.43,.02-.7,0-.02,0-.14-.02-.35,0-.22,0-.54-.02-.94,0-.15-.03-.3-.1-.47-.04-.17-.11-.34-.2-.5,.02-.02,.06-.03,.1-.03h.2c-.17-.28-.3-.5-.4-.67-.08-.18-.13-.3-.15-.35-.15-.19-.3-.36-.47-.52-.18-.15-.37-.26-.57-.35,.01,0,.03,0,.07-.02,.02-.01,.04-.03,.07-.05l-1.11-.42c-.13-.06-.29-.11-.47-.15-.19-.04-.43-.1-.7-.15-.16-.01-.4-.03-.72-.07-.32-.01-.73-.02-1.23-.02h-.64c-.64,.1-1.14,.18-1.49,.23-.34,.07-.54,.12-.6,.15-.34,.08-.63,.18-.87,.3-.26,.13-.49,.29-.69,.45-.1,.07-.18,.16-.25,.27-.07,.1-.13,.21-.18,.34-.08,.12-.11,.23-.1,.34,0,.09,.04,.16,.13,.2l-.25,.52s-.03,.16-.05,.37c-.01,.22-.02,.53-.02,.92v.57c-.01,.27-.02,.62-.03,1.06,0,.15,.03,.25,.1,.32v.12s-.03,.04-.05,.05c-.01,.02-.02,.05-.02,.08,0,.17,.13,.28,.4,.34,.27,.07,.68,.09,1.23,.07,.46-.03,.78-.07,.96-.1,.2-.03,.33-.11,.39-.24,.04-.11,.08-.31,.1-.59l.45-3.06c.1-.16,.23-.29,.39-.4,.17-.1,.38-.17,.64-.2,.24-.04,.46-.06,.67-.03,.21,.01,.41,.04,.6,.1,.38,.13,.68,.29,.89,.45,.22,.16,.36,.32,.4,.49,0,.09,0,.2,.02,.34,0,.11,0,.25,.02,.42,.06,.27,.06,.57,.02,.91s-.13,.71-.27,1.12c-.02,.15-.06,.29-.1,.42-.04,.16-.09,.31-.13,.45l-1.17,1.04-2.42,1.24-.59,.49-1.04,.65-.47,.39,.08,.17c-.36,0-.62,.28-.79,.84-.18,.56-.28,1.39-.3,2.48v1.81c.02,.45,.11,.85,.27,1.21,.17,.37,.41,.7,.74,.99,.43,.36,.92,.62,1.49,.79,.58,.15,1.24,.2,1.98,.15l2.06-.27c.3-.03,.53-.06,.69-.08l.25-.05,.65,.13c1.15,.3,2.13,.38,2.92,.23,.2-.03,.36-.1,.49-.2,.1-.08,.17-.18,.2-.32,0-.06-.02-.12-.07-.2-.03-.09-.07-.19-.12-.3Zm-8.71-3.46v-.12h.1s-.03,.07-.1,.12Zm4.75,.84c-.04,.64-.11,1.06-.18,1.26-.02,.01-.13,.06-.32,.13-.2,.09-.48,.2-.82,.32h-.76c-.2,0-.36-.01-.47-.03-.43-.02-.79-.13-1.09-.32-.29-.19-.52-.45-.69-.79l-.03-1.41c-.02-.45-.03-.81-.03-1.07s.01-.43,.03-.47c.03-.09,.07-.19,.12-.3,.03-.1,.06-.22,.07-.35,.09-.38,.24-.71,.44-.97,.21-.26,.49-.46,.84-.62,.68-.31,1.51-.78,2.48-1.39,.13,.07,.24,.39,.32,.97,.08,.58,.13,1.43,.15,2.53,0,1.05-.02,1.89-.05,2.52Z" fill="#666"/>
        <path d="M163.7,108.22c2.58-15.67,16.99-28.85,32.8-30.27,3.49-.31,7.07,.02,10.37-1.76,2.86-1.54,5.68-3.05,7.73-5.73-13.85-4.91-35.71-2.68-50.27,14.91-6.38,7.7-10.01,16.48-10.7,26.21h9.65c.11-1.11,.25-2.23,.44-3.36Z" fill="#666"/>
        <path d="M227.76,154.24c13.03-9.5,19.88-22.28,20.23-38.43,.19-8.74-2.21-16.83-6.53-24.4-.58-1.02-1.19-1.35-2.19-.73-1.78,1.1-3.56,2.2-5.31,3.34-1.14,.75-1.14,1.6-.45,2.82,5.15,9.01,6.32,18.58,3.64,28.58-6.38,23.85-34.03,35.15-54.97,22.9-1.85,2.29-4.17,4.64-7.15,6.92-2.96,2.43-5.79,4.75-8.65,7.1,13.35,11.12,57.39,11.05,68.68-.05-1.43-1.17-2.84-2.34-4.26-3.51-1.42-1.17-2.85-2.33-4.26-3.48,.11-.18,.15-.29,.22-.35,.33-.25,.67-.48,1-.72Z" fill="#666"/>
        <path d="M237.09,167.4c-24.33,11.07-48.4,11.1-72.68-.02-.53,1.7-1.12,3.6-1.71,5.49-.97,3.1-.42,5.08,2.19,7.01,1.35,1,2.8,2.02,4.37,2.54,4.32,1.42,8.67,2.9,13.11,3.77,9.01,1.78,18.16,1.99,27.31,1.25,6.81-.55,13.56-1.56,20.01-3.94,2.85-1.05,5.63-2.27,7.83-4.46,1.5-1.49,2.16-3.21,1.49-5.32-.68-2.15-1.32-4.31-1.94-6.33Z" fill="#666"/>
        <path d="M200.46,83.7c12.92,2.1,20.43,9.48,22.78,22.3,.77-5.79,2.47-11.08,6.55-15.33,4.13-4.31,9.45-5.97,15.24-6.75-11.99-2.13-19.41-8.85-21.59-21.06-.62,3.85-1.85,7.3-4.16,10.31-4.24,5.54-10.11,8.37-16.69,10.02-.71,.18-1.42,.34-2.13,.52Z" fill="#666"/>
        <path d="M212.51,136.62c1.17-6.69,4.82-10.71,11.64-11.72-6.29-1.4-10.26-5.03-11.48-11.48-1.3,6.92-6.25,9.75-12.37,11.45,6.69,1.24,10.71,5.13,12.2,11.76Z" fill="#666"/>
        <path d="M183.34,107.39c.8-5.2,3.39-8.18,8.33-9.01-4.32-1.11-7.19-3.6-8.23-8.07-1.08,4.8-4.66,6.75-8.91,8.05,4.89,.97,7.66,3.9,8.81,9.04Z" fill="#666"/>
      </g>
    </g>
  </g>
</svg>