<?xml version="1.0" encoding="UTF-8"?>
<svg id="Layer_2" data-name="Layer 2" xmlns="http://www.w3.org/2000/svg" width="294" height="269" xmlns:xlink="http://www.w3.org/1999/xlink" viewBox="0 0 294 269">
  <defs>
    <filter id="drop-shadow-1" filterUnits="userSpaceOnUse">
      <feOffset dx="7" dy="7"/>
      <feGaussianBlur result="blur" stdDeviation="9"/>
      <feFlood flood-color="#000" flood-opacity=".5"/>
      <feComposite in2="blur" operator="in"/>
      <feComposite in="SourceGraphic"/>
    </filter>
  </defs>
  <g id="Capa_1" data-name="Capa 1">
    <g>
      <rect x="20" y="20" width="240" height="215" rx="39.51" ry="39.51" fill="#fff" filter="url(#drop-shadow-1)"/>
      <text transform="translate(107.49 105.29)" fill="#666" font-family="GOODNEWSPERSONALUSE, &apos;GOOD NEWS PERSONAL USE&apos;" font-size="57.33" letter-spacing=".03em"><tspan x="0" y="0">The</tspan></text>
      <g id="Layer6_0_FILL" data-name="Layer6 0 FILL">
        <path d="M174.57,192.86c0-.17-.04-.44-.1-.79-.05-.35-.13-.79-.24-1.31-.63-1.45-2.55-2.35-5.77-2.7-.33-.02-.65-.03-.94-.05-.3-.02-.57-.02-.81,0-.49,.03-1.02,.11-1.6,.21-.59,.1-1.25,.24-1.97,.42-.16,.02-.45,.1-.87,.26-.42,.14-.77,.22-1.05,.24l-3.86-1.13c-.82-.07-1.67-.08-2.55-.03-.87,.05-1.76,.17-2.65,.37-.31,.05-.61,.11-.89,.18-.3,.05-.58,.12-.84,.21-.16,0-.28-.03-.37-.08-.09-.05-.18-.14-.29-.26-.05-.24-.14-.39-.26-.45-.11-.05-.52-.09-1.23-.1-.07,0-.15,0-.24,.03-.09,.02-.2,.04-.34,.08h-2.68l-.21,.52v1.57c-.02,.09-.04,.14-.08,.16-.02,.02-.02,0-.03-.03l.71,19.42c-.03,.23-.06,.48-.08,.76-.02,.28-.03,.57-.03,.87,.04,.4,.07,.97,.1,1.71,.03,.72,.07,1.6,.11,2.65-.03,.12-.06,.25-.08,.39-.02,.16-.03,.31-.03,.47,0,.14,0,.31,.03,.5,.02,.19,.04,.38,.08,.58,.17,.23,.68,.34,1.52,.34,1.08,.02,1.93,.02,2.55,0,.63,0,1.01-.02,1.13-.05,.31-.11,.52-.28,.6-.52,.11-.26,.1-.63-.03-1.1l-.26-11.23c0-.17-.02-.71-.05-1.6-.03-.87-.11-2.09-.21-3.65-.09-3.22-.13-4.97-.13-5.25,0-.51,.03-.93,.08-1.26,.07-.35,.17-.61,.31-.79,.37-.47,.81-.81,1.34-1.02,.54-.19,1.15-.24,1.84-.16,.47,.05,.87,.16,1.18,.31,.31,.14,.55,.34,.71,.6,.1,.12,.19,.36,.26,.71,.07,.33,.12,.77,.16,1.31,.12,1.05,.21,2.27,.26,3.67,.05,1.42,.1,2.98,.13,4.7l.34,10.29c0,.51,0,1.16,.03,1.97,.03,.79,.06,1.73,.08,2.83,.16,.14,.44,.24,.84,.29,.42,.05,.94,.08,1.57,.08,.42,0,.87,0,1.34-.03,.49-.02,1.03-.04,1.63-.08l1.02-.26c.07-.03,.11-.17,.13-.39,.02-.24,0-.58-.03-1-.03-1.36-.09-3.26-.16-5.69-.09-2.45-.21-5.43-.37-8.95-.07-.56-.14-1.32-.21-2.28-.05-.94-.11-2.11-.18-3.49-.03-.79-.04-1.44-.03-1.97,0-.49,.03-.84,.1-1.05,.16-.56,.51-.98,1.05-1.26,.52-.3,1.23-.45,2.13-.47,.63,0,1.15,.1,1.57,.31,.4,.23,.68,.57,.84,1.02l.24,2.34c.19,1.89,.35,3.98,.47,6.27,.11,2.27,.16,4.74,.16,7.4,0,.35,.03,.81,.08,1.39,.05,.61,.08,1.09,.08,1.44,0,.26,0,.8,.03,1.6,.03,.84,.06,1.95,.08,3.33-.02,.16-.03,.35-.03,.58,.02,.21,.07,.45,.16,.71,.09,.02,.34,.05,.76,.11,.42,.03,1.01,.07,1.76,.1,1.03,.07,1.78,.1,2.23,.08,.44-.03,.72-.1,.84-.18,.12-.07,.2-.17,.24-.31,0-1.31,0-2.5-.03-3.57-.02-1.07-.05-2.02-.1-2.86-.09-1.15-.17-2.79-.26-4.91-.09-2.1-.21-4.68-.37-7.74l-.37-5.33m-15.17-.55s-.08-.05-.13-.11l.29,.16c-.05,0-.1-.02-.16-.05m-13.44,11.97s-.07,.04-.16,.08v-.16h.21s-.02,.04-.05,.08m14.62,7.64l.18,.26s-.04-.03-.08-.05c-.03-.03-.07-.1-.11-.21m16.98-19.16c0,1.4,.03,2.48,.08,3.23,.07,.73,.17,1.15,.31,1.23v.08h-.39c0,2.45,.03,4.67,.08,6.67,.07,2.01,.17,3.8,.31,5.35,.03,.16,.07,.36,.11,.6,.05,.24,.1,.55,.13,.92,.05,.8,.11,1.47,.18,1.99,.11,.54,.21,.94,.31,1.18,.38,1.17,1.3,2.04,2.76,2.6,1.43,.58,3.42,.87,5.96,.87,1.84,0,3.34-.18,4.51-.55,1.21-.38,2.06-.95,2.55-1.71,.26-.4,.46-1.02,.6-1.86s.21-1.9,.21-3.18v-2.31c0-.17-.03-.38-.08-.6-.03-.24-.09-.52-.16-.81-.09-.02-.31-.03-.68-.05-.37-.02-.87-.04-1.52-.08-.82-.02-1.45,.04-1.89,.18-.35,.13-.56,.33-.63,.58,.02-.03,.04,.09,.08,.37,.05,.4,.11,1.14,.18,2.2,.04,1.05,0,1.9-.1,2.55-.09,.65-.22,1.06-.39,1.23-.14,.19-.82,.48-2.05,.87-1.52,0-2.65-.13-3.39-.39-.73-.23-1.1-.6-1.1-1.13v-1.08c0-.09-.03-.63-.08-1.63s-.12-2.45-.21-4.36c-.02-.63-.03-1.09-.05-1.39l-.08-.39c.12-.38,.87-.6,2.23-.66,.68-.03,1.54-.05,2.57-.05,1.05,0,2.26,.02,3.62,.05,.94,.02,1.68,.02,2.2,0,.49-.02,.78-.05,.87-.11,.23-.12,.34-.69,.34-1.71,.05-.61,.05-1.29,0-2.02,0-.04-.03-.2-.08-.5s-.14-.74-.26-1.34c0-.11,0-.24,.03-.42,.02-.16,.05-.34,.1-.55-.1-.12-.17-.26-.18-.42-.03-.16-.05-.33-.05-.52,.02-.68,.04-1.27,.08-1.76,.02-.45,.03-.81,.03-1.08-.03-1.35-.39-2.43-1.08-3.25-.66-.84-1.66-1.43-2.99-1.78-.51-.14-1.3-.24-2.39-.31-1.08-.05-2.46-.08-4.12-.08l-2.81,.52c-1.92,.33-3.11,1.52-3.57,3.57-.16,.65-.11,1.04,.16,1.18,0,.02-.03,.03-.08,.03-.03,.02-.1,.03-.18,.03m5.04,6.11c-.07-.59-.05-1.43,.05-2.49,.02-.4,.04-.8,.08-1.18,.02-.42,.03-.82,.03-1.21,.05-.47,.14-.91,.26-1.31,.16-.38,.33-.73,.52-1.05,.07-.16,.26-.31,.58-.47,.3-.16,.71-.31,1.23-.45,1.75,0,2.88,.39,3.39,1.18,.09,.16,.17,.45,.26,.89,.05,.44,.1,1.01,.13,1.71,.04,.73,.04,1.45,.03,2.15,0,.7-.04,1.38-.13,2.05l.1,.87c.04,.16,0,.29-.13,.39-.14,.09-.36,.14-.66,.16-.19,.04-.53,.05-1.02,.05-.45,0-1.04-.02-1.76-.05-.75-.02-1.34-.04-1.76-.08s-.68-.08-.79-.13c-.19-.1-.33-.45-.42-1.02m-42.67-9.24c-.28-.23-.58-.41-.89-.55,.02,0,.05,0,.1-.03,.04-.02,.07-.04,.1-.08l-1.73-.66c-.21-.09-.45-.17-.73-.24-.3-.07-.66-.15-1.1-.24-.24-.02-.62-.05-1.13-.11-.51-.02-1.15-.03-1.92-.03h-1c-1,.16-1.78,.28-2.34,.37-.52,.1-.84,.18-.94,.24-.52,.12-.98,.28-1.36,.47-.4,.21-.76,.45-1.08,.71-.16,.1-.29,.24-.39,.42-.11,.16-.2,.33-.29,.52-.12,.19-.17,.37-.16,.52,0,.14,.07,.24,.21,.31l-.39,.81c-.02,.05-.04,.24-.08,.58-.02,.35-.03,.83-.03,1.44v.89c-.02,.42-.03,.97-.05,1.65,0,.23,.05,.39,.16,.5v.18s-.04,.06-.08,.08c-.02,.03-.03,.08-.03,.13,0,.26,.21,.44,.63,.52,.42,.1,1.06,.14,1.92,.1,.72-.05,1.22-.1,1.5-.16,.31-.05,.52-.17,.6-.37,.07-.17,.12-.48,.16-.92l.71-4.78c.16-.24,.36-.45,.6-.63,.26-.16,.59-.26,1-.31,.37-.07,.72-.09,1.05-.05,.33,.02,.65,.07,.94,.16,.59,.21,1.06,.45,1.39,.71,.35,.24,.56,.5,.63,.76,0,.14,0,.31,.03,.52,0,.17,0,.39,.03,.66,.09,.42,.1,.89,.03,1.42s-.21,1.11-.42,1.76c-.03,.23-.09,.45-.16,.66-.07,.24-.14,.48-.21,.71l-1.84,1.63-3.78,1.94-.92,.76-1.63,1.02-.73,.6,.13,.26c-.56,0-.97,.44-1.23,1.31-.28,.87-.44,2.17-.47,3.88v2.83c.03,.7,.17,1.33,.42,1.89,.26,.58,.65,1.09,1.15,1.55,.66,.56,1.44,.97,2.34,1.23,.91,.23,1.94,.31,3.1,.24l3.23-.42c.47-.05,.83-.1,1.08-.13l.39-.08,1.02,.21c1.8,.47,3.32,.59,4.57,.37,.31-.05,.57-.16,.76-.31,.16-.12,.26-.29,.31-.5,0-.09-.03-.19-.11-.31-.05-.14-.11-.3-.18-.47l-.42-.66c-.16-1.12-.26-1.97-.31-2.55-.09-.59-.1-.92-.05-.97v-.55c.02-.23,.04-.5,.05-.81-.07-.3-.12-.58-.16-.84-.02-.26-.03-.52-.03-.79v-2.02c-.04-.1-.07-.24-.1-.42-.05-.17-.09-.39-.11-.66,.02-.19,.04-.41,.08-.66,.02-.26,.03-.52,.03-.79l-.26-6.67c.02-.19,.03-.43,.03-.71,.02-.3,.03-.66,.03-1.1,0-.04,0-.22-.03-.55,0-.35,0-.84-.03-1.47,0-.23-.05-.47-.16-.73-.07-.26-.17-.52-.31-.79,.03-.04,.09-.05,.16-.05h.31c-.26-.44-.47-.79-.63-1.05-.12-.28-.2-.46-.24-.55-.23-.3-.47-.57-.73-.81m-10.18,19.1c0-.42,.02-.66,.05-.73,.05-.14,.11-.3,.18-.47,.05-.16,.09-.34,.1-.55,.14-.59,.37-1.1,.68-1.52,.33-.4,.77-.73,1.31-.97,1.07-.49,2.36-1.22,3.88-2.18,.21,.11,.38,.61,.5,1.52,.12,.91,.2,2.23,.24,3.96,0,1.64-.03,2.96-.08,3.94-.07,1-.17,1.65-.29,1.97-.03,.02-.2,.09-.5,.21-.31,.14-.74,.31-1.29,.5h-1.18c-.31,0-.56-.02-.73-.05-.66-.03-1.23-.2-1.71-.5-.45-.3-.81-.71-1.08-1.23l-.05-2.2c-.03-.7-.05-1.26-.05-1.68m-.39,1.5c0,.05-.05,.11-.16,.18v-.18h.16m-26.77-28.1l-.03,.21c-.02,.24-.04,.67-.08,1.29v2.23c.03,.19,.06,.37,.08,.52,.02,.14,.03,.27,.03,.39,0,.09-.02,.27-.05,.55-.02,.24-.07,.59-.16,1.05l.11,1.44v1.26c-.02,.56-.04,.95-.08,1.18-.02,.2-.02,.25-.03,.16v1.57c.04,.51,.06,.94,.08,1.31,.02,.38,.03,.71,.03,.97v3.91c0,3.45,.05,6.22,.16,8.32v2.26c.04,.17,.09,.38,.16,.63,.09,.26,.19,.56,.31,.89,.12,1.22,.47,2.24,1.05,3.04,.58,.8,1.38,1.41,2.41,1.81,.63,.26,1.52,.47,2.68,.63,1.14,.12,2.54,.18,4.2,.18l4.8-.16c.31,.02,.65,.04,1,.08,.35,.02,.73,.03,1.15,.03h1c.33-.02,.68-.03,1.05-.05,.24-.11,.41-.38,.5-.84,.09-.47,.09-1.12,0-1.94-.03-.09-.07-.18-.11-.29-.05-.1-.1-.24-.13-.39,.09-.28,.15-.58,.18-.89,.03-.28,.05-.58,.05-.89s-.02-.63-.05-.94c-.04-.31-.1-.63-.18-.94l.13-7.56-.13-4.04c0-.52,0-.89,.03-1.1s.05-.24,.1-.08c-.05-.21-.17-.37-.37-.47-.23-.1-.52-.17-.89-.18-.26-.05-.5-.07-.71-.05-.23,.04-.42,.07-.58,.1-.31,0-.73,0-1.23-.03-.51,0-1.12,0-1.84-.03-.68-.05-1.29-.08-1.84-.08-.51,0-.95,.03-1.34,.08-.17-.05-.39-.08-.66-.08-.28,0-.6,.03-.97,.08v-.16c-.17,0-.3,.16-.37,.47-.09,.31-.13,.77-.13,1.36,0,.42,.02,.76,.05,1.02,.03,.23,.09,.38,.16,.45,.09,.14,.33,.23,.73,.26,.38,.03,.92,.04,1.6,.03,.58-.03,1.02-.03,1.34,0,.33,.02,.52,.07,.58,.16,.09,.09,.15,.24,.18,.47,.03,.21,.05,.49,.05,.84,0-.14-.02-.09-.05,.16-.02,.28-.04,.79-.05,1.52v1.6c.02,.19,.05,.47,.1,.84,.03,.37,.07,.82,.11,1.36v1.81c0,.14,0,.3-.03,.47-.03,.17-.06,.38-.08,.6v.73c0,.63-.03,1.15-.08,1.55-.07,.42-.14,.73-.21,.94-.26,.42-.65,.75-1.15,1-.51,.26-1.15,.42-1.92,.47-1.21,.09-2.2,.03-2.99-.18-.79-.17-1.36-.47-1.71-.89-.23-.31-.41-.79-.55-1.42-.1-.61-.16-1.38-.16-2.31,0-1.38-.02-2.39-.05-3.02-.02-.63-.04-.87-.05-.71,0-.3,0-.9,.03-1.81,.02-.87,.04-2.07,.08-3.6,.02-.14,.04-.31,.08-.5,.02-.19,.03-.42,.03-.68v-5.72c0-.26-.03-.62-.08-1.08-.03-.44-.08-.89-.13-1.36-.03-.45-.05-.81-.05-1.08v-.21c0-.3,.02-.8,.05-1.52v-1.81c0-.1,0-.22-.03-.34,0-.14,0-.31-.03-.52v-.92c0-.33,.02-.96,.05-1.89,.05-2.22,.17-3.8,.34-4.75,.03-.26,.1-.57,.18-.92,.11-.35,.24-.76,.42-1.23,.24-.42,.71-.72,1.39-.89,.68-.21,1.57-.3,2.65-.26,.84,.02,1.52,.13,2.05,.34,.54,.21,.94,.52,1.21,.92,.12,.16,.23,.53,.31,1.13,.11,.61,.21,1.43,.31,2.44,.07,.7,.13,1.4,.18,2.1,.04,.72,.06,1.4,.08,2.05,0,.26,0,.64,.03,1.13,.03,.47,.06,1.05,.08,1.73-.02,.19-.03,.42-.03,.68,.02,.26,.07,.56,.16,.89,.09,.09,.34,.15,.76,.18s1.01,.06,1.78,.08c.72,.05,1.3,.06,1.76,.03,.47-.02,.81-.04,1.02-.08,.07-.02,.14-.05,.21-.11,.07-.05,.13-.12,.18-.21v-1.02c-.05-2.06-.1-3.69-.13-4.88-.05-1.17-.09-1.89-.1-2.15-.19-1.59-.52-2.94-.97-4.04-.44-1.12-1-1.95-1.68-2.49l-.79-.63c-1.19-.49-2.3-.81-3.33-.97-1.01-.16-1.94-.14-2.78,.05-.09,0-.24,0-.47,0-.21,0-.46-.02-.76-.05-.1,.03-.26,.05-.47,.05-.23,.02-.51,.03-.84,.05-1.78,0-3.26,.29-4.43,.87-1.21,.54-2.1,1.36-2.68,2.47-.26,.54-.46,1.32-.6,2.34-.14,.99-.21,2.19-.21,3.62m13.46-7.32s.04-.04,.05-.08h.13s-.02,.06-.05,.08c-.03,.03-.1,.06-.18,.08,0-.02,.02-.04,.05-.08m5.04,9.24l.24,.13c-.05,0-.05,.05,0,.16h-.13s-.02-.05-.05-.1c-.02-.05-.03-.11-.05-.18m-16.66-.5c-.05,0-.09,0-.1-.03-.02,0-.03-.02-.03-.05,0-.02,0-.05,.03-.11,.02-.03,.05-.07,.1-.1v.29m.6,21.49h-.26v-.31s.08,.05,.13,.1,.1,.12,.13,.21Z" fill="#666"/>
      </g>
      <g>
        <path d="M67.08,163.04c-.14,.28-.35,.42-.63,.49-.56,.14-1.55,.21-2.89,.21-1.06,0-2.47-.07-4.16-.14l-1.2-.28c-1.2-.49-1.76-1.27-1.76-2.33l.92-.42q.07-.07,0-.07c-.28-.14-.49-.21-.63-.21-.21,0-.28,.07-.28,.21-.14,0-.21-.07-.21-.14-.28-.56-.42-.99-.42-1.34-.35-1.34-.49-2.11-.49-2.32,.07-.99,.14-1.62,.14-1.83l-.14-1.9c.07-.56,.21-.99,.28-1.27-.35-.85-.49-1.69-.42-2.54,.07-.92,.14-1.62,.14-2.11,.21-4.79-.28-7.54-1.55-8.24-2.11-.42-3.88-.63-5.28-.71-.71,.07-1.2,.07-1.55,.07-.14,.92-.21,1.55-.14,2.04-.07,7.96-.07,13.88-.07,17.83,0,1.97,0,3.45,.07,4.44-.07,.42-.28,.7-.63,.85-.92,.42-2.82,.49-5.78,.21-.28,0-.42-.07-.42-.14-.14-.28-.21-1.48-.21-3.52v-1.69c-.07-.99-.14-1.76-.14-2.32v-4.02c0-.71,.07-1.41,.14-2.11-.07-.49-.21-.92-.28-1.13,.07-2.18,.14-3.52,.14-3.95-.07-1.34-.14-1.97-.14-1.76,.21-1.69,.28-2.68,.28-3.03,0-.28-.07-2.11-.14-5.43-.07-2.54-.14-4.37-.14-5.5v-.7c-.07-.35-.14-.56-.14-.71,.07-2.18,.14-3.73,.14-4.58,0-1.2-.28-3.24-.28-4.16v-7.89c0-.21,0-.63-.07-1.13-.07-.49,0-.85,.21-1.06,1.34-.35,2.54-.56,3.45-.49,.92,.07,1.76,.07,2.54,.07h2.4c.85-.21,2.61-.14,5.36,.21,1.76,.21,3.24,.63,4.51,1.2l.92,.49,2.25,1.27c.92,.92,1.55,2.26,1.83,3.88l.21,4.09,.28,.99c-.07,.92-.14,1.41-.14,1.48,0,1.13,.14,3.17,.35,6.2,.21,1.76,.21,2.96,0,3.45-.14,.56-1.13,1.41-2.89,2.61-.77,.49-1.62,1.06-2.68,1.62-.07,.21,.71,.7,2.4,1.34,1.27,.49,1.9,.99,1.9,1.34-.35,.14-.49,.28-.49,.42,0,.07,.07,.21,.14,.28,.21,.28,.63,.42,1.27,.42v.07h.14l.49,1.97c0,.35-.07,.56-.14,.78-.07,9.02,.85,15.36,2.82,19.03,.63,.92,.92,1.48,.85,1.62Zm-25.86-15.93h-.35v.21c.21-.07,.35-.14,.35-.21Zm14.24-20.86c-.07-1.2-.14-1.62-.14-1.27v-2.61l-.49-4.23c-.28-2.47-.77-4.02-1.41-4.51-1.06-.77-3.38-1.2-6.98-1.2-.63,.28-.99,.99-.99,2.19,0,.77,.07,2.19,.21,4.23,.07,1.76,.14,3.31,.14,4.51v.99c-.07,.42-.14,.77-.14,.99l.28,5.92c0,.77-.07,1.48-.14,2.18,.21,.28,1.9,.42,5.22,.42,.49-.07,.92-.07,1.27-.07,1.62-.63,2.47-1.06,2.54-1.27,.21-1.48,.42-2.75,.49-3.8,.07-.63,.14-1.06,.14-1.13v-1.34Zm1.27-3.52c-.07,.07-.14,.14-.14,.21,0,.28,.07,.42,.14,.49v-.7Z" fill="#666"/>
        <path d="M90.69,161.42c-1.27,1.9-4.23,2.82-8.81,2.82-6.27,0-9.87-1.41-10.85-4.3-.28-.63-.49-1.97-.63-3.95-.07-.92-.21-1.55-.28-1.9-.35-3.88-.49-8.88-.49-15.01h.49v-.07c-.35-.21-.49-2.04-.49-5.57,.21,0,.35,0,.35-.07-.35-.14-.42-.63-.21-1.48,.56-2.54,2.04-4.02,4.44-4.44l3.52-.63c4.16,0,6.84,.14,8.1,.49,3.31,.85,5,2.96,5.07,6.27,0,.63-.07,1.83-.14,3.52,0,.49,.07,.85,.28,1.2-.07,.49-.14,.92-.14,1.2,.28,1.48,.42,2.19,.42,2.26,.07,.92,.07,1.76,0,2.54,0,1.27-.14,1.97-.42,2.11-.21,.14-1.48,.21-3.8,.14-3.45-.07-6.06-.07-7.75,0-1.69,.07-2.61,.35-2.75,.85,0-.07,.07,.63,.14,2.18,.21,4.79,.35,7.26,.35,7.47v1.34c0,1.27,1.83,1.9,5.57,1.9,1.55-.49,2.4-.85,2.54-1.06,.49-.49,.7-2.11,.63-4.72-.14-2.68-.28-3.66-.35-3.03,.07-.85,1.13-1.2,3.17-1.13,1.62,.07,2.54,.14,2.75,.14,.21,.78,.28,1.34,.28,1.76v2.89c0,3.17-.35,5.29-.99,6.27Zm-14.59-26.43c0,.99-.07,1.97-.14,2.96-.21,2.68,0,4.16,.49,4.37,.21,.14,1.27,.21,3.17,.28,1.76,.07,2.96,.07,3.45,0,.77-.07,1.06-.28,.99-.7l-.14-1.06c.21-1.62,.21-3.38,.14-5.22-.07-1.76-.28-2.89-.49-3.24-.63-.99-2.04-1.48-4.23-1.48-1.27,.35-2.04,.77-2.25,1.13-.49,.78-.85,1.76-.99,2.96Z" fill="#666"/>
        <path d="M116.69,162.27c.21,.42,.35,.77,.35,.99-.07,.49-.49,.85-1.34,.99-1.55,.28-3.45,.14-5.71-.42l-1.27-.35s-.63,.14-1.83,.35l-4.02,.49c-2.89,.21-5.14-.42-6.76-1.83-1.27-1.13-1.9-2.54-1.97-4.3v-3.52c.07-4.3,.77-6.48,2.11-6.48l-.14-.35,.92-.78,2.04-1.27,1.13-.92,4.72-2.47,2.26-2.04c.21-.56,.42-1.13,.49-1.69,.49-1.62,.7-2.89,.49-3.95-.07-.63-.07-1.13-.07-1.48-.21-.63-1.06-1.27-2.54-1.83-.7-.21-1.55-.28-2.47-.14-.99,.14-1.62,.56-1.97,1.2l-.56,2.68-.35,3.24c-.21,1.69-.07,1.62-2.82,1.83-2.11,.07-3.17-.14-3.17-.78,0-.14,.07-.21,.14-.28v-.21c-.14-.14-.21-.35-.21-.63,.07-1.69,.07-2.75,.07-3.17,0-1.55,.07-2.4,.14-2.54l.49-.99c-.35-.21-.35-.56-.07-1.06,.21-.49,.49-.92,.85-1.2,.77-.63,1.76-1.13,3.03-1.48,.28-.07,1.62-.35,4.09-.71h1.27c1.9,0,3.17,.07,3.81,.14,1.06,.21,1.76,.42,2.25,.56l2.19,.85c-.07,.07-.21,.14-.28,.14,.78,.35,1.48,.92,2.04,1.69,.07,.21,.42,.92,1.06,1.97-.28,0-.49,0-.56,.07,.35,.71,.56,1.34,.56,1.9,.07,1.62,.07,2.47,.07,2.54,0,1.06,0,1.76-.07,2.26l.35,8.31c0,.71-.07,1.34-.14,1.83,.07,.63,.21,1.06,.28,1.34v2.54c0,.63,.07,1.27,.21,2.04-.07,.77-.07,1.34-.07,1.69-.07,.14,.07,1.62,.49,4.37l.49,.85Zm-16.77-6.98h-.21v.21c.14-.07,.21-.14,.21-.21Zm9.16-3.1c-.07-4.3-.42-6.55-.92-6.84-1.9,1.2-3.52,2.11-4.86,2.75-1.34,.56-2.11,1.62-2.47,3.1-.07,.49-.21,.92-.35,1.27-.07,.21-.07,1.27,0,3.03l.07,2.75c.63,1.34,1.76,2.11,3.45,2.19,.42,.07,1.2,.07,2.4,.07,1.34-.49,2.11-.85,2.19-.92,.35-.77,.49-3.24,.49-7.4Z" fill="#666"/>
        <path d="M126.77,164.73c-.49,.35-2.18,.42-4.93,.28-1.55-.07-2.32-.42-2.4-1.06,.07,.49,.07-.28,.07-2.26v-1.55c0-.7,.07-1.83,.14-3.45,.07-1.48,.14-2.61,.14-3.38-.07-2.54-.07-2.68,0-4.94,0-.77,.07-1.27,.14-1.48-.07-1.48-.14-2.32-.14-2.54v-1.83c.07-1.62,.14-2.26,.14-1.83v-1.48c.07-.56,.14-.92,.14-.99,.07-2.89,0-2.97-.14-4.1v-.85c.07-.35,.14-.56,.14-.63l-.14-4.62c0-1.34,.07,.61,.14-.09l-.14-1.97c.07-.49,.14-.85,.14-.99-.07-.49-.14-.92-.14-1.13,.07-1.06,.14-1.76,.14-1.97,0-1.76-.07-2.82-.14-3.24,.07-.99,.21-1.55,.35-1.69,1.48-.21,2.75-.28,3.81-.28,.7,.14,1.06,.21,1.13,.14h1.2c.85-.07,1.27,.14,1.34,.7l-.21,9.54c0,.92-.14,1.34-.49,1.34,.21,.14,.28-.17,.21,1.87,0,.14,.07,.42,.14,.78v.7c0,.92-.28,3.31-.28,4.23l-.07,10.59c0-.21,0,.28,.07,1.55v1.55c0,3.59,0,3.95-.07,5.71l-.42,.49h-.14c0,.07,.07,.07,.14,.07v.07c.35,.49,.49,.85,.49,1.13v1.83c0,3.73-.14,5.64-.35,5.78Zm-4.93-39.12h-.49c0,.07-.07,.07-.14,.07,0,.14,.07,.21,.21,.21v.07h.28c0-.14,.07-.28,.14-.35Zm2.04-.85l-1.41,.42h-.28v.07h.42c.85,.14,1.27,0,1.27-.49Zm.49-2.33l-.28-.21c.07,.14,.21,.21,.28,.21Z" fill="#666"/>
        <path d="M161.45,133.47c-.28,.35-1.76,.49-4.51,.49-.35,.49-.42,1.48-.35,3.1,.35,6.41,.49,10.3,.49,13.54l-.14,1.34,.42,4.13v1.83c.14,.42,.21,1.34,.14,2.75,.35,1.69,.56,2.68,.71,2.89,1.27,1.06,1.9,1.55,1.9,1.48,0,.07-.07,.07-.21,.07-.63,.21-2.04,.28-4.23,.21-1.83,0-3.17-.28-4.02-.92-.49-.78-.77-1.34-.77-1.83-.21-2.04-.28-3.66-.28-4.86-.07-2.96-.07-4.37-.07-4.23l-.28-4.97c-.07-2.04-.14-3.11-.14-5.29l-.14-5.85c0-1.9,0-2.89-.07-2.96-.21-.35-1.2-.56-3.1-.63-1.83-.07-2.82-.35-3.03-.78v-1.62c-.21-1.34,.35-1.55,2.68-1.34,2.04,.14,2.96,.21,2.82,.21v-.07c.35-.14,.56-.35,.63-.63,.14-4.58,.28-5.69,.5-6.47-.07-1.48-.14-2.19-.14-1.97,.07-.63,.14-1.06,.14-1.27l-.14-1.2c.49-.85,.92-1.34,1.27-1.55,.21,0,.28,.07,.28,.14h.35c.21-.21,.63-.35,1.27-.35l.99,.07h.28c0-.07,.07-.07,.28-.07-.07-.07-.14-.21-.14-.28,0-.14,.07-.21,.14-.28,.92,.21,1.13,.28,.71,.28v-.07c.42-.07,.77-.07,1.06-.07-.28,1.2-.42,2.11-.49,2.75,0,.07-.42,.42-.42,.49,.21,.14,.28,1.06,.28,2.82,0,1.2,.21,4.37,.21,5.57v1.46c.07,.35,.7,.56,1.83,.56h2.54c.63,.07,1.06-.88,1.13-.1,.07,1.06,0,3.13-.35,3.49Zm-9.44-15.49c-.21-.21-.56-.42-.99-.49,.21,.21,.49,.35,.78,.35v.14h.21Zm-.21,3.59c-.28-.07-.49-.07-.63-.07v.07c-.07,0-.14,0-.14,.07,.07,.07,.14,.07,.14,0h.63v-.07Zm0-.71c-.21-.07-.35-.14-.42-.14v.21c.21-.07,.35-.07,.42-.07Zm.63,3.88h-.28v.21c.21-.07,.28-.14,.28-.21Zm.99-6.91l-.49-.14c.14,.07,.28,.14,.49,.14Zm1.13-.35v.14h.42c-.07-.14-.21-.21-.28-.28-.21,.07-.35,.07-.49,.07,.14,.07,.28,.07,.35,.07Zm.42,4.23c-.21-.07-.35-.21-.42-.35,.07,.21,.14,.35,.14,.49h.28v-.14Zm.21-3.88l-.21-.14c0,.07,0,.21,.07,.28h.14v-.14Z" fill="#666"/>
        <path d="M171.03,136.83c0,3.45,.07,6.13,.14,8.03,0,.63-.07,1.48-.14,2.54-.07,1.2-.14,2.04-.14,2.54v1.9c0,.28,.07,.63,.14,1.13v.77c0,2.32-.07,3.38-.14,3.17l-.14,1.27v4.02c0,1.62,0,2.47-.07,2.54-.28,.28-.78,.42-1.55,.49-2.04,.07-3.52,0-4.58-.21-.49-.14-.78-.35-.78-.7l.42-6.41c-.07-.63-.14-.99-.14-1.2,0-.63,.07-2.25,.28-4.86,.07-1.97,.07-3.59,.07-4.79,0-.56-.21-1.76-.21-2.32v-2.89c0-.56,.07-1.2,.14-1.83v-.99l-.14-5v-6.2l.21-.49c1.06-.07,1.69-.07,1.9-.07,.42,.07,1.13,.07,2.04,.07,.42-.07,.78-.14,1.13-.14,.71,0,1.2,.21,1.55,.71,.07,.28,.14,.99,.14,2.11l-.14,3.67c-.07,1.2-.07,2.26,0,3.17Zm-.35-19.31c.42,.21,.63,.85,.63,1.97,0,1.06-.28,1.69-.92,1.9-.21,.07-1.06,.14-2.4,.07-.63,.07-1.41,0-2.4-.21-.35-.14-.49-.71-.42-1.69,.07-.85,.14-1.27,.14-1.27,.21-.49,.56-.78,1.13-.99,1.2,0,2.61,.07,4.23,.21Zm-2.82,15.79h-.28v.21c.21-.07,.28-.14,.28-.21Z" fill="#666"/>
        <path d="M212.33,163.96c-.21,.56-.21,.77-4.09,.56-1.9-.07-2.96-.21-3.17-.28-.21-.63-.21-1.2-.14-1.62-.07-3.45-.14-5.5-.14-6.13,0-.77-.21-2.75-.21-3.52,0-6.62-.28-12.33-.77-17.05l-.28-2.89c-.42-1.13-1.41-1.69-3.03-1.69-2.18,.07-3.52,.77-3.95,2.18-.14,.49-.14,1.76-.07,3.74,.14,3.45,.28,5.85,.49,7.19,.35,8.81,.56,14.87,.63,18.25,.07,1.06,.07,1.69-.14,1.76l-1.27,.28c-1.48,.07-2.68,.14-3.67,.14-1.62,0-2.61-.14-3.03-.42-.07-2.75-.14-4.72-.14-5.99l-.42-12.83c-.07-4.3-.21-7.82-.49-10.43-.07-1.34-.28-2.19-.49-2.54-.42-.63-1.2-.99-2.4-1.13-1.69-.21-3.03,.28-3.95,1.48-.35,.42-.49,1.27-.49,2.54,0,.35,.07,2.54,.21,6.55,.21,3.88,.28,6.06,.28,6.55l.14,8.6,.21,3.8v1.55c.28,1.2,.07,1.83-.7,2.04-.35,.07-1.9,.14-4.58,.07-1.06,0-1.69-.14-1.9-.42-.07-.49-.14-.99-.14-1.34,0-.42,.07-.78,.14-1.06-.07-2.61-.21-4.44-.28-5.43,0-.77,.07-1.48,.14-2.04l-.49-11-.42-13.25c0,.14,.07,.07,.14-.14v-1.97l.28-.63h3.31c.35-.07,.56-.14,.71-.14,1.9,.07,1.62,.07,1.9,.7,.21,.28,.42,.42,.78,.42,.7-.21,1.41-.35,2.18-.49,2.26-.49,4.44-.63,6.48-.42l4.79,1.41c.63,0,2.11-.63,2.4-.63,1.76-.42,3.24-.71,4.44-.78,.63-.07,1.34,0,2.19,.07,4.02,.42,6.41,1.55,7.19,3.38,.28,1.27,.42,2.11,.42,2.61l.49,6.62c.35,7.61,.56,12.9,.77,15.78,.07,2.04,.14,4.72,.14,7.97Zm-36.93-16.28h-.28v.21c.21-.07,.28-.14,.28-.21Zm16.84-14.73l-.35-.21c.07,.14,.21,.21,.35,.21Zm1.55,24.74l-.28-.35c.07,.21,.21,.28,.28,.35Z" fill="#666"/>
        <path d="M236.01,161.42c-1.27,1.9-4.23,2.82-8.81,2.82-6.27,0-9.87-1.41-10.85-4.3-.28-.63-.49-1.97-.63-3.95-.07-.92-.21-1.55-.28-1.9-.35-3.88-.49-8.88-.49-15.01h.49v-.07c-.35-.21-.49-2.04-.49-5.57,.21,0,.35,0,.35-.07-.35-.14-.42-.63-.21-1.48,.56-2.54,2.04-4.02,4.44-4.44l3.52-.63c4.16,0,6.84,.14,8.1,.49,3.31,.85,5,2.96,5.07,6.27,0,.63-.07,1.83-.14,3.52,0,.49,.07,.85,.28,1.2-.07,.49-.14,.92-.14,1.2,.28,1.48,.42,2.19,.42,2.26,.07,.92,.07,1.76,0,2.54,0,1.27-.14,1.97-.42,2.11-.21,.14-1.48,.21-3.8,.14-3.45-.07-6.06-.07-7.75,0-1.69,.07-2.61,.35-2.75,.85,0-.07,.07,.63,.14,2.18,.21,4.79,.35,7.26,.35,7.47v1.34c0,1.27,1.83,1.9,5.57,1.9,1.55-.49,2.4-.85,2.54-1.06,.49-.49,.7-2.11,.63-4.72-.14-2.68-.28-3.66-.35-3.03,.07-.85,1.13-1.2,3.17-1.13,1.62,.07,2.54,.14,2.75,.14,.21,.78,.28,1.34,.28,1.76v2.89c0,3.17-.35,5.29-.99,6.27Zm-14.59-26.43c0,.99-.07,1.97-.14,2.96-.21,2.68,0,4.16,.49,4.37,.21,.14,1.27,.21,3.17,.28,1.76,.07,2.96,.07,3.45,0,.77-.07,1.06-.28,.99-.7l-.14-1.06c.21-1.62,.21-3.38,.14-5.22-.07-1.76-.28-2.89-.49-3.24-.63-.99-2.04-1.48-4.23-1.48-1.27,.35-2.04,.77-2.25,1.13-.49,.78-.85,1.76-.99,2.96Z" fill="#666"/>
      </g>
      <rect x="133.15" y="141.24" width="11.65" height="4.7" rx="1.01" ry="1.01" fill="#666"/>
      <g>
        <g>
          <circle cx="203" cy="32.93" r="6.53" transform="translate(-2.65 32.94) rotate(-9.22)" fill="#666"/>
          <path d="M207.98,60.65l6.35-13.09c0-3.07-2.49-5.55-5.55-5.55h-11.56c-3.07,0-5.55,2.49-5.55,5.55l6.35,13.09c1.58-.48,3.25-.74,4.98-.74s3.4,.26,4.98,.74Z" fill="#666"/>
          <path d="M217.72,109.55c-3.32,1.41-4.87,5.25-3.46,8.57,1.41,3.32,5.25,4.87,8.57,3.46,3.32-1.41,4.87-5.25,3.46-8.57-1.41-3.32-5.25-4.87-8.57-3.46Z" fill="#666"/>
          <path d="M204.14,106.54c1.2,2.82,4.46,4.14,7.28,2.94l10.64-4.52c2.82-1.2,4.14-4.46,2.94-7.28l-9.95-8.69c-2.69,2.69-6.28,4.48-10.27,4.9l-.64,12.65Z" fill="#666"/>
          <path d="M241.48,54.43c2.84-2.22,3.35-6.33,1.13-9.17-2.22-2.84-6.33-3.35-9.17-1.13-2.84,2.22-3.35,6.33-1.13,9.17,2.22,2.84,6.33,3.35,9.17,1.13Z" fill="#666"/>
          <path d="M218.68,70.26l14.24-3.06c2.42-1.89,2.84-5.38,.96-7.79l-7.12-9.11c-1.89-2.42-5.38-2.84-7.79-.96l-6.56,13.39c2.77,1.83,4.97,4.45,6.28,7.53Z" fill="#666"/>
          <path d="M247.15,81.13c-3.49-.93-7.07,1.13-8,4.62-.93,3.49,1.13,7.07,4.62,8,3.49,.93,7.07-1.13,8-4.62,.93-3.49-1.13-7.07-4.62-8Z" fill="#666"/>
          <path d="M234.28,72.72l-14.31,2.75c.04,.49,.07,.98,.07,1.48,0,3.08-.83,5.97-2.26,8.46l10.63,9.2c2.96,.79,6-.96,6.8-3.93l2.99-11.17c.79-2.96-.96-6.01-3.93-6.8Z" fill="#666"/>
          <path d="M173.6,53.3c2.22-2.84,1.72-6.95-1.13-9.17-2.84-2.22-6.95-1.72-9.17,1.13s-1.72,6.95,1.13,9.17c2.84,2.22,6.95,1.72,9.17-1.13Z" fill="#666"/>
          <path d="M193.53,62.78l-6.59-13.43c-2.42-1.89-5.9-1.46-7.79,.96l-7.12,9.11c-1.89,2.42-1.46,5.9,.96,7.79l14.32,3.08c1.3-3.07,3.48-5.67,6.22-7.51Z" fill="#666"/>
        </g>
        <path d="M203,63.19c-5.37,0-10.01,3.09-12.27,7.58,2.23-2.87,5.7-4.72,9.61-4.72,6.73,0,12.18,5.45,12.18,12.18s-5.45,12.18-12.18,12.18c-.03,0-.06,0-.1,0,.89,.18,1.81,.28,2.76,.28,7.59,0,13.75-6.16,13.75-13.75s-6.16-13.75-13.75-13.75Z" fill="#666"/>
      </g>
    </g>
  </g>
</svg>