<?xml version="1.0" encoding="UTF-8"?>
<svg id="Layer_2" data-name="Layer 2" xmlns="http://www.w3.org/2000/svg" width="294" height="269" xmlns:xlink="http://www.w3.org/1999/xlink" viewBox="0 0 294 269">
  <defs>
    <filter id="drop-shadow-1" filterUnits="userSpaceOnUse">
      <feOffset dx="7" dy="7"/>
      <feGaussianBlur result="blur" stdDeviation="9"/>
      <feFlood flood-color="#000" flood-opacity=".5"/>
      <feComposite in2="blur" operator="in"/>
      <feComposite in="SourceGraphic"/>
    </filter>
  </defs>
  <g id="Capa_1" data-name="Capa 1">
    <g>
      <rect x="20" y="20" width="240" height="215" rx="39.51" ry="39.51" fill="#fff" filter="url(#drop-shadow-1)"/>
      <g>
        <g>
          <path d="M235.08,52.34c-1.74-5.5-6.5-8.23-11.52-6.63-5.03,1.61-7.33,6.56-5.6,12.05,4.44,14.09,8.89,28.17,13.32,42.27,.39,1.24,.72,2.27,2.41,2.11,.48-.04,1.05,.85,1.58,1.32-.54,.46-1.06,1.28-1.61,1.31-2.38,.11-4.77,.06-7.14-.1-.48-.03-.91-.83-1.36-1.28,.48-.44,.88-1.05,1.45-1.27,.61-.24,1.37-.11,2.33-.16-2.43-7.68-4.79-15.15-7.33-23.16-2.12,6.7-3.92,12.78-5.99,18.76-1.39,4.02-2.04,8.04-1.52,12.55,2.48,0,4.98,.01,7.48,0,7.43-.04,14.86-.14,22.29-.07,.87,0,2.12,.7,2.54,1.44,1.59,2.81,2.9,5.78,4.34,8.67,.49,.99,1.07,1.93,1.93,3.45,.15-1.24,.25-1.78,.27-2.32,.34-7.2-.61-14.24-2.78-21.12-5.02-15.95-10.05-31.89-15.08-47.83Z" fill="none"/>
          <path d="M246.99,57.91c1.01-3.46,.31-6.62-2.33-9.13-2.53-2.41-5.54-3.19-8.6-2.17,2.47,7.52,4.86,14.8,7.4,22.53,1.29-4.11,2.48-7.65,3.52-11.24Z" fill="none"/>
          <path d="M246.84,137.73c.13-7.3-.32-14.55-2.64-21.59-2.43-7.39-4.79-14.82-7-22.28-.44-1.47-.42-3.27-.03-4.76,1.09-4.1,2.55-8.11,3.75-12.19,3.29-11.12-6.34-21.26-17.63-18.63-.78,.18-1.73,.19-2.46-.1-5.91-2.33-11.4-1.71-16.12,2.61-4.72,4.34-5.78,9.79-3.91,15.85,1.36,4.41,2.76,8.8,4.13,13.21,.19,.61,.51,1.33,.35,1.87-.89,2.51-2.14,5-4.23,8.92-5.3-7.1-19.52-5.4-23.29,2.06-3.36-.5-6.43-1.57-9.37-1.29-8.74,.83-13.86,7.71-13.41,16.81,0,.18,.02,.39,.02,.59h5.92c.07-2.15,.2-4.1,.39-5.54,.56-4.27,5.32-6.75,9.86-6.14,4.13,.55,7.39,4.28,7.57,8.73,.02,.56,.03,1.65,.03,2.94h2.77c-.01-3.31-.02-6.45,.02-8.57,.09-4.8,3.36-8.39,8.01-9.04,3.99-.56,8.51,2.23,9.49,6.27,.59,2.42,.49,10.79,.7,13.3l-.24,.02c0,3.53,.02,7.06,0,10.59-.03,3.67-1.83,6.49-4.95,8.07-1.15,.59-2.35,.92-3.54,1.01v2.81c2.83-.18,5.8-1.78,9.33-4.79,.46,1.06,.81,2.13,1.35,3.08,3.16,5.64,8.02,8.8,14.43,9.38,1.6,.14,2.22,.78,2.75,2.11,.99,2.47,2.08,4.92,3.3,7.28,.34,.65,1.42,1.46,1.98,1.34,1.34-.3,1.06-1.43,.6-2.44-1.43-3.15-2.88-6.29-4.22-9.48-.54-1.29-1.37-1.61-2.68-1.63-9.98-.18-16.66-7.83-15.46-18.06,4.42,0,8.74-.03,13.05,0,5.26,.04,10.52,.16,15.79,.17,1.06,0,1.66,.19,2.14,1.23,2.4,5.16,4.92,10.27,7.36,15.41,.27,.57,.44,1.23,.47,1.85,1.38,24.74-18.43,44.55-43.13,43.14-10.93-.63-21.01-6.16-27.9-14.35h-7.25c9.55,14.41,26.66,22.26,45.44,19.57,18.42-2.64,34.72-18.08,37.54-36.5,1.15-7.5,.8-15.24,.93-22.88Zm-13.76-71.58c2.63,2.51,3.33,5.67,2.33,9.13-1.04,3.59-2.23,7.13-3.52,11.24-2.54-7.73-4.93-15.01-7.4-22.53,3.06-1.02,6.07-.24,8.6,2.17Zm8.27,72.5c-.03,.54-.12,1.09-.27,2.32-.86-1.53-1.44-2.47-1.93-3.45-1.44-2.89-2.75-5.86-4.34-8.67-.42-.74-1.67-1.44-2.54-1.44-7.43-.07-14.86,.03-22.29,.07-2.5,.01-5,0-7.48,0-.52-4.51,.13-8.54,1.52-12.55,2.07-5.99,3.87-12.07,5.99-18.76,2.54,8.01,4.9,15.48,7.33,23.16-.96,.05-1.72-.08-2.33,.16-.56,.22-.97,.83-1.45,1.27,.45,.45,.88,1.24,1.36,1.28,2.37,.17,4.77,.22,7.14,.1,.56-.03,1.08-.85,1.61-1.31-.53-.47-1.1-1.36-1.58-1.32-1.7,.16-2.03-.87-2.41-2.11-4.42-14.09-8.88-28.18-13.32-42.27-1.73-5.49,.57-10.44,5.6-12.05,5.02-1.6,9.78,1.12,11.52,6.63,5.04,15.94,10.06,31.88,15.08,47.83,2.16,6.87,3.11,13.91,2.78,21.12Z" fill="#666"/>
        </g>
        <g>
          <path d="M105.09,66.5c-.3,.04-.56,.09-.78,.09l-3.91,.22c-.13,.17-.22,.3-.22,.43-.13,.22-.13,1.13-.09,2.82,.22,6.86,.3,11.64,.3,14.37v1.52c0,.22-.04,.35-.09,.48l.26,1.39c-.04,.87-.04,1.56,0,2.08,.04,.7,.04,1.52,.04,2.48-.04,.26-.04,.43-.04,.48l.13,1.35,.09,2.6c.04,.35,.13,.61,.17,.78,.09,.65-.83,.96-2.69,.96-1.04,0-1.65-.09-1.87-.26-.13-.48-.17-.83-.09-1.13v-3.65c0-.13,.26-.3,.26-.35-.22-.09-.3-1-.3-2.78,0-.57-.04-1.35-.13-2.39-.09-1.08-.13-1.87-.13-2.43l.17-1c-.13-1.65-.17-2.91-.17-3.82,0-.78,.09-1.17,.3-1.17v-.13c-.22-.17-.35-.35-.39-.48l.09-.83c-.13-2.3-.22-4.04-.22-5.21v-2.82c-.04-.65-.13-1.09-.17-1.3v-1.78c-.13-.17-1.08-.3-2.87-.39-1.17-.04-1.82-.13-2.04-.22-.17-.09-.26-.39-.26-.96s.04-.91,.17-1.04c.52-.13,1-.17,1.48-.17,1.08-.04,1.74-.04,1.87-.09,.65,0,1.95,.09,2.61,.09h1c.65-.04,1.13-.04,1.48-.04h2.61c.17,0,.87,.13,.91,.13,.17-.13,.65-.17,1.43-.13,.61,.04,.96,.09,1.08,.13h.09c.04,1.35,.04,2.08-.09,2.17Zm-5.69,9.6h-.26v.13c.17-.04,.26-.09,.26-.13Z" fill="#666"/>
          <path d="M121.89,94.64v3.69c-.04,.22-.17,.48-.39,.69v.04c-.26,0-.7,0-1.35,.04-.65,.04-1.22,.04-1.65,0-.57-.04-.96-.09-1.09-.22-.22-.48-.3-.91-.3-1.26,0-.17,.04-.35,.09-.48-.04-1.52-.09-2.13-.09-1.87,0-.39,.04-.69,.09-.91v-2.04c-.22-.87-.35-1.74-.35-2.56v-2.34c0-.39,0-.7-.04-.91,.04-.39,.04-.74,.04-.95,0-.48-.13-1.56-.13-2.04,.04-.56,.09-1.13,.09-1.78,0-.04-.04-.48-.17-1.3-.13-1.39-.69-2.13-1.65-2.17-1.56-.09-2.43,.43-2.65,1.52v5.78c.13,3.65,.17,6.95,.22,9.94,.13,2.48,.17,3.65,.17,3.43-.57,.13-1.39,.17-2.43,.17-1.17,0-1.95-.17-2.34-.56-.3-.26-.43-.74-.3-1.39,.04-.56,.13-1.17,.22-1.78,0-.65,0-1.91-.04-3.73v-1.56c0-.65-.17-2.26-.17-2.91,0-8.12-.04-13.07-.09-14.81-.09-3.43-.13-4.95-.13-4.47,0,.13,0-.09,.04-.74v-.74l-.04-1.91,.43-.35c2.52,.09,3.86,.26,4.08,.48v2.87c0,.74,.04,1.74,.09,3.08v2.48c0,.69-.17,2.3-.17,2.87l1.87-.17c.83-.09,1.82-.09,2.91,0,1.26,.09,2.08,.22,2.52,.39,1.09,.43,1.78,1.13,2.17,2.13,.13,1.34,.26,2.95,.3,4.73,0-.22-.04,.17-.09,1.08-.04,.57-.04,.91,0,1.13,.22,1.39,.3,2.91,.17,4.6,0,.39,.04,.78,.09,1.09l.13,2.43c0-.13,0,.3-.04,1.3Zm-4.17-2.65c-.13-.04-.26-.04-.39-.04,.13,.13,.22,.22,.3,.22,.04-.09,.09-.13,.09-.17Zm2.04-3.73l-.3-.13,.13,.3h.17v-.17Z" fill="#666"/>
          <path d="M137.17,97.07c-.78,1.17-2.61,1.74-5.43,1.74-3.86,0-6.08-.87-6.69-2.65-.17-.39-.3-1.22-.39-2.43-.04-.56-.13-.95-.17-1.17-.22-2.39-.3-5.47-.3-9.25h.3v-.04c-.22-.13-.3-1.26-.3-3.43,.13,0,.22,0,.22-.04-.22-.09-.26-.39-.13-.91,.35-1.56,1.26-2.48,2.74-2.74l2.17-.39c2.56,0,4.21,.09,4.99,.3,2.04,.52,3.08,1.82,3.13,3.87,0,.39-.04,1.13-.09,2.17,0,.3,.04,.52,.17,.74-.04,.3-.09,.57-.09,.74,.17,.91,.26,1.35,.26,1.39,.04,.56,.04,1.08,0,1.56,0,.78-.09,1.22-.26,1.3-.13,.09-.91,.13-2.34,.09-2.13-.04-3.74-.04-4.78,0-1.04,.04-1.61,.22-1.69,.52,0-.04,.04,.39,.09,1.35,.13,2.95,.22,4.47,.22,4.6v.83c0,.78,1.13,1.17,3.43,1.17,.95-.3,1.48-.52,1.56-.65,.3-.3,.43-1.3,.39-2.91-.09-1.65-.17-2.26-.22-1.87,.04-.52,.69-.74,1.95-.69,1,.04,1.56,.09,1.69,.09,.13,.48,.17,.83,.17,1.09v1.78c0,1.95-.22,3.26-.61,3.87Zm-8.99-16.28c0,.61-.04,1.22-.09,1.82-.13,1.65,0,2.56,.3,2.69,.13,.09,.78,.13,1.95,.17,1.08,.04,1.82,.04,2.13,0,.48-.04,.65-.17,.61-.43l-.09-.65c.13-1,.13-2.08,.09-3.21-.04-1.08-.17-1.78-.3-2-.39-.61-1.26-.91-2.6-.91-.78,.22-1.26,.48-1.39,.69-.3,.48-.52,1.08-.61,1.82Z" fill="#666"/>
        </g>
        <g id="Layer6_0_FILL" data-name="Layer6 0 FILL">
          <path d="M133.62,178.21c0-.13-.03-.33-.08-.6-.04-.27-.1-.6-.18-.99-.48-1.1-1.93-1.78-4.37-2.05-.25-.01-.49-.03-.72-.04-.23-.01-.43-.01-.62,0-.37,.03-.78,.08-1.21,.16-.45,.08-.95,.19-1.49,.32-.12,.01-.34,.08-.66,.2-.32,.11-.58,.17-.79,.18l-2.92-.85c-.62-.05-1.27-.06-1.93-.02-.66,.04-1.33,.13-2.01,.28-.24,.04-.46,.09-.68,.14-.23,.04-.44,.09-.64,.16-.12,0-.21-.02-.28-.06-.07-.04-.14-.11-.22-.2-.04-.19-.11-.3-.2-.34-.08-.04-.39-.07-.93-.08-.05,0-.11,0-.18,.02-.07,.01-.15,.03-.26,.06h-2.03l-.16,.4v1.19c-.01,.07-.03,.11-.06,.12-.01,.01-.02,0-.02-.02l.54,14.71c-.03,.17-.05,.36-.06,.58-.01,.21-.02,.43-.02,.66,.03,.3,.05,.74,.08,1.29,.03,.54,.05,1.21,.08,2.01-.03,.09-.05,.19-.06,.3-.01,.12-.02,.24-.02,.36,0,.11,0,.23,.02,.38,.01,.15,.03,.29,.06,.44,.13,.17,.52,.26,1.15,.26,.82,.01,1.46,.01,1.93,0,.48,0,.76-.01,.85-.04,.24-.08,.39-.21,.46-.4,.08-.2,.07-.48-.02-.83l-.2-8.51c0-.13-.01-.54-.04-1.21-.03-.66-.08-1.58-.16-2.76-.07-2.44-.1-3.76-.1-3.97,0-.38,.02-.7,.06-.95,.05-.27,.13-.46,.24-.6,.28-.36,.62-.62,1.01-.78,.41-.15,.87-.19,1.39-.12,.36,.04,.66,.12,.89,.24,.24,.11,.42,.26,.54,.46,.08,.09,.15,.27,.2,.54,.05,.25,.09,.58,.12,.99,.09,.79,.16,1.72,.2,2.78,.04,1.07,.07,2.26,.1,3.56l.26,7.79c0,.38,0,.88,.02,1.49,.03,.6,.05,1.31,.06,2.15,.12,.11,.33,.18,.64,.22,.32,.04,.72,.06,1.19,.06,.32,0,.66,0,1.01-.02,.37-.01,.78-.03,1.23-.06l.78-.2c.05-.03,.09-.13,.1-.3,.01-.19,0-.44-.02-.76-.03-1.03-.07-2.47-.12-4.31-.07-1.85-.16-4.11-.28-6.78-.05-.42-.11-1-.16-1.73-.04-.72-.09-1.6-.14-2.64-.03-.6-.03-1.09-.02-1.49,0-.37,.03-.64,.08-.79,.12-.42,.38-.74,.79-.95,.4-.23,.93-.34,1.61-.36,.48,0,.87,.08,1.19,.24,.3,.17,.52,.43,.64,.78l.18,1.77c.15,1.43,.26,3.01,.36,4.75,.08,1.72,.12,3.59,.12,5.6,0,.26,.02,.62,.06,1.05,.04,.46,.06,.83,.06,1.09,0,.2,0,.6,.02,1.21,.03,.64,.05,1.48,.06,2.52-.01,.12-.02,.27-.02,.44,.01,.16,.05,.34,.12,.54,.07,.01,.26,.04,.58,.08,.32,.03,.76,.05,1.33,.08,.78,.05,1.34,.07,1.69,.06,.33-.03,.54-.07,.64-.14,.09-.05,.15-.13,.18-.24,0-.99,0-1.89-.02-2.7-.01-.81-.04-1.53-.08-2.17-.07-.87-.13-2.11-.2-3.72-.07-1.59-.16-3.54-.28-5.86l-.28-4.03m-11.49-.42s-.06-.04-.1-.08l.22,.12s-.08-.01-.12-.04m-10.18,9.06s-.05,.03-.12,.06v-.12h.16s-.01,.03-.04,.06m11.07,5.78l.14,.2s-.03-.02-.06-.04c-.03-.03-.05-.08-.08-.16m12.86-14.51c0,1.06,.02,1.87,.06,2.44,.05,.56,.13,.87,.24,.93v.06h-.3c0,1.86,.02,3.54,.06,5.05,.05,1.52,.13,2.88,.24,4.05,.03,.12,.05,.27,.08,.46,.04,.19,.07,.42,.1,.7,.04,.61,.09,1.11,.14,1.51,.08,.41,.16,.71,.24,.89,.29,.89,.99,1.54,2.09,1.97,1.09,.44,2.59,.66,4.51,.66,1.39,0,2.53-.14,3.42-.42,.91-.29,1.56-.72,1.93-1.29,.2-.3,.35-.78,.46-1.41s.16-1.44,.16-2.4v-1.75c0-.13-.02-.28-.06-.46-.03-.19-.07-.39-.12-.62-.07-.01-.24-.03-.52-.04-.28-.01-.66-.03-1.15-.06-.62-.01-1.1,.03-1.43,.14-.27,.1-.43,.25-.48,.44,.01-.02,.03,.07,.06,.28,.04,.3,.09,.86,.14,1.67,.03,.79,0,1.44-.08,1.93-.07,.49-.17,.8-.3,.93-.11,.15-.62,.36-1.55,.66-1.15,0-2.01-.1-2.56-.3-.56-.17-.83-.46-.83-.85v-.81c0-.07-.02-.48-.06-1.23s-.09-1.85-.16-3.3c-.01-.48-.03-.83-.04-1.05l-.06-.3c.09-.29,.66-.46,1.69-.5,.52-.03,1.17-.04,1.95-.04,.79,0,1.71,.01,2.74,.04,.72,.01,1.27,.01,1.67,0,.37-.01,.59-.04,.66-.08,.17-.09,.26-.52,.26-1.29,.04-.46,.04-.97,0-1.53,0-.03-.02-.15-.06-.38s-.11-.56-.2-1.01c0-.08,0-.19,.02-.32,.01-.12,.04-.26,.08-.42-.08-.09-.13-.2-.14-.32-.03-.12-.04-.25-.04-.4,.01-.52,.03-.96,.06-1.33,.01-.34,.02-.62,.02-.81-.03-1.02-.3-1.84-.81-2.46-.5-.64-1.26-1.09-2.27-1.35-.38-.11-.99-.19-1.81-.24-.82-.04-1.86-.06-3.12-.06l-2.13,.4c-1.46,.25-2.36,1.15-2.7,2.7-.12,.49-.08,.79,.12,.89,0,.01-.02,.02-.06,.02-.03,.01-.07,.02-.14,.02m3.82,4.63c-.05-.45-.04-1.08,.04-1.89,.01-.3,.03-.6,.06-.89,.01-.32,.02-.62,.02-.91,.04-.36,.11-.69,.2-.99,.12-.29,.25-.56,.4-.79,.05-.12,.2-.24,.44-.36,.23-.12,.54-.23,.93-.34,1.33,0,2.18,.3,2.56,.89,.07,.12,.13,.34,.2,.68,.04,.33,.07,.76,.1,1.29,.03,.56,.03,1.1,.02,1.63,0,.53-.03,1.05-.1,1.55l.08,.66c.03,.12,0,.22-.1,.3-.11,.07-.27,.11-.5,.12-.15,.03-.4,.04-.78,.04-.34,0-.79-.01-1.33-.04-.57-.01-1.01-.03-1.33-.06s-.52-.06-.6-.1c-.15-.08-.25-.34-.32-.78m-32.32-7c-.21-.17-.44-.31-.68-.42,.01,0,.04,0,.08-.02,.03-.01,.05-.03,.08-.06l-1.31-.5c-.16-.07-.34-.13-.56-.18-.23-.05-.5-.11-.83-.18-.19-.01-.47-.04-.85-.08-.38-.01-.87-.02-1.45-.02h-.76c-.76,.12-1.34,.21-1.77,.28-.4,.08-.64,.14-.72,.18-.4,.09-.74,.21-1.03,.36-.3,.16-.58,.34-.81,.54-.12,.08-.22,.19-.3,.32-.08,.12-.15,.25-.22,.4-.09,.15-.13,.28-.12,.4,0,.11,.05,.19,.16,.24l-.3,.62s-.03,.19-.06,.44c-.01,.26-.02,.63-.02,1.09v.68c-.01,.32-.03,.74-.04,1.25,0,.17,.04,.3,.12,.38v.14s-.03,.05-.06,.06c-.01,.03-.02,.06-.02,.1,0,.2,.16,.33,.48,.4,.32,.08,.8,.11,1.45,.08,.54-.04,.92-.08,1.13-.12,.24-.04,.39-.13,.46-.28,.05-.13,.09-.36,.12-.7l.54-3.62c.12-.19,.27-.34,.46-.48,.2-.12,.45-.2,.76-.24,.28-.05,.54-.07,.79-.04,.25,.01,.49,.05,.72,.12,.45,.16,.8,.34,1.05,.54,.27,.19,.42,.38,.48,.58,0,.11,0,.24,.02,.4,0,.13,0,.3,.02,.5,.07,.32,.07,.68,.02,1.07s-.16,.84-.32,1.33c-.03,.17-.07,.34-.12,.5-.05,.19-.11,.36-.16,.54l-1.39,1.23-2.86,1.47-.7,.58-1.23,.78-.56,.46,.1,.2c-.42,0-.74,.33-.93,.99-.21,.66-.33,1.64-.36,2.94v2.15c.03,.53,.13,1.01,.32,1.43,.2,.44,.49,.83,.87,1.17,.5,.42,1.09,.74,1.77,.93,.69,.17,1.47,.23,2.35,.18l2.44-.32c.36-.04,.63-.07,.81-.1l.3-.06,.78,.16c1.36,.36,2.52,.45,3.46,.28,.24-.04,.43-.12,.58-.24,.12-.09,.2-.22,.24-.38,0-.07-.03-.15-.08-.24-.04-.11-.09-.23-.14-.36l-.32-.5c-.12-.85-.2-1.49-.24-1.93-.07-.45-.08-.7-.04-.74v-.42c.01-.17,.03-.38,.04-.62-.05-.23-.09-.44-.12-.64-.01-.2-.02-.4-.02-.6v-1.53c-.03-.08-.05-.19-.08-.32-.04-.13-.07-.3-.08-.5,.01-.15,.03-.31,.06-.5,.01-.2,.02-.4,.02-.6l-.2-5.05c.01-.15,.02-.32,.02-.54,.01-.23,.02-.5,.02-.83,0-.03,0-.17-.02-.42,0-.27,0-.64-.02-1.11,0-.17-.04-.36-.12-.56-.05-.2-.13-.4-.24-.6,.03-.03,.07-.04,.12-.04h.24c-.2-.33-.36-.6-.48-.79-.09-.21-.15-.35-.18-.42-.17-.23-.36-.43-.56-.62m-7.71,14.47c0-.32,.01-.5,.04-.56,.04-.11,.09-.23,.14-.36,.04-.12,.07-.26,.08-.42,.11-.45,.28-.83,.52-1.15,.25-.3,.58-.55,.99-.74,.81-.37,1.79-.92,2.94-1.65,.16,.08,.28,.46,.38,1.15,.09,.69,.15,1.69,.18,3,0,1.25-.02,2.24-.06,2.98-.05,.76-.13,1.25-.22,1.49-.03,.01-.15,.07-.38,.16-.24,.11-.56,.23-.97,.38h-.89c-.24,0-.42-.01-.56-.04-.5-.03-.93-.15-1.29-.38-.34-.23-.62-.54-.81-.93l-.04-1.67c-.03-.53-.04-.95-.04-1.27m-.3,1.13s-.04,.09-.12,.14v-.14h.12m-20.27-21.29l-.02,.16c-.01,.19-.03,.51-.06,.97v1.69c.03,.15,.05,.28,.06,.4,.01,.11,.02,.21,.02,.3,0,.07-.01,.21-.04,.42-.01,.19-.05,.45-.12,.79l.08,1.09v.95c-.01,.42-.03,.72-.06,.89-.01,.15-.02,.19-.02,.12v1.19c.03,.38,.05,.72,.06,.99,.01,.29,.02,.54,.02,.74v2.96c0,2.61,.04,4.71,.12,6.3v1.71c.03,.13,.07,.29,.12,.48,.07,.2,.15,.42,.24,.68,.09,.93,.36,1.7,.79,2.31,.44,.61,1.05,1.07,1.83,1.37,.48,.2,1.15,.36,2.03,.48,.86,.09,1.92,.14,3.18,.14l3.64-.12c.24,.01,.49,.03,.76,.06,.26,.01,.56,.02,.87,.02h.76c.25-.01,.52-.03,.79-.04,.19-.08,.31-.29,.38-.64,.07-.36,.07-.85,0-1.47-.03-.07-.05-.14-.08-.22-.04-.08-.07-.18-.1-.3,.07-.21,.11-.44,.14-.68,.03-.21,.04-.44,.04-.68s-.01-.48-.04-.72c-.03-.24-.07-.48-.14-.72l.1-5.72-.1-3.06c0-.4,0-.68,.02-.83s.04-.18,.08-.06c-.04-.16-.13-.28-.28-.36-.17-.08-.4-.13-.68-.14-.2-.04-.38-.05-.54-.04-.17,.03-.32,.05-.44,.08-.24,0-.55,0-.93-.02-.38,0-.85,0-1.39-.02-.52-.04-.98-.06-1.39-.06-.38,0-.72,.02-1.01,.06-.13-.04-.3-.06-.5-.06-.21,0-.46,.02-.74,.06v-.12c-.13,0-.23,.12-.28,.36-.07,.24-.1,.58-.1,1.03,0,.32,.01,.58,.04,.78,.03,.17,.07,.28,.12,.34,.07,.11,.25,.17,.56,.2,.29,.03,.7,.03,1.21,.02,.44-.03,.78-.03,1.01,0,.25,.01,.4,.05,.44,.12,.07,.07,.11,.19,.14,.36,.02,.16,.04,.37,.04,.64,0-.11-.02-.07-.04,.12-.01,.21-.03,.6-.04,1.15v1.21c.01,.15,.04,.36,.08,.64,.03,.28,.05,.62,.08,1.03v1.37c0,.11,0,.23-.02,.36-.03,.13-.05,.28-.06,.46v.56c0,.48-.02,.87-.06,1.17-.05,.32-.11,.56-.16,.72-.2,.32-.49,.57-.87,.76-.38,.2-.87,.32-1.45,.36-.91,.07-1.67,.02-2.27-.14-.6-.13-1.03-.36-1.29-.68-.17-.24-.31-.6-.42-1.07-.08-.46-.12-1.05-.12-1.75,0-1.05-.01-1.81-.04-2.29-.01-.48-.03-.66-.04-.54,0-.23,0-.68,.02-1.37,.01-.66,.03-1.57,.06-2.72,.01-.11,.03-.23,.06-.38,.01-.15,.02-.32,.02-.52v-4.33c0-.2-.02-.47-.06-.81-.03-.33-.06-.68-.1-1.03-.03-.34-.04-.62-.04-.81v-.16c0-.23,.01-.61,.04-1.15v-1.37c0-.08,0-.17-.02-.26,0-.11,0-.24-.02-.4v-.7c0-.25,.01-.73,.04-1.43,.04-1.68,.13-2.88,.26-3.6,.03-.2,.07-.43,.14-.7,.08-.26,.19-.58,.32-.93,.19-.32,.54-.54,1.05-.68,.52-.16,1.19-.23,2.01-.2,.64,.01,1.15,.1,1.55,.26,.41,.16,.72,.39,.91,.7,.09,.12,.17,.4,.24,.85,.08,.46,.16,1.08,.24,1.85,.05,.53,.1,1.06,.14,1.59,.03,.54,.05,1.06,.06,1.55,0,.2,0,.48,.02,.85,.03,.36,.05,.79,.06,1.31-.01,.15-.02,.32-.02,.52,.01,.2,.05,.42,.12,.68,.07,.07,.26,.11,.58,.14s.77,.05,1.35,.06c.54,.04,.99,.05,1.33,.02,.36-.01,.62-.03,.78-.06,.05-.01,.11-.04,.16-.08,.05-.04,.1-.09,.14-.16v-.78c-.04-1.56-.07-2.8-.1-3.7-.04-.89-.07-1.43-.08-1.63-.15-1.21-.39-2.23-.74-3.06-.33-.85-.76-1.48-1.27-1.89l-.6-.48c-.9-.37-1.74-.62-2.52-.74-.77-.12-1.47-.11-2.11,.04-.07,0-.19,0-.36,0-.16,0-.35-.01-.58-.04-.08,.03-.2,.04-.36,.04-.17,.01-.38,.03-.64,.04-1.35,0-2.47,.22-3.36,.66-.91,.41-1.59,1.03-2.03,1.87-.2,.41-.35,1-.46,1.77-.1,.75-.16,1.66-.16,2.74m10.2-5.55s.03-.03,.04-.06h.1s-.01,.05-.04,.06c-.03,.03-.07,.05-.14,.06,0-.01,.01-.03,.04-.06m3.82,7l.18,.1s-.04,.04,0,.12h-.1s-.01-.04-.04-.08c-.01-.04-.03-.09-.04-.14m-12.62-.38s-.07,0-.08-.02c-.01,0-.02-.01-.02-.04,0-.01,0-.04,.02-.08,.01-.03,.04-.05,.08-.08v.22m.46,16.28h-.2v-.24s.06,.04,.1,.08,.07,.09,.1,.16Z" fill="#666"/>
        </g>
        <g>
          <path d="M62.71,144.61c.07,.72,.13,1.25,.13,1.52,.07,.73,.07,1.45,0,2.24-.07,.99-.13,1.65-.13,2.11l.13,2.11c-.2,1.58-.99,2.77-2.24,3.49l-2.51,.79c-1.52,.4-2.7,.59-3.56,.59-2.97,.07-5.08,.07-6.26,.07-5.54,.07-8.57-.07-9.16-.4-.33-.2-.4-1.38-.2-3.56,0-.39-.07-.72-.13-1.05l.13-1.91c-.07-.46-.2-.79-.26-.99,0-.73,.07-1.32,.13-1.71-.07-.26-.13-1.45-.13-3.56,0-.4-.07-1.12-.13-2.24-.07-.99-.13-1.71-.13-2.24,.07-1.12,.13-1.65,.13-1.58v-4.15c0-.33-.07-.73-.2-1.12,0-.33,.2-1.12,.2-1.45l-.46-16.55c0,.2,0,0,0-.46,.07-.59,.13-1.32,.13-2.17v-5.21c0-.99,.2-1.58,.53-1.78,.33-.2,1.45-.26,3.36-.26,1.12-.2,2.44-.26,4.02-.2l3.23,.13c.86-.2,2.37-.2,4.42,0,5.93,.53,8.97,3.49,9.1,8.83,0,1.52-.07,2.57-.13,3.16,.07,.79,.2,1.32,.26,1.65l-.26,1.38c.07,.73,.07,2.44,0,5.21v1.58c-.33,1.19-.73,1.98-1.19,2.37-1.38,1.12-2.44,1.85-3.03,2.31,0,.07,.59,.46,1.85,1.12,1.25,.99,2.04,1.98,2.37,3.03v8.9Zm-17.67,10.02h.13l-.33-.26,.2,.26Zm.4,1.52l-.13-.07c0,.07-.07,.07-.13,.07v.07c.07-.07,.2-.07,.26-.07Zm.33-27.23c0,.99,.53,1.45,1.65,1.45,.27-.07,1.12-.07,2.64-.07,.92-.26,1.65-.4,2.24-.46,1.39-.33,2.24-.92,2.7-1.78,.2-.59,.27-.99,.27-1.25-.07,.59-.13-.66-.13-3.69v-3.82c0-.46-.07-1.19-.13-2.18v-4.02c0-1.45,.07-1.98,.13-1.65-.13-1.12-.79-1.85-1.91-2.18l-3.16-.39c-2.17-.13-3.56-.2-4.15-.2v.07c-.33,.13-.46,1.19-.46,3.1v.92c.13,.79,.13,2.17,.07,4.15,.07,.26,.13,.53,.13,.73v1.05c0,.73,.07,1.32,.13,1.71v8.5Zm10.35,20.77c-.27-5.01-.46-8.9-.53-11.6,0-.79,.07-1.45,.13-1.98-.46-1.65-1.58-2.57-3.3-2.77l-5.93-.4c-.46,.33-.66,1.12-.59,2.31,.13,1.38,.2,2.24,.2,2.5v3.63c0,1.52,.07,3.36,.13,5.67,.07,2.04,.13,3.36,.13,4.09,0,.2-.07,.53-.13,.99v.99c.07,.92,.53,1.45,1.32,1.52-.33-.07,.26-.07,1.65-.13l3.23-.07,1.19-.2c1.19-.46,1.98-1.19,2.37-2.31,.13-.33,.2-1.12,.13-2.24Zm.92,3.76c-.07-.2-.26-.33-.46-.39-.07,.13-.13,.2-.13,.26s.07,.13,.13,.13v.13h.33v-.13h.13Z" fill="#666"/>
          <path d="M71.8,156.94c-.46,.33-2.04,.4-4.61,.26-1.45-.07-2.17-.4-2.24-.99,.07,.46,.07-.26,.07-2.11v-1.45c0-.66,.07-1.71,.13-3.23,.07-1.38,.13-2.44,.13-3.16-.07-2.37-.07-4.61,0-6.72,0-.73,.07-1.19,.13-1.38-.07-1.38-.13-2.17-.13-2.37v-1.71c.07-1.52,.13-2.11,.13-1.71v-1.38c.07-.53,.13-.86,.13-.92,.07-2.7,0-4.61-.13-5.67v-.79c.07-.33,.13-.53,.13-.59l-.13-5.6c0-1.25,.07-2.17,.13-2.83l-.13-1.85c.07-.46,.13-.79,.13-.92-.07-.46-.13-.86-.13-1.05,.07-.99,.13-1.65,.13-1.85,0-1.65-.07-2.64-.13-3.03,.07-.92,.2-1.45,.33-1.58,1.39-.2,2.57-.26,3.56-.26,.66,.13,.99,.2,1.05,.13h1.12c.79-.07,1.19,.13,1.25,.66l-.2,11.67c0,.86-.13,1.25-.46,1.25,.2,.13,.27,1.12,.2,3.03,0,.13,.07,.4,.13,.73v.66c0,.86-.26,3.1-.26,3.96l-.07,11.73c0-.2,0,.26,.07,1.45v1.45c0,3.36,0,5.8-.07,7.45l-.39,.46h-.13c0,.07,.07,.07,.13,.07v.07c.33,.46,.46,.79,.46,1.05v1.71c0,3.49-.13,5.27-.33,5.41Zm-4.61-44.56h-.46c0,.07-.07,.07-.13,.07,0,.13,.07,.2,.2,.2v.07h.27c0-.13,.07-.26,.13-.33Zm1.91-.79l-1.32,.4h-.26v.07h.4c.79,.13,1.19,0,1.19-.46Zm.46-2.17l-.27-.2c.07,.13,.2,.2,.27,.2Z" fill="#666"/>
          <path d="M96.65,155.82c0,.26-.26,.4-.79,.46-1.65,.2-2.9,.13-3.69-.13-.2-.07-1.12-1.05-1.91-1.05-3.43,.86-5.01,1.19-5.21,1.19-.99,.2-2.17,.2-3.56,0-2.31-.33-3.89-1.12-4.88-2.31-.33-.59-.53-1.19-.72-1.78l-.59-1.78-.46-11.8c-.07-1.12-.07-2.18,.13-3.23-.2-2.31-.33-3.43-.33-3.49,0,.33,0-.66,.07-3.03v-3.69c0-1.25,0-2.24-.07-2.9,.2-.26,.4-.46,.59-.53,1.39,0,2.84,0,4.35,.07,.99,.07,1.45,.59,1.45,1.52,0,.72-.07,2.04-.13,4.09-.2,1.65-.2,3.03-.13,4.02,.07,.86,.2,1.45,.26,1.78v2.97c0-.13,.07,.13,.13,.86,0,.86,0,1.91,.07,3.16,.07,2.64,.2,4.48,.26,5.47l.33,5.34c.2,.59,.33,.99,.53,1.19,.59,.53,1.85,.79,3.63,.79,1.45-.33,2.31-.79,2.51-1.38,.2-.2,.2-.99,.13-2.37,0,.2,.07-.33,.13-1.58v-1.58c0-4.28-.13-9.89-.4-16.68l-.2-6.79c0-.4,.07-.66,.13-.73v-.13c.4,.13,.66,.2,.79,.2,.07-.13,.2-.2,.4-.2,3.56,.13,5.41,.26,5.54,.39-.07-.07-.13,.33-.13,1.32v3.69c0,.26,0,.59-.07,1.05v.73l.33,10.15c.07,3.95,.2,6.72,.26,8.24,0,.59,0,1.65,.07,3.03,.07,1.38,.13,2.44,.13,3.16,.07,.33,.26,.73,.46,1.19,.4,.86,.59,1.19,.59,1.12Zm-17.54-31.25c-.2-.07-.26-.2-.33-.26,.07,.2,.13,.26,.33,.26Z" fill="#666"/>
          <path d="M113.07,121.8c.33,.13,.4,.99,.33,2.51,0,.53-.66,.86-1.91,.92-1.25,.07-1.91,.26-2.11,.53v17.34c0,.86,.26,3.1,.26,3.96-.26,.79-.4,1.05-.4,.86,0,.07,.07,.07,.13,.07,.2,2.51,.4,4.94,.46,7.25,.07,.86-.2,1.32-.92,1.38-.4,.07-1.25,.07-2.51,.07-1.39,0-2.17-.07-2.37-.13-.46-.4-.66-.73-.59-1.05v-4.68l-.26-9.1c-.13-6.07-.2-9.56-.2-10.42v-5.34c-.2-.33-.92-.53-2.18-.59-1.58-.07-2.51-.33-2.7-.86,0,.07,.07-.66,.13-2.04,0-.59,.33-.92,1.05-.99h1.91c.79-.07,1.25-.2,1.39-.46-.07-.26-.07-.59-.07-.99l-.26-6.99c0-.86,.07-1.58,.13-2.24-.07-.4-.13-.66-.13-.73,.2-1.85,.53-3.16,.92-4.02,0-.2,1.12-1.25,1.12-1.32l.59,.2v-.13c.46-.33,.92-.53,1.38-.59v-.13h.13c.99,.07,1.45,.2,1.52,.2v-.07h.13v-.13h2.51c.59-.07,.92-.07,1.05-.13,.99,0,1.52,.13,1.65,.46,.07,.07,.13,.46,.13,1.19,0,.79-.07,1.25-.13,1.45-.86,.53-1.58,.86-2.24,.99-.86,.33-1.52,.79-1.91,1.38-.13,.92-.13,1.65-.07,2.11-.2,3.16-.26,5.08-.26,5.74,.07,.4,.13,.66,.13,.79-.2,1.98-.2,3.03,0,3.23,.72,.2,1.32,.26,1.91,.26,1.25,.07,1.98,.13,2.24,.26Zm-2.77-16.88v.07c.2-.07,.27-.13,.27-.2h-.33l.07,.13Z" fill="#666"/>
          <path d="M129.74,121.8c.33,.13,.4,.99,.33,2.51,0,.53-.66,.86-1.91,.92-1.25,.07-1.91,.26-2.11,.53v17.34c0,.86,.26,3.1,.26,3.96-.26,.79-.4,1.05-.4,.86,0,.07,.07,.07,.13,.07,.2,2.51,.4,4.94,.46,7.25,.07,.86-.2,1.32-.92,1.38-.4,.07-1.25,.07-2.51,.07-1.39,0-2.17-.07-2.37-.13-.46-.4-.66-.73-.59-1.05v-4.68l-.26-9.1c-.13-6.07-.2-9.56-.2-10.42v-5.34c-.2-.33-.92-.53-2.18-.59-1.58-.07-2.51-.33-2.7-.86,0,.07,.07-.66,.13-2.04,0-.59,.33-.92,1.05-.99h1.91c.79-.07,1.25-.2,1.39-.46-.07-.26-.07-.59-.07-.99l-.26-6.99c0-.86,.07-1.58,.13-2.24-.07-.4-.13-.66-.13-.73,.2-1.85,.53-3.16,.92-4.02,0-.2,1.12-1.25,1.12-1.32l.59,.2v-.13c.46-.33,.92-.53,1.38-.59v-.13h.13c.99,.07,1.45,.2,1.52,.2v-.07h.13v-.13h2.51c.59-.07,.92-.07,1.05-.13,.99,0,1.52,.13,1.65,.46,.07,.07,.13,.46,.13,1.19,0,.79-.07,1.25-.13,1.45-.86,.53-1.58,.86-2.24,.99-.86,.33-1.52,.79-1.91,1.38-.13,.92-.13,1.65-.07,2.11-.2,3.16-.26,5.08-.26,5.74,.07,.4,.13,.66,.13,.79-.2,1.98-.2,3.03,0,3.23,.72,.2,1.32,.26,1.91,.26,1.25,.07,1.98,.13,2.24,.26Zm-2.77-16.88v.07c.2-.07,.27-.13,.27-.2h-.33l.07,.13Z" fill="#666"/>
          <path d="M138.51,130.83c0,3.23,.07,5.74,.13,7.52,0,.59-.07,1.38-.13,2.37-.07,1.12-.13,1.91-.13,2.37v1.78c0,.26,.07,.59,.13,1.05v.73c0,2.18-.07,3.16-.13,2.97l-.13,1.19v3.76c0,1.52,0,2.31-.07,2.37-.26,.26-.72,.4-1.45,.46-1.91,.07-3.3,0-4.29-.2-.46-.13-.72-.33-.72-.66l.4-6c-.07-.59-.13-.92-.13-1.12,0-.59,.07-2.11,.26-4.55,.07-1.85,.07-3.36,.07-4.48,0-.53-.2-1.65-.2-2.18v-2.7c0-.53,.07-1.12,.13-1.71v-.92l-.13-4.68v-5.8l.2-.46c.99-.07,1.58-.07,1.78-.07,.4,.07,1.05,.07,1.91,.07,.4-.07,.73-.13,1.05-.13,.66,0,1.12,.2,1.45,.66,.07,.26,.13,.92,.13,1.98l-.13,3.43c-.07,1.12-.07,2.11,0,2.97Zm-.33-18.06c.4,.2,.59,.79,.59,1.85,0,.99-.26,1.58-.86,1.78-.2,.07-.99,.13-2.24,.07-.59,.07-1.32,0-2.24-.2-.33-.13-.46-.66-.4-1.58,.07-.79,.13-1.19,.13-1.19,.2-.46,.53-.72,1.05-.92,1.12,0,2.44,.07,3.95,.2Zm-2.64,14.77h-.26v.2c.2-.07,.26-.13,.26-.2Z" fill="#666"/>
          <path d="M161.71,156.28c-.2,.4-.53,.66-1.05,.73-2.7,.26-4.61,.2-5.6-.2-.4-.2-.66-.66-.72-1.45,0,.2,.07-.59,.13-2.5v-1.85c-.07-5.87-.07-11.01,.13-15.43,.07-1.52,.07-2.57,0-3.16-.2-1.78-.26-2.57-.26-2.37v-2.7c-.07-1.12-.79-1.78-2.11-1.98-1.85-.26-3.23,.26-4.15,1.52-.26,.99-.4,1.85-.4,2.51-.07,2.31-.07,3.63-.07,3.96,0,.66,0,1.65,.07,2.97,.07,1.25,.13,2.24,.13,2.9v14.9l.13,1.32c.07,.66,0,1.05-.26,1.25-.46,.4-2.24,.53-5.4,.4-.73-.07-1.19-.2-1.32-.4,.07,.07,.13-.53,.13-1.85v-5.8l-.13-5.8c-.07-3.69-.13-5.93-.13-6.66v-1.58c0-.73,.07-1.19,.13-1.52-.07-.73-.2-1.32-.26-1.65v-10.22c.2-.07,.33-.07,.4-.07l5.34,.2c.59,.26,1.05,.46,1.25,.66,.73,0,2.97-.46,4.09-.46,.86-.2,1.91-.26,3.17-.13,3.03,.33,4.88,1.12,5.6,2.37,.46,1.91,.73,3.56,.73,4.88,.07,3.1,.07,5.21,.07,6.46,0-.33,.07,.13,.13,1.38v6.53c.07,1.05,.13,1.91,.13,2.57v4.28c0-.33-.07,.13-.13,1.25v1.25c.2,1.65,.27,2.44,.27,2.31v1.19Zm-17.34-6.86l-.27-.26c.07,.13,.2,.2,.27,.26Z" fill="#666"/>
          <path d="M190.26,168.61c.07,3.43-1.91,5.34-6.07,5.8-.33,.07-1.58,.07-3.76,.13-1.85,.07-2.97,.07-3.36,.07h-5.21c-4.28-.07-6.39-.92-6.39-2.57-.59-.2-.86-.53-.86-1.12-.07-.79,.26-1.58,.86-2.44,.07-.07,.59-.46,1.52-1.05,.73-.46,1.05-.86,.86-1.05l-1.91-1.45c-1.52-1.38-1.98-3.16-1.38-5.34,.07-.39,.46-.99,1.25-1.78l1.45-1.45c-.59-.73-1.12-1.32-1.65-1.71-.46-.59-.79-1.32-.99-2.17l.13-1.12c-.13-2.44-.2-4.15-.2-5.08l-.53-11.14c-.07-3.16,.13-6.33,.59-9.49,.79-2.31,2.64-3.43,5.6-3.43,.33-.13,.99-.2,2.04-.2l1.05-.13h1.65c1.39,0,2.17,0,2.37,.07,1.39,.33,2.51,.66,3.3,.92,.07,0,1.91-.39,5.47-1.19,2.57,0,2.64,.2,2.64,1.78,0,.86-.13,1.38-.39,1.58-.59,.33-1.19,.59-1.65,.66-.99,.4-1.71,.99-2.11,1.78-.2,.33-.27,.99-.27,1.98v3.3c0,1.58,.07,3.95,.13,7.19,.07,3.16,.13,5.54,.13,7.12,0,4.09-.46,6.72-1.32,7.91-.59,.92-3.17,1.65-7.58,2.24-3.83,.46-5.67,1.52-5.6,3.16,.07,1.25,.92,2.11,2.51,2.7,.99,.33,2.51,.53,4.42,.53,5.93,0,9.69,.59,11.34,1.71l1.12,1.12c.53,.86,.79,1.58,.79,2.18Zm-22.55-22.28c.07,.13,.2,.2,.26,.26l-.26-.26Zm.4,18.52l-.27-.2c0,.07-.07,.07-.13,.07,.07,.07,.13,.07,.13,.13h.27Zm.33-17.8l-.46-.4c.2,.26,.33,.4,.33,.4h.13Zm10.09,20.17c-1.58,.2-2.77,.13-5.34,.33-1.39,.33-2.31,.66-2.84,.86h-.13c0,.59-.13,1.12-.33,1.45,.2,1.38,2.44,2.04,6.59,2.04,.99-.07,1.39-.4,3.96-.4l1.52-.46c.59-.33,.92-.79,1.05-1.52,.27-1.52-1.25-2.31-4.48-2.31Zm-8.31-39.62v2.37c0,2.11,.07,4.48,.26,7.05v2.97c0,1.19,.13,3.76,.33,7.71v2.83c.07,1.25,.59,2.04,1.52,2.44,.46,.2,1.38,.26,2.64,.26,1.19-.46,1.91-.73,2.11-.86,.4-.33,.53-1.19,.4-2.44,.07-1.58,.13-2.31,.13-2.17,0-2.51-.07-3.69-.13-3.63l.2-.79v-.07h-.07c-.07-.79-.13-1.32-.13-1.65-.07-.99-.07-2.5,.13-4.48l-.53-7.25c-.07-2.04-.33-3.16-.86-3.49-.53-.33-1.71-.53-3.63-.53-1.39,.46-2.17,1.05-2.37,1.71Zm8.64,22.35v.13c.07-.07,.07-.13,0-.13s-.07,0-.07-.07q0,.07,.07,.07Z" fill="#666"/>
        </g>
      </g>
    </g>
  </g>
</svg>