<?xml version="1.0" encoding="UTF-8"?>
<svg id="Layer_2" data-name="Layer 2" xmlns="http://www.w3.org/2000/svg" width="294" height="269" xmlns:xlink="http://www.w3.org/1999/xlink" viewBox="0 0 294 269">
  <defs>
    <filter id="drop-shadow-1" filterUnits="userSpaceOnUse">
      <feOffset dx="7" dy="7"/>
      <feGaussianBlur result="blur" stdDeviation="9"/>
      <feFlood flood-color="#000" flood-opacity=".5"/>
      <feComposite in2="blur" operator="in"/>
      <feComposite in="SourceGraphic"/>
    </filter>
  </defs>
  <g id="Capa_1" data-name="Capa 1">
    <g>
      <rect x="20" y="20" width="240" height="215" rx="39.51" ry="39.51" fill="#fff" filter="url(#drop-shadow-1)"/>
      <g>
        <path d="M251.61,128.6l-2.43-4.64c-1.77-3.39-3.55-6.79-5.34-10.17-.37-.7-.53-1.33-.53-2.08,0-.79,.01-1.59,.03-2.38,.04-2.36,.07-4.79-.17-7.23-1.22-12.07-6.4-22.15-15.4-29.95-9.7-8.41-21.06-12.16-33.74-11.17-12.23,.96-22.51,6.11-30.54,15.3-6.39,7.32-10.09,15.58-11.08,24.65h5.15c.98-7.82,4.24-14.95,9.78-21.28,7.12-8.15,16.23-12.72,27.09-13.57,11.27-.87,21.37,2.46,29.99,9.94,7.98,6.92,12.58,15.87,13.67,26.6,.22,2.14,.18,4.33,.15,6.64-.01,.82-.02,1.64-.03,2.45,0,1.58,.36,3.04,1.13,4.48,1.79,3.37,3.56,6.76,5.33,10.14l2.43,4.64c.41,.79,.63,1.35,.74,1.87,.25,1.19-.22,1.96-1.4,2.3-.76,.22-1.65,.2-2.68,.19-.47-.01-.94-.02-1.41,0-2.85,.08-4.12,1.37-4.13,4.21,0,1.28-.01,2.55-.03,3.83-.03,3.31-.06,6.73,.05,10.12,.09,2.81-1.43,4.5-2.34,5.25-1.49,1.24-3.41,1.75-5.13,1.37-2.18-.48-4.38-.76-6.51-1.03-.9-.11-1.79-.23-2.68-.36-.81-.12-2.32-.34-3.52,.7-1.2,1.04-1.21,2.58-1.21,3.41,0,1.49,0,2.99,0,4.48,0,1.78,0,3.57,0,5.35,0,.26-.02,.44-.04,.57-.13,0-.32-.02-.58-.06-6.87-1.21-13.75-2.43-20.62-3.65l-1.39,4.95c7.04,1.25,14.08,2.5,21.12,3.74,.53,.09,1.03,.14,1.5,.14,1.33,0,2.44-.37,3.32-1.1,1.19-.99,1.79-2.52,1.81-4.56,.01-1.79,0-3.59,0-5.38,0-1.13,0-2.25,0-3.37,.55,.07,1.1,.14,1.65,.21,2.11,.27,4.11,.53,6.07,.96,3.26,.72,6.8-.2,9.49-2.43,2.77-2.3,4.29-5.71,4.18-9.34-.1-3.29-.07-6.66-.04-9.92,.01-.99,.02-1.98,.02-2.98,.12,0,.23,0,.35,0,1.25,.02,2.67,.04,4.16-.38,3.74-1.07,5.8-4.47,5.01-8.26-.27-1.28-.79-2.38-1.22-3.2Z" fill="#666"/>
        <g>
          <path d="M184.64,121.05c-.99,0-1.98,0-2.98,0-.75,0-1.15-.64-.8-1.31,.57-1.1,1.04-2.23,1.34-3.43,.19-.76,.34-1.53,.31-2.33,0-.22-.06-.35-.3-.42-.26-.07-.51-.2-.77-.31-1.95-.86-3.56-2.13-4.74-3.92-.05-.08-.16-.14-.25-.16-2.99-.82-5.06-2.72-6.44-5.44-.58-1.15-.93-2.37-1.13-3.64-.19-1.22-.26-2.44-.09-3.66,.23-1.64,.79-3.16,1.64-4.57,.54-.89,1.18-1.68,2.07-2.24,.08-.05,.15-.17,.17-.28,.08-.37,.12-.76,.21-1.13,.48-1.93,1.49-3.58,2.8-5.05,1.8-2.01,3.98-3.48,6.49-4.47,2.02-.8,4.11-1.19,6.28-1.07,.11,0,.26-.02,.34-.09,.7-.61,1.5-1.03,2.37-1.32,1.25-.42,2.52-.75,3.85-.83,2.1-.13,4.17-.12,6.23,.37,1.03,.25,2.04,.58,2.85,1.28,.4,.35,.72,.42,1.23,.28,1.63-.43,3.29-.49,4.97-.24,3.01,.45,5.74,1.54,8.04,3.6,1.15,1.03,2.06,2.25,2.69,3.66,.06,.12,.17,.25,.29,.31,1.46,.74,2.76,1.67,3.89,2.85,1.05,1.1,1.89,2.35,2.52,3.73,.7,1.54,1.12,3.16,1.23,4.85,.11,1.87-.23,3.66-.96,5.38-.84,1.99-2.22,3.52-4.05,4.64-1.37,.84-2.87,1.35-4.43,1.68-1.29,.27-2.59,.44-3.9,.47-1.83,.05-3.66,.04-5.49-.2-.08-.01-.19,0-.25,.06-.77,.68-1.65,1.18-2.54,1.68-1.46,.81-3.01,1.37-4.66,1.65-1.15,.2-2.32,.13-3.48,.17-.4,.01-.74,.08-1.05,.34-.2,.17-.43,.28-.65,.42-1.3,.81-2.62,1.6-3.9,2.45-.97,.64-1.83,1.42-2.62,2.28-.96,1.05-1.75,2.21-2.5,3.41-.24,.38-.55,.55-.99,.55-.95-.01-1.9,0-2.84,0h0Zm-.86-1.73c1.05,0,2.09,0,3.14,0,.2,0,.3-.07,.41-.22,.61-.86,1.2-1.73,1.85-2.56,.83-1.06,1.83-1.95,2.9-2.77,1.39-1.06,2.87-1.97,4.39-2.82,.07-.04,.13-.09,.23-.16-2.18-.84-3.59-2.46-4.72-4.41-.31,.66-.69,1.2-1.17,1.67-1.69,1.63-4.51,1.8-6.38,.36-1.46-1.12-2.1-2.61-1.98-4.44,.03-.52,.42-.86,.92-.84,.48,.03,.82,.41,.79,.93-.06,.95,.17,1.81,.82,2.52,.87,.96,1.97,1.28,3.21,.98,1.78-.42,2.85-2.24,2.33-3.99-.32-1.07-.82-2.07-1.5-2.97-.63-.82-1.38-1.51-2.33-1.91-1.84-.78-3.6-.69-5.24,.52-.27,.2-.48,.53-.64,.84-.25,.46-.69,.67-1.15,.48-.44-.18-.63-.66-.44-1.14,.35-.87,.98-1.51,1.77-1.98,2.64-1.54,6.05-1.15,8.3,.92,1.06,.97,1.81,2.15,2.38,3.45,.72,1.65,1.45,3.3,2.49,4.79,1.27,1.83,3.03,2.84,5.22,3.16,1.25,.18,2.45-.07,3.66-.32,1.15-.24,2.26-.59,3.31-1.11,1.16-.57,2.16-1.35,3.04-2.29,.73-.77,1.34-1.63,1.76-2.61,1.09-2.57,.79-5.04-.66-7.36-1.27-2.04-3.17-3.18-5.52-3.6-.76-.13-1.52-.23-2.29-.1-.94,.15-1.59,.72-1.72,1.59-.05,.34,.08,.72,.16,1.06,.1,.38,.02,.75-.26,.97-.28,.23-.69,.28-1,.06-.17-.12-.32-.32-.39-.52-.5-1.44-.31-2.74,.82-3.83,.04-.04,.08-.09,.1-.11-.42-.37-.85-.72-1.24-1.1-.43-.44-.72-.97-.86-1.58-.12-.53,.15-.99,.64-1.1,.48-.11,.92,.19,1.05,.72,.17,.7,.68,1.12,1.24,1.48,.62,.4,1.29,.6,2.04,.6,2.31,0,4.45,.59,6.32,2,2.19,1.66,3.45,3.88,3.83,6.6,.26,1.88-.04,3.67-.9,5.35-.33,.64-.74,1.24-1.12,1.87,.1,.01,.22,.04,.35,.04,1.93,.1,3.86,.14,5.78-.11,1.6-.2,3.16-.56,4.63-1.26,2.16-1.02,3.69-2.62,4.5-4.88,.62-1.76,.79-3.57,.44-5.41-.39-2.03-1.21-3.85-2.52-5.45-1.02-1.25-2.26-2.23-3.67-2.99-.03-.02-.06-.03-.11-.05-.02,.36-.04,.71-.07,1.06-.14,1.31-.61,2.49-1.44,3.52-.32,.4-.83,.47-1.21,.19-.39-.28-.47-.84-.15-1.24,1.51-1.89,1.49-4.57,.04-6.63-.89-1.26-2.04-2.2-3.38-2.95-1.59-.88-3.3-1.39-5.1-1.57-2.38-.23-4.6,.26-6.6,1.61-.29,.19-.56,.41-.84,.62-.43,.33-.98,.3-1.27-.07-.33-.41-.24-.95,.22-1.29,.62-.45,1.25-.88,1.89-1.33-.37-.29-.84-.47-1.31-.62-1.6-.51-3.25-.64-4.92-.61-1.18,.03-2.36,.11-3.5,.42-1.63,.44-2.96,1.39-3.98,2.71-.49,.63-.86,1.35-1.27,2.04-.22,.36-.62,.56-.99,.45-.41-.12-.67-.49-.63-.91,0-.1,.04-.21,.09-.3,.33-.6,.68-1.19,1.02-1.79,.05-.09,.11-.18,.22-.34-.53,.04-1,.05-1.46,.12-2.7,.37-5.1,1.44-7.24,3.1-1.72,1.34-3.12,2.96-3.96,5-.16,.39-.26,.79-.39,1.19-.02,.06-.02,.14-.02,.17,.69-.19,1.36-.43,2.06-.56,1.84-.35,3.62-.1,5.35,.59,.39,.15,.76,.34,1.14,.53,.5,.25,.66,.76,.4,1.21-.25,.44-.75,.55-1.23,.29-1.45-.78-2.99-1.17-4.64-1.03-2.01,.17-3.69,1.06-5.03,2.55-1.16,1.3-1.87,2.83-2.1,4.55-.13,1.01-.01,2.03,.16,3.04,.26,1.5,.79,2.89,1.65,4.14,.89,1.28,2.02,2.27,3.49,2.91-.06-.46-.12-.89-.16-1.33-.08-.9,0-1.79,.16-2.67,.1-.53,.53-.83,1-.75,.5,.09,.78,.5,.68,1.06-.16,1-.22,2-.04,3.01,.23,1.32,.9,2.39,1.84,3.31,1.06,1.04,2.33,1.76,3.72,2.27,.88,.33,1.2,.78,1.23,1.8,.05,1.44-.27,2.82-.73,4.17-.15,.44-.32,.86-.49,1.33,.28,0,.54,0,.79,0Z" fill="#666"/>
          <path d="M189.27,90.03c-.1,.45-.24,.88-.29,1.31-.16,1.35,.54,2.67,1.75,3.33,.16,.09,.33,.18,.51,.24,.43,.13,.88-.1,1.04-.52,.15-.42-.04-.89-.44-1.08-.41-.19-.76-.43-.97-.85-.39-.79-.15-1.5,.3-2.16,.28-.4,.65-.67,1.11-.88,2.33-1.02,3.89-2.72,4.5-5.23,.19-.77,.18-1.56,.02-2.34-.1-.49-.54-.78-1.01-.69-.48,.1-.77,.53-.67,1.05,.11,.58,.1,1.16-.05,1.73-.36,1.4-1.18,2.49-2.36,3.3-1.06,.74-2.25,1.12-3.55,1.06-1.12-.05-2.12-.41-2.89-1.26-.11-.12-.19-.25-.29-.38-.31-.4-.82-.5-1.19-.25-.42,.29-.51,.81-.21,1.25,.9,1.28,2.15,1.97,3.66,2.25,.18,.03,.35,.06,.53,.08,.17,.02,.34,.02,.5,.04Z" fill="#666"/>
          <path d="M200.57,104.34c2.76-.01,5.02-1.69,5.8-4.15,.16-.51-.05-.97-.52-1.13-.47-.16-.93,.06-1.1,.57-.26,.74-.64,1.39-1.22,1.92-1.46,1.34-3.75,1.42-5.28,.18-.99-.81-1.52-1.84-1.6-3.11-.03-.49-.29-.81-.71-.87-.46-.07-.84,.14-.96,.57-.06,.23-.06,.5-.02,.74,.26,1.98,1.24,3.51,2.97,4.52,.88,.52,1.85,.74,2.65,.76Z" fill="#666"/>
          <path d="M207.53,83.03c-1.88,.03-3.46,.75-4.78,2.06-.21,.21-.41,.46-.5,.73-.12,.37,.1,.74,.45,.91,.37,.18,.74,.1,1.07-.22,.27-.26,.53-.54,.83-.76,1.15-.85,2.43-1.24,3.85-.91,1.48,.34,2.31,1.36,2.73,2.76,.11,.37,.16,.77,.23,1.15,.08,.5,.45,.78,.97,.73,.42-.04,.77-.45,.73-.91-.16-1.66-.72-3.15-2.01-4.27-1.01-.89-2.22-1.3-3.57-1.28Z" fill="#666"/>
          <path d="M219.61,98.61c1.61-.02,3-.62,4.19-1.68,.17-.15,.32-.31,.47-.47,.35-.37,.34-.9-.02-1.24-.34-.33-.88-.31-1.22,.06-.8,.86-1.74,1.44-2.92,1.59-1.32,.17-2.45-.22-3.24-1.32-.45-.63-.67-1.37-.74-2.15-.05-.57-.41-.89-.95-.85-.46,.03-.82,.45-.76,.96,.2,1.78,.85,3.31,2.41,4.33,.84,.55,1.78,.8,2.79,.78Z" fill="#666"/>
        </g>
        <g>
          <path d="M66.23,156.25c-.14,.14-.49,.21-1.11,.21-.21,0-.28-.07-.28-.14h-.21c-.76,.21-1.39,.28-1.87,.21-1.46,.14-2.43-.21-2.99-.97-.35-.56-.49-1.46-.42-2.64,.21-2.22,.28-2.99,.28-2.36l-.49-10.76,.21-1.25c-.07-.28-.14-.49-.14-.69,0-.49,.07-.76,.14-.83,0-.49-.21-1.74-.21-2.22v-9.93l.07-1.11c-.49-6.04-.69-10.41-.69-13.05-.07-.07-.21-.14-.42-.14-.21,.76-.35,1.39-.35,1.74-.35,1.6-.63,2.78-.9,3.54l-.49,4.16c-1.04,6.11-1.67,9.79-1.88,10.69-.35,1.04-.56,1.87-.76,2.36l-.35,4.51c-.76,7.57-1.11,11.59-1.11,12.22-.35-.07-.56-.07-.63,0h-.14c0,.07,.07,.07,.14,.07v.07c.21,0,.42,0,.49-.07,.07,1.46,.07,2.5,0,3.26l.14,2.64c0,.21-.63,.63-.63,.83-2.29,0-3.61-.14-4.03-.35-.21-.07-.28-.28-.35-.56-1.04-5.76-1.8-9.79-2.29-12.01-1.39-7.98-2.36-14.02-2.99-17.98-.9-4.37-1.88-8.47-2.78-12.36-.14-.63-.42-1.04-.83-1.25-.28,.83-.35,1.46-.28,1.87,.07-.21,.14,2.5,.14,8.05v1.04c-.07,.76-.14,1.39-.14,1.94v2.99c0,1.11,.07,2.22,.28,3.33l-.28,2.15c.35,2.43,.49,3.82,.49,4.23v2.99c.07,.76,.28,1.53,.55,2.43,0,1.32,.07,3.26,.21,5.83,.07,1.8,.14,3.05,.14,3.75,.21,2.01,.21,3.19,0,3.4-.21,.35-1.25,.49-3.12,.49s-3.05-.21-3.47-.69c-.07-.21-.14-.97-.14-2.43h.14c.07-.28,.07-.62,0-1.11s-.14-.83-.14-1.04c0-9.65-.07-15.69-.14-18.26v-4.03l-.28-4.51c-.07-1.04-.07-2.57,0-4.44,.07-3.61,.07-5.97,0-7.08-.07-.21-.07-2.22-.07-6.11,0-.9-.28-3.05-.28-3.96s.56-1.46,1.73-1.67h4.24c1.04-.21,2.29-.21,3.89,.14,1.11,.21,1.46,.35,1.11,.35-.07,.56,.07,1.67,.42,3.4,.56,2.85,1.18,6.53,1.87,10.97l.83,5.62c.07,.69,.56,3.12,1.39,7.29,.62,2.99,.9,5.41,.9,7.29h.35v-.14h.28c0,.35,.28-1.25,.76-4.72l1.11-8.4,.14-.83,.21-1.32v-.83c0-1.18,.35-3.54,1.11-7.08,.76-3.61,1.18-6.66,1.18-9.09v-1.8c.07-.28,.07-.49,.07-.69,.69-.07,1.8-.14,3.26-.14v-.07c.62,0,2.64,.14,3.26,.14l.28-.21h.49l-.42,.28h.56c0,.07,0,.14,.07,.14v-.14c.83-.21,1.53-.28,2.15-.28,1.25-.07,2.08,.14,2.5,.55,.07,.69,.07,1.25,0,1.6l.14,2.29-.14,1.25,.28,1.25-.14,2.01v1.25c.07,1.11,.14,1.53,.14,1.18,0,1.46-.07,2.57-.14,3.33,.07,.42,.14,.76,.14,.97-.07,.49-.14,.83-.14,.97l.14,1.39c-.07,1.04-.14,1.6-.14,1.73,.07,2.08,.14,3.61,.14,4.51,0,1.04-.42,3.54-.42,4.58,.49,2.57,.83,5.76,.9,9.44v13.61c.35,1.74,.21,2.85-.28,3.19Zm-25.48-45.13c-.21-.21-.42-.28-.49-.35-.07,.07-.14,.07-.14,.14,.07,.07,.14,.14,.14,.21h.49Zm21.52-5.41l-.76-.28c.21,.21,.49,.28,.76,.28Z" fill="#666"/>
          <path d="M90.32,153.41c-1.25,1.87-4.17,2.78-8.68,2.78-6.18,0-9.72-1.39-10.69-4.23-.28-.63-.49-1.94-.63-3.89-.07-.9-.21-1.53-.28-1.87-.35-3.82-.49-8.75-.49-14.79h.49v-.07c-.35-.21-.49-2.01-.49-5.48,.21,0,.35,0,.35-.07-.35-.14-.42-.63-.21-1.46,.56-2.5,2.01-3.96,4.37-4.38l3.47-.62c4.1,0,6.74,.14,7.98,.49,3.26,.83,4.93,2.92,5,6.18,0,.63-.07,1.81-.14,3.47,0,.49,.07,.83,.28,1.18-.07,.49-.14,.9-.14,1.18,.28,1.46,.42,2.15,.42,2.22,.07,.9,.07,1.73,0,2.5,0,1.25-.14,1.94-.42,2.08-.21,.14-1.46,.21-3.75,.14-3.4-.07-5.97-.07-7.64,0-1.66,.07-2.57,.35-2.71,.83,0-.07,.07,.62,.14,2.15,.21,4.72,.35,7.15,.35,7.36v1.32c0,1.25,1.8,1.87,5.48,1.87,1.53-.49,2.36-.83,2.5-1.04,.49-.49,.69-2.08,.62-4.65-.14-2.64-.28-3.61-.35-2.99,.07-.83,1.11-1.18,3.12-1.11,1.6,.07,2.5,.14,2.71,.14,.21,.76,.28,1.32,.28,1.74v2.85c0,3.12-.35,5.21-.97,6.18Zm-14.37-26.03c0,.97-.07,1.94-.14,2.92-.21,2.64,0,4.1,.49,4.31,.21,.14,1.25,.21,3.12,.28,1.73,.07,2.92,.07,3.4,0,.76-.07,1.04-.28,.97-.69l-.14-1.04c.21-1.6,.21-3.33,.14-5.14-.07-1.73-.28-2.85-.49-3.19-.63-.97-2.01-1.46-4.17-1.46-1.25,.35-2.01,.76-2.22,1.11-.49,.76-.83,1.74-.97,2.92Z" fill="#666"/>
          <path d="M131.83,155.91c-.21,.55-.21,.76-4.03,.55-1.87-.07-2.92-.21-3.12-.28-.21-.63-.21-1.18-.14-1.6-.07-3.4-.14-5.41-.14-6.04,0-.76-.21-2.71-.21-3.47,0-6.53-.28-12.15-.76-16.8l-.28-2.85c-.42-1.11-1.39-1.66-2.99-1.66-2.15,.07-3.47,.76-3.89,2.15-.14,.49-.14,1.74-.07,3.68,.14,3.4,.28,5.76,.49,7.08,.35,8.68,.56,14.65,.63,17.98,.07,1.04,.07,1.67-.14,1.74l-1.25,.28c-1.46,.07-2.64,.14-3.61,.14-1.6,0-2.57-.14-2.99-.42-.07-2.71-.14-4.65-.14-5.9l-.42-12.64c-.07-4.23-.21-7.71-.49-10.27-.07-1.32-.28-2.15-.49-2.5-.42-.63-1.18-.97-2.36-1.11-1.67-.21-2.99,.28-3.89,1.46-.35,.42-.49,1.25-.49,2.5,0,.35,.07,2.5,.21,6.46,.21,3.82,.28,5.97,.28,6.46l.14,8.47,.21,3.75v1.53c.28,1.18,.07,1.81-.69,2.01-.35,.07-1.87,.14-4.51,.07-1.04,0-1.67-.14-1.87-.42-.07-.49-.14-.97-.14-1.32,0-.42,.07-.76,.14-1.04-.07-2.57-.21-4.38-.28-5.35,0-.76,.07-1.46,.14-2.01l-.49-10.83-.42-13.05c0,.14,.07,.07,.14-.14v-1.94l.28-.63h3.26c.35-.07,.56-.14,.69-.14,1.87,.07,1.6,.07,1.87,.69,.21,.28,.42,.42,.76,.42,.69-.21,1.39-.35,2.15-.49,2.22-.49,4.37-.62,6.39-.42l4.72,1.39c.62,0,2.08-.62,2.36-.62,1.73-.42,3.19-.69,4.37-.76,.63-.07,1.32,0,2.15,.07,3.96,.42,6.32,1.53,7.08,3.33,.28,1.25,.42,2.08,.42,2.57l.49,6.53c.35,7.5,.55,12.7,.76,15.55,.07,2.01,.14,4.65,.14,7.85Zm-36.38-16.04h-.28v.21c.21-.07,.28-.14,.28-.21Zm16.59-14.51l-.35-.21c.07,.14,.21,.21,.35,.21Zm1.53,24.37l-.28-.35c.07,.21,.21,.28,.28,.35Z" fill="#666"/>
          <path d="M156.28,151.46c-.21,1.6-1.04,2.78-2.36,3.54-1.87,1.04-4.37,1.53-7.64,1.53-5.62-.07-9.16-1.32-10.48-3.75-.35-1.32-.49-2.08-.49-2.36-.63-8.47-.9-15.34-.9-20.55,0-1.32-.21-1.46,0-4.16v-1.39c.35-1.74,1.8-3.05,4.37-3.82,1.32-.42,2.5-.62,3.47-.62,.62-.07,1.04-.07,1.25-.07,.21-.07,.76-.07,1.67,0l1.87-.21,2.22,.28c1.25,.21,1.87,.35,1.87,.42v.35c.62,0,1.25,.21,1.87,.63,1.46,.83,2.22,2.01,2.36,3.54,.63,5.28,.9,11.39,.9,18.26v2.36c.07,3.54,.07,5.55,0,6.04Zm-7.22-.9c.07-.35,.07-1.32,.07-3.05l-.35-9.58c-.21-5.41-.35-8.19-.35-8.4,0,.14,0-.07,0-.56,.07-.56,.07-1.25,.07-2.01,0-2.43-.49-3.19-4.44-3.26-1.6,.49-2.5,.83-2.64,1.18-.28,.76-.35,1.32-.28,1.67-.14,1.32-.07,3.19,.14,5.69v1.94c0,.55,.07,.97,.14,1.25-.07,.83-.14,1.32-.14,1.53,0,.63,.28,2.43,.28,3.05,.07,.35,.07,.83,.07,1.46-.07,.63-.07,1.11-.07,1.39,0-.35,0,.21,.07,1.53v1.53c0,2.5,.07,3.89,.14,4.16,.49,1.6,1.87,2.43,4.16,2.36,1.74,0,2.78-.63,3.12-1.88Z" fill="#666"/>
          <path d="M176.27,123.83c-.14,.35-1.6,.49-4.38,.49-2.92,.21-4.86,.76-5.76,1.8-.49,.56-.69,1.73-.63,3.54v2.85c-.07,1.73-.07,4.03,0,6.73,.21,5.76,.28,9.37,.28,10.83v.83c.07,.62,.14,1.11,.14,1.53v5.07c-.28,.28-.76,.42-1.53,.42-2.64,.07-4.24,0-4.72-.21-.21-.14-.35-.28-.42-.49v-7.77c-.07-2.57-.07-4.37-.07-5.41v-9.86c-.07-2.29-.14-3.82-.14-4.51-.07-1.74-.14-2.57-.14-2.64,0-.76,.07-1.39,.14-1.73-.07-1.18-.14-2.01-.14-2.64v-.97c0-.35,.21-.56,.62-.76,1.6,.07,3.26,.14,5.14,.14,.83-.21,1.46,.83,2.01,.83,1.04-.49,2.78-.83,5.21-.9,.28-.07,.83-.07,1.74-.07,1.87,0,2.78,.56,2.78,1.6,0,.76-.07,1.18-.14,1.32Z" fill="#666"/>
          <path d="M200.99,119.18c-.21-.07-1.25-.14-3.26-.14l-2.22-.14v.07c-.07,.07-.21,.21-.28,.42,.07,.42,.07,.9,0,1.46l-.97,4.86-1.04,5.07c-.21,.76-.63,2.01-1.11,3.89-.35,1.46-.76,2.78-1.25,3.82v.07h-.35c0-.07-.07-.14-.14-.14-.35-1.73-.97-5-2.01-9.86l-.49-2.15-.06-.32c-.61,.11-6.72,.13-7.35,.02,.27,1.16,.6,2.53,1.02,4.12,.35,1.32,.83,3.75,1.6,7.22,.07,.69,.35,1.94,.76,3.68,.21,.76,.63,2.36,1.39,4.72,.21,.56,.49,1.53,.9,2.99,.14,.69,.28,2.43,.49,5.21l.21,.9c0-.28-.28,.9-.83,3.54-.28,1.18-.76,3.26-1.39,6.25l-.63,2.71c-.21,.28-.35,.9-1.53,1.74-.56,.14-1.32,.42-2.22,.76-.07,0-.14,0-.14-.07-.21,0-.42,.07-.63,.28-.07,0-.14-.07-.21-.14-.49,0-.83,.56-1.04,1.6-.07,1.04,0,1.66,.28,1.87,.42,.35,1.46,.49,3.12,.42,2.99-.14,4.93-.69,5.83-1.66l1.53-3.05c.35-.76,.9-2.85,1.74-6.25l3.75-15.34,.42-2.57,.97-3.89c0-.35,.07-.83,.28-1.53l2.71-10.28c.69-2.57,1.39-5.55,2.15-8.95,.07-.42,.14-.76,.14-1.04l-.14-.14Z" fill="#666"/>
          <path d="M187.59,165.97h-.21v.07h.07v.14c.07-.07,.14-.14,.14-.21Z" fill="#666"/>
        </g>
        <g>
          <path d="M109.99,61.22c-.32,.05-.6,.09-.83,.09l-4.17,.23c-.14,.18-.23,.32-.23,.46-.14,.23-.14,1.2-.09,3.01,.23,7.32,.32,12.41,.32,15.32v1.62c0,.23-.05,.37-.09,.51l.28,1.48c-.05,.92-.05,1.67,0,2.22,.05,.74,.05,1.62,.05,2.64-.05,.28-.05,.46-.05,.51l.14,1.44,.09,2.78c.05,.37,.14,.65,.19,.83,.09,.69-.88,1.02-2.87,1.02-1.11,0-1.76-.09-1.99-.28-.14-.51-.18-.88-.09-1.2v-3.89c0-.14,.28-.32,.28-.37-.23-.09-.32-1.06-.32-2.96,0-.6-.05-1.44-.14-2.55-.09-1.16-.14-1.99-.14-2.59l.18-1.07c-.14-1.76-.18-3.1-.18-4.07,0-.83,.09-1.25,.32-1.25v-.14c-.23-.18-.37-.37-.42-.51l.09-.88c-.14-2.45-.23-4.31-.23-5.56v-3.01c-.05-.69-.14-1.16-.19-1.39v-1.9c-.14-.19-1.16-.32-3.05-.42-1.25-.05-1.94-.14-2.18-.23-.18-.09-.28-.42-.28-1.02s.05-.97,.18-1.11c.56-.14,1.06-.18,1.57-.18,1.16-.05,1.85-.05,1.99-.09,.69,0,2.08,.09,2.78,.09h1.06c.69-.05,1.2-.05,1.57-.05h2.78c.18,0,.92,.14,.97,.14,.18-.14,.69-.18,1.53-.14,.65,.05,1.02,.09,1.16,.14h.09c.05,1.44,.05,2.22-.09,2.31Zm-6.06,10.23h-.28v.14c.19-.05,.28-.09,.28-.14Z" fill="#666"/>
          <path d="M127.9,91.21v3.94c-.05,.23-.19,.51-.42,.74v.05c-.28,0-.74,0-1.44,.05-.69,.05-1.3,.05-1.76,0-.6-.05-1.02-.09-1.16-.23-.23-.51-.32-.97-.32-1.34,0-.18,.05-.37,.09-.51-.05-1.62-.09-2.27-.09-1.99,0-.42,.05-.74,.09-.97v-2.18c-.23-.93-.37-1.85-.37-2.73v-2.5c0-.42,0-.74-.05-.97,.05-.42,.05-.79,.05-1.02,0-.51-.14-1.67-.14-2.18,.05-.6,.09-1.2,.09-1.9,0-.05-.05-.51-.18-1.39-.14-1.48-.74-2.27-1.76-2.31-1.67-.09-2.59,.46-2.82,1.62v6.16c.14,3.89,.18,7.41,.23,10.6,.14,2.64,.19,3.89,.19,3.66-.6,.14-1.48,.18-2.59,.18-1.25,0-2.08-.18-2.5-.6-.32-.28-.46-.79-.32-1.48,.05-.6,.14-1.25,.23-1.9,0-.69,0-2.04-.05-3.98v-1.67c0-.69-.18-2.41-.18-3.1,0-8.66-.05-13.93-.09-15.79-.09-3.66-.14-5.28-.14-4.77,0,.14,0-.09,.05-.79v-.79l-.05-2.04,.46-.37c2.69,.09,4.12,.28,4.35,.51v3.05c0,.79,.05,1.85,.09,3.29v2.64c0,.74-.19,2.45-.19,3.05l1.99-.18c.88-.09,1.94-.09,3.1,0,1.34,.09,2.22,.23,2.68,.42,1.16,.46,1.9,1.2,2.31,2.27,.14,1.43,.28,3.15,.32,5.05,0-.23-.05,.18-.09,1.16-.05,.6-.05,.97,0,1.2,.23,1.48,.32,3.1,.18,4.91,0,.42,.05,.83,.09,1.16l.14,2.59c0-.14,0,.32-.05,1.39Zm-4.44-2.82c-.14-.05-.28-.05-.42-.05,.14,.14,.23,.23,.32,.23,.05-.09,.09-.14,.09-.19Zm2.18-3.98l-.32-.14,.14,.32h.18v-.18Z" fill="#666"/>
          <path d="M144.19,93.81c-.83,1.25-2.78,1.85-5.79,1.85-4.12,0-6.48-.93-7.13-2.82-.18-.42-.32-1.3-.42-2.59-.05-.6-.14-1.02-.18-1.25-.23-2.55-.32-5.83-.32-9.86h.32v-.05c-.23-.14-.32-1.34-.32-3.66,.14,0,.23,0,.23-.05-.23-.09-.28-.42-.14-.97,.37-1.67,1.34-2.64,2.92-2.92l2.31-.42c2.73,0,4.49,.09,5.32,.32,2.18,.56,3.29,1.94,3.33,4.12,0,.42-.05,1.2-.09,2.31,0,.32,.05,.56,.19,.79-.05,.32-.09,.6-.09,.79,.19,.97,.28,1.44,.28,1.48,.05,.6,.05,1.16,0,1.66,0,.83-.09,1.3-.28,1.39-.14,.09-.97,.14-2.5,.09-2.27-.05-3.98-.05-5.09,0-1.11,.05-1.71,.23-1.81,.56,0-.05,.05,.42,.09,1.44,.14,3.15,.23,4.77,.23,4.91v.88c0,.83,1.2,1.25,3.66,1.25,1.02-.32,1.57-.56,1.67-.69,.32-.32,.46-1.39,.42-3.1-.09-1.76-.19-2.41-.23-1.99,.05-.56,.74-.79,2.08-.74,1.06,.05,1.67,.09,1.8,.09,.14,.51,.19,.88,.19,1.16v1.9c0,2.08-.23,3.47-.65,4.12Zm-9.58-17.36c0,.65-.05,1.3-.09,1.94-.14,1.76,0,2.73,.32,2.87,.14,.09,.83,.14,2.08,.19,1.16,.05,1.94,.05,2.27,0,.51-.05,.69-.19,.65-.46l-.09-.69c.14-1.06,.14-2.22,.09-3.43-.05-1.16-.18-1.9-.32-2.13-.42-.65-1.34-.97-2.78-.97-.83,.23-1.34,.51-1.48,.74-.32,.51-.56,1.16-.65,1.94Z" fill="#666"/>
        </g>
        <g id="Layer6_0_FILL" data-name="Layer6 0 FILL">
          <path d="M141.14,180.31c0-.14-.03-.35-.08-.64-.04-.28-.11-.64-.19-1.06-.51-1.17-2.06-1.9-4.66-2.18-.27-.01-.52-.03-.76-.04-.24-.01-.46-.01-.66,0-.4,.03-.83,.08-1.29,.17-.48,.08-1.01,.2-1.59,.34-.13,.01-.36,.08-.7,.21-.34,.11-.62,.18-.85,.19l-3.11-.91c-.66-.06-1.35-.06-2.06-.02-.71,.04-1.42,.14-2.14,.3-.25,.04-.49,.09-.72,.15-.24,.04-.47,.1-.68,.17-.13,0-.23-.02-.3-.06-.07-.04-.15-.11-.23-.21-.04-.2-.11-.32-.21-.36-.08-.04-.42-.07-1-.08-.06,0-.12,0-.19,.02-.07,.01-.16,.04-.28,.06h-2.16l-.17,.42v1.27c-.01,.07-.04,.11-.06,.13-.01,.01-.02,0-.02-.02l.57,15.68c-.03,.18-.05,.39-.06,.61-.01,.23-.02,.46-.02,.7,.03,.32,.06,.78,.08,1.38,.03,.58,.06,1.29,.08,2.14-.03,.1-.05,.2-.06,.32-.01,.13-.02,.25-.02,.38,0,.11,0,.25,.02,.4,.01,.16,.04,.31,.06,.47,.14,.18,.55,.28,1.23,.28,.88,.01,1.56,.01,2.06,0,.51,0,.81-.01,.91-.04,.25-.08,.42-.23,.49-.42,.08-.21,.08-.51-.02-.89l-.21-9.07c0-.14-.01-.57-.04-1.29-.03-.71-.08-1.69-.17-2.94-.07-2.6-.11-4.01-.11-4.24,0-.41,.02-.75,.06-1.02,.06-.28,.14-.49,.25-.64,.3-.38,.66-.66,1.08-.83,.44-.16,.93-.2,1.48-.13,.38,.04,.7,.13,.95,.25,.25,.11,.44,.28,.57,.49,.08,.1,.16,.29,.21,.57,.06,.27,.1,.62,.13,1.06,.1,.85,.17,1.84,.21,2.97,.04,1.14,.08,2.41,.11,3.79l.28,8.31c0,.41,0,.94,.02,1.59,.03,.64,.05,1.4,.06,2.29,.13,.11,.35,.19,.68,.23,.34,.04,.76,.06,1.27,.06,.34,0,.7,0,1.08-.02,.4-.01,.83-.04,1.31-.06l.83-.21c.06-.03,.09-.13,.11-.32,.01-.2,0-.47-.02-.81-.03-1.1-.07-2.63-.13-4.6-.07-1.98-.17-4.39-.3-7.22-.06-.45-.11-1.07-.17-1.84-.04-.76-.09-1.7-.15-2.82-.03-.64-.04-1.17-.02-1.59,0-.4,.03-.68,.08-.85,.13-.45,.41-.79,.85-1.02,.42-.24,1-.37,1.72-.38,.51,0,.93,.08,1.27,.25,.32,.18,.55,.46,.68,.83l.19,1.89c.16,1.53,.28,3.21,.38,5.06,.08,1.84,.13,3.83,.13,5.97,0,.28,.02,.66,.06,1.12,.04,.49,.06,.88,.06,1.17,0,.21,0,.64,.02,1.29,.03,.68,.05,1.57,.06,2.69-.01,.13-.02,.28-.02,.47,.01,.17,.06,.36,.13,.57,.07,.01,.28,.04,.61,.08,.34,.03,.81,.06,1.42,.08,.83,.06,1.43,.08,1.8,.06,.35-.03,.58-.08,.68-.15,.1-.06,.16-.14,.19-.25,0-1.06,0-2.02-.02-2.88-.01-.86-.04-1.63-.08-2.31-.07-.93-.14-2.25-.21-3.96-.07-1.69-.17-3.78-.3-6.25l-.3-4.3m-12.25-.44s-.06-.04-.11-.08l.23,.13s-.08-.01-.13-.04m-10.85,9.66s-.06,.04-.13,.06v-.13h.17s-.01,.04-.04,.06m11.8,6.17l.15,.21s-.03-.02-.06-.04c-.03-.03-.06-.08-.08-.17m13.71-15.47c0,1.13,.02,2,.06,2.61,.06,.59,.14,.93,.25,1v.06h-.32c0,1.98,.02,3.77,.06,5.38,.06,1.62,.14,3.07,.25,4.32,.03,.13,.06,.29,.08,.49,.04,.2,.08,.44,.11,.74,.04,.65,.09,1.19,.15,1.61,.08,.44,.17,.76,.25,.95,.31,.95,1.05,1.65,2.22,2.1,1.16,.47,2.76,.7,4.81,.7,1.48,0,2.7-.15,3.64-.44,.97-.31,1.66-.77,2.06-1.38,.21-.32,.37-.83,.49-1.5s.17-1.53,.17-2.56v-1.86c0-.14-.02-.3-.06-.49-.03-.2-.07-.42-.13-.66-.07-.01-.25-.03-.55-.04-.3-.01-.71-.04-1.23-.06-.66-.01-1.17,.04-1.53,.15-.29,.11-.46,.26-.51,.47,.01-.02,.03,.07,.06,.3,.04,.32,.09,.92,.15,1.78,.03,.85,0,1.53-.08,2.06-.07,.52-.18,.85-.32,1-.11,.16-.66,.39-1.65,.7-1.23,0-2.14-.11-2.73-.32-.59-.18-.89-.49-.89-.91v-.87c0-.07-.02-.51-.06-1.31s-.1-1.98-.17-3.52c-.01-.51-.03-.88-.04-1.12l-.06-.32c.1-.31,.7-.49,1.8-.53,.55-.03,1.24-.04,2.08-.04,.85,0,1.82,.01,2.92,.04,.76,.01,1.36,.01,1.78,0,.4-.01,.63-.04,.7-.08,.18-.1,.28-.56,.28-1.38,.04-.49,.04-1.04,0-1.63,0-.03-.02-.16-.06-.4s-.11-.6-.21-1.08c0-.08,0-.2,.02-.34,.01-.13,.04-.28,.08-.44-.08-.1-.13-.21-.15-.34-.03-.13-.04-.27-.04-.42,.01-.55,.04-1.02,.06-1.42,.01-.37,.02-.66,.02-.87-.03-1.09-.32-1.96-.87-2.63-.54-.68-1.34-1.16-2.42-1.44-.41-.11-1.05-.2-1.93-.25-.88-.04-1.98-.06-3.33-.06l-2.27,.42c-1.55,.27-2.51,1.23-2.88,2.88-.13,.52-.08,.84,.13,.95,0,.01-.02,.02-.06,.02-.03,.01-.08,.02-.15,.02m4.07,4.94c-.06-.48-.04-1.15,.04-2.01,.01-.32,.04-.64,.06-.95,.01-.34,.02-.66,.02-.97,.04-.38,.11-.73,.21-1.06,.13-.31,.27-.59,.42-.85,.06-.13,.21-.25,.47-.38,.24-.13,.57-.25,1-.36,1.41,0,2.32,.32,2.73,.95,.07,.13,.14,.37,.21,.72,.04,.35,.08,.81,.11,1.38,.03,.59,.04,1.17,.02,1.74,0,.56-.04,1.12-.11,1.65l.08,.7c.03,.13,0,.23-.11,.32-.11,.07-.29,.11-.53,.13-.16,.03-.43,.04-.83,.04-.37,0-.84-.01-1.42-.04-.61-.01-1.08-.04-1.42-.06s-.55-.06-.64-.11c-.16-.08-.27-.36-.34-.83m-34.45-7.46c-.23-.18-.47-.33-.72-.44,.01,0,.04,0,.08-.02,.03-.01,.06-.04,.08-.06l-1.4-.53c-.17-.07-.37-.13-.59-.19-.24-.06-.54-.12-.89-.19-.2-.01-.5-.04-.91-.08-.41-.01-.93-.02-1.55-.02h-.81c-.81,.13-1.43,.23-1.89,.3-.42,.08-.68,.15-.76,.19-.42,.1-.79,.23-1.1,.38-.32,.17-.61,.36-.87,.57-.13,.08-.23,.2-.32,.34-.08,.13-.16,.27-.23,.42-.1,.16-.14,.3-.13,.42,0,.11,.06,.2,.17,.25l-.32,.66s-.04,.2-.06,.47c-.01,.28-.02,.67-.02,1.17v.72c-.01,.34-.03,.78-.04,1.33,0,.18,.04,.32,.13,.4v.15s-.04,.05-.06,.06c-.01,.03-.02,.06-.02,.11,0,.21,.17,.35,.51,.42,.34,.08,.85,.11,1.55,.08,.58-.04,.98-.08,1.21-.13,.25-.04,.42-.14,.49-.3,.06-.14,.1-.39,.13-.74l.57-3.86c.13-.2,.29-.37,.49-.51,.21-.13,.48-.21,.81-.25,.3-.06,.58-.07,.85-.04,.27,.01,.52,.06,.76,.13,.48,.17,.85,.36,1.12,.57,.28,.2,.45,.4,.51,.61,0,.11,0,.25,.02,.42,0,.14,0,.32,.02,.53,.07,.34,.08,.72,.02,1.14s-.17,.9-.34,1.42c-.03,.18-.07,.36-.13,.53-.06,.2-.11,.39-.17,.57l-1.48,1.31-3.05,1.57-.74,.61-1.31,.83-.59,.49,.11,.21c-.45,0-.78,.35-1,1.06-.23,.71-.35,1.75-.38,3.14v2.29c.03,.56,.14,1.07,.34,1.53,.21,.47,.52,.88,.93,1.25,.54,.45,1.17,.78,1.89,1,.73,.18,1.57,.25,2.5,.19l2.61-.34c.38-.04,.67-.08,.87-.11l.32-.06,.83,.17c1.45,.38,2.68,.48,3.69,.3,.25-.04,.46-.13,.61-.25,.13-.1,.21-.23,.25-.4,0-.07-.03-.16-.08-.25-.04-.11-.09-.24-.15-.38l-.34-.53c-.13-.9-.21-1.59-.25-2.06-.07-.48-.08-.74-.04-.78v-.44c.01-.18,.03-.4,.04-.66-.06-.24-.1-.47-.13-.68-.01-.21-.02-.42-.02-.64v-1.63c-.03-.08-.06-.2-.08-.34-.04-.14-.07-.32-.08-.53,.01-.16,.04-.33,.06-.53,.01-.21,.02-.42,.02-.64l-.21-5.38c.01-.16,.02-.35,.02-.57,.01-.24,.02-.54,.02-.89,0-.03,0-.18-.02-.44,0-.28,0-.68-.02-1.19,0-.18-.04-.38-.13-.59-.06-.21-.14-.42-.25-.64,.03-.03,.07-.04,.13-.04h.25c-.21-.35-.38-.64-.51-.85-.1-.23-.16-.37-.19-.44-.18-.24-.38-.46-.59-.66m-8.22,15.42c0-.34,.01-.54,.04-.59,.04-.11,.09-.24,.15-.38,.04-.13,.07-.28,.08-.44,.11-.48,.3-.89,.55-1.23,.27-.32,.62-.59,1.06-.78,.86-.4,1.91-.98,3.14-1.76,.17,.08,.3,.49,.4,1.23,.1,.73,.16,1.8,.19,3.2,0,1.33-.02,2.39-.06,3.18-.06,.81-.13,1.33-.23,1.59-.03,.01-.16,.07-.4,.17-.25,.11-.6,.25-1.04,.4h-.95c-.25,0-.45-.01-.59-.04-.54-.03-1-.16-1.38-.4-.37-.24-.66-.57-.87-1l-.04-1.78c-.03-.56-.04-1.02-.04-1.36m-.32,1.21s-.04,.09-.13,.15v-.15h.13m-21.61-22.69l-.02,.17c-.01,.2-.04,.54-.06,1.04v1.8c.03,.16,.05,.3,.06,.42,.01,.11,.02,.22,.02,.32,0,.07-.01,.22-.04,.44-.01,.2-.06,.48-.13,.85l.08,1.17v1.02c-.01,.45-.04,.77-.06,.95-.01,.16-.02,.2-.02,.13v1.27c.03,.41,.05,.76,.06,1.06,.01,.31,.02,.57,.02,.78v3.16c0,2.78,.04,5.02,.13,6.72v1.82c.03,.14,.07,.31,.13,.51,.07,.21,.16,.45,.25,.72,.1,.99,.38,1.81,.85,2.46,.47,.65,1.12,1.14,1.95,1.46,.51,.21,1.23,.38,2.16,.51,.92,.1,2.05,.15,3.39,.15l3.88-.13c.25,.01,.52,.04,.81,.06,.28,.01,.59,.02,.93,.02h.81c.27-.01,.55-.03,.85-.04,.2-.08,.33-.31,.4-.68,.07-.38,.07-.9,0-1.57-.03-.07-.06-.15-.08-.23-.04-.08-.08-.19-.11-.32,.07-.23,.12-.47,.15-.72,.03-.23,.04-.47,.04-.72s-.01-.51-.04-.76c-.03-.25-.08-.51-.15-.76l.11-6.1-.11-3.26c0-.42,0-.72,.02-.89s.04-.19,.08-.06c-.04-.17-.14-.3-.3-.38-.18-.08-.42-.13-.72-.15-.21-.04-.4-.06-.57-.04-.18,.03-.34,.06-.47,.08-.25,0-.59,0-1-.02-.41,0-.9,0-1.48-.02-.55-.04-1.05-.06-1.48-.06-.41,0-.77,.02-1.08,.06-.14-.04-.32-.06-.53-.06-.23,0-.49,.02-.78,.06v-.13c-.14,0-.24,.13-.3,.38-.07,.25-.11,.62-.11,1.1,0,.34,.01,.61,.04,.83,.03,.18,.07,.3,.13,.36,.07,.11,.27,.18,.59,.21,.31,.03,.74,.04,1.29,.02,.47-.03,.83-.03,1.08,0,.27,.01,.42,.06,.47,.13,.07,.07,.12,.2,.15,.38,.03,.17,.04,.4,.04,.68,0-.11-.02-.07-.04,.13-.01,.23-.03,.64-.04,1.23v1.29c.01,.16,.04,.38,.08,.68,.03,.3,.06,.66,.08,1.1v1.46c0,.11,0,.24-.02,.38-.03,.14-.05,.3-.06,.49v.59c0,.51-.02,.93-.06,1.25-.06,.34-.11,.59-.17,.76-.21,.34-.52,.61-.93,.81-.41,.21-.93,.34-1.55,.38-.97,.07-1.78,.02-2.42-.15-.64-.14-1.09-.38-1.38-.72-.18-.25-.33-.64-.44-1.14-.08-.49-.13-1.12-.13-1.86,0-1.12-.01-1.93-.04-2.44-.01-.51-.03-.7-.04-.57,0-.24,0-.73,.02-1.46,.01-.71,.04-1.67,.06-2.9,.01-.11,.04-.25,.06-.4,.01-.16,.02-.34,.02-.55v-4.62c0-.21-.02-.5-.06-.87-.03-.35-.06-.72-.11-1.1-.03-.37-.04-.66-.04-.87v-.17c0-.24,.01-.65,.04-1.23v-1.46c0-.08,0-.18-.02-.28,0-.11,0-.25-.02-.42v-.74c0-.27,.01-.78,.04-1.53,.04-1.79,.13-3.07,.28-3.83,.03-.21,.08-.46,.15-.74,.08-.28,.2-.61,.34-1,.2-.34,.57-.58,1.12-.72,.55-.17,1.26-.24,2.14-.21,.68,.01,1.23,.11,1.65,.28,.44,.17,.76,.42,.97,.74,.1,.13,.18,.43,.25,.91,.08,.49,.17,1.15,.25,1.97,.06,.56,.11,1.13,.15,1.69,.03,.58,.05,1.13,.06,1.65,0,.21,0,.52,.02,.91,.03,.38,.05,.85,.06,1.4-.01,.16-.02,.34-.02,.55,.01,.21,.06,.45,.13,.72,.07,.07,.28,.12,.61,.15s.82,.05,1.44,.06c.58,.04,1.05,.05,1.42,.02,.38-.01,.66-.04,.83-.06,.06-.01,.11-.04,.17-.08,.06-.04,.11-.1,.15-.17v-.83c-.04-1.67-.08-2.98-.11-3.94-.04-.95-.07-1.53-.08-1.74-.16-1.29-.42-2.37-.78-3.26-.35-.9-.81-1.57-1.36-2.01l-.64-.51c-.96-.4-1.86-.66-2.69-.78-.82-.13-1.57-.11-2.25,.04-.07,0-.2,0-.38,0-.17,0-.37-.01-.61-.04-.08,.03-.21,.04-.38,.04-.18,.01-.41,.03-.68,.04-1.44,0-2.63,.23-3.58,.7-.97,.44-1.69,1.1-2.16,1.99-.21,.44-.37,1.07-.49,1.89-.11,.8-.17,1.77-.17,2.92m10.87-5.91s.03-.04,.04-.06h.11s-.01,.05-.04,.06c-.03,.03-.08,.05-.15,.06,0-.01,.01-.04,.04-.06m4.07,7.46l.19,.11s-.04,.04,0,.13h-.11s-.01-.04-.04-.08c-.01-.04-.03-.09-.04-.15m-13.45-.4s-.07,0-.08-.02c-.01,0-.02-.01-.02-.04,0-.01,0-.04,.02-.08,.01-.03,.04-.06,.08-.08v.23m.49,17.35h-.21v-.25s.06,.04,.11,.08,.08,.1,.11,.17Z" fill="#666"/>
        </g>
      </g>
    </g>
  </g>
</svg>