<?xml version="1.0" encoding="UTF-8"?>
<svg id="Layer_2" data-name="Layer 2" xmlns="http://www.w3.org/2000/svg" width="294" height="269" xmlns:xlink="http://www.w3.org/1999/xlink" viewBox="0 0 294 269">
  <defs>
    <filter id="drop-shadow-1" filterUnits="userSpaceOnUse">
      <feOffset dx="7" dy="7"/>
      <feGaussianBlur result="blur" stdDeviation="9"/>
      <feFlood flood-color="#000" flood-opacity=".5"/>
      <feComposite in2="blur" operator="in"/>
      <feComposite in="SourceGraphic"/>
    </filter>
  </defs>
  <g id="Capa_1" data-name="Capa 1">
    <g>
      <rect x="20" y="20" width="240" height="215" rx="39.51" ry="39.51" fill="#fff" filter="url(#drop-shadow-1)"/>
      <g>
        <rect x="177.4" y="102.3" width="12.83" height="11.28" fill="#666"/>
        <rect x="177.4" y="151.28" width="12.83" height="15.85" fill="#666"/>
        <path d="M190.23,54.41c0-3.54-2.87-6.41-6.41-6.41s-6.41,2.87-6.41,6.41v11.73h12.83v-11.73Z" fill="#666"/>
        <path d="M227.07,100.44v-33.29h-79.6l-21.01,16.64,21.01,16.64h79.6Zm-78.15-29.13h74v24.97h-74l-15.76-12.49,15.76-12.49Z" fill="#666"/>
        <polygon points="224.11 115.43 168.61 115.43 168.61 119.59 222.66 119.59 238.43 132.07 222.66 144.56 168.61 144.56 168.61 148.71 224.11 148.71 245.12 132.07 224.11 115.43" fill="#666"/>
        <path d="M86.55,90.01h-.19c-.28-.09-1.03-.19-2.35-.28-1.69-.09-2.73,0-3.11,.28-.1,0-1.6-.28-1.98-.28h-5.65c-.75,0-1.79,0-3.2,.1h-2.16c-1.41,0-4.24-.19-5.65-.19-.28,.09-1.69,.09-4.05,.19-1.04,0-2.07,.09-3.2,.38-.28,.28-.38,1.04-.38,2.26s.19,1.88,.57,2.07c.47,.19,1.88,.38,4.43,.47,3.86,.19,5.93,.47,6.21,.85v3.86c.09,.47,.28,1.41,.38,2.82v6.12c0,2.54,.19,6.31,.47,11.3l-.19,1.79c.1,.28,.38,.66,.85,1.04v.28c-.47,0-.66,.85-.66,2.54,0,1.98,.1,4.71,.38,8.29l-.38,2.16c0,1.22,.1,2.92,.28,5.27,.19,2.26,.28,3.95,.28,5.18,0,3.86,.19,5.84,.66,6.03,0,.1-.57,.47-.57,.75v7.91c-.19,.66-.09,1.41,.19,2.45,.47,.38,1.79,.57,4.05,.57,4.05,0,6.03-.66,5.84-2.07-.1-.38-.28-.94-.38-1.7l-.19-5.65-.28-2.92c0-.09,0-.47,.09-1.03,0-2.07,0-3.86-.09-5.37-.1-1.13-.1-2.64,0-4.52l-.57-3.01c.1-.28,.19-.56,.19-1.03v-3.29c0-5.93-.19-16.29-.66-31.17-.09-3.67-.09-5.65,.19-6.12,0-.28,.19-.57,.47-.94l8.47-.47c.47,0,1.03-.1,1.69-.19,.28-.19,.28-1.79,.19-4.71Zm-13.09,25.8v-.28h.56c0,.09-.19,.19-.56,.28Z" fill="#666"/>
        <path d="M95.86,107.33c1.32,.28,2.36,.38,3.2,.28,1.79,.1,2.92,0,3.2-.09,.85-.28,1.22-1.13,1.22-2.54,0-1.51-.28-2.35-.85-2.64-2.17-.19-4.05-.28-5.65-.28-.75,.28-1.22,.66-1.51,1.32,0,0-.1,.57-.19,1.69-.09,1.32,.09,2.07,.56,2.26Z" fill="#666"/>
        <path d="M93.79,154.69c0,.28,.09,.75,.19,1.6l-.56,8.57c0,.47,.38,.75,1.03,.94,1.41,.28,3.39,.38,6.12,.28,1.03-.1,1.69-.28,2.07-.66,.09-.1,.09-1.22,.09-3.39v-5.37l.19-1.69c.09,.28,.19-1.13,.19-4.24v-1.03c-.1-.66-.19-1.13-.19-1.51v-2.54c0-.66,.09-1.79,.19-3.39,.09-1.41,.19-2.54,.19-3.39-.1-2.54-.19-6.12-.19-10.73-.1-1.22-.1-2.64,0-4.24l.19-4.9c0-1.51-.1-2.45-.19-2.83-.47-.66-1.13-.94-2.07-.94-.47,0-.94,.1-1.51,.19-1.22,0-2.16,0-2.73-.09-.28,0-1.13,0-2.54,.09l-.28,.66v8.29l.19,6.69v1.32c-.09,.85-.19,1.7-.19,2.45v3.86c0,.75,.28,2.36,.28,3.11,0,1.6,0,3.77-.1,6.4-.28,3.48-.38,5.65-.38,6.5Zm4.71-31.26h.38c0,.09-.09,.19-.38,.28v-.28Z" fill="#666"/>
        <path d="M110.89,164.52s-.05-.08-.06-.13c.03,.19,.05,.22,.06,.13Z" fill="#666"/>
        <path d="M111.68,96.79c0,.28-.1,1.22-.19,2.64,0,.28,.09,.85,.19,1.51,0,.19-.1,.66-.19,1.32l.19,2.64c-.1,.94-.19,2.26-.19,4.05l.19,8c0,.09-.1,.38-.19,.85v1.13c.19,1.51,.28,4.24,.19,8.1,0,.09-.1,.57-.19,1.32v1.98c0-.56-.09,.28-.19,2.45v2.45c0,.28,.1,1.41,.19,3.39-.09,.28-.19,.94-.19,1.98-.09,3.01-.09,6.21,0,9.6,0,1.03-.09,2.54-.19,4.52-.09,2.16-.19,3.67-.19,4.61v2.07c0,1.88,0,2.93-.03,3.15,.19,.76,1.19,1.19,3.14,1.28,3.67,.19,5.93,.1,6.59-.38,.28-.19,.47-2.73,.47-7.72v-2.45c0-.38-.19-.85-.66-1.51v-.09c-.1,0-.19,0-.19-.09h.19l.56-.66c.09-2.35,.09-5.84,.09-10.64v-2.07c-.09-1.69-.09-2.35-.09-2.07l.09-16.76c0-1.23,.38-4.43,.38-5.65v-.94c-.09-.47-.19-.85-.19-1.03,.1-2.73,0-4.14-.28-4.33,.47,0,.66-.56,.66-1.79l.28-16.67c-.09-.75-.66-1.03-1.79-.94h-1.6c-.09,.1-.56,0-1.51-.19-1.41,0-3.11,.09-5.08,.38-.19,.19-.38,.94-.47,2.26,.09,.56,.19,1.98,.19,4.33Zm5.74,.75c-.1,0-.28-.09-.38-.28l.38,.28Zm-2.92,3.67h.38l1.88-.57c0,.66-.57,.85-1.7,.66h-.56v-.09Zm-1.13,.56h.66c-.09,.1-.19,.28-.19,.47h-.38v-.09c-.19,0-.28-.1-.28-.28,.1,0,.19,0,.19-.1Z" fill="#666"/>
        <path d="M154.99,146.22c-2.54-.09-3.92,.32-4.18,1.29,.1-.11,.26,1.28,.42,4.27,.1,3.48-.19,5.65-.85,6.31-.19,.28-1.32,.75-3.39,1.41-4.99,0-7.44-.85-7.44-2.54v-1.79c0-.28-.19-3.58-.47-9.98-.09-2.07-.19-3.01-.19-2.92,.19-.66,1.41-1.04,3.67-1.13,2.26-.09,5.74-.09,10.36,0,3.11,.09,4.8,0,5.08-.19,.38-.19,.56-1.13,.56-2.82,.09-1.03,.09-2.16,0-3.39,0-.09-.19-1.03-.56-3.01,0-.38,.09-.94,.19-1.6-.28-.47-.38-.94-.38-1.6,.09-2.26,.19-3.86,.19-4.71-.1-4.43-2.36-7.25-6.78-8.38-1.69-.47-5.27-.66-10.83-.66l-4.71,.85c-3.2,.56-5.18,2.54-5.93,5.93-.28,1.13-.19,1.79,.28,1.98,0,.09-.19,.09-.47,.09,0,4.71,.19,7.16,.66,7.44v.09h-.66c0,8.19,.19,14.88,.66,20.05,.09,.47,.28,1.32,.38,2.54,.19,2.64,.47,4.43,.85,5.27,1.32,3.86,6.12,5.74,14.5,5.74,6.12,0,10.07-1.22,11.77-3.77,.85-1.32,1.32-4.14,1.32-8.38v-3.86c0-.56-.09-1.32-.38-2.35-.28,0-1.51-.1-3.67-.19Zm-16.95-16.57c.1-1.32,.19-2.64,.19-3.95,.19-1.6,.66-2.92,1.32-3.95,.28-.47,1.32-1.03,3.01-1.51,2.92,0,4.8,.66,5.65,1.98,.28,.47,.57,1.98,.66,4.33,.1,2.45,.1,4.8-.19,6.97l.19,1.41c.1,.57-.28,.85-1.32,.94-.66,.1-2.26,.1-4.61,0-2.54-.09-3.95-.19-4.24-.38-.66-.28-.94-2.26-.66-5.84Z" fill="#666"/>
        <path d="M150.8,147.51s-.04,.08-.05,.22c0-.08,.03-.15,.05-.22Z" fill="#666"/>
        <path d="M60.18,47.8c2.05,.1,3.14,.25,3.29,.45v2.05c.05,.25,.15,.75,.2,1.5v3.24c0,1.35,.1,3.34,.25,5.99l-.1,.95c.05,.15,.2,.35,.45,.55v.15c-.25,0-.35,.45-.35,1.35,0,1.05,.05,2.49,.2,4.39l-.2,1.15c0,.65,.05,1.55,.15,2.79,.1,1.2,.15,2.09,.15,2.74,0,2.05,.1,3.09,.35,3.19,0,.05-.3,.25-.3,.4v4.19c-.1,.35-.05,.75,.1,1.3,.25,.2,.95,.3,2.14,.3,2.14,0,3.19-.35,3.09-1.1-.05-.2-.15-.5-.2-.9l-.1-2.99-.15-1.55c0-.05,0-.25,.05-.55,0-1.1,0-2.04-.05-2.84-.05-.6-.05-1.4,0-2.39l-.3-1.6c.05-.15,.1-.3,.1-.55v-1.74c0-3.14-.1-8.63-.35-16.51-.05-1.94-.05-2.99,.1-3.24,0-.15,.1-.3,.25-.5l4.49-.25c.25,0,.55-.05,.9-.1,.15-.1,.15-.95,.1-2.49h-.1c-.15-.05-.55-.1-1.25-.15-.9-.05-1.45,0-1.65,.15-.05,0-.85-.15-1.05-.15h-2.99c-.4,0-.95,0-1.7,.05h-1.15c-.75,0-2.24-.1-2.99-.1-.15,.05-.9,.05-2.14,.1-.55,0-1.1,.05-1.7,.2-.15,.15-.2,.55-.2,1.2s.1,1,.3,1.1c.25,.1,1,.2,2.34,.25Zm7.33,10.87h.3s-.1,.1-.3,.15v-.15Z" fill="#666"/>
        <path d="M77.03,49.24c0,.07,0,.04,0-.06,0-.04,0-.04,0,.06Z" fill="#666"/>
        <path d="M77.03,49.19c.01,.19,.06,1.92,.15,5.19,.05,1.99,.1,7.68,.1,17,0,.75,.2,2.59,.2,3.34v1.8c.05,2.09,.05,3.54,.05,4.29-.1,.7-.2,1.4-.25,2.05-.15,.75,0,1.3,.35,1.6,.45,.45,1.35,.65,2.69,.65,1.2,0,2.14-.05,2.79-.2-.01-.18-.07-1.5-.2-3.94-.05-3.44-.1-7.23-.25-11.42v-6.63c.25-1.25,1.25-1.85,3.04-1.74,1.1,.05,1.74,.9,1.89,2.49,.15,.95,.2,1.45,.2,1.5,0,.75-.05,1.4-.1,2.04,0,.55,.15,1.8,.15,2.35,0,.25,0,.65-.05,1.1,.05,.25,.05,.6,.05,1.05v2.69c0,.95,.15,1.94,.4,2.94v2.34c-.05,.25-.1,.6-.1,1.05,0-.3,.05,.4,.1,2.14-.05,.15-.1,.35-.1,.55,0,.4,.1,.9,.35,1.45,.15,.15,.6,.2,1.25,.25,.5,.05,1.15,.05,1.89,0,.75-.05,1.25-.05,1.55-.05v-.05c.25-.25,.4-.55,.45-.8v-4.24c.05-1.15,.05-1.65,.05-1.5l-.15-2.79c-.05-.35-.1-.8-.1-1.25,.15-1.94,.05-3.69-.2-5.29-.05-.25-.05-.65,0-1.3,.05-1.05,.1-1.5,.1-1.25-.05-2.05-.2-3.89-.35-5.44-.45-1.15-1.25-1.95-2.49-2.44-.5-.2-1.44-.35-2.89-.45-1.25-.1-2.39-.1-3.34,0l-2.14,.2c0-.65,.2-2.49,.2-3.29v-2.84c-.05-1.55-.1-2.69-.1-3.54v-3.29c-.25-.25-1.79-.45-4.69-.55l-.5,.4,.05,2.2v.85c-.03,.42-.04,.67-.05,.79Zm14.16,23.45v.2h-.2l-.15-.35,.35,.15Zm-2.34,4.29c0,.05-.05,.1-.1,.2-.1,0-.2-.1-.35-.25,.15,0,.3,0,.45,.05Z" fill="#666"/>
        <path d="M107.5,75.72s.04-.07,.05-.11c-.02-.04-.04,0-.05,.11Z" fill="#666"/>
        <path d="M96.28,66.95c0,4.34,.1,7.88,.35,10.62,.05,.25,.15,.7,.2,1.35,.1,1.4,.25,2.35,.45,2.79,.7,2.04,3.24,3.04,7.68,3.04,3.24,0,5.34-.65,6.23-1.99,.45-.7,.7-2.2,.7-4.44v-2.04c0-.3-.05-.7-.2-1.25-.15,0-.8-.05-1.94-.1-1.34-.05-2.06,.18-2.2,.69,.05,.11,.13,.85,.2,2.25,.05,1.85-.1,2.99-.45,3.34-.1,.15-.7,.4-1.8,.75-2.64,0-3.94-.45-3.94-1.35v-.95c0-.15-.1-1.89-.25-5.29-.05-1.1-.1-1.6-.1-1.55,.1-.35,.75-.55,1.95-.6,1.2-.05,3.04-.05,5.48,0,1.65,.05,2.54,0,2.69-.1,.2-.1,.3-.6,.3-1.5,.05-.55,.05-1.15,0-1.79,0-.05-.1-.55-.3-1.6,0-.2,.05-.5,.1-.85-.15-.25-.2-.5-.2-.85,.05-1.2,.1-2.04,.1-2.49-.05-2.35-1.25-3.84-3.59-4.44-.9-.25-2.79-.35-5.74-.35l-2.49,.45c-1.69,.3-2.74,1.35-3.14,3.14-.15,.6-.1,.95,.15,1.05,0,.05-.1,.05-.25,.05,0,2.49,.1,3.79,.35,3.94v.05h-.35Zm4.49-.8c.05-.7,.1-1.4,.1-2.09,.1-.85,.35-1.55,.7-2.09,.15-.25,.7-.55,1.6-.8,1.55,0,2.54,.35,2.99,1.05,.15,.25,.3,1.05,.35,2.29,.05,1.3,.05,2.54-.1,3.69l.1,.75c.05,.3-.15,.45-.7,.5-.35,.05-1.2,.05-2.44,0-1.35-.05-2.09-.1-2.24-.2-.35-.15-.5-1.2-.35-3.09Z" fill="#666"/>
        <path d="M83.24,208.19c-.05-.09-.08-.21-.11-.34,.08-.24,.13-.5,.16-.78,.03-.24,.05-.5,.05-.78s-.02-.55-.05-.82c-.03-.27-.08-.55-.16-.82l.11-6.57-.11-3.51c0-.46,0-.78,.02-.96,0-.09,.02-.13,.03-.14-.06-.13-.12-.26-.26-.33-.2-.09-.46-.14-.78-.16-.23-.05-.43-.06-.62-.05-.2,.03-.37,.06-.5,.09-.27,0-.63,0-1.07-.02-.44,0-.97,0-1.6-.02-.59-.05-1.13-.07-1.6-.07-.44,0-.83,.02-1.16,.07-.15-.05-.34-.07-.57-.07-.24,0-.52,.02-.84,.07v-.14c-.15,0-.26,.14-.32,.41-.08,.27-.11,.67-.11,1.19,0,.37,.02,.66,.05,.89,.03,.2,.08,.33,.14,.39,.08,.12,.29,.2,.64,.23,.33,.03,.8,.04,1.39,.02,.5-.03,.89-.03,1.16,0,.29,.02,.46,.06,.5,.14,.08,.08,.13,.21,.16,.41,.03,.19,.04,.43,.05,.73,0-.12-.02-.08-.05,.14-.02,.24-.03,.68-.05,1.32v1.39c.02,.17,.05,.41,.09,.73,.03,.32,.06,.72,.09,1.19v1.57c0,.12,0,.26-.02,.41-.03,.15-.05,.33-.07,.52v.64c0,.55-.02,1-.07,1.35-.06,.37-.12,.64-.18,.82-.23,.37-.56,.65-1,.87-.44,.23-1,.37-1.67,.41-1.05,.08-1.92,.02-2.6-.16-.68-.15-1.18-.41-1.48-.78-.2-.27-.36-.68-.48-1.23-.09-.53-.14-1.2-.14-2.01,0-1.2-.02-2.08-.05-2.62-.02-.55-.03-.75-.05-.62,0-.26,0-.78,.02-1.57,.02-.76,.04-1.8,.07-3.13,.02-.12,.04-.27,.07-.43,.02-.17,.02-.37,.02-.59v-4.98c0-.23-.02-.54-.07-.94-.03-.38-.07-.78-.11-1.19-.03-.4-.05-.71-.05-.94v-.18c0-.26,.02-.7,.05-1.32v-1.57c0-.09,0-.19-.02-.3,0-.12,0-.27-.02-.46v-.8c0-.29,.02-.84,.05-1.64,.05-1.93,.14-3.31,.3-4.13,.03-.23,.08-.49,.16-.8,.09-.3,.21-.66,.37-1.07,.21-.37,.62-.62,1.21-.78,.59-.18,1.36-.26,2.31-.23,.73,.02,1.32,.11,1.78,.3,.47,.18,.82,.45,1.05,.8,.11,.14,.2,.46,.27,.98,.09,.53,.18,1.24,.27,2.12,.06,.61,.11,1.22,.16,1.83,.03,.62,.05,1.22,.07,1.78,0,.23,0,.56,.02,.98,.03,.41,.05,.91,.07,1.51-.02,.17-.02,.37-.02,.59,.02,.23,.06,.49,.14,.78,.08,.08,.3,.13,.66,.16,.37,.03,.88,.05,1.55,.07,.62,.05,1.13,.05,1.53,.02,.41-.02,.71-.04,.89-.07,.06-.02,.12-.05,.18-.09,.06-.05,.11-.11,.16-.18v-.89c-.05-1.8-.08-3.21-.11-4.25-.05-1.02-.08-1.64-.09-1.87-.17-1.38-.45-2.56-.84-3.51-.38-.97-.87-1.7-1.46-2.17l-.68-.55c-1.03-.43-2-.71-2.9-.84-.88-.14-1.69-.12-2.42,.05h-.41c-.18,0-.4-.02-.66-.05-.09,.03-.23,.05-.41,.05-.2,.02-.44,.03-.73,.05-1.55,0-2.84,.25-3.86,.75-1.05,.47-1.83,1.19-2.33,2.15-.23,.47-.4,1.15-.52,2.03-.12,.86-.18,1.91-.18,3.15l-.02,.18c-.02,.21-.04,.59-.07,1.12v1.94c.03,.17,.05,.32,.07,.46,.02,.12,.02,.24,.02,.34,0,.08-.02,.24-.05,.48-.02,.21-.06,.52-.14,.91l.09,1.26v1.1c-.02,.49-.04,.83-.07,1.03-.01,.17-.02,.22-.02,.14v1.37c.03,.44,.05,.82,.07,1.14,.02,.33,.02,.62,.02,.84v3.4c0,3,.05,5.41,.14,7.23v1.96c.03,.15,.08,.33,.14,.55,.08,.23,.17,.49,.27,.78,.11,1.07,.41,1.95,.91,2.65,.5,.7,1.2,1.22,2.1,1.57,.55,.23,1.32,.41,2.33,.55,.99,.11,2.21,.16,3.65,.16l4.18-.14c.27,.02,.56,.04,.87,.07,.3,.02,.64,.02,1,.02h.87c.29-.02,.59-.03,.91-.05,.21-.09,.36-.33,.43-.73,.08-.41,.08-.97,0-1.69-.03-.08-.06-.16-.09-.25Zm-1.32-26.61s-.05,.05,0,.14h-.11s-.02-.05-.05-.09c-.02-.05-.03-.1-.05-.16l.21,.11Zm-4.59-8.15s.03-.04,.05-.07h.11s-.02,.05-.05,.07c-.03,.03-.08,.05-.16,.07,0-.02,.02-.04,.05-.07Zm-10.11,7.6s-.08,0-.09-.02c-.02,0-.02-.02-.02-.05,0-.02,0-.05,.02-.09,.02-.03,.05-.06,.09-.09v.25Zm.3,18.69v-.27s.07,.05,.11,.09c.05,.05,.08,.11,.11,.18h-.23Z" fill="#666"/>
        <path d="M100.61,209.11l-.37-.57c-.14-.97-.23-1.71-.27-2.21-.08-.52-.09-.8-.05-.84v-.48c.02-.2,.03-.43,.05-.71-.06-.26-.11-.5-.14-.73-.02-.23-.02-.46-.02-.68v-1.76c-.03-.09-.06-.21-.09-.37-.05-.15-.08-.34-.09-.57,.02-.17,.04-.36,.07-.57,.02-.23,.02-.46,.02-.68l-.23-5.8c.02-.17,.02-.37,.02-.62,.02-.26,.02-.58,.02-.96,0-.03,0-.19-.02-.48,0-.3,0-.73-.02-1.28,0-.2-.05-.41-.14-.64-.06-.23-.15-.46-.27-.68,.03-.03,.08-.05,.14-.05h.27c-.23-.38-.41-.68-.55-.91-.11-.24-.17-.4-.21-.48-.2-.26-.41-.49-.64-.71-.24-.2-.5-.36-.78-.48,.02,0,.05,0,.09-.02,.03-.02,.06-.04,.09-.07l-1.51-.57c-.18-.08-.4-.14-.64-.21-.26-.06-.58-.13-.96-.21-.21-.02-.54-.05-.98-.09-.44-.02-1-.02-1.67-.02h-.87c-.87,.14-1.54,.24-2.03,.32-.46,.09-.73,.16-.82,.21-.46,.11-.85,.24-1.19,.41-.35,.18-.66,.39-.94,.62-.14,.09-.25,.21-.34,.37-.09,.14-.17,.29-.25,.46-.11,.17-.15,.32-.14,.46,0,.12,.06,.21,.18,.27l-.34,.71s-.04,.21-.07,.5c-.02,.3-.02,.72-.02,1.26v.78c-.02,.37-.03,.84-.05,1.44,0,.2,.05,.34,.14,.43v.16s-.04,.05-.07,.07c-.02,.03-.02,.07-.02,.11,0,.23,.18,.38,.55,.46,.37,.09,.92,.12,1.67,.09,.62-.05,1.06-.09,1.3-.14,.27-.05,.45-.15,.52-.32,.06-.15,.11-.42,.14-.8l.62-4.15c.14-.21,.31-.4,.52-.55,.23-.14,.52-.23,.87-.27,.32-.06,.62-.08,.91-.05,.29,.02,.56,.06,.82,.14,.52,.18,.92,.39,1.21,.62,.3,.21,.49,.43,.55,.66,0,.12,0,.27,.02,.46,0,.15,0,.34,.02,.57,.08,.37,.08,.78,.02,1.23s-.18,.97-.37,1.53c-.03,.2-.08,.39-.14,.57-.06,.21-.12,.42-.18,.62l-1.6,1.42-3.29,1.69-.8,.66-1.42,.89-.64,.52,.11,.23c-.49,0-.84,.38-1.07,1.14-.24,.76-.38,1.89-.41,3.38v2.46c.03,.61,.15,1.16,.37,1.64,.23,.5,.56,.95,1,1.35,.58,.49,1.26,.84,2.03,1.07,.79,.2,1.69,.27,2.69,.21l2.81-.37c.41-.05,.72-.08,.94-.11l.34-.07,.89,.18c1.57,.41,2.89,.52,3.97,.32,.27-.05,.49-.14,.66-.27,.14-.11,.23-.25,.27-.43,0-.08-.03-.17-.09-.27-.05-.12-.1-.26-.16-.41Zm-11.85-4.7v-.16h.14s-.05,.1-.14,.16Zm6.46,1.14c-.06,.87-.14,1.44-.25,1.71-.03,.02-.17,.08-.43,.18-.27,.12-.65,.27-1.12,.43h-1.03c-.27,0-.49-.02-.64-.05-.58-.03-1.07-.17-1.48-.43-.4-.26-.71-.62-.94-1.07l-.05-1.92c-.03-.61-.05-1.1-.05-1.46s.02-.58,.05-.64c.05-.12,.1-.26,.16-.41,.05-.14,.08-.3,.09-.48,.12-.52,.32-.96,.59-1.32,.29-.35,.67-.63,1.14-.84,.93-.43,2.05-1.06,3.38-1.89,.18,.09,.33,.53,.43,1.32,.11,.79,.17,1.94,.21,3.45,0,1.43-.02,2.57-.07,3.42Z" fill="#666"/>
        <path d="M129.09,204.77c-.08-1-.15-2.43-.23-4.27-.08-1.83-.18-4.07-.32-6.73l-.32-4.63c0-.15-.03-.38-.09-.68-.05-.3-.11-.68-.21-1.14-.55-1.26-2.22-2.05-5.02-2.35-.29-.02-.56-.03-.82-.05s-.49-.02-.71,0c-.43,.03-.89,.09-1.39,.18-.52,.09-1.09,.21-1.71,.37-.14,.02-.39,.09-.75,.23-.37,.12-.67,.19-.91,.21l-3.36-.98c-.72-.06-1.45-.07-2.21-.02-.76,.05-1.53,.15-2.31,.32-.27,.05-.53,.1-.78,.16-.26,.05-.5,.11-.73,.18-.14,0-.24-.02-.32-.07s-.16-.12-.25-.23c-.05-.21-.12-.34-.23-.39-.09-.05-.45-.08-1.07-.09-.06,0-.13,0-.21,.02-.08,.02-.17,.04-.3,.07h-2.33l-.18,.46v1.37c-.02,.08-.04,.12-.07,.14-.01,.01-.02,0-.02-.02l.62,16.89c-.03,.2-.05,.42-.07,.66-.02,.24-.02,.49-.02,.75,.03,.35,.06,.84,.09,1.48,.03,.62,.06,1.39,.09,2.31-.03,.11-.05,.22-.07,.34-.02,.14-.02,.27-.02,.41,0,.12,0,.27,.02,.43,.02,.17,.04,.33,.07,.5,.15,.2,.59,.3,1.32,.3,.94,.02,1.68,.02,2.21,0,.55,0,.87-.02,.98-.05,.27-.09,.45-.24,.52-.46,.09-.23,.08-.55-.02-.96l-.23-9.77c0-.15-.02-.62-.05-1.39-.03-.76-.09-1.82-.18-3.17-.08-2.8-.11-4.32-.11-4.56,0-.44,.02-.81,.07-1.1,.06-.3,.15-.53,.27-.68,.32-.41,.71-.71,1.16-.89,.47-.17,1-.21,1.6-.14,.41,.05,.75,.14,1.03,.27,.27,.12,.48,.3,.62,.52,.09,.11,.17,.31,.23,.62,.06,.29,.11,.67,.14,1.14,.11,.91,.18,1.98,.23,3.2,.05,1.23,.08,2.59,.11,4.09l.3,8.95c0,.44,0,1.01,.02,1.71,.03,.68,.05,1.51,.07,2.46,.14,.12,.38,.21,.73,.25,.37,.05,.82,.07,1.37,.07,.37,0,.75,0,1.16-.02,.43-.02,.9-.04,1.42-.07l.89-.23c.06-.03,.1-.14,.11-.34,.02-.21,0-.5-.02-.87-.03-1.19-.08-2.84-.14-4.95-.08-2.13-.18-4.72-.32-7.78-.06-.49-.12-1.15-.18-1.99-.05-.82-.1-1.83-.16-3.04-.03-.68-.04-1.26-.02-1.71,0-.43,.03-.73,.09-.91,.14-.49,.44-.85,.91-1.1,.46-.26,1.07-.4,1.85-.41,.55,0,1,.09,1.37,.27,.35,.2,.59,.49,.73,.89l.21,2.03c.17,1.64,.3,3.46,.41,5.45,.09,1.98,.14,4.12,.14,6.44,0,.3,.02,.71,.07,1.21,.05,.53,.07,.95,.07,1.26,0,.23,0,.69,.02,1.39,.03,.73,.05,1.7,.07,2.9-.02,.14-.02,.3-.02,.5,.02,.18,.06,.39,.14,.62,.08,.02,.3,.05,.66,.09,.37,.03,.87,.06,1.53,.09,.9,.06,1.54,.08,1.94,.07,.38-.03,.62-.08,.73-.16,.11-.06,.17-.15,.21-.27,0-1.14,0-2.18-.02-3.1-.02-.93-.05-1.76-.09-2.49Zm-25.74-5.71s-.06,.04-.14,.07v-.14h.18s-.02,.04-.05,.07Zm11.69-10.41s-.07-.05-.11-.09l.25,.14s-.09-.02-.14-.05Zm1.12,17.23s-.06-.09-.09-.18l.16,.23s-.04-.02-.07-.05Z" fill="#666"/>
        <path d="M146.03,200.96c-.08-.02-.27-.03-.59-.05-.32-.02-.76-.04-1.32-.07-.72-.02-1.26,.04-1.64,.16-.31,.12-.49,.28-.55,.5,.01-.03,.04,.08,.07,.32,.05,.35,.1,.99,.16,1.92,.03,.91,0,1.65-.09,2.21-.08,.56-.19,.92-.34,1.07-.12,.17-.72,.42-1.78,.75-1.32,0-2.31-.11-2.94-.34-.64-.2-.96-.52-.96-.98v-.94c0-.08-.02-.55-.07-1.42-.05-.87-.11-2.13-.18-3.79-.02-.55-.03-.95-.05-1.21l-.07-.34c.11-.33,.75-.52,1.94-.57,.59-.03,1.34-.05,2.24-.05,.91,0,1.96,.02,3.15,.05,.82,.02,1.46,.02,1.92,0,.43-.02,.68-.05,.75-.09,.2-.11,.3-.6,.3-1.48,.05-.53,.05-1.12,0-1.76,0-.03-.02-.17-.07-.43-.05-.26-.12-.65-.23-1.16,0-.09,0-.21,.02-.37,.02-.14,.05-.3,.09-.48-.09-.11-.14-.23-.16-.37-.03-.14-.05-.29-.05-.46,.02-.59,.04-1.1,.07-1.53,.02-.4,.02-.71,.02-.94-.03-1.17-.34-2.11-.94-2.83-.58-.73-1.45-1.25-2.6-1.55-.44-.12-1.13-.21-2.08-.27-.94-.05-2.14-.07-3.58-.07l-2.44,.46c-1.67,.29-2.71,1.32-3.1,3.1-.14,.56-.09,.91,.14,1.03,0,.02-.02,.02-.07,.02-.03,.02-.08,.02-.16,.02,0,1.22,.02,2.15,.07,2.81,.06,.64,.15,1,.27,1.07v.07h-.34c0,2.13,.02,4.06,.07,5.8,.06,1.75,.15,3.3,.27,4.66,.03,.14,.06,.31,.09,.52,.05,.21,.08,.48,.11,.8,.05,.7,.1,1.28,.16,1.73,.09,.47,.18,.81,.27,1.03,.33,1.02,1.13,1.77,2.4,2.26,1.25,.5,2.97,.75,5.18,.75,1.6,0,2.91-.16,3.93-.48,1.05-.33,1.79-.83,2.21-1.48,.23-.35,.4-.89,.52-1.62,.12-.73,.18-1.65,.18-2.76v-2.01c0-.15-.02-.33-.07-.52-.03-.21-.08-.45-.14-.71Zm-10.82-6.6c-.06-.52-.05-1.24,.05-2.17,.02-.35,.04-.69,.07-1.03,.02-.37,.02-.72,.02-1.05,.05-.41,.12-.79,.23-1.14,.14-.33,.29-.64,.46-.91,.06-.14,.23-.27,.5-.41,.26-.14,.62-.27,1.07-.39,1.52,0,2.5,.34,2.94,1.03,.08,.14,.15,.4,.23,.78,.05,.38,.08,.87,.11,1.48,.03,.64,.04,1.26,.02,1.87,0,.61-.04,1.2-.11,1.78l.09,.75c.03,.14,0,.25-.11,.34-.12,.08-.31,.12-.57,.14-.17,.03-.46,.05-.89,.05-.4,0-.91-.02-1.53-.05-.65-.02-1.16-.04-1.53-.07s-.59-.07-.68-.11c-.17-.09-.29-.39-.37-.89Z" fill="#666"/>
      </g>
    </g>
  </g>
</svg>