<?xml version="1.0" encoding="UTF-8"?>
<svg id="Layer_2" data-name="Layer 2" xmlns="http://www.w3.org/2000/svg" width="294" height="269" xmlns:xlink="http://www.w3.org/1999/xlink" viewBox="0 0 294 269">
  <defs>
    <filter id="drop-shadow-1" filterUnits="userSpaceOnUse">
      <feOffset dx="7" dy="7"/>
      <feGaussianBlur result="blur" stdDeviation="9"/>
      <feFlood flood-color="#000" flood-opacity=".5"/>
      <feComposite in2="blur" operator="in"/>
      <feComposite in="SourceGraphic"/>
    </filter>
  </defs>
  <g id="Capa_1" data-name="Capa 1">
    <g>
      <rect x="20" y="20" width="240" height="215" rx="39.51" ry="39.51" fill="#fff" filter="url(#drop-shadow-1)"/>
      <g>
        <g>
          <path d="M123.36,77c-.02-.2-.03-.41-.03-.64,.07-.94,.08-1.84,.05-2.69-.04-.85-.12-1.66-.23-2.43-.03-.13-.05-.3-.05-.49,0-.21,.02-.47,.05-.79,.01-.5,.03-.86,.05-1.07,.02-.16,.03-.22,.03-.18-.02-.97-.07-1.9-.13-2.77-.07-.87-.14-1.69-.21-2.44-.21-.56-.51-1.03-.92-1.43-.39-.39-.89-.71-1.49-.93-.24-.12-.6-.21-1.07-.26-.46-.09-1.04-.15-1.74-.2-.6-.04-1.18-.07-1.74-.07s-1.05,.02-1.51,.07l-2.1,.2c.02-.22,.04-.52,.07-.92,.03-.39,.06-.8,.08-1.23,.03-.42,.05-.75,.07-1.02v-2.77c-.03-.73-.05-1.38-.07-1.95-.02-.56-.03-1.04-.03-1.44v-3.2c-.12-.12-.56-.22-1.31-.3-.77-.1-1.85-.17-3.25-.21l-.46,.38,.03,2.12v.8c-.02,.36-.03,.61-.03,.74l.02,.95c.03,.83,.07,2.2,.11,4.1,.03,.96,.05,2.82,.07,5.57,.02,2.75,.03,6.39,.03,10.9,0,.25,.02,.59,.05,1.02,.03,.42,.07,.83,.1,1.23,.02,.42,.03,.75,.03,1.02v1.72c.03,1.03,.05,1.89,.05,2.57v1.61c-.04,.33-.09,.66-.13,1-.03,.34-.07,.67-.1,.98-.07,.36-.07,.67,0,.92,.07,.27,.17,.48,.33,.62,.22,.22,.55,.38,1,.49,.42,.1,.96,.15,1.62,.15,.58,0,1.1-.02,1.56-.05,.44-.03,.81-.08,1.13-.15l-.02-.8c-.03-.62-.09-1.63-.16-3.02-.02-1.67-.05-3.43-.08-5.26-.04-1.86-.1-3.8-.16-5.84v-6.43c.13-.61,.44-1.06,.92-1.34,.49-.28,1.17-.4,2.03-.34,.54,.01,.96,.22,1.28,.62,.32,.42,.51,1.01,.57,1.77,.08,.48,.13,.84,.16,1.07,.02,.24,.03,.38,.03,.41,0,.36-.01,.7-.03,1.02-.02,.33-.05,.65-.08,.97,.02,.3,.05,.67,.1,1.13,.03,.47,.05,.85,.07,1.13,0,.12,0,.28-.02,.48,0,.17-.01,.37-.03,.59,.02,.12,.03,.27,.03,.44,.01,.17,.02,.37,.02,.57v2.62c0,.45,.03,.92,.1,1.41,.07,.47,.16,.95,.28,1.44v2.26c-.02,.13-.04,.27-.07,.43-.01,.17-.02,.37-.02,.59l.02,.28c.02,.35,.04,.95,.07,1.8-.02,.05-.04,.13-.07,.23-.01,.1-.02,.19-.02,.28,0,.21,.02,.43,.07,.67,.07,.23,.15,.48,.26,.75,.08,.07,.22,.11,.43,.13,.2,.05,.45,.09,.77,.1,.25,.03,.53,.05,.84,.05,.31,0,.64-.02,1.02-.05,.36-.01,.67-.03,.92-.05h.56v-.05c.13-.12,.24-.25,.31-.38,.07-.14,.11-.27,.15-.39v-4.12c.01-.55,.03-.95,.05-1.2l-.15-2.95c-.03-.17-.05-.37-.07-.57Zm-4.51,1.87s-.04,.04-.05,.1c-.05,0-.11-.02-.16-.05-.05-.04-.12-.11-.2-.2,.08,0,.15,0,.21,0,.08,.02,.15,.04,.23,.05,0,.03-.01,.07-.03,.1Zm2.28-4.07h-.18l-.15-.33,.33,.15v.18Z" fill="#666"/>
          <path d="M139.95,77.64c-.03-.21-.08-.44-.15-.69-.08-.01-.27-.02-.59-.03-.32-.02-.75-.05-1.3-.08-.71-.01-1.25,.04-1.61,.16-.31,.11-.5,.28-.56,.51,.02-.06,.05,.04,.08,.3,.04,.35,.09,.98,.15,1.89,.03,.91,0,1.63-.08,2.18-.08,.55-.19,.9-.34,1.07-.11,.15-.69,.39-1.75,.72-1.29,0-2.25-.11-2.87-.33-.63-.2-.95-.52-.95-.97v-.92c0-.08-.02-.54-.07-1.39-.05-.85-.12-2.09-.2-3.72-.01-.54-.03-.93-.05-1.18l-.05-.34c.1-.33,.73-.51,1.9-.56,.58-.03,1.31-.05,2.18-.05s1.95,.02,3.13,.05c.8,.01,1.42,.01,1.85,0,.43-.02,.68-.05,.75-.1,.2-.1,.3-.58,.3-1.46,.04-.52,.04-1.1,0-1.72,0-.03-.03-.17-.08-.43-.04-.25-.12-.63-.21-1.13,0-.1,.01-.22,.03-.36,.01-.14,.03-.3,.07-.48-.08-.11-.12-.24-.13-.38-.03-.12-.05-.27-.05-.44,.01-.59,.03-1.09,.07-1.49,.01-.39,.02-.7,.02-.92-.02-1.15-.33-2.08-.92-2.79-.57-.72-1.43-1.24-2.57-1.54-.43-.11-1.1-.2-2.03-.26-.93-.04-2.1-.07-3.51-.07l-2.41,.46c-1.64,.27-2.66,1.28-3.05,3.03-.14,.57-.09,.91,.15,1.02,0,.02-.03,.03-.08,.03-.02,.01-.08,.02-.16,.02,0,1.2,.03,2.13,.08,2.77,.05,.62,.14,.97,.26,1.05v.05h-.34c0,2.1,.03,4.01,.08,5.72,.05,1.72,.14,3.24,.26,4.57,.02,.13,.05,.3,.08,.49,.05,.23,.1,.5,.13,.8,.04,.68,.1,1.25,.16,1.71,.08,.46,.16,.8,.25,1.02,.34,.99,1.13,1.73,2.36,2.21,1.24,.49,2.93,.74,5.08,.74,1.57,0,2.86-.16,3.87-.48,1.03-.33,1.75-.81,2.18-1.46,.22-.35,.39-.88,.51-1.59,.12-.72,.18-1.62,.18-2.71v-1.98c0-.14-.02-.32-.05-.52Zm-10.77-7.18c-.07-.5-.06-1.21,.02-2.11,.02-.35,.05-.69,.08-1.02,.01-.35,.02-.69,.02-1.02,.04-.42,.13-.79,.25-1.13,.12-.33,.27-.63,.44-.9,.07-.12,.23-.25,.49-.39,.25-.13,.6-.26,1.05-.38,1.49,0,2.45,.33,2.9,1,.08,.13,.15,.39,.21,.77,.04,.37,.08,.86,.11,1.46,.03,.62,.04,1.24,.02,1.84,0,.6-.04,1.19-.11,1.75l.1,.72c.03,.14,0,.26-.11,.34-.11,.08-.3,.12-.56,.13-.16,.03-.45,.05-.87,.05-.39,0-.9-.02-1.51-.05-.64-.01-1.15-.03-1.51-.07-.36-.03-.58-.07-.66-.11-.17-.09-.29-.38-.36-.89Z" fill="#666"/>
          <path d="M106.01,47.98c-.07-.04-.2-.08-.41-.11-.2-.01-.46-.03-.8-.07-.86-.04-1.4,0-1.61,.15-.04,0-.19-.03-.44-.08-.25-.04-.44-.07-.57-.07h-3.57c-.27,.01-.59,.03-.95,.05h-1.12c-.39,0-.88-.02-1.46-.05-.57-.03-1.05-.05-1.44-.05-.08,.01-.29,.03-.64,.05-.36,.01-.84,.03-1.44,.05-.26,0-.53,.02-.8,.05-.28,.03-.56,.08-.84,.13-.07,.08-.11,.21-.15,.41-.03,.2-.05,.45-.05,.77,0,.34,.02,.59,.07,.75,.05,.2,.13,.32,.21,.36,.13,.04,.38,.09,.74,.15,.38,.02,.9,.05,1.54,.08,1.98,.1,3.04,.24,3.2,.43v1.98c.02,.13,.05,.31,.1,.54,.03,.25,.07,.56,.1,.93v3.13c0,.64,.02,1.45,.07,2.43,.03,.96,.09,2.09,.16,3.38l-.08,.92c.02,.07,.07,.15,.13,.25,.08,.1,.17,.19,.3,.28v.15c-.12,0-.21,.11-.26,.33-.05,.22-.08,.54-.08,.97,0,.52,.02,1.14,.05,1.84,.03,.7,.08,1.51,.15,2.44l-.2,1.1c0,.32,.02,.69,.05,1.13,.02,.45,.05,.98,.1,1.59,.04,.57,.08,1.07,.11,1.51,.02,.44,.03,.81,.03,1.13,0,.98,.03,1.73,.08,2.23,.05,.5,.14,.78,.26,.82-.01,.03-.05,.09-.13,.16-.1,.08-.15,.16-.16,.25v4.05c-.05,.16-.07,.34-.03,.54,.02,.21,.07,.45,.15,.72,.11,.09,.33,.16,.67,.21,.35,.04,.81,.07,1.39,.07,1.04,.03,1.81-.04,2.33-.21,.5-.17,.73-.44,.67-.8-.01-.1-.04-.22-.08-.36-.03-.14-.07-.31-.1-.51l-.25-4.39v-.2c0-.08,.02-.19,.05-.34v-1.49c-.01-.46-.03-.87-.05-1.25-.04-.59-.04-1.37,0-2.34l-.29-1.54c.03-.08,.05-.15,.07-.23,.01-.08,.03-.18,.05-.31v-1.67c0-1.53-.03-3.62-.1-6.28-.04-2.68-.13-5.92-.26-9.72-.01-.95-.02-1.68-.02-2.2,.01-.52,.05-.84,.11-.95,0-.08,.02-.15,.07-.23,.05-.08,.12-.16,.2-.26l4.35-.25c.12,0,.25,0,.39-.02,.14-.03,.3-.05,.48-.07,.07-.05,.1-.28,.11-.69,0-.4,0-.99-.02-1.75h-.11Zm-6.62,13.2v-.13h.3s-.1,.09-.3,.13Z" fill="#666"/>
        </g>
        <g>
          <path d="M143.32,201.03c-.03-.2-.08-.43-.14-.67-.07-.01-.27-.02-.58-.03-.31-.02-.73-.05-1.27-.08-.69-.01-1.22,.04-1.57,.16-.31,.11-.49,.28-.55,.5,.02-.06,.05,.04,.08,.29,.04,.34,.09,.96,.14,1.84,.03,.89,0,1.6-.08,2.13-.07,.53-.19,.88-.34,1.04-.11,.15-.68,.38-1.71,.71-1.26,0-2.2-.11-2.8-.32-.62-.19-.93-.51-.93-.95v-.9c0-.07-.02-.53-.06-1.36-.05-.83-.12-2.05-.19-3.64-.01-.52-.03-.91-.05-1.15l-.05-.34c.1-.32,.72-.5,1.86-.54,.57-.03,1.28-.05,2.13-.05s1.91,.02,3.06,.05c.78,.01,1.38,.01,1.81,0,.42-.02,.66-.05,.74-.1,.19-.1,.29-.57,.29-1.43,.04-.51,.04-1.07,0-1.68,0-.03-.03-.17-.08-.42-.04-.25-.11-.61-.21-1.11,0-.1,.01-.21,.03-.35,.01-.14,.03-.29,.06-.46-.07-.11-.12-.23-.13-.37-.03-.12-.05-.26-.05-.43,.01-.58,.03-1.06,.06-1.46,.01-.38,.02-.68,.02-.9-.02-1.12-.32-2.03-.9-2.72-.56-.71-1.39-1.21-2.52-1.51-.42-.11-1.08-.19-1.99-.26-.91-.04-2.05-.06-3.43-.06l-2.36,.45c-1.6,.27-2.6,1.26-2.98,2.96-.14,.56-.09,.89,.14,.99,0,.02-.03,.03-.08,.03-.02,.01-.07,.02-.16,.02,0,1.18,.03,2.08,.08,2.71,.05,.61,.14,.95,.26,1.03v.05h-.34c0,2.05,.03,3.92,.08,5.59,.05,1.68,.14,3.17,.26,4.47,.02,.13,.05,.29,.08,.48,.05,.22,.1,.49,.13,.79,.04,.66,.1,1.22,.16,1.67,.07,.45,.15,.78,.24,.99,.33,.97,1.1,1.69,2.31,2.16,1.21,.48,2.86,.72,4.97,.72,1.54,0,2.8-.15,3.78-.46,1-.32,1.71-.8,2.13-1.43,.21-.34,.38-.86,.5-1.55,.12-.71,.18-1.59,.18-2.64v-1.94c0-.14-.02-.31-.05-.51Zm-10.53-7.02c-.06-.49-.06-1.18,.02-2.07,.02-.34,.05-.67,.08-.99,.01-.34,.02-.67,.02-.99,.04-.41,.12-.77,.24-1.11,.12-.32,.26-.61,.43-.88,.06-.12,.22-.25,.48-.38,.25-.13,.59-.25,1.03-.37,1.45,0,2.4,.33,2.84,.98,.07,.13,.14,.38,.21,.75,.04,.36,.08,.84,.11,1.43,.03,.61,.04,1.21,.02,1.79,0,.59-.04,1.16-.11,1.71l.1,.71c.03,.14,0,.25-.11,.34-.11,.07-.29,.12-.54,.13-.16,.03-.44,.05-.85,.05-.38,0-.88-.02-1.47-.05-.63-.01-1.12-.03-1.47-.06-.35-.03-.57-.07-.64-.11-.17-.09-.29-.37-.35-.87Z" fill="#666"/>
          <path d="M127,204.02c-.09-.96-.17-2.33-.24-4.1-.07-1.75-.18-3.91-.3-6.46l-.32-4.46c0-.16-.02-.38-.06-.67-.04-.29-.11-.65-.21-1.09-.52-1.21-2.13-1.96-4.82-2.26-.28-.01-.54-.03-.79-.05-.25-.01-.48-.01-.69,0-.41,.03-.85,.1-1.35,.19-.49,.07-1.04,.19-1.63,.35-.12,.01-.36,.07-.72,.19-.35,.13-.64,.2-.87,.21l-3.24-.95c-.67-.05-1.38-.06-2.12-.02-.73,.04-1.47,.14-2.23,.3-.26,.04-.5,.1-.74,.16-.25,.04-.48,.1-.71,.18-.13,0-.23-.02-.3-.06-.07-.04-.15-.12-.22-.22-.05-.2-.13-.33-.24-.37-.1-.05-.44-.09-1.04-.1-.04,0-.1,0-.18,.02-.07,.02-.17,.05-.29,.08h-2.23l-.19,.43v1.31c-.01,.07-.03,.12-.06,.14,0,0-.01,0-.02-.03l.59,16.23c-.03,.18-.05,.4-.06,.64-.02,.22-.03,.46-.03,.72,.03,.33,.06,.81,.1,1.43,.03,.6,.06,1.34,.1,2.21-.03,.1-.06,.2-.08,.32-.01,.13-.02,.26-.02,.4,0,.12,0,.26,.02,.42,.02,.15,.05,.31,.08,.48,.14,.18,.56,.27,1.27,.27,.91,.02,1.61,.02,2.12,0,.52,0,.84-.02,.95-.05,.27-.07,.44-.22,.51-.43,.07-.21,.07-.52-.02-.93l-.24-9.36c0-.16-.02-.61-.05-1.35-.02-.74-.07-1.75-.16-3.05-.07-2.69-.11-4.16-.11-4.39,0-.43,.02-.78,.06-1.06,.06-.29,.15-.5,.26-.64,.31-.41,.69-.69,1.14-.85,.45-.17,.96-.22,1.52-.14,.4,.04,.73,.13,.99,.26,.26,.12,.45,.28,.59,.5,.07,.12,.14,.32,.21,.61,.06,.28,.11,.64,.14,1.09,.1,.88,.17,1.9,.21,3.06,.04,1.19,.08,2.49,.11,3.93l.27,8.61c0,.42,.01,.96,.03,1.63,.03,.66,.05,1.46,.06,2.39,.14,.11,.38,.18,.72,.22,.33,.04,.77,.06,1.31,.06,.34,0,.71,0,1.11-.02,.42-.02,.87-.04,1.36-.06l.85-.21c.06-.03,.1-.15,.11-.35,.02-.2,.02-.48-.02-.83-.03-1.13-.08-2.71-.14-4.74-.07-2.05-.17-4.55-.29-7.48-.06-.46-.13-1.09-.19-1.89-.04-.8-.09-1.78-.14-2.93-.02-.66-.03-1.21-.02-1.63,0-.42,.02-.71,.06-.88,.14-.46,.43-.81,.88-1.06s1.04-.38,1.78-.4c.53,0,.97,.1,1.31,.29,.34,.18,.58,.46,.72,.85l.18,1.94c.17,1.58,.3,3.33,.4,5.24,.09,1.9,.13,3.96,.13,6.19,0,.29,.03,.68,.08,1.17,.04,.51,.06,.91,.06,1.2,0,.21,0,.66,.02,1.35,.03,.68,.06,1.6,.08,2.76-.02,.14-.03,.3-.03,.5,.02,.18,.06,.38,.11,.59,.09,.01,.3,.04,.66,.1,.35,.03,.84,.06,1.47,.1,.87,.04,1.48,.05,1.84,.03,.37-.01,.61-.05,.72-.13,.09-.06,.14-.16,.18-.29,0-1.09,0-2.08-.02-2.96-.02-.9-.04-1.69-.06-2.39Zm-24.74-5.48s-.07,.03-.14,.06v-.14h.19s-.02,.05-.05,.08Zm11.22-10s-.06-.04-.1-.1l.22,.14s-.09-.02-.13-.05Zm1.07,16.56s-.06-.09-.08-.16l.14,.19s-.04-.02-.06-.03Z" fill="#666"/>
          <path d="M82.64,207.31c-.03-.1-.06-.2-.1-.32,.06-.24,.11-.48,.14-.74,.03-.25,.05-.5,.05-.77s-.02-.52-.05-.79c-.03-.26-.08-.52-.14-.79l.1-2.93-.1-6.76c0-.44,0-.74,.02-.91,.02-.17,.05-.2,.08-.08-.03-.16-.13-.29-.3-.38-.18-.1-.43-.15-.74-.16-.21-.03-.41-.04-.59-.03-.19,.02-.36,.05-.5,.08-.26,0-.59-.01-1.01-.03-.43,0-.95,0-1.55-.02-.57-.03-1.07-.05-1.52-.05s-.8,.02-1.12,.05c-.14-.03-.33-.05-.56-.05s-.49,.02-.8,.05v-.11c-.14,0-.24,.13-.3,.38-.07,.27-.11,.65-.11,1.14,0,.35,.02,.64,.05,.85,.03,.2,.07,.33,.13,.37,.09,.13,.29,.2,.61,.22,.32,.03,.76,.04,1.33,.03,.49-.03,.87-.03,1.14,0,.28,.01,.44,.05,.48,.13,.06,.06,.11,.2,.14,.4,.03,.17,.05,.4,.05,.69,0-.12-.02-.07-.05,.14-.02,.22-.04,.65-.05,1.27v1.35c.01,.15,.04,.38,.1,.69,.03,.31,.06,.69,.1,1.15v1.49c0,.13-.01,.26-.03,.4-.03,.15-.05,.32-.06,.51v.61c0,.52-.03,.96-.08,1.3-.04,.35-.1,.61-.16,.79-.21,.35-.53,.63-.96,.83-.43,.21-.96,.34-1.6,.38-1.02,.09-1.85,.04-2.5-.13-.65-.16-1.12-.42-1.41-.77-.2-.26-.36-.65-.46-1.17-.1-.51-.14-1.16-.14-1.94,0-1.15-.02-1.99-.05-2.52-.01-.52-.03-.73-.05-.61,0-.25,.01-.74,.03-1.49,.01-.74,.03-1.74,.06-3,.02-.13,.05-.27,.08-.42,.01-.17,.02-.36,.02-.58v-4.78c0-.22-.02-.53-.06-.91-.03-.36-.07-.74-.13-1.12-.02-.38-.03-.68-.03-.9v-.19c0-.25,.01-.67,.03-1.27v-1.52c0-.07,0-.17-.02-.27,0-.13,0-.28-.02-.45v-.75c0-.28,.01-.81,.03-1.6,.05-1.85,.15-3.17,.29-3.96,.03-.22,.09-.48,.16-.77,.09-.29,.2-.64,.34-1.04,.22-.33,.62-.58,1.19-.74,.57-.17,1.3-.24,2.21-.21,.69,.02,1.27,.12,1.71,.29,.44,.16,.77,.41,.99,.75,.11,.14,.2,.45,.27,.95,.1,.51,.18,1.19,.26,2.04,.06,.59,.12,1.17,.16,1.75,.03,.6,.05,1.18,.06,1.73,0,.21,.01,.52,.03,.93,.02,.4,.04,.88,.06,1.46-.02,.16-.03,.35-.03,.58,.02,.21,.06,.46,.13,.74,.07,.07,.29,.13,.64,.16,.35,.03,.84,.05,1.47,.06,.6,.03,1.09,.04,1.47,.03,.41-.02,.69-.05,.87-.08,.05-.01,.11-.04,.18-.1,.06-.04,.11-.1,.14-.18v-.85c-.03-1.73-.06-3.09-.1-4.07-.04-.98-.07-1.58-.1-1.79-.17-1.34-.44-2.47-.8-3.4-.37-.92-.84-1.61-1.41-2.07l-.67-.54c-.98-.4-1.91-.66-2.77-.8-.84-.12-1.62-.1-2.32,.05h-.4c-.16,0-.37-.02-.64-.05-.07,.03-.2,.05-.38,.05-.19,.01-.43,.03-.7,.05-1.49,0-2.72,.24-3.7,.71-1,.47-1.75,1.16-2.24,2.08-.21,.45-.37,1.1-.48,1.94-.13,.83-.19,1.83-.19,3.03l-.02,.18c-.02,.2-.05,.56-.08,1.06v1.88c.03,.17,.06,.32,.08,.43,.01,.13,.02,.24,.02,.34,0,.07-.02,.22-.05,.45-.01,.22-.05,.52-.13,.88l.08,1.22v1.04c-.01,.48-.03,.81-.06,.99l-.02,.13v1.33c.03,.42,.05,.78,.06,1.09,.01,.32,.02,.59,.02,.8v3.27c0,2.88,.05,5.2,.14,6.96v1.89c.03,.14,.08,.32,.14,.53,.05,.21,.14,.46,.26,.74,.11,1.02,.4,1.86,.87,2.55,.48,.67,1.15,1.18,2.02,1.52,.53,.21,1.28,.38,2.23,.5,.96,.11,2.13,.16,3.51,.16l4.02-.13c.26,.01,.53,.03,.83,.06,.29,.02,.61,.03,.96,.03,.27,0,.54,0,.83,0,.28-.02,.57-.04,.88-.05,.19-.07,.33-.3,.42-.69,.07-.41,.07-.95,0-1.62-.03-.07-.06-.16-.1-.26Zm-1.27-25.58c-.05,0-.05,.05,0,.14h-.1s-.02-.05-.05-.1c-.02-.04-.04-.09-.05-.14l.19,.1Zm-4.42-7.82s.04-.03,.05-.06h.13s-.02,.05-.05,.06c-.03,.03-.09,.05-.16,.06,0-.01,.01-.03,.03-.06Zm-9.71,7.32s-.05-.01-.06-.03c-.02,0-.03-.02-.03-.05,0-.01,.01-.04,.03-.1,.01-.02,.03-.05,.06-.08v.26Zm.3,17.95v-.27s.07,.04,.11,.08c.03,.05,.06,.12,.1,.19h-.21Z" fill="#666"/>
          <path d="M99.53,208.19l-.35-.56c-.14-.92-.23-1.62-.27-2.12-.06-.5-.08-.77-.05-.82v-.46c.02-.18,.04-.4,.05-.66-.04-.25-.08-.49-.11-.72-.02-.21-.03-.43-.03-.64v-1.7c-.02-.09-.05-.21-.08-.37-.05-.14-.09-.32-.1-.53,.01-.17,.03-.35,.06-.54,.02-.21,.03-.44,.03-.67l-.24-5.56c.02-.15,.03-.35,.03-.61,.01-.25,.02-.54,.02-.9,0-.03,0-.18-.02-.45,0-.3-.01-.72-.03-1.25,0-.19-.04-.4-.11-.61-.06-.21-.15-.43-.27-.66,.03-.03,.07-.05,.13-.05,.06,0,.15,0,.26,0-.21-.35-.38-.65-.5-.88s-.19-.39-.21-.46c-.19-.25-.4-.47-.63-.67-.23-.18-.48-.33-.74-.45,.01,0,.04-.01,.08-.03,.03-.01,.06-.03,.1-.06l-1.46-.56c-.16-.06-.36-.12-.61-.18-.26-.06-.56-.13-.91-.21-.21-.02-.53-.05-.95-.08-.43-.01-.96-.02-1.6-.02h-.83c-.83,.13-1.48,.23-1.94,.3-.45,.09-.72,.14-.82,.18-.43,.11-.8,.25-1.12,.42-.34,.17-.64,.36-.9,.58-.13,.1-.24,.21-.34,.35-.09,.14-.17,.28-.24,.43-.1,.17-.14,.32-.13,.43,0,.13,.05,.22,.16,.29l-.32,.67s-.03,.2-.06,.48c-.01,.29-.02,.69-.02,1.2v.75c-.02,.35-.04,.82-.05,1.39,0,.18,.04,.32,.13,.42v.13s-.03,.05-.06,.06c-.01,.03-.02,.07-.02,.13,0,.21,.18,.36,.53,.43,.35,.1,.88,.13,1.59,.1,.6-.05,1.02-.1,1.27-.14,.27-.04,.43-.14,.48-.3,.06-.15,.11-.41,.14-.79l.24-2.18,.37-1.78c.12-.21,.28-.39,.5-.53,.21-.14,.49-.24,.83-.29,.31-.04,.6-.06,.88-.05,.28,.02,.54,.07,.79,.14,.49,.18,.88,.38,1.15,.61,.29,.19,.46,.4,.53,.61,0,.13,0,.28,.02,.45,0,.15,.01,.33,.03,.54,.07,.36,.08,.76,.02,1.19-.06,.45-.18,.94-.34,1.47-.03,.18-.08,.37-.14,.56-.06,.19-.13,.38-.19,.58l-1.52,1.36-3.16,1.63-.75,.63-1.36,.85-.62,.51,.11,.22c-.46,0-.81,.36-1.04,1.09-.22,.74-.35,1.82-.38,3.25v2.36c.03,.58,.16,1.11,.37,1.59s.53,.91,.95,1.3c.56,.46,1.21,.8,1.96,1.01,.76,.2,1.62,.27,2.58,.21l2.71-.35c.4-.04,.69-.08,.9-.11l.32-.06,.87,.18c1.51,.38,2.77,.49,3.8,.3,.28-.04,.49-.13,.64-.26,.14-.11,.22-.25,.26-.42,0-.07-.02-.17-.06-.27-.04-.11-.1-.24-.16-.38Zm-11.38-4.54v-.13h.14s-.05,.09-.14,.13Zm6.2,1.11c-.05,.83-.14,1.38-.26,1.65-.02,.01-.15,.07-.4,.18-.27,.11-.62,.25-1.07,.42h-.99c-.26,0-.46-.02-.61-.05-.56-.03-1.03-.17-1.41-.42-.38-.25-.68-.59-.9-1.03l-.05-1.86c-.03-.58-.05-1.04-.05-1.38s.02-.56,.05-.63c.04-.12,.09-.25,.13-.38,.05-.14,.09-.29,.1-.46,.13-.49,.32-.91,.58-1.27,.28-.34,.64-.61,1.09-.82,.89-.42,1.97-1.03,3.25-1.83,.17,.1,.31,.52,.42,1.28,.11,.75,.18,1.85,.21,3.3,0,1.38-.03,2.47-.08,3.29Z" fill="#666"/>
        </g>
        <g>
          <path d="M94.57,144.11l-.44-4.3-4.74-29.04c-.96-6.05-1.67-10.79-1.93-14.21,0-.35-.09-.79-.35-1.32-.53-.61-1.23-.88-2.02-.88-.43,0-.78,.09-1.22,.17-.12-.01-2.06-.09-5.89-.17v.18c-1.14,0-1.93,.88-2.19,2.63-.61,3.07-1.4,7.55-2.37,13.6-.26,.44-.44,1.32-.61,2.46-.44,3.68-1.23,9.21-2.28,16.58l-.88,4.65c-.09,1.05-.79,5.88-1.93,14.56-.26,2.54-.79,6.32-1.4,11.41-.35,2.28-.44,3.51-.35,3.6,.26,.44,1.49,.61,3.68,.7,2.19,.09,3.42-.09,3.77-.53l.96-6.76c.09-.88,.35-2.28,.88-4.3,.26-.09,1.93-.18,5.09-.18,2.89,0,4.83,0,5.88-.09,.53,.09,.97,.96,1.23,2.63l.96,5.61c.09,.88,.44,2.02,.96,3.42,.26,0,.7,0,1.23,.09,5,.26,7.37-.09,7.28-.96-.61-4.47-1.49-9.74-2.54-15.79-.26-.7-.53-1.93-.79-3.77Zm-9.3,4.3c-1.4-.09-3.16,0-5.26,.09h-2.02c-1.32,0-2.02-.18-2.19-.44-.26-.18-.26-.97,0-2.46l.44-5.18c.26-.79,.53-2.02,.79-3.6,0-1.05,.18-2.46,.61-4.3l.7-2.72c-.09-.26-.18-.53-.18-.96l.61-2.63c.09-1.32,.53-4.04,1.23-7.98,0-1.14,.35-2.81,.97-5,.44,.26,.7,1.32,.97,3.25l.44,2.72c.88,5.53,1.84,13.42,2.9,23.51l.61,4.12c.09,.96-.09,1.49-.61,1.58Z" fill="#666"/>
          <path d="M122.65,147.18c-1.84-.09-2.81-.09-2.98,.18-.09,.18-.26,.79-.35,1.84-.09,1.58-.18,2.46-.18,2.54,.35,3.16,.26,5.18-.26,6.05-.26,.44-1.49,.96-3.68,1.58-3.33,0-5.35-.79-6.14-2.46-.53-1.14-.88-3.51-.96-6.93-.09-2.19,0-5.35,.09-9.48,.18-4.12,.26-6.58,.26-7.37-.09-2.37-.09-4.21,0-5.61-.09-.79,.18-1.93,.79-3.42,.79-.61,1.93-.97,3.6-1.23,3.25-.44,5.09,.88,5.53,4.12,0,2.11,.26,4.39,.7,6.84,.44,.26,1.32,.44,2.81,.44,2.19,.09,3.42,.09,3.6,0,.53-.09,.88-.61,.97-1.58,0-.35-.09-1.23-.18-2.63l-.09-1.84v-1.84c.09-1.32-.09-2.81-.53-4.56-.44-.79-1.49-1.67-3.16-2.54-1.67-.88-3.25-1.4-4.74-1.58-.53-.09-2.81-.09-6.76-.18l-2.19,.26c-5.09,.96-7.81,3.16-8.25,6.58v5.79c-.09,.44-.18,.7-.18,.96,.09,.53,.26,1.49,.35,2.81,0,3.07,.09,8.42,.26,16.23,0,.26,.09,2.98,.35,7.98,1.32,4.56,6.32,6.58,15.18,6.05,.7,0,1.49-.09,2.37-.18,2.89-.44,5-1.23,6.14-2.37l.96-1.4,.79-1.75v-5.18c0-2.37-.18-4.3-.53-5.88-.44-.09-1.58-.18-3.6-.26Zm-1.23,5.18l.26,.26c0,.26-.09,.18-.26-.26Z" fill="#666"/>
          <path d="M149.84,118.67h-3.16c-1.4,0-2.19-.26-2.28-.7v-3.77c0-1.49-.26-5.44-.26-6.93,0-2.19-.09-3.33-.35-3.51,0-.09,.53-.53,.53-.61,.09-.79,.26-1.93,.61-3.42-.33,0-.73,0-1.21,.07-.17-.06-.49-.13-.99-.25-.09,.09-.18,.18-.18,.35,0,.09,.09,.26,.18,.35-.26,0-.35,0-.35,.09h-.35l-1.23-.09c-.79,0-1.32,.18-1.58,.44h-.44c0-.09-.09-.18-.35-.18-.18,.11-.39,.29-.6,.53,.52,.09,.95,.35,1.22,.61h-.26v-.18c-.35,0-.69-.17-.96-.43-.3,.33-.62,.79-.97,1.4l.18,1.49c0,.26-.08,.77-.17,1.54,.02,.04,.09,.91,.17,2.5-.26,.96-.44,4.3-.61,10-.09,.35-.35,.61-.79,.79v.08c-.15-.02-1.3-.11-3.51-.26-2.89-.26-3.6,0-3.33,1.67v2.02c.26,.53,1.49,.88,3.77,.97,2.37,.09,3.6,.35,3.86,.79,.09,.09,.09,1.32,.09,3.68l.18,7.28c0,2.72,.09,5.26,.18,7.81l.35,7.9c0-.18,0,1.58,.09,5.26,0,1.49,.09,3.51,.35,6.05,0,.61,.35,1.32,.96,2.28,1.05,.79,2.72,1.14,5,1.14,2.72,.09,4.47,0,5.26-.26,.18,0,.26,0,.26-.09,0,.09-.79-.53-2.37-1.84-.18-.26-.44-1.49-.88-3.6,.09-1.75,0-2.9-.18-3.42v-2.28l-.53-6.84,.18-1.67c0-4.04-.18-10.09-.61-18.07-.09-2.02,0-3.25,.44-3.86,3.42,0,5.26-.18,5.61-.61,.44-.44,.53-1.32,.44-2.63-.09-.97-.61-1.49-1.4-1.58Zm-11.05-12.46h-.79c0,.09-.09,.09-.18,0,0-.09,.09-.09,.18-.09v-.09c.18,0,.44,0,.79,.09v.09Zm-.53-.88v-.26c.09,0,.26,.09,.53,.18-.09,0-.26,0-.53,.09Zm.96,5v-.26h.35c0,.09-.09,.18-.35,.26Zm.96-9.04l.61,.18c-.26,0-.44-.09-.61-.18Zm2.19-.44c.09,.09,.26,.18,.35,.35h-.53v-.18c-.09,0-.26,0-.44-.09,.18,0,.35,0,.61-.09Zm.35,5.61h-.35c0-.18-.09-.35-.18-.61,.09,.18,.26,.35,.53,.44v.18Zm.26-4.83h-.17c-.09-.09-.09-.26-.09-.35l.26,.18v.18Z" fill="#666"/>
          <path d="M161.86,105.95c-2.02-.18-3.77-.26-5.26-.26-.7,.26-1.14,.61-1.4,1.23,0,0-.09,.53-.18,1.58-.09,1.23,.09,1.93,.53,2.11,1.23,.26,2.19,.35,2.98,.26,1.67,.09,2.72,0,2.98-.09,.79-.26,1.14-1.05,1.14-2.37,0-1.4-.26-2.19-.79-2.46Z" fill="#666"/>
          <path d="M162.47,121.47c0-1.4-.09-2.28-.18-2.63-.44-.61-1.05-.88-1.93-.88-.44,0-.88,.09-1.4,.18-1.14,0-2.02,0-2.54-.09-.26,0-1.05,0-2.37,.09l-.26,.61v7.72l.18,6.23v1.23c-.09,.79-.18,1.58-.18,2.28v3.6c0,.7,.26,2.19,.26,2.9,0,1.49,0,3.51-.09,5.97-.26,3.25-.35,5.26-.35,6.05,0,.26,.09,.7,.18,1.49l-.53,7.98c0,.44,.35,.7,.96,.88,1.32,.26,3.16,.35,5.7,.26,.96-.09,1.58-.26,1.93-.61,.09-.09,.09-1.14,.09-3.16v-5l.18-1.58c.09,.26,.18-1.05,.18-3.95v-.96c-.09-.61-.18-1.05-.18-1.4v-2.37c0-.61,.09-1.67,.18-3.16,.09-1.32,.18-2.37,.18-3.16-.09-2.37-.18-5.7-.18-10-.09-1.14-.09-2.46,0-3.95l.18-4.56Zm-4.47,4.39v-.26h.35c0,.09-.09,.18-.35,.26Z" fill="#666"/>
          <path d="M192.91,147.53c0-8.69-.35-16.41-1.14-23.07-.18-1.93-1.14-3.42-2.98-4.47-.79-.53-1.58-.79-2.37-.79v-.44c0-.09-.79-.26-2.37-.53l-2.81-.35-2.37,.26c-1.14-.09-1.84-.09-2.11,0-.26,0-.79,0-1.58,.09-1.23,0-2.72,.26-4.39,.79-3.25,.97-5.09,2.63-5.53,4.83v1.75c-.26,3.42,0,3.6,0,5.26,0,6.58,.35,15.27,1.14,25.97,0,.35,.18,1.32,.61,2.98,1.67,3.07,6.14,4.65,13.25,4.74,4.12,0,7.28-.61,9.65-1.93,1.67-.96,2.72-2.46,2.98-4.47,.09-.61,.09-3.16,0-7.63v-2.98Zm-9.12,9.47c-.44,1.58-1.75,2.37-3.95,2.37-2.89,.09-4.65-.96-5.26-2.98-.09-.35-.18-2.11-.18-5.26v-1.93c-.08-1.5-.09-2.22-.09-2.02,0-.36,0-.94,.09-1.66,0-.79,0-1.4-.09-1.84,0-.79-.35-3.07-.35-3.86,0-.26,.09-.88,.18-1.93-.09-.35-.18-.88-.18-1.58v-2.46c-.26-3.16-.35-5.53-.18-7.19-.09-.44,0-1.14,.35-2.11,.18-.44,1.32-.88,3.33-1.49,5,.09,5.61,1.05,5.61,4.12,0,.96,0,1.84-.09,2.54v.7c0,.26,.18,3.77,.44,10.62l.44,12.11c0,2.19,0,3.42-.09,3.86Z" fill="#666"/>
          <path d="M223.44,159.2v-1.67c.09-1.49,.18-2.11,.18-1.67v-5.7c0-.88-.09-2.02-.18-3.42v-8.69c-.09-1.67-.17-2.28-.17-1.84,0-1.67,0-4.47-.09-8.6,0-1.75-.35-3.95-.96-6.49-.97-1.67-3.42-2.72-7.46-3.16-1.67-.18-3.07-.09-4.21,.18-1.49,0-4.47,.61-5.44,.61-.26-.26-.88-.53-1.67-.88l-7.11-.26c-.09,0-.26,0-.53,.09v13.6c.09,.44,.26,1.23,.35,2.19-.09,.44-.18,1.05-.18,2.02v2.11c0,.97,.09,3.95,.18,8.86l.18,7.72v7.72c0,1.75-.09,2.54-.18,2.46,.18,.26,.79,.44,1.75,.53,4.21,.18,6.58,0,7.19-.53,.35-.26,.44-.79,.35-1.67l-.18-1.75v-19.83c0-.88-.09-2.19-.18-3.86-.09-1.75-.09-3.07-.09-3.95,0-.44,0-2.19,.09-5.26,0-.88,.18-2.02,.53-3.33,1.23-1.67,3.07-2.37,5.53-2.02,1.75,.26,2.72,1.14,2.81,2.63v3.6c0-.26,.09,.79,.35,3.16,.09,.79,.09,2.19,0,4.21-.26,5.88-.26,12.72-.18,20.53v2.46c-.08,2.22-.15,3.3-.17,3.37,.09,1.03,.44,1.64,.96,1.9,1.32,.53,3.86,.61,7.46,.26,.7-.09,1.14-.44,1.4-.96v-1.58c0,.18-.09-.88-.35-3.07Zm-23.07-4.83l.35,.35c-.09-.09-.26-.18-.35-.35Z" fill="#666"/>
        </g>
        <g>
          <path d="M234.61,88.62c.03-.3-.04-.57-.19-.82-.16-.25-.38-.42-.66-.53l-14.28-5.48-7.89-12.04c-.15-.25-.37-.42-.64-.52-.27-.1-.55-.11-.83-.04-.28,.09-.51,.24-.7,.47l-8.77,11.39-14.7,4.24c-.28,.09-.51,.24-.7,.47-.17,.24-.26,.51-.27,.8,0,.29,.08,.55,.24,.79l8.32,11.43-3.13,12.47c-.07,.31-.03,.61,.1,.89,.13,.29,.35,.5,.63,.63,.29,.14,.58,.17,.89,.09l7.17-1.78c.36-.09,.63-.3,.81-.62,.2-.31,.25-.65,.16-1.01-.09-.35-.29-.62-.62-.81-.31-.19-.64-.23-1-.14l-5.02,1.23,2.71-10.92c.05-.19,.06-.38,.02-.57-.04-.19-.11-.37-.23-.52l-7.55-10.41,13.3-3.85c.28-.07,.51-.23,.68-.46l7.91-10.25,7.1,10.87c.16,.24,.37,.4,.63,.51l12.91,4.95-8.41,9.74c-.13,.15-.22,.32-.27,.51-.05,.19-.07,.39-.04,.58l1.86,11.14-5.4-1.79c-.34-.11-.68-.09-1.01,.08-.32,.17-.55,.42-.67,.78-.11,.35-.09,.68,.08,1.01,.16,.33,.41,.54,.75,.66l7.49,2.47c.31,.1,.61,.09,.91-.03,.3-.1,.52-.29,.67-.56,.16-.28,.21-.58,.15-.9l-2.11-12.68,9.26-10.7c.19-.22,.29-.47,.31-.76Z" fill="#666"/>
          <path d="M218.46,91.47c-.3-.27-.75-.31-1.36-.1l-2.83,5.21,1.58-7.54c-.06-.66-.3-1.07-.72-1.25-.36-.23-.87-.24-1.52-.04l-2.64,7.94,.49-8.86c-.32-.48-.71-.76-1.18-.86-.48-.1-.97,.03-1.45,.39l-1.34,9.07-.93-8.67c-.99-.68-1.84-.56-2.57,.38-.02,.54,.03,2.82,.14,6.83,.01,2.81-.08,4.95-.29,6.41l-1.33-3.66c-1.1-1.37-2.34-1.69-3.72-.97,.47,1.36,.82,2.59,1.05,3.69l.77,4.46c2.16,2.36,3.33,4.6,3.51,6.74,3.35-1.68,6.56-1.55,9.62,.39l2.63-10.92c.67-2.61,1.54-5.02,2.63-7.23-.05-.67-.23-1.15-.54-1.43Z" fill="#666"/>
        </g>
      </g>
    </g>
  </g>
</svg>