<?xml version="1.0" encoding="UTF-8"?>
<svg id="Layer_2" data-name="Layer 2" xmlns="http://www.w3.org/2000/svg" width="294" height="269" xmlns:xlink="http://www.w3.org/1999/xlink" viewBox="0 0 294 269">
  <defs>
    <filter id="drop-shadow-1" filterUnits="userSpaceOnUse">
      <feOffset dx="7" dy="7"/>
      <feGaussianBlur result="blur" stdDeviation="9"/>
      <feFlood flood-color="#000" flood-opacity=".5"/>
      <feComposite in2="blur" operator="in"/>
      <feComposite in="SourceGraphic"/>
    </filter>
  </defs>
  <g id="Capa_1" data-name="Capa 1">
    <g>
      <rect x="20" y="20" width="240" height="215" rx="39.51" ry="39.51" fill="#fff" filter="url(#drop-shadow-1)"/>
      <g>
        <path d="M99.07,156.3c.12-1.84,.19-2.8,.22-2.91-.07-.49-.14-.99-.14-1.41,0-.23,.08-.85,.23-1.7-.08-1.47-.23-3.63-.54-6.56-.23-.23-1.85-.46-4.86-.62l-2.08,.69c-.15,.08-.23,.31-.23,.62v.46c.08,.69,.08,1.54,0,2.7v4.86c-.23,.31-.46,.77-.54,1.31,0,.23,.08,.69,.23,1.47l-.23,1.47c-.08,1.08-.31,2.32-.69,3.78-.08,.15-1.23,.54-3.32,1.08-2.24-.08-3.63-.85-4.32-2.39-.23-.62-.39-1.85-.31-3.78l-.08-8.33c0-.15,.08-.77,.23-1.85l-.23-2.01,.23-2.86c.08-.23,.08-.85,0-1.78,.15-1.23,.23-2.47,.31-3.63l-.23-3.32c-.31-8.26-.39-14.27-.23-18.13,.08-1.93,.31-3.09,.69-3.47,.93-.77,2.32-1.16,4.17-1.08,2.01,.08,3.16,.85,3.55,2.47v1.24l.23,1.31c-.15,.85-.23,1.16-.23,1.08,.08,1.54,0,4.17-.15,7.87l-.15,3.16c.54,.62,2.39,1,5.71,1.08l2.08,.08c.46-.08,.77-.23,.93-.62l-.08-2.78,.23-1.16c-.15-.46-.23-3.32-.31-8.49,0-2.16-.15-3.55-.39-4.24-1.16-3.32-4.32-5.09-9.64-5.4l-2.39-.23c-.23,.08-.69,.08-1.47,.15-6.87-.23-10.34,2.16-10.57,7.17-.08,.85,0,2.08,.08,3.71s.15,2.85,.15,3.7c-.15,.39-.31,1-.39,1.7l.23,1.31-.23,.93c.15,1.62,.15,3.7,.08,6.33l-.08,1.62c0,.62,.15,2.08,.08,2.63-.08,3.63-.08,9.49-.08,17.59-.08,1.93-.15,2.86-.15,2.86-.08,1.16,.31,3.16,1,6.02,.54,1.24,1.85,2.62,3.94,4.17,1.47,.69,4.55,1.23,9.18,1.47,2.24,.15,4.24-.08,6.1-.69l1.93-.69c1.47-.77,2.32-3.4,2.55-7.95Z" fill="#666"/>
        <path d="M99.29,153.39s0,.09,.01,.13c0-.13,0-.16-.01-.13Z" fill="#666"/>
        <path d="M103.31,108.77c-.69,.85-1,2.01-1,3.63v25.62c-.08,.69-.15,1.24-.15,1.7,.08,2.24,.08,5.63,0,10.11,0,.39,.31,1.47,.31,1.78-.08,.23-.23,.54-.31,.93,.23-.54,.31,1.31,.31,4.4,0,1.31,.15,2.7,.54,4.17,1.93,3.55,7.02,5.25,15.12,5.09,.54,0,1.62-.15,3.09-.46,3.63-.69,5.86-2.24,6.79-4.48,.39-.85,.62-4.01,.69-9.34,0-1.78,.08-3.47,.15-4.94v-1.7c-.05-1.03-.1-1.6-.13-1.79,.03-.17,.08-.69,.13-1.61v-1.54c0-1-.31-3.7-.31-4.86,.23-6.48,.23-11.88,0-16.28,0-.31,.08-.93,.15-1.93v-2.24c-.08-5.4-2.78-8.72-7.95-9.88-1.16-.23-2.16-.39-3.01-.39-.69,0-1.16,.08-1.54,.15l-4.17-.23c-.08,.08-.23,.08-.31,.08v.23c-1,0-1.54,.08-1.77,.15h-.15c-.39,0-.77,0-1.24,.08-2.08,.54-3.86,1.78-5.25,3.55Zm22.45,39.74v.08h-.15l-.93,.69,.15-.77h.93Zm-1.24-25.08l.31,.23c-.23,0-.39-.08-.62-.15,.23,0,.31,0,.31-.08Zm-14.43-15.74c0,.08,.08,.15,.23,.31-.08,0-.15-.08-.39-.23,.08,0,.15,0,.15-.08Zm-.69,13.66c0-.69,.15-3.32,.54-7.72-.08-.69,.15-1.62,.69-2.86,.39-.39,1.31-.85,2.78-1.39,2.55,0,4.17,.31,4.86,.85,.46,.39,.85,1.31,1.23,2.93,.39,1.77,.54,4.24,.54,7.33v14.58c0,.39-.23,2.85-.23,4.32,0,3.24,.08,6.1,.15,8.64,.05,1.55,.07,2.45,.07,2.69-.08,2.15-.15,4.67-.38,7.57-.08,.85-.31,1.78-.69,2.78-.46,.15-1.16,.39-2.08,.77-2.78,0-4.55-.23-5.4-.62-1.47-.69-2.08-3.16-1.85-7.56v-1.39c.31-4.09,.39-7.33,.31-9.72,0-.39-.08-1.16-.15-2.24v-2.86l-.23-2.47c-.23-5.79-.23-10.34-.15-13.66Zm-4.86,6.48c.08,.08,.31,.15,.54,.23h-.85v-.15h.31v-.08Z" fill="#666"/>
        <path d="M173.61,140.32c0-1-.31-3.7-.31-4.86,.23-6.48,.23-11.88,0-16.28,0-.31,.08-.93,.15-1.93v-2.24c-.08-5.4-2.78-8.72-7.95-9.88-1.16-.23-2.16-.39-3.01-.39-.69,0-1.16,.08-1.54,.15l-4.17-.23c-.08,.08-.23,.08-.31,.08v.23c-1,0-1.54,.08-1.77,.15h-.15c-.39,0-.77,0-1.24,.08-2.08,.54-3.86,1.78-5.25,3.55-.69,.85-1,2.01-1,3.63v25.62c-.08,.69-.15,1.24-.15,1.7,.08,2.24,.08,5.63,0,10.11,0,.39,.31,1.47,.31,1.78-.08,.23-.23,.54-.31,.93,.23-.54,.31,1.31,.31,4.4,0,1.31,.15,2.7,.54,4.17,1.93,3.55,7.02,5.25,15.12,5.09,.54,0,1.62-.15,3.09-.46,3.63-.69,5.86-2.24,6.79-4.48,.39-.85,.62-4.01,.69-9.34,0-1.78,.08-3.47,.15-4.94v-1.7c-.05-1.03-.1-1.6-.13-1.79,.03-.17,.08-.69,.13-1.61v-1.54Zm-24.61-12.27v-.15h.31v-.08c.08,.08,.31,.15,.54,.23h-.85Zm5.86-20.37c0,.08,.08,.15,.23,.31-.08,0-.15-.08-.39-.23,.08,0,.15,0,.15-.08Zm9.95,27.39c0,.39-.23,2.85-.23,4.32,0,3.24,.08,6.1,.15,8.64,.05,1.55,.07,2.45,.07,2.69-.08,2.15-.15,4.67-.38,7.57-.08,.85-.31,1.78-.69,2.78-.46,.15-1.16,.39-2.08,.77-2.78,0-4.55-.23-5.4-.62-1.47-.69-2.08-3.16-1.85-7.56v-1.39c.31-4.09,.39-7.33,.31-9.72,0-.39-.08-1.16-.15-2.24v-2.86l-.23-2.47c-.23-5.79-.23-10.34-.15-13.66,0-.69,.15-3.32,.54-7.72-.08-.69,.15-1.62,.69-2.86,.39-.39,1.31-.85,2.78-1.39,2.55,0,4.17,.31,4.86,.85,.46,.39,.85,1.31,1.24,2.93,.39,1.77,.54,4.24,.54,7.33v14.58Zm4.48-11.65l.31,.23c-.23,0-.39-.08-.62-.15,.23,0,.31,0,.31-.08Zm1.24,25.15h-.15l-.93,.69,.15-.77h.93v.08Z" fill="#666"/>
        <path d="M203.71,112.01c-.46-4.17-3.01-6.56-7.72-7.1-1.52,0-3.64-.07-6.34-.25l-13.21,7.62c.04,1.87,.1,3.48,.18,4.74,.08,1.16,.15,3.39,.15,6.71,0,.23-.08,.69-.15,1.24v1.24l.15,4.17c0,.15-.08,.46-.15,.93-.08,.46-.08,.77,0,1v6.17c.08,.54,.15,1.24,.15,2.24v3.78c-.08,2.08-.15,3.86-.15,5.4,0,.69,.08,1.85,.15,3.63,.08,2.08,.15,3.78,.15,5.09v2.78c0,.54-.08,1.08-.15,1.7v1c0,1.08,.15,1.7,.46,1.85h.08c.54,.23,2.08,.31,4.48,.23,.85,.08,2.01,.08,3.47-.15,0-.39,.08-1.31,.15-2.85v-4.63c-.08-.77-.15-1.47-.15-2.01,0-.15,.08-.39,.15-.62v-.69c0-.85-.31-2.7-.31-3.55,0-3.63,.08-6.63,.15-8.95,.08-1.31,.08-2.32,0-2.86-.08-1.31-.08-2.08,0-2.32l1.93-.15c3.94,.08,6.33,.08,7.25,0,4.09-.46,6.87-1.7,8.49-3.78,.46-.62,.85-2.16,1.08-4.55,.39-3.4,.39-7.02,.15-10.8l-.46-6.25Zm-7.87,19.37l-.69,.77c-.08,.08,0,.15,.23,.39h-.23c0,.23-.69,.46-2.08,.69l-2.78,.54c-.46,0-1.54,.08-3.24,.23-1.54,0-2.47-.15-2.78-.39-.08-.08-.08-.62-.08-1.77-.23-5.79-.23-9.41-.15-11.03,.15-4.55,.23-6.64,.23-6.41,0-.85-.15-2.16-.39-3.93-.08-.54-.15-.93-.15-1.24,.08-.15,.31-.31,.54-.39v-.08c3.47,0,5.79,.08,6.95,.31,2.39,.39,3.78,1.24,4.17,2.62,.23,.69,.39,1.7,.46,2.93l.23,5.09c0,.39,.08,.93,.31,1.7-.08,1-.15,2.01-.15,3.16,.08,1.31,.15,2.47,.15,3.55,.08,.85,.15,1.31,.15,1.24l-.69,2.01Z" fill="#666"/>
        <path d="M178.07,103.36l1.07,.61,1.07-.61,2.27-1.3,1.48-.85-.42-1.37,.41,.21,1.07,.55,1.03-.63,2.57-1.58,1.5-.92-.37-.99,.21,.1,1.06,.52,1.01-.62,2.35-1.44,1.45-.89-.34-1.01,.17,.09,1.12,.56,1.04-.7,2.51-1.69,2.5-1.68-2.4-1.81-1.86-1.41,.36-.2,2.49-1.36,1.11-.61v-20.46l-1.3-.56-20.06-8.61-1.3-.56-1.02,.97-4.75,4.52-1.03-1.05-3.95-4.03-1.05-1.07-1.36,.61-20.54,9.23-1.27,.57v20.44l1.08,.62,32.12,18.42Zm-2.62-42.38c-.21,.36-.29,.54-.25,.54,.02,0,.06-.03,.13-.1h-.02l5-4.75,20.06,8.61v17.77l-2.49,1.36-18-13.58-9.97,5.22h.02c-1.35,.67-2.68,1.01-3.97,1.01-2.35,0-4.62-1.1-6.8-3.3l16.07-12.24c-.08,.05-.14,.09-.18,.12l.4-.66Zm-28.43,4.29l20.54-9.23,3.95,4.03-17.33,13.18,1.16,1.34,.02,.02c3.32,3.99,6.79,5.99,10.42,5.99,.98,0,1.96-.14,2.96-.43l.14,.2,10.77-5.48,19.46,14.7-2.51,1.69-4.81-2.43,1.44,4.33-2.35,1.44-5.04-2.47,1.63,4.37-2.57,1.58-4.91-2.51,1.4,4.57-2.27,1.3-32.12-18.42v-17.81Z" fill="#666"/>
        <path d="M215.26,61.61h-8.72c-.59,0-1.07,.48-1.07,1.07v28.71c0,.59,.48,1.07,1.07,1.07h8.72c.59,0,1.07-.48,1.07-1.07v-28.71c0-.59-.48-1.07-1.07-1.07Zm-1.07,28.71h-6.57v-26.57h6.57v26.57Z" fill="#666"/>
        <path d="M141.14,92.46c.59,0,1.07-.48,1.07-1.07v-28.71c0-.59-.48-1.07-1.07-1.07h-8.72c-.59,0-1.07,.48-1.07,1.07v28.71c0,.59,.48,1.07,1.07,1.07h8.72Zm-7.64-28.71h6.57v26.57h-6.57v-26.57Z" fill="#666"/>
        <rect x="131.74" y="127.46" width="12.76" height="5.14" rx="1.1" ry="1.1" fill="#666"/>
        <path d="M76.01,55.52c.05,.26,.15,.77,.21,1.54v3.34c0,1.39,.1,3.45,.26,6.18l-.1,.98c.05,.15,.21,.36,.46,.57v.15c-.26,0-.36,.46-.36,1.39,0,1.08,.05,2.57,.21,4.53l-.21,1.18c0,.67,.05,1.6,.15,2.88,.1,1.24,.15,2.16,.15,2.83,0,2.11,.1,3.19,.36,3.29,0,.05-.31,.26-.31,.41v4.32c-.1,.36-.05,.77,.1,1.34,.26,.21,.98,.31,2.21,.31,2.21,0,3.29-.36,3.19-1.13-.05-.21-.15-.51-.21-.93l-.1-3.09-.15-1.6c0-.05,0-.26,.05-.57,0-1.13,0-2.11-.05-2.93-.05-.62-.05-1.44,0-2.47l-.31-1.65c.05-.15,.1-.31,.1-.57v-1.8c0-3.24-.1-8.9-.36-17.03-.05-2.01-.05-3.09,.1-3.34,0-.15,.1-.31,.26-.51l4.63-.26c.26,0,.57-.05,.93-.1,.15-.1,.15-.98,.1-2.57h-.1c-.15-.05-.57-.1-1.29-.15-.93-.05-1.49,0-1.7,.15-.05,0-.88-.15-1.08-.15h-3.09c-.41,0-.98,0-1.75,.05h-1.18c-.77,0-2.32-.1-3.09-.1-.15,.05-.93,.05-2.21,.1-.57,0-1.13,.05-1.75,.21-.15,.15-.21,.57-.21,1.24s.1,1.03,.31,1.13c.26,.1,1.03,.21,2.42,.26,2.11,.1,3.24,.26,3.4,.46v2.11Zm4.17,8.64h.31c0,.05-.1,.1-.31,.15v-.15Z" fill="#666"/>
        <path d="M90,54.44c0,.07,0,.04,0-.06,0-.04,0-.04,0,.06Z" fill="#666"/>
        <path d="M90,54.38c.01,.2,.06,1.98,.15,5.36,.05,2.06,.1,7.92,.1,17.54,0,.77,.21,2.68,.21,3.45v1.85c.05,2.16,.05,3.65,.05,4.42-.1,.72-.21,1.44-.26,2.11-.15,.77,0,1.34,.36,1.65,.46,.46,1.39,.67,2.78,.67,1.23,0,2.21-.05,2.88-.2-.01-.18-.07-1.55-.2-4.07-.05-3.55-.1-7.46-.26-11.78v-6.84c.26-1.29,1.29-1.9,3.14-1.8,1.13,.05,1.8,.93,1.96,2.57,.15,.98,.21,1.49,.21,1.54,0,.77-.05,1.44-.1,2.11,0,.57,.15,1.85,.15,2.42,0,.26,0,.67-.05,1.13,.05,.26,.05,.62,.05,1.08v2.78c0,.98,.15,2.01,.41,3.04v2.42c-.05,.26-.1,.62-.1,1.08,0-.31,.05,.41,.1,2.21-.05,.15-.1,.36-.1,.57,0,.41,.1,.93,.36,1.49,.15,.15,.62,.21,1.29,.26,.51,.05,1.18,.05,1.96,0,.77-.05,1.29-.05,1.6-.05v-.05c.26-.26,.41-.57,.46-.82v-4.38c.05-1.18,.05-1.7,.05-1.54l-.15-2.88c-.05-.36-.1-.82-.1-1.29,.15-2.01,.05-3.81-.21-5.45-.05-.26-.05-.67,0-1.34,.05-1.08,.1-1.54,.1-1.29-.05-2.11-.21-4.02-.36-5.61-.46-1.18-1.29-2.01-2.57-2.52-.51-.21-1.49-.36-2.98-.46-1.29-.1-2.47-.1-3.45,0l-2.21,.21c0-.67,.21-2.57,.21-3.4v-2.93c-.05-1.6-.1-2.78-.1-3.65v-3.4c-.26-.26-1.85-.46-4.84-.57l-.51,.41,.05,2.27v.88c-.03,.43-.04,.69-.05,.81Zm14.61,24.19v.21h-.21l-.15-.36,.36,.15Zm-2.42,4.42c0,.05-.05,.1-.1,.21-.1,0-.21-.1-.36-.26,.15,0,.31,0,.46,.05Z" fill="#666"/>
        <path d="M96.28,91.23s0,0,0,0c0,.03,0,.04,0,0Z" fill="#666"/>
        <path d="M109.86,72.71c0,4.48,.1,8.13,.36,10.96,.05,.26,.15,.72,.21,1.39,.1,1.44,.26,2.42,.46,2.88,.72,2.11,3.35,3.14,7.92,3.14,3.35,0,5.51-.67,6.43-2.06,.46-.72,.72-2.27,.72-4.58v-2.11c0-.31-.05-.72-.21-1.29-.15,0-.82-.05-2.01-.1-1.39-.05-2.12,.18-2.27,.71,.06,.11,.13,.88,.21,2.33,.05,1.9-.1,3.09-.46,3.45-.1,.15-.72,.41-1.85,.77-2.73,0-4.07-.46-4.07-1.39v-.98c0-.15-.1-1.96-.26-5.45-.05-1.13-.1-1.65-.1-1.6,.1-.36,.77-.57,2.01-.62,1.23-.05,3.14-.05,5.66,0,1.7,.05,2.63,0,2.78-.1,.21-.1,.31-.62,.31-1.54,.05-.57,.05-1.18,0-1.85,0-.05-.1-.57-.31-1.65,0-.21,.05-.51,.1-.88-.15-.26-.21-.51-.21-.88,.05-1.23,.1-2.11,.1-2.57-.05-2.42-1.29-3.96-3.7-4.58-.93-.26-2.88-.36-5.92-.36l-2.57,.46c-1.75,.31-2.83,1.39-3.24,3.24-.15,.62-.1,.98,.15,1.08,0,.05-.1,.05-.26,.05,0,2.57,.1,3.91,.36,4.07v.05h-.36Zm4.63-.82c.05-.72,.1-1.44,.1-2.16,.1-.88,.36-1.6,.72-2.16,.15-.26,.72-.57,1.65-.82,1.6,0,2.62,.36,3.09,1.08,.15,.26,.31,1.08,.36,2.37,.05,1.34,.05,2.63-.1,3.81l.1,.77c.05,.31-.15,.46-.72,.51-.36,.05-1.24,.05-2.52,0-1.39-.05-2.16-.1-2.32-.21-.36-.15-.51-1.24-.36-3.19Z" fill="#666"/>
        <path d="M121.43,81.76s.04-.07,.05-.11c-.02-.04-.04,0-.05,.11Z" fill="#666"/>
        <path d="M113.04,206.1c-.05-.09-.09-.21-.12-.35,.08-.25,.13-.52,.16-.8,.03-.25,.05-.52,.05-.8s-.02-.57-.05-.85-.09-.57-.16-.85l.12-6.78-.12-3.63c0-.47,0-.8,.02-.99,0-.09,.02-.13,.03-.15-.06-.14-.13-.27-.27-.35-.2-.09-.47-.15-.8-.16-.24-.05-.45-.06-.64-.05-.2,.03-.38,.06-.52,.09-.28,0-.65,0-1.11-.02-.46,0-1,0-1.65-.02-.61-.05-1.16-.07-1.65-.07-.46,0-.86,.02-1.2,.07-.16-.05-.35-.07-.59-.07-.25,0-.54,.02-.87,.07v-.14c-.16,0-.27,.14-.33,.42-.08,.28-.12,.69-.12,1.22,0,.38,.02,.68,.05,.92,.03,.2,.08,.34,.14,.4,.08,.13,.3,.2,.66,.24,.35,.03,.82,.04,1.44,.02,.52-.03,.92-.03,1.2,0,.3,.02,.47,.06,.52,.14,.08,.08,.13,.22,.16,.42,.03,.19,.05,.44,.05,.75,0-.13-.02-.08-.05,.14-.02,.25-.03,.71-.05,1.37v1.44c.02,.17,.05,.42,.09,.75,.03,.33,.06,.74,.09,1.22v1.62c0,.13,0,.27-.02,.42-.03,.16-.05,.34-.07,.54v.66c0,.57-.02,1.03-.07,1.39-.06,.38-.13,.66-.19,.85-.24,.38-.58,.67-1.04,.89-.46,.24-1.03,.38-1.72,.42-1.08,.08-1.98,.02-2.68-.16-.71-.16-1.22-.42-1.53-.8-.2-.28-.37-.71-.49-1.27-.09-.55-.14-1.24-.14-2.07,0-1.24-.02-2.14-.05-2.71-.02-.57-.03-.78-.05-.64,0-.27,0-.81,.02-1.62,.02-.78,.04-1.86,.07-3.23,.02-.13,.04-.27,.07-.45,.02-.17,.02-.38,.02-.61v-5.13c0-.24-.02-.56-.07-.97-.03-.39-.07-.8-.12-1.22-.03-.41-.05-.73-.05-.97v-.19c0-.27,.02-.72,.05-1.37v-1.62c0-.09,0-.2-.02-.31,0-.13,0-.28-.02-.47v-.82c0-.3,.02-.86,.05-1.7,.05-1.99,.15-3.41,.31-4.26,.03-.24,.09-.51,.16-.82,.09-.31,.22-.68,.38-1.11,.22-.38,.64-.64,1.25-.8,.61-.19,1.41-.27,2.38-.24,.75,.02,1.37,.12,1.84,.31,.49,.19,.85,.46,1.08,.82,.11,.14,.2,.48,.28,1.01,.09,.55,.19,1.28,.28,2.19,.06,.63,.12,1.26,.16,1.88,.03,.64,.05,1.26,.07,1.84,0,.24,0,.57,.02,1.01,.03,.42,.05,.94,.07,1.55-.02,.17-.02,.38-.02,.61,.02,.24,.06,.5,.14,.8,.08,.08,.31,.13,.68,.16,.38,.03,.91,.05,1.6,.07,.64,.05,1.17,.05,1.58,.02,.42-.02,.73-.04,.92-.07,.06-.02,.13-.05,.19-.09,.06-.05,.12-.11,.16-.19v-.92c-.05-1.85-.09-3.31-.12-4.38-.05-1.05-.08-1.7-.09-1.93-.17-1.43-.46-2.64-.87-3.63-.39-1-.89-1.75-1.51-2.24l-.71-.57c-1.07-.44-2.06-.73-2.99-.87-.91-.14-1.74-.13-2.5,.05-.08,0-.22,0-.42,0-.19,0-.42-.02-.68-.05-.09,.03-.24,.05-.42,.05-.2,.02-.46,.03-.75,.05-1.6,0-2.93,.26-3.98,.78-1.08,.49-1.88,1.22-2.4,2.21-.24,.49-.42,1.19-.54,2.1-.12,.89-.19,1.97-.19,3.25l-.02,.19c-.02,.22-.04,.6-.07,1.15v2c.03,.17,.05,.33,.07,.47,.02,.13,.02,.24,.02,.35,0,.08-.02,.24-.05,.49-.02,.22-.06,.53-.14,.94l.09,1.3v1.13c-.02,.5-.04,.86-.07,1.06-.01,.18-.02,.23-.02,.14v1.41c.03,.46,.05,.85,.07,1.18,.02,.35,.02,.64,.02,.87v3.51c0,3.09,.05,5.58,.14,7.46v2.03c.03,.16,.08,.35,.14,.57,.08,.24,.17,.5,.28,.8,.11,1.1,.42,2.01,.94,2.73,.52,.72,1.24,1.26,2.17,1.62,.57,.24,1.37,.42,2.4,.57,1.02,.11,2.28,.16,3.77,.16l4.31-.14c.28,.02,.58,.04,.89,.07,.31,.02,.66,.02,1.04,.02h.89c.3-.02,.61-.03,.94-.05,.22-.09,.37-.35,.45-.75,.08-.42,.08-1,0-1.74-.03-.08-.06-.16-.09-.26Zm-1.37-27.46s-.05,.05,0,.14h-.12s-.02-.05-.05-.09c-.02-.05-.03-.1-.05-.16l.21,.12Zm-4.73-8.41s.03-.04,.05-.07h.12s-.02,.05-.05,.07c-.03,.03-.09,.05-.16,.07,0-.02,.02-.04,.05-.07Zm-10.43,7.84s-.08,0-.09-.02c-.02,0-.02-.02-.02-.05,0-.02,0-.05,.02-.09,.02-.03,.05-.06,.09-.09v.26Zm.31,19.29v-.28s.07,.05,.12,.09,.09,.11,.12,.19h-.24Z" fill="#666"/>
        <path d="M160.35,202.57c-.08-1.04-.16-2.5-.24-4.4-.08-1.88-.19-4.2-.33-6.95l-.33-4.78c0-.16-.03-.39-.09-.71-.05-.31-.12-.71-.21-1.18-.57-1.3-2.29-2.11-5.18-2.43-.3-.02-.58-.03-.85-.05-.27-.02-.51-.02-.73,0-.44,.03-.92,.09-1.44,.19-.53,.09-1.12,.22-1.77,.38-.14,.02-.4,.09-.78,.24-.38,.13-.69,.2-.94,.21l-3.46-1.01c-.74-.06-1.5-.07-2.28-.02-.79,.05-1.58,.16-2.38,.33-.28,.05-.55,.1-.8,.16-.27,.05-.52,.11-.75,.19-.14,0-.25-.02-.33-.07s-.16-.13-.26-.24c-.05-.22-.13-.35-.24-.4-.09-.05-.46-.08-1.11-.09-.06,0-.13,0-.21,.02-.08,.02-.18,.04-.31,.07h-2.4l-.19,.47v1.41c-.02,.08-.04,.13-.07,.14-.01,.01-.02,0-.02-.02l.64,17.43c-.03,.2-.05,.43-.07,.68-.02,.25-.02,.51-.02,.78,.03,.36,.06,.87,.09,1.53,.03,.64,.06,1.44,.09,2.38-.03,.11-.05,.23-.07,.35-.02,.14-.02,.28-.02,.42,0,.13,0,.27,.02,.45,.02,.17,.04,.35,.07,.52,.16,.2,.61,.31,1.37,.31,.97,.02,1.73,.02,2.28,0,.57,0,.9-.02,1.01-.05,.28-.09,.46-.25,.54-.47,.09-.24,.09-.57-.02-.99l-.24-10.08c0-.16-.02-.64-.05-1.44-.03-.79-.09-1.88-.19-3.27-.08-2.89-.12-4.46-.12-4.71,0-.46,.02-.83,.07-1.13,.06-.31,.16-.55,.28-.71,.33-.42,.73-.73,1.2-.92,.49-.17,1.04-.22,1.65-.14,.42,.05,.78,.14,1.06,.28,.28,.13,.49,.31,.64,.54,.09,.11,.17,.32,.24,.64,.06,.3,.11,.69,.14,1.18,.11,.94,.19,2.04,.24,3.3,.05,1.27,.09,2.68,.12,4.22l.31,9.23c0,.46,0,1.04,.02,1.77,.03,.71,.05,1.55,.07,2.54,.14,.13,.39,.21,.75,.26,.38,.05,.85,.07,1.41,.07,.38,0,.78,0,1.2-.02,.44-.02,.93-.04,1.46-.07l.92-.24c.06-.03,.1-.15,.12-.35,.02-.22,0-.52-.02-.89-.03-1.22-.08-2.93-.14-5.11-.08-2.2-.19-4.87-.33-8.03-.06-.5-.13-1.19-.19-2.05-.05-.85-.1-1.89-.16-3.13-.03-.71-.04-1.3-.02-1.77,0-.44,.03-.75,.09-.94,.14-.5,.46-.88,.94-1.13,.47-.27,1.11-.41,1.91-.42,.57,0,1.04,.09,1.41,.28,.36,.2,.61,.51,.75,.92l.21,2.1c.17,1.7,.31,3.57,.42,5.63,.09,2.04,.14,4.25,.14,6.64,0,.31,.02,.73,.07,1.25,.05,.55,.07,.98,.07,1.3,0,.24,0,.71,.02,1.44,.03,.75,.05,1.75,.07,2.99-.02,.14-.02,.31-.02,.52,.02,.19,.06,.4,.14,.64,.08,.02,.31,.05,.68,.09,.38,.03,.9,.06,1.58,.09,.93,.06,1.59,.09,2,.07,.39-.03,.64-.09,.75-.16,.11-.06,.18-.16,.21-.28,0-1.18,0-2.24-.02-3.2-.02-.96-.05-1.81-.09-2.57Zm-26.56-5.89s-.06,.04-.14,.07v-.14h.19s-.02,.04-.05,.07Zm12.06-10.74s-.07-.05-.12-.09l.26,.14s-.09-.02-.14-.05Zm1.15,17.78s-.06-.09-.09-.19l.16,.24s-.04-.03-.07-.05Z" fill="#666"/>
        <path d="M130.96,207.05l-.38-.59c-.14-1-.24-1.77-.28-2.28-.08-.53-.09-.82-.05-.87v-.49c.02-.2,.03-.45,.05-.73-.06-.27-.11-.52-.14-.75-.02-.24-.02-.47-.02-.71v-1.81c-.03-.09-.06-.22-.09-.38-.05-.16-.08-.35-.09-.59,.02-.17,.04-.37,.07-.59,.02-.24,.02-.47,.02-.71l-.24-5.98c.02-.17,.02-.38,.02-.64,.02-.27,.02-.6,.02-.99,0-.03,0-.2-.02-.49,0-.31,0-.75-.02-1.32,0-.2-.05-.42-.14-.66-.06-.24-.16-.47-.28-.71,.03-.03,.08-.05,.14-.05h.28c-.24-.39-.42-.71-.57-.94-.11-.25-.18-.42-.21-.49-.2-.27-.42-.51-.66-.73-.25-.2-.52-.37-.8-.49,.02,0,.05,0,.09-.02,.03-.02,.06-.04,.09-.07l-1.55-.59c-.19-.08-.41-.15-.66-.21-.27-.06-.6-.13-.99-.21-.22-.02-.56-.05-1.01-.09-.46-.02-1.03-.02-1.72-.02h-.89c-.89,.14-1.59,.25-2.1,.33-.47,.09-.75,.16-.85,.21-.47,.11-.88,.25-1.22,.42-.36,.19-.68,.4-.97,.64-.14,.09-.26,.22-.35,.38-.09,.14-.18,.3-.26,.47-.11,.17-.16,.33-.14,.47,0,.13,.06,.22,.19,.28l-.35,.73s-.04,.22-.07,.52c-.02,.31-.02,.75-.02,1.3v.8c-.02,.38-.03,.87-.05,1.48,0,.2,.05,.35,.14,.45v.16s-.04,.05-.07,.07c-.02,.03-.02,.07-.02,.12,0,.24,.19,.39,.57,.47,.38,.09,.95,.13,1.72,.09,.64-.05,1.09-.09,1.34-.14,.28-.05,.46-.16,.54-.33,.06-.16,.11-.43,.14-.82l.64-4.29c.14-.22,.32-.41,.54-.57,.24-.14,.53-.24,.89-.28,.33-.06,.64-.08,.94-.05,.3,.02,.58,.06,.85,.14,.53,.19,.95,.4,1.25,.64,.31,.22,.5,.45,.57,.68,0,.13,0,.28,.02,.47,0,.16,0,.35,.02,.59,.08,.38,.09,.8,.02,1.27s-.19,1-.38,1.58c-.03,.2-.08,.4-.14,.59-.06,.22-.13,.43-.19,.64l-1.65,1.46-3.39,1.74-.82,.68-1.46,.92-.66,.54,.12,.24c-.5,0-.87,.39-1.11,1.18-.25,.79-.39,1.95-.42,3.49v2.54c.03,.63,.16,1.19,.38,1.7,.24,.52,.58,.98,1.04,1.39,.6,.5,1.3,.87,2.1,1.11,.82,.2,1.74,.27,2.78,.21l2.9-.38c.42-.05,.75-.09,.97-.12l.35-.07,.92,.19c1.62,.42,2.98,.53,4.1,.33,.28-.05,.51-.14,.68-.28,.14-.11,.24-.26,.28-.45,0-.08-.03-.17-.09-.28-.05-.13-.1-.27-.16-.42Zm-12.22-4.85v-.16h.14s-.05,.1-.14,.16Zm6.66,1.18c-.06,.89-.15,1.48-.26,1.77-.03,.02-.18,.08-.45,.19-.28,.13-.67,.27-1.15,.45h-1.06c-.28,0-.5-.02-.66-.05-.6-.03-1.11-.18-1.53-.45-.41-.27-.73-.64-.97-1.11l-.05-1.98c-.03-.63-.05-1.13-.05-1.51s.02-.6,.05-.66c.05-.13,.1-.27,.16-.42,.05-.14,.08-.31,.09-.49,.13-.53,.33-.99,.61-1.37,.3-.36,.69-.65,1.18-.87,.96-.44,2.12-1.09,3.49-1.95,.19,.09,.34,.55,.45,1.37,.11,.82,.18,2,.21,3.56,0,1.48-.02,2.65-.07,3.53Z" fill="#666"/>
        <path d="M112.98,190.91s.05,.04,.06,.08c-.02-.07-.04-.1-.06-.08Z" fill="#666"/>
        <path d="M177.82,198.64c-.08-.02-.28-.03-.61-.05s-.78-.04-1.37-.07c-.74-.02-1.3,.04-1.7,.16-.32,.12-.51,.29-.57,.52,.01-.03,.04,.08,.07,.33,.05,.36,.1,1.02,.16,1.98,.03,.94,0,1.7-.09,2.28-.08,.58-.2,.95-.35,1.11-.13,.17-.74,.43-1.84,.78-1.37,0-2.38-.12-3.04-.35-.66-.2-.99-.54-.99-1.01v-.97c0-.08-.02-.57-.07-1.46-.05-.89-.11-2.2-.19-3.91-.02-.57-.03-.98-.05-1.25l-.07-.35c.11-.35,.78-.54,2-.59,.61-.03,1.38-.05,2.31-.05,.94,0,2.03,.02,3.25,.05,.85,.02,1.51,.02,1.98,0,.44-.02,.7-.05,.78-.09,.2-.11,.31-.62,.31-1.53,.05-.55,.05-1.15,0-1.81,0-.03-.02-.18-.07-.45s-.13-.67-.24-1.2c0-.09,0-.22,.02-.38,.02-.14,.05-.31,.09-.49-.09-.11-.15-.24-.16-.38-.03-.14-.05-.3-.05-.47,.02-.61,.04-1.14,.07-1.58,.02-.41,.02-.73,.02-.97-.03-1.21-.35-2.18-.97-2.92-.6-.75-1.49-1.29-2.68-1.6-.46-.13-1.17-.22-2.14-.28-.97-.05-2.21-.07-3.7-.07l-2.52,.47c-1.73,.3-2.79,1.37-3.2,3.2-.14,.58-.09,.93,.14,1.06,0,.02-.02,.02-.07,.02-.03,.02-.09,.02-.16,.02,0,1.26,.02,2.22,.07,2.9,.06,.66,.16,1.03,.28,1.11v.07h-.35c0,2.2,.02,4.19,.07,5.98,.06,1.81,.16,3.41,.28,4.8,.03,.14,.06,.32,.09,.54,.05,.22,.09,.49,.12,.82,.05,.72,.1,1.32,.16,1.79,.09,.49,.19,.84,.28,1.06,.35,1.05,1.17,1.83,2.47,2.33,1.29,.52,3.07,.78,5.35,.78,1.65,0,3-.16,4.05-.49,1.08-.35,1.84-.86,2.28-1.53,.24-.36,.42-.92,.54-1.67,.13-.75,.19-1.7,.19-2.85v-2.07c0-.16-.02-.34-.07-.54-.03-.22-.08-.46-.14-.73Zm-11.16-6.81c-.06-.53-.05-1.28,.05-2.24,.02-.36,.04-.71,.07-1.06,.02-.38,.02-.74,.02-1.08,.05-.42,.13-.82,.24-1.18,.14-.35,.3-.66,.47-.94,.06-.14,.24-.28,.52-.42,.27-.14,.64-.27,1.11-.4,1.57,0,2.58,.35,3.04,1.06,.08,.14,.16,.41,.24,.8,.05,.39,.09,.9,.12,1.53,.03,.66,.04,1.3,.02,1.93,0,.63-.04,1.24-.12,1.84l.09,.78c.03,.14,0,.26-.12,.35-.13,.08-.32,.13-.59,.14-.17,.03-.48,.05-.92,.05-.41,0-.93-.02-1.58-.05-.68-.02-1.2-.04-1.58-.07s-.61-.07-.71-.12c-.17-.09-.3-.4-.38-.92Z" fill="#666"/>
      </g>
    </g>
  </g>
</svg>