<?xml version="1.0" encoding="UTF-8"?>
<svg id="Layer_2" data-name="Layer 2" xmlns="http://www.w3.org/2000/svg" width="177.9" height="46.9" viewBox="0 0 177.9 46.9">
  <g id="Capa_1" data-name="Capa 1">
    <g>
      <g>
        <rect x=".45" y=".45" width="177" height="46" rx="23" ry="23" fill="#39B54A" stroke="#fff" stroke-miterlimit="10" stroke-width=".9"/>
        <text transform="translate(55.5 31.3)" fill="#fff" font-family="Roboto-Regular, Roboto" font-size="25.65"><tspan x="0" y="0" letter-spacing="0em">C</tspan><tspan x="14.8" y="0" letter-spacing="0em">r</tspan><tspan x="22.93" y="0">e</tspan><tspan x="35.78" y="0" letter-spacing="0em">a</tspan><tspan x="48.04" y="0">ti</tspan><tspan x="62.54" y="0" letter-spacing="0em">v</tspan><tspan x="74.62" y="0">e</tspan></text>
      </g>
      <g>
        <path d="M22.87,22.27c0,.86,.05,1.62,.32,2.72,.48,1.93,3.19,4.57,3.59,5.47-.17,.25-.27,.53-.27,.83,0,.37,.14,.73,.38,1-.24,.27-.38,.61-.38,.97,0,.42,.17,.81,.47,1.1-.21,.26-.34,.58-.34,.93,0,.86,.74,1.56,1.66,1.57l2.9,.08h.02c.46,0,.9-.18,1.22-.48,.29-.28,.45-.66,.46-1.05,0-.42-.17-.81-.47-1.1,.22-.26,.34-.58,.34-.93,0-.37-.14-.73-.38-1,.24-.27,.38-.61,.38-.97,0-.38-.14-.72-.38-1,.42-.94,3.11-3.52,3.57-5.42,.27-1.1,.32-1.86,.32-2.72,0-3.7-3.01-6.71-6.71-6.71s-6.71,3.01-6.71,6.71Zm8.87,13.47c-.13,.13-.32,.2-.52,.19l-2.9-.08c-.37,0-.66-.25-.66-.55,0-.23,.19-.43,.46-.5,.23-.06,.39-.28,.38-.51-.01-.24-.19-.44-.42-.48-.31-.05-.54-.28-.54-.54,0-.22,.17-.41,.43-.49,.21-.07,.36-.26,.36-.48,0-.22-.14-.42-.35-.49-.26-.08-.43-.29-.43-.51,0-.1,.03-.18,.08-.24h4.01c.09,.09,.15,.21,.15,.34,0,.22-.17,.41-.42,.49-.21,.07-.36,.26-.36,.48,0,.22,.14,.42,.35,.49,.26,.08,.43,.29,.43,.51,0,.23-.18,.43-.45,.5-.23,.06-.39,.28-.38,.52,.01,.24,.19,.44,.42,.48,.31,.05,.54,.28,.54,.54,0,.16-.08,.27-.15,.33Zm-2.16-19.16c3.14,0,5.69,2.55,5.69,5.69,0,.79-.05,1.48-.29,2.48-.45,1.83-3.14,4.43-3.54,5.3h-3.74c-.39-.87-3.09-3.47-3.54-5.29-.24-1.01-.29-1.7-.29-2.48,0-3.14,2.55-5.69,5.69-5.69Z" fill="#fff"/>
        <path d="M22.55,10.57c-.1-.12-.24-.2-.4-.22-.16-.02-.31,.02-.44,.12-.12,.1-.2,.24-.22,.4-.02,.16,.03,.31,.12,.44l3.03,3.85c.11,.14,.29,.23,.47,.23,0,0,.01,0,.02,0h0c.13,0,.25-.05,.35-.13,.12-.1,.2-.24,.22-.4,.02-.16-.03-.31-.12-.44l-3.03-3.84Zm2.62,4.28s-.03,.02-.05,.02c-.03,0-.05-.01-.07-.03l-3.03-3.85s-.02-.05-.02-.06c0-.01,0-.04,.03-.06,.02-.01,.04-.02,.05-.02,0,0,0,0,.01,0,.01,0,.04,0,.06,.03l3.03,3.85s.02,.05,.02,.06c0,.01,0,.04-.03,.06Z" fill="#fff"/>
        <path d="M17.64,16.25c-.15-.06-.31-.05-.45,.01-.14,.06-.26,.18-.31,.33-.06,.15-.05,.31,.01,.45,.06,.14,.18,.26,.33,.31l4.57,1.76c.17,.06,.36,.05,.52-.04,0,0,.01,0,.02-.01h0c.11-.07,.19-.17,.23-.29,.06-.15,.05-.31-.01-.45-.06-.14-.18-.26-.33-.31l-4.57-1.76Zm4.43,2.34s-.02,.03-.03,.04c-.02,.02-.05,.02-.08,0l-4.57-1.76s-.04-.03-.05-.04c0-.01-.01-.04,0-.07,0-.02,.02-.03,.03-.04,0,0,0,0,0,0,.01,0,.04-.01,.07,0l4.57,1.76s.04,.03,.05,.04c0,.01,.01,.04,0,.06Z" fill="#fff"/>
        <path d="M16.51,22.45c-.16,0-.31,.05-.42,.16-.12,.11-.18,.25-.19,.41,0,.16,.05,.31,.16,.43,.11,.12,.25,.18,.41,.19l4.89,.18c.18,0,.36-.07,.47-.21,0,0,0-.01,.01-.02h0c.08-.1,.12-.22,.13-.35,0-.16-.05-.31-.16-.43-.11-.12-.25-.18-.41-.19l-4.89-.18Zm4.95,.78s0,.04-.02,.05c-.01,.02-.04,.03-.07,.03l-4.89-.18s-.05-.02-.06-.03c0,0-.02-.03-.02-.06,0-.02,0-.04,.02-.05,0,0,0,0,0,0,0,0,.03-.02,.06-.02l4.89,.18s.05,.02,.06,.03c0,0,.02,.03,.02,.06Z" fill="#fff"/>
        <path d="M37.3,18.01c-.15,.06-.26,.17-.33,.31-.06,.15-.07,.31-.01,.45,.05,.12,.13,.22,.23,.29h0s.01,0,.02,.01c.15,.09,.35,.11,.52,.04l4.57-1.76c.15-.06,.26-.17,.33-.31,.06-.14,.07-.31,.01-.45-.06-.15-.17-.27-.31-.33-.14-.06-.31-.07-.45-.01l-4.57,1.76Zm.14,.52s.02-.03,.05-.04l4.57-1.76s.05,0,.07,0c0,0,0,0,0,0,.01,0,.03,.02,.03,.04,.01,.03,0,.05,0,.07,0,.01-.02,.03-.05,.04l-4.57,1.76s-.06,0-.08,0c-.02,0-.03-.02-.03-.04-.01-.03,0-.05,0-.06Z" fill="#fff"/>
        <path d="M38.1,22.64c-.16,0-.3,.07-.41,.19-.11,.12-.16,.27-.16,.43,0,.13,.05,.25,.13,.35h0s0,.01,.01,.02c.12,.14,.29,.21,.47,.21l4.89-.18c.16,0,.3-.07,.41-.19,.11-.12,.16-.27,.16-.43,0-.16-.07-.31-.19-.41-.12-.11-.27-.16-.42-.16l-4.89,.18Zm-.04,.53s.03-.03,.06-.03l4.89-.18s.05,.01,.06,.02c0,0,0,0,0,0,0,.01,.02,.03,.02,.05,0,.03-.01,.05-.02,.06-.01,.01-.03,.03-.06,.03l-4.89,.18s-.06,0-.07-.03c-.01-.01-.02-.03-.02-.05,0-.03,.01-.05,.02-.06Z" fill="#fff"/>
        <path d="M33.53,15.23h0c.1,.07,.21,.1,.33,.1h.02c.19,0,.37-.11,.47-.26l2.5-3.76c.09-.13,.12-.29,.09-.44-.03-.16-.12-.29-.25-.38-.13-.09-.29-.12-.44-.09-.16,.03-.29,.12-.38,.25l-2.5,3.76c-.09,.13-.12,.29-.09,.44,.03,.16,.12,.29,.25,.38Zm.26-.54l2.5-3.76s.04-.03,.05-.04c.01,0,.04,0,.06,.01,.03,.02,.03,.04,.04,.05,0,.02,0,.04-.01,.06l-2.5,3.76s-.05,.04-.07,.04c-.02,0-.03,0-.05-.01-.03-.02-.03-.04-.04-.05,0-.01,0-.04,.01-.06Z" fill="#fff"/>
        <path d="M29.46,14.35s.02,0,.02,0c0,0,.01,0,.02,0,.31,0,.56-.26,.57-.57l.21-4.99c0-.16-.05-.31-.16-.43-.11-.12-.25-.18-.41-.19-.16,0-.31,.05-.43,.15-.12,.11-.19,.25-.19,.41l-.21,4.99c0,.16,.05,.31,.16,.43,.11,.12,.25,.18,.41,.19h0Zm-.06-.6l.21-4.99s.02-.05,.03-.06c.01-.01,.03-.02,.06-.02,.03,0,.05,.02,.06,.03,0,0,.02,.03,.02,.06l-.21,4.99s-.04,.08-.08,.08h0s-.05-.02-.06-.03c0,0-.02-.03-.02-.06Z" fill="#fff"/>
        <path d="M25.99,21.32h0c.3,.02,.57-.21,.59-.52,0-.15,.03-.29,.07-.43,.23-.92,.98-1.28,1.56-1.42,.27-.07,.48-.07,.5-.07,.31,0,.55-.26,.54-.57,0-.3-.26-.55-.57-.55-1.04,.02-3.06,.67-3.21,2.96-.02,.31,.21,.57,.52,.59Z" fill="#fff"/>
      </g>
    </g>
  </g>
</svg>