<?xml version="1.0" encoding="UTF-8"?>
<svg id="Layer_2" data-name="Layer 2" xmlns="http://www.w3.org/2000/svg" width="177.9" height="46.9" viewBox="0 0 177.9 46.9">
  <g id="Capa_1" data-name="Capa 1">
    <g>
      <g>
        <rect x=".45" y=".45" width="177" height="46" rx="23" ry="23" fill="#39B54A" stroke="#fff" stroke-miterlimit="10" stroke-width=".9"/>
        <text transform="translate(63 32.3)" fill="#fff" font-family="MyriadPro-Regular, &apos;Myriad Pro&apos;" font-size="25.65"><tspan x="0" y="0">Sho</tspan><tspan x="40.97" y="0" letter-spacing=".02em">r</tspan><tspan x="49.97" y="0">t</tspan></text>
      </g>
      <g>
        <path d="M32.91,14.3c-5.22,0-9.46,4.25-9.46,9.46s4.25,9.46,9.46,9.46,9.46-4.25,9.46-9.46-4.25-9.46-9.46-9.46Zm0,17.84c-4.62,0-8.37-3.76-8.37-8.37s3.76-8.37,8.37-8.37,8.37,3.76,8.37,8.37-3.76,8.37-8.37,8.37Z" fill="#fff"/>
        <path d="M27.2,23.49h-2.02c-.15,0-.27,.12-.27,.27s.12,.27,.27,.27h2.02c.15,0,.27-.12,.27-.27s-.12-.27-.27-.27Z" fill="#fff"/>
        <path d="M40.75,23.49h-2.02c-.15,0-.27,.12-.27,.27s.12,.27,.27,.27h2.02c.15,0,.27-.12,.27-.27s-.12-.27-.27-.27Z" fill="#fff"/>
        <path d="M32.96,18.27c.15,0,.27-.12,.27-.27v-2.02c0-.15-.12-.27-.27-.27s-.27,.12-.27,.27v2.02c0,.15,.12,.27,.27,.27Z" fill="#fff"/>
        <path d="M32.96,29.26c-.15,0-.27,.12-.27,.27v2.02c0,.15,.12,.27,.27,.27s.27-.12,.27-.27v-2.02c0-.15-.12-.27-.27-.27Z" fill="#fff"/>
        <path d="M35.62,19.54l-2.03,2.43c-.21-.08-.43-.12-.66-.12-.45,0-.86,.16-1.18,.42l-3.37-2.89c-.13-.11-.33-.1-.45,.03s-.1,.33,.03,.45l3.36,2.88c-.18,.29-.29,.64-.29,1.01,0,.39,.12,.76,.33,1.06l-3.65,3.2c-.1,.09-.11,.24-.02,.34,.05,.05,.11,.08,.18,.08,.06,0,.11-.02,.16-.06l3.66-3.2c.34,.3,.77,.49,1.26,.49,1.05,0,1.9-.85,1.9-1.9,0-.35-.1-.68-.27-.97l2.03-2.43c.22-.27,.19-.67-.08-.89-.27-.22-.67-.19-.89,.08Z" fill="#fff"/>
        <path d="M41.04,14.91l.84-1.12,.51,.38,.76-1.01-3.04-2.29-.76,1.01,.51,.38-.85,1.13c-1.44-.85-3.06-1.41-4.8-1.6v-1.37h.63v-1.27h-3.81v1.27h.63v1.36c-1.71,.18-3.31,.72-4.73,1.53l-.79-1.06,.51-.38-.76-1.01-3.04,2.29,.76,1.01,.51-.38,.77,1.02c-2.46,2.21-4.02,5.4-4.02,8.95,0,6.64,5.4,12.04,12.04,12.04s12.04-5.4,12.04-12.04c0-3.5-1.51-6.65-3.91-8.85Zm-8.13,19.51c-5.87,0-10.65-4.78-10.65-10.65s4.78-10.65,10.65-10.65,10.65,4.78,10.65,10.65-4.78,10.65-10.65,10.65Z" fill="#fff"/>
      </g>
    </g>
  </g>
</svg>