<?xml version="1.0" encoding="UTF-8"?>
<svg id="Layer_2" data-name="Layer 2" xmlns="http://www.w3.org/2000/svg" width="177.9" height="46.9" viewBox="0 0 177.9 46.9">
  <g id="Capa_1" data-name="Capa 1">
    <g>
      <g>
        <rect x=".45" y=".45" width="177" height="46" rx="23" ry="23" fill="#39B54A" stroke="#fff" stroke-miterlimit="10" stroke-width=".9"/>
        <text transform="translate(53.01 32.3)" fill="#fff" font-family="Roboto-Regular, Roboto" font-size="25.65"><tspan x="0" y="0" letter-spacing="0em">S</tspan><tspan x="12.57" y="0">t</tspan><tspan x="21.06" y="0" letter-spacing="0em">r</tspan><tspan x="29.32" y="0" letter-spacing="0em">a</tspan><tspan x="41.58" y="0" letter-spacing="0em">t</tspan><tspan x="49.92" y="0">e</tspan><tspan x="62.77" y="0" letter-spacing="0em">g</tspan><tspan x="76.95" y="0" letter-spacing="0em">ic</tspan></text>
      </g>
      <g>
        <path d="M42.2,30.43l-.88-.48c.12-.53,.18-1.07,.17-1.62l.97-.28c.31-.09,.48-.41,.39-.72l-.73-2.5c-.04-.15-.14-.27-.28-.35-.13-.07-.29-.09-.44-.05l-.97,.28c-.29-.46-.63-.89-1.02-1.27l.48-.88c.15-.28,.05-.63-.23-.79l-2.29-1.25c-.13-.07-.29-.09-.44-.05-.15,.04-.27,.14-.35,.28l-.48,.88c-.53-.12-1.07-.18-1.62-.17l-.28-.97c-.04-.15-.14-.27-.28-.35-.14-.07-.29-.09-.44-.05l-2.5,.73c-.15,.04-.27,.14-.35,.28-.07,.13-.09,.29-.05,.44l.28,.97c-.46,.29-.89,.63-1.27,1.02l-.88-.48c-.13-.07-.29-.09-.44-.05-.15,.04-.27,.14-.35,.28l-1.25,2.29c-.15,.28-.05,.63,.23,.79l.88,.48c-.12,.53-.18,1.07-.17,1.62l-.97,.28c-.15,.04-.27,.14-.35,.28-.07,.14-.09,.29-.05,.44l.73,2.5c.04,.15,.14,.27,.28,.35,.13,.07,.29,.09,.44,.05l.97-.28c.29,.46,.63,.89,1.02,1.27l-.48,.88c-.15,.28-.05,.63,.23,.79l2.29,1.25s.07,.03,.1,.04c.26,.08,.55-.03,.69-.27l.48-.88c.53,.12,1.07,.18,1.62,.17l.28,.97c.04,.15,.14,.27,.28,.35,.13,.07,.29,.09,.44,.05l2.5-.73c.31-.09,.48-.41,.39-.72l-.28-.97c.46-.29,.89-.63,1.27-1.02l.88,.48c.28,.15,.63,.05,.79-.23l1.25-2.29c.07-.13,.09-.29,.05-.44-.04-.15-.14-.27-.28-.35Zm-1.76,2.01l-.77-.42c-.24-.13-.54-.08-.72,.13-.47,.55-1.03,1-1.66,1.34-.24,.13-.36,.41-.28,.67l.25,.85-1.39,.41-.25-.85c-.08-.26-.33-.44-.6-.42-.72,.06-1.44-.02-2.12-.23-.26-.08-.55,.04-.68,.28l-.42,.77-1.27-.7,.42-.77c.13-.24,.08-.54-.13-.72-.55-.47-1-1.03-1.34-1.66-.13-.24-.41-.36-.67-.28l-.85,.25-.41-1.39,.85-.25c.26-.08,.44-.33,.42-.6-.06-.72,.02-1.44,.23-2.12,.08-.26-.04-.55-.28-.68l-.77-.42,.7-1.27,.77,.42c.24,.13,.54,.08,.72-.13,.47-.55,1.03-1,1.66-1.34,.24-.13,.36-.41,.28-.67l-.25-.85,1.39-.41,.25,.85c.08,.26,.33,.44,.6,.42,.72-.06,1.44,.02,2.12,.23,.26,.08,.55-.04,.68-.28l.42-.77,1.27,.7-.42,.77c-.13,.24-.08,.54,.13,.72,.55,.47,1,1.03,1.34,1.66,.13,.24,.41,.36,.67,.28l.85-.25,.41,1.39-.85,.25c-.26,.08-.44,.33-.42,.6,.06,.72-.02,1.43-.23,2.12-.08,.26,.04,.55,.28,.68l.77,.42-.7,1.27Z" fill="#fff"/>
        <path d="M36.56,24.74c-.98-.53-2.1-.66-3.17-.34-1.07,.31-1.95,1.02-2.49,2-.53,.98-.66,2.1-.34,3.17,.31,1.07,1.02,1.95,2,2.49h0c.23,.13,.48,.23,.72,.31,1.87,.6,3.96-.19,4.94-1.97,1.1-2.02,.36-4.56-1.66-5.66Zm.64,5.1c-.39,.71-1.02,1.22-1.79,1.44-.77,.23-1.59,.14-2.29-.25h0c-.71-.39-1.22-1.02-1.44-1.79-.23-.77-.14-1.58,.25-2.29,.39-.71,1.02-1.22,1.79-1.44,.59-.17,1.2-.16,1.76,.02,.18,.06,.36,.13,.53,.23,1.46,.8,1.99,2.63,1.2,4.08Z" fill="#fff"/>
        <path d="M22.86,21.52l-.13,.75c-.02,.11,0,.23,.07,.33,.05,.08,.13,.13,.22,.16,.02,0,.04,.01,.06,.01l1.93,.33c.24,.04,.46-.12,.5-.36l.13-.75c.41-.04,.8-.13,1.19-.27l.44,.62c.14,.2,.41,.24,.61,.1l1.6-1.13c.2-.14,.24-.41,.1-.61l-.44-.62c.26-.32,.48-.66,.65-1.03l.75,.13c.11,.02,.23,0,.33-.07,.09-.07,.16-.17,.18-.28l.33-1.93c.04-.24-.12-.46-.36-.5l-.75-.13c-.04-.41-.13-.81-.27-1.19l.62-.44c.09-.07,.16-.17,.18-.28,.02-.11,0-.23-.07-.33l-1.13-1.6c-.07-.09-.17-.16-.28-.18-.11-.02-.23,0-.33,.07l-.62,.44c-.32-.26-.66-.48-1.03-.65l.13-.75c.04-.24-.12-.46-.36-.5l-1.93-.33c-.11-.02-.23,0-.33,.07-.09,.07-.16,.17-.18,.28l-.13,.75c-.41,.04-.8,.13-1.19,.27l-.44-.62c-.07-.09-.17-.16-.28-.18-.11-.02-.23,0-.33,.07l-1.6,1.13c-.09,.07-.16,.17-.18,.28-.02,.11,0,.23,.07,.33l.44,.62c-.26,.32-.48,.66-.65,1.03l-.75-.13c-.11-.02-.23,0-.33,.07-.09,.07-.16,.17-.18,.28l-.33,1.93c-.04,.24,.12,.46,.36,.5l.75,.13c.04,.41,.13,.8,.27,1.19l-.62,.44c-.09,.07-.16,.17-.18,.28-.02,.11,0,.23,.07,.33l1.13,1.6c.14,.2,.41,.24,.61,.1l.62-.44c.32,.26,.66,.48,1.03,.65Zm-1.26-1.56l-.54,.38-.63-.89,.54-.38c.17-.12,.23-.34,.15-.53-.22-.5-.34-1.03-.36-1.56,0-.21-.16-.38-.36-.41l-.65-.11,.18-1.07,.65,.11c.2,.03,.4-.08,.48-.27,.2-.5,.49-.96,.86-1.36,.14-.15,.16-.38,.04-.55l-.38-.54,.89-.63,.38,.54c.12,.17,.34,.23,.53,.15,.5-.22,1.02-.34,1.56-.36,.21,0,.38-.16,.41-.36l.11-.65,1.07,.18-.11,.65c-.03,.2,.08,.4,.27,.48,.5,.2,.96,.49,1.36,.86,.15,.14,.38,.16,.55,.04l.54-.38,.63,.89-.54,.38c-.17,.12-.23,.34-.15,.53,.22,.5,.34,1.02,.36,1.56,0,.21,.16,.38,.36,.41l.65,.11-.18,1.07-.65-.11c-.2-.03-.4,.08-.48,.27-.2,.5-.49,.96-.86,1.36-.14,.15-.16,.38-.04,.55l.38,.54-.89,.63-.38-.54c-.12-.17-.34-.23-.53-.15-.5,.22-1.03,.34-1.56,.36-.21,0-.38,.16-.41,.36l-.11,.65-1.07-.18,.11-.65c.03-.2-.08-.4-.27-.48-.5-.2-.96-.49-1.36-.86-.05-.04-.1-.08-.16-.1-.13-.04-.27-.02-.39,.06Z" fill="#fff"/>
        <path d="M24.57,19.9c1.7,.29,3.33-.86,3.62-2.56,.29-1.7-.86-3.33-2.56-3.62s-3.33,.86-3.62,2.56c-.27,1.55,.67,3.04,2.13,3.51,.14,.05,.29,.08,.44,.11Zm-1.7-3.47c.21-1.23,1.38-2.06,2.61-1.85,.11,.02,.21,.04,.31,.08,1.05,.34,1.73,1.41,1.53,2.53-.21,1.23-1.38,2.06-2.61,1.85-1.23-.21-2.06-1.38-1.85-2.61Z" fill="#fff"/>
      </g>
    </g>
  </g>
</svg>