<?xml version="1.0" encoding="UTF-8"?>
<svg id="Layer_2" data-name="Layer 2" xmlns="http://www.w3.org/2000/svg" width="177.9" height="46.9" viewBox="0 0 177.9 46.9">
  <g id="Capa_1" data-name="Capa 1">
    <g>
      <g>
        <rect x=".45" y=".45" width="177" height="46" rx="23" ry="23" fill="#39B54A" stroke="#fff" stroke-miterlimit="10" stroke-width=".9"/>
        <text transform="translate(47.02 32.3)" fill="#fff" font-family="MyriadPro-Regular, &apos;Myriad Pro&apos;" font-size="25.65"><tspan x="0" y="0" letter-spacing="-.07em">T</tspan><tspan x="10.93" y="0" letter-spacing="0em">ea</tspan><tspan x="36.14" y="0" letter-spacing="-.01em">m</tspan><tspan x="57.2" y="0" letter-spacing="0em">w</tspan><tspan x="75.83" y="0">o</tspan><tspan x="89.91" y="0" letter-spacing="0em">r</tspan><tspan x="98.4" y="0" letter-spacing="0em">k</tspan></text>
      </g>
      <path d="M32.53,14.33c-.12-.02-.24-.03-.36-.04-.85-.35-2.37-.59-4.15,.78l-.04,.04-.58,.59c-2.2-1.49-3.94-.57-4.43-.25l-2.73-2.69-6.67,6.85,2.92,3.17c.02,1.17,.44,2.38,1.25,3.59,.33,.5,.72,.96,1.15,1.39,.54,.55,1.09,1.09,1.63,1.63-.59,.86-.34,1.57,.28,2.21,.64,.66,1.22,.74,2.09,.49,0,0,.02,0,.02,0,.62,.93,1.19,1.38,1.81,1.43,.26,.25,.51,.5,.77,.75,.76,.74,1.92,.9,2.84,.37,.4-.23,.46-.42,.67-.74,1.55,1.3,2.59,1.33,3.81-.5,0,0,.01,0,.02,0,.86,.25,1.45,.17,2.09-.49,.65-.68,.9-1.43,.17-2.35,0,0-.19-.25-.18-.25,.52,.02,.93-.31,1.15-.6,.6-.78,.56-1.59-.08-2.4,.28-.28,.57-.56,.85-.85,.42-.43,.81-.89,1.15-1.39,.81-1.22,1.23-2.42,1.25-3.59l2.94-2.92-6.8-6.89-2.8,2.67Zm-13.23,12.43c-.79-.84-1.39-1.77-1.65-2.82-.06-.23-.1-.47-.12-.72-.02-.2-.03-.41-.02-.62l-2.65-2.65,5.71-5.71,1.83,1.83,.12,.12v.02s.88,.07,.88,.07l.06-.14c.35-.24,1.8-1.04,3.73,.43l2.55,2.57c.13,.13,.2,.3,.2,.48,0,.18-.07,.36-.2,.48l-.17,.17c-.27,.27-.7,.26-.97,0l-2.61-2.63-.64,.44,.71,.83,.31,.31c-.3,.3-.6,.6-.9,.9-.07,.08-.12,.16-.14,.24-.01,.02-.03,.03-.04,.05-1.76,1.76-3.52,3.51-5.27,5.28-.35,.35-.58,.71-.69,1.07Zm8.47,7.12c-.2,.19-.41,.31-.71,.29-.42-.03-.71-.35-.91-.55-.12-.12-.25-.25-.37-.37,.29-.16,.6-.37,.93-.65,.2,.32,.27,.51,.67,.74,.18,.1,.37,.18,.56,.23-.03,.13-.09,.24-.16,.31Zm3.77-.35c-.39,.46-.84,.5-1.41-.03-.09-.08-.18-.17-.26-.25,.13-.08,.25-.18,.36-.28,.33-.32,.65-.64,.98-.96,.03,.03,.07,.07,.1,.1,.54,.54,.61,.98,.24,1.41Zm2.73-1.43c-.4,.54-1,.55-1.54,.01-.27-.27-.54-.54-.81-.81,.44-.43,.89-.87,1.33-1.3,.25,.25,.5,.5,.75,.75,.48,.48,.56,.94,.27,1.35Zm1.11-3.2c-.2,.5-.8,.74-1.27,.48-.05-.03-.09-.05-.13-.09,.43-.42,.85-.85,1.28-1.28,.18,.24,.28,.52,.13,.88Zm5.46-10.26l-2.65,2.65c0,.21,0,.42-.02,.62-.02,.25-.06,.49-.12,.72-.26,1.05-.86,1.99-1.66,2.83-1.08,1.14-2.22,2.23-3.33,3.34-1.17,1.17-2.33,2.34-3.51,3.5-.2,.2-.49,.52-.91,.55-.3,.02-.51-.09-.71-.29-.18-.17-.24-.61-.17-.88,.08-.29,.34-.56,.56-.79,.53-.54,1.07-1.08,1.61-1.62,.26-.26,.52-.53,.78-.79,.27-.28,1.08-.88,.63-1.3-.41-.39-1.01,.36-1.25,.61-.26,.26-.52,.53-.79,.79-1.24,1.21-2.46,2.43-3.72,3.6-.57,.53-1.02,.49-1.41,.03-.37-.44-.3-.87,.24-1.41,1.4-1.4,2.8-2.8,4.2-4.21,.2-.2,.37-.33,.4-.63,.03-.22-.05-.42-.28-.45-.39-.06-.55,.09-.8,.34-1.65,1.65-3.3,3.3-4.95,4.94-.54,.54-1.15,.53-1.54-.01-.3-.4-.21-.86,.27-1.35,1.67-1.68,3.35-3.36,5.03-5.03,.27-.27,.49-.58,.15-.89-.32-.3-.6-.03-.84,.21-1.29,1.29-2.58,2.59-3.88,3.87-.17,.17-.35,.35-.56,.46-.47,.26-1.07,.02-1.27-.48-.21-.52,.06-.84,.39-1.17,2.14-2.14,4.29-4.27,6.41-6.43l.88,.88c.3,.3,.69,.45,1.09,.45s.78-.15,1.08-.45l.17-.17c.29-.29,.45-.67,.45-1.08,0-.38-.14-.74-.4-1.03l-1.95-1.97h0l-.38-.38,.52-.52c.8-.61,1.52-.83,2.11-.86,1.08-.1,2.04,.47,2.04,.47l.58-.58,1.83-1.83,5.71,5.71Z" fill="#fff"/>
    </g>
  </g>
</svg>