<?xml version="1.0" encoding="UTF-8"?>
<svg id="Layer_2" data-name="Layer 2" xmlns="http://www.w3.org/2000/svg" width="177.9" height="46.9" viewBox="0 0 177.9 46.9">
  <g id="Capa_1" data-name="Capa 1">
    <g>
      <g>
        <rect x=".45" y=".45" width="177" height="46" rx="23" ry="23" fill="#fff" stroke="#666" stroke-miterlimit="10" stroke-width=".9"/>
        <text transform="translate(57.46 31.3)" fill="#666" font-family="Roboto-Regular, Roboto" font-size="25.65"><tspan x="0" y="0">2 </tspan><tspan x="18.6" y="0" letter-spacing="0em">P</tspan><tspan x="32.12" y="0">l</tspan><tspan x="38.17" y="0" letter-spacing="0em">a</tspan><tspan x="50.33" y="0" letter-spacing="0em">y</tspan><tspan x="62.15" y="0">ers</tspan></text>
      </g>
      <g>
        <path d="M40.87,32.53c-.08-1.46-.43-4.2-1.8-6.7-.33-.6-.71-1.18-1.17-1.72-.27-.33-.56-.64-.88-.94-.16-.15-.37-.22-.58-.25-.03,0-.07-.02-.1-.02-.22,0-.43,.07-.61,.21-.02,.02-1,.74-2.45,1.18,0,0-.02,0-.02,0-.63,.19-1.33,.33-2.1,.33-.71,0-1.45-.12-2.22-.41-.03,0-.05-.02-.08-.03-.39-.15-.78-.35-1.17-.61,.05,.06,.1,.12,.14,.18,.03,.04,.05,.09,.07,.13,.19,.31,.35,.63,.46,.96,.15,.44,.24,.91,.25,1.39,.36,.11,.71,.2,1.06,.27,.5,.09,1,.14,1.49,.14,.73,0,1.42-.09,2.08-.24,1.16-.27,2.18-.72,2.96-1.19,.34,.39,.62,.81,.88,1.24,1.3,2.16,1.66,4.71,1.75,6.08h-10.14v2.01s0,0,0,0h11.18c.54,0,.99-.43,1.01-.98,0-.06,0-.45-.02-1.04Z" fill="#666"/>
        <path d="M23.74,32h-1.52c.29-.28,.53-.51,.75-.68,.18-.15,.52-.4,1.01-.73,.08-.06,.16-.11,.25-.18,.28-.2,.54-.39,.77-.58,.65-.52,1.12-1.01,1.41-1.47,.39-.61,.59-1.26,.6-1.93,0,0,0-.02,0-.03,0-.35-.05-.67-.16-.98-.09-.27-.21-.52-.37-.76-.3-.45-.71-.79-1.21-1.04-.08-.04-.15-.08-.23-.11-.18-.07-.39-.13-.61-.18-.28-.07-.59-.11-.94-.14-.31-.03-.65-.05-1.02-.05-1.05,0-1.87,.13-2.47,.39-.59,.26-1.05,.64-1.38,1.13-.33,.49-.55,1.18-.67,2.05l3.12,.25c.09-.63,.26-1.07,.51-1.32,.13-.13,.29-.23,.46-.29,.15-.05,.32-.09,.51-.09,.15,0,.29,.03,.43,.07,.2,.06,.38,.15,.53,.29,.06,.06,.11,.11,.15,.18,.15,.2,.23,.44,.23,.7,0,.32-.13,.65-.38,1-.18,.25-.55,.6-1.07,1.02-.2,.16-.43,.34-.68,.52-.16,.12-.28,.22-.43,.33-.37,.29-.71,.57-1.02,.83-.71,.63-1.26,1.2-1.6,1.71-.54,.81-.87,1.68-.97,2.6h9.34v-2.54h-3.35Z" fill="#666"/>
        <path d="M31.33,23.34c3.93,0,7.13-3.2,7.13-7.13s-3.2-7.13-7.13-7.13-7.13,3.2-7.13,7.13,3.2,7.13,7.13,7.13Zm0-12.22c2.81,0,5.09,2.28,5.09,5.09s-2.28,5.09-5.09,5.09-5.09-2.28-5.09-5.09,2.28-5.09,5.09-5.09Z" fill="#666"/>
      </g>
    </g>
  </g>
</svg>