<?xml version="1.0" encoding="UTF-8"?>
<svg id="Layer_2" data-name="Layer 2" xmlns="http://www.w3.org/2000/svg" width="177.9" height="46.9" viewBox="0 0 177.9 46.9">
  <g id="Capa_1" data-name="Capa 1">
    <g>
      <g>
        <rect x=".45" y=".45" width="177" height="46" rx="23" ry="23" fill="#fff" stroke="#666" stroke-miterlimit="10" stroke-width=".9"/>
        <text transform="translate(51.81 32.3)" fill="#747474" font-family="MyriadPro-Regular, &apos;Myriad Pro&apos;" font-size="25.65"><tspan x="0" y="0">4+ </tspan><tspan x="33.88" y="0" letter-spacing="0em">P</tspan><tspan x="47.4" y="0">l</tspan><tspan x="53.46" y="0" letter-spacing="0em">a</tspan><tspan x="65.62" y="0" letter-spacing="0em">y</tspan><tspan x="77.44" y="0">ers</tspan></text>
      </g>
      <g>
        <path d="M32.61,24.7c4.07,0,7.38-3.31,7.38-7.38s-3.31-7.38-7.38-7.38-7.38,3.31-7.38,7.38,3.31,7.38,7.38,7.38Zm0-12.64c2.9,0,5.27,2.36,5.27,5.27s-2.36,5.27-5.27,5.27-5.27-2.36-5.27-5.27,2.36-5.27,5.27-5.27Z" fill="#666"/>
        <path d="M23.9,36.63h-6.27v-2.83l6.27-7.46h3v7.62h1.56v2.67h-1.56v2.32h-3v-2.32Zm0-2.67v-3.9l-3.32,3.9h3.32Z" fill="#666"/>
        <path d="M42.49,34.2c-.08-1.51-.45-4.35-1.86-6.93-.34-.62-.74-1.22-1.21-1.78-.28-.34-.58-.67-.91-.97-.17-.16-.38-.23-.6-.25-.03,0-.07-.02-.1-.02-.22,0-.45,.07-.64,.22-.02,.02-1.04,.76-2.54,1.22,0,0-.02,0-.03,0-.65,.2-1.38,.34-2.17,.34-.73,0-1.5-.12-2.29-.43-.03-.01-.05-.02-.08-.03-.4-.16-.81-.37-1.21-.63-.01,0-.02,0-.03-.01v2.28c.25,.16,.57,.33,1,.48,.37,.12,.73,.21,1.1,.28,.52,.09,1.04,.14,1.54,.14,.75,0,1.47-.1,2.15-.25,1.2-.27,2.25-.74,3.07-1.23,.35,.4,.65,.83,.91,1.28,1.35,2.23,1.72,4.88,1.82,6.29h-10.49v2.08s0,0,0,0h11.56c.56,0,1.02-.45,1.04-1.01,0-.06,0-.47-.02-1.08Z" fill="#666"/>
      </g>
    </g>
  </g>
</svg>