<?xml version="1.0" encoding="UTF-8"?>
<svg id="Layer_2" data-name="Layer 2" xmlns="http://www.w3.org/2000/svg" width="177.9" height="46.9" viewBox="0 0 177.9 46.9">
  <g id="Capa_1" data-name="Capa 1">
    <g>
      <g>
        <rect x=".45" y=".45" width="177" height="46" rx="23" ry="23" fill="#fff" stroke="#666" stroke-miterlimit="10" stroke-width=".9"/>
        <text transform="translate(49.88 31.3)" fill="#666" font-family="MyriadPro-Regular, &apos;Myriad Pro&apos;" font-size="25.65"><tspan x="0" y="0" letter-spacing="-.01em">C</tspan><tspan x="14.6" y="0">ompe</tspan><tspan x="77.52" y="0" letter-spacing="0em">t</tspan><tspan x="85.85" y="0" letter-spacing="0em">e</tspan></text>
      </g>
      <g>
        <path d="M25.48,19.97c.03,.14,.13,.25,.27,.3,.14,.05,.29,.02,.4-.07l1.1-.87v5.38h-1.38c-.11,0-.22,.04-.3,.12-.08,.08-.12,.19-.12,.3v1.35c0,.11,.04,.22,.12,.3,.08,.08,.19,.12,.3,.12h5.67c.11,0,.22-.04,.3-.12,.08-.08,.12-.18,.12-.3v-1.35c0-.11-.04-.22-.12-.29-.08-.08-.18-.12-.3-.12h-1.37v-8.13c0-.11-.04-.22-.12-.29-.08-.08-.18-.12-.3-.12h-1.78c-.09,0-.17,.03-.24,.07l-2.43,1.68c-.14,.1-.21,.27-.17,.43l.35,1.61Zm2.5-3.34h1.72v8.55h1.79v1.26h-5.57v-1.26h1.8v-6.81l-1.8,1.42-.33-1.51,2.39-1.66Z" fill="#666"/>
        <path d="M14.42,32.39c.05,.15,.19,.26,.35,.27l3.55,.29,.11,3.29c0,.16,.1,.3,.24,.36,.05,.02,.1,.03,.16,.03,.1,0,.19-.04,.27-.1l6.6-5.95,.32,.87c.15,.42,.47,.68,.84,.68,.27,0,.54-.14,.76-.41l1.17-1.43c.1-.12,.24-.19,.39-.19,.09,0,.22,.02,.34,.13l1.37,1.25c.21,.19,.45,.3,.69,.3,.16,0,.34-.05,.49-.17l4.77,5.29c.08,.09,.19,.13,.3,.13,.04,0,.08,0,.12-.02,.15-.05,.26-.18,.28-.34l.38-3.22,3.54-.33c.15-.01,.28-.11,.34-.25,.06-.14,.03-.3-.08-.42l-5.87-6.51s.01-.03,.02-.04c.07-.12,.18-.2,.32-.23l1.8-.42c.38-.09,.65-.32,.74-.62,.09-.31-.01-.64-.28-.93l-1.28-1.34c-.1-.1-.15-.23-.14-.37,0-.14,.07-.26,.18-.36l1.4-1.21c.3-.26,.43-.58,.37-.9-.06-.31-.31-.56-.68-.69l-1.76-.59c-.14-.04-.24-.14-.3-.26-.06-.12-.06-.27,0-.4l.68-1.72c.14-.34,.12-.67-.05-.92-.19-.28-.53-.41-.96-.34l-1.83,.3c-.29,.05-.55-.15-.58-.44l-.2-1.84c-.07-.61-.47-.88-.85-.88-.21,0-.43,.08-.64,.24l-1.48,1.11c-.23,.17-.56,.11-.72-.12l-1.03-1.54c-.21-.31-.49-.48-.79-.48-.34,0-.64,.22-.82,.6l-.8,1.67c-.12,.26-.44,.36-.69,.23l-1.63-.88c-.42-.22-.85-.18-1.12,.09-.12,.13-.27,.37-.25,.76l.07,1.85c0,.14-.04,.27-.14,.37-.09,.1-.22,.15-.37,.15l-1.87-.02c-.39,0-.7,.16-.85,.43-.16,.28-.14,.63,.06,.96l.93,1.61c.07,.12,.09,.26,.05,.39-.04,.13-.13,.24-.26,.3l-1.65,.84c-.35,.18-.56,.46-.57,.78-.01,.32,.17,.62,.5,.83l1.57,.99c.12,.08,.2,.19,.23,.33,.03,.13,0,.27-.09,.39l-1.07,1.51c-.23,.32-.28,.67-.14,.96,.14,.29,.44,.47,.83,.51l.75,.06-5.87,5.3c-.12,.11-.16,.28-.11,.43Zm21.54-3.19s.05-.05,.07-.08c.07-.05,.13-.1,.18-.17,.17-.23,.21-.54,.11-.88l-.17-.57,4.41,4.89-3.06,.28c-.19,.02-.34,.16-.36,.35l-.31,2.66-4.39-4.87,.34-1.67c.01-.06,.04-.12,.07-.17,.11-.06,.23-.07,.36-.04l1.79,.47h0c.38,.1,.73,.02,.96-.21Zm-16.24-3.38c-.12,0-.17-.05-.18-.05,0,0,0,0,0-.02h0s.02-.08,.07-.16l1.07-1.51c.05-.07,.1-.15,.13-.23,.11-.24,.14-.5,.08-.77-.07-.35-.27-.65-.58-.84l-1.57-.99c-.05-.03-.08-.06-.1-.08,0,0,0,0,0,0-.02-.02-.03-.04-.03-.04,0-.01,.03-.06,.15-.12l.85-.43,.8-.41c.32-.16,.55-.44,.65-.78,.1-.32,.06-.67-.1-.97,0-.01-.01-.03-.02-.04l-.92-1.6c-.05-.08-.06-.14-.06-.16,0,0,0-.01,0-.02,0,0,0,0,.02-.01,.02-.01,.07-.03,.17-.03h.48s1.39,.02,1.39,.02c.36,0,.69-.14,.93-.39,.12-.13,.21-.27,.27-.43,0-.02,0-.03,.01-.05,.05-.15,.08-.3,.07-.47l-.07-1.85c0-.12,.02-.18,.05-.19,.02,0,.07,0,.16,.05l1.34,.72,.29,.16s.04,.02,.06,.03c.17,.08,.37,.13,.56,.13,.33,0,.64-.13,.88-.35,.11-.11,.21-.24,.28-.39l.8-1.67s.03-.06,.04-.08c.03-.04,.05-.06,.06-.06,0,0,0,0,.01,0,0,0,.02,0,.03,.02,0,0,.02,.01,.02,.02,.02,.02,.05,.05,.08,.1l.7,1.04,.33,.5c.08,.12,.18,.22,.29,.31,.22,.17,.49,.27,.78,.27,.08,0,.17-.01,.25-.03,.19-.04,.37-.12,.53-.24l.61-.45,.88-.66c.08-.06,.13-.07,.16-.08,0,0,.01,0,.01,0,0,0,.05,.06,.06,.18l.2,1.84c.03,.27,.14,.52,.31,.71,.06,.07,.13,.13,.21,.19,.27,.2,.61,.29,.97,.23l1.83-.3c.1-.02,.18,0,.19,0,0,0,0,0,0,.01,0,.02,0,.08-.03,.17l-.68,1.72s-.03,.08-.04,.13c0,0,0,0,0,0,0,0,0,.02,0,.03-.06,.24-.06,.48,.02,.71,.02,.05,.04,.1,.06,.15,.03,.06,.06,.12,.1,.17,.16,.24,.38,.41,.66,.51l1.31,.44,.45,.15c.08,.03,.12,.05,.14,.07,.01,0,.02,.02,.02,.02,0,0-.01,.04-.04,.08-.02,.02-.04,.05-.07,.07l-.88,.76-.52,.45c-.27,.24-.43,.56-.45,.91-.02,.35,.11,.69,.36,.95l1.28,1.34c.09,.09,.1,.15,.1,.16h0s0,0,0,0c0,0,0,0,0,0h0s-.07,.05-.16,.07l-1.8,.42c-.35,.08-.64,.3-.82,.6-.04,.07-.07,.14-.1,.21,0,0,0,0,0,0-.03,.07-.05,.15-.06,.22h0c-.17,.27-.24,.49-.17,.74l.51,1.78h0s-1.77-.46-1.77-.46c-.07-.02-.15-.03-.22-.03-.04,0-.07,0-.11,0h0c-.07,0-.13,0-.2,.02-.01,0-.03,0-.04,0-.06,.01-.11,.03-.17,.04-.02,0-.04,.02-.07,.03-.03,.01-.07,.03-.1,.05-.04,.02-.08,.05-.13,.07-.01,0-.03,.02-.04,.03-.06,.04-.12,.09-.17,.15h0c-.28,.19-.47,.48-.54,.81l-.32,1.56c-.02,.08,0,.17,.03,.24h0s-.03-.01-.04-.02c0,0,0,0,0,0-.02-.01-.04-.03-.06-.05l-1.37-1.25c-.1-.09-.22-.16-.34-.22-.17-.08-.34-.12-.53-.12-.22,0-.44,.06-.63,.17-.06,.04-.13,.08-.18,.13-.07,.06-.13,.12-.19,.19l-1.17,1.43s-.03,.03-.05,.05c-.02,.02-.03,.03-.05,.04,0,0,0,0,0,0,0,0,0,0,0,0-.02,.01-.04,.02-.05,.02h0s0,0-.01-.01h0s-.05-.06-.08-.15l-.43-1.17c.11-.11,.15-.27,.09-.42l-.03-.08c-.12-.34-.37-.61-.7-.75-.11-.05-.23-.08-.34-.09h0c-.07-.02-.13-.04-.2-.05,0,0,0,0,0,0-.07-.01-.14-.02-.22-.02-.09,0-.17,0-.26,.03,0,0,0,0,0,0-.09,.02-.17,.04-.25,.08,0,0,0,0,0,0l-1.64,.7s0-.03,0-.05l.25-1.84h0c.05-.36-.05-.71-.27-.99-.21-.26-.5-.42-.83-.46h0s-.09-.03-.14-.04c-.06-.02-.13-.03-.2-.04l-.62-.05-1.22-.1Zm1.63,1.08l.41-.05s.07,.06,.1,.09c.09,.11,.12,.24,.1,.38l-.25,1.84c-.04,.32,.03,.61,.2,.81,.12,.14,.29,.23,.49,.26,.24,.13,.55,.13,.86,0l1.7-.73c.06-.03,.13-.04,.2-.04,.09,.06,.17,.14,.2,.25l.02,.06-6.2,5.59-.09-2.79c0-.2-.17-.37-.37-.39l-2.98-.24,5.59-5.04Z" fill="#666"/>
      </g>
    </g>
  </g>
</svg>