<?xml version="1.0" encoding="UTF-8"?>
<svg id="Layer_2" data-name="Layer 2" xmlns="http://www.w3.org/2000/svg" width="177.9" height="46.9" viewBox="0 0 177.9 46.9">
  <g id="Capa_1" data-name="Capa 1">
    <g>
      <g>
        <rect x=".45" y=".45" width="177" height="46" rx="23" ry="23" fill="#fff" stroke="#666" stroke-miterlimit="10" stroke-width=".9"/>
        <text transform="translate(45.18 32.3)" fill="#666" font-family="Roboto-Regular, Roboto" font-size="25.65"><tspan x="0" y="0" letter-spacing="-.04em">F</tspan><tspan x="11.34" y="0" letter-spacing="0em">as</tspan><tspan x="33.86" y="0" letter-spacing="0em">t</tspan><tspan x="42.22" y="0" letter-spacing="0em">-</tspan><tspan x="50.1" y="0" letter-spacing="-.03em">P</tspan><tspan x="63.08" y="0" letter-spacing="0em">a</tspan><tspan x="75.44" y="0" letter-spacing="0em">c</tspan><tspan x="86.78" y="0">ed</tspan></text>
      </g>
      <g>
        <path d="M36.1,22.19s.07-.1,.09-.16l2.84-8.53c.05-.11,.09-.22,.11-.34,0,0,0-.02,0-.03,.12-.6-.07-1.21-.49-1.64-.44-.44-1.06-.62-1.68-.48-.02,0-.04,0-.06,.01-.08,.02-.16,.05-.23,.08l-8.28,2.73c-.42,.1-.76,.27-1.02,.54l-6.01,6.03-4.9-.78s-.07,0-.1,0c-.52-.08-1.05,.09-1.43,.47-.64,.65-.65,1.69-.03,2.35,.01,.02,.02,.03,.04,.04l2.17,2.18-.6,.6c-.83,.83-.83,2.19,0,3.02l.71,.71-.07,.14c-.1,.2-.06,.45,.1,.61l3.1,3.11c.16,.16,.4,.2,.6,.1l.14-.07,.73,.74c.4,.4,.94,.63,1.51,.63h0c.57,0,1.1-.22,1.51-.63l.47-.47,2.2,2.21s.04,.04,.06,.05c.02,.02,.04,.04,.06,.06,.32,.32,.74,.49,1.18,.49h0c.45,0,.87-.18,1.19-.49,.44-.44,.6-1.09,.42-1.68,0-.02,0-.04,0-.06l-.78-4.91,6.06-6.08c.15-.15,.27-.32,.38-.53Zm-20.6-.15s-.03-.04-.04-.05c-.01-.01-.03-.03-.04-.04-.36-.39-.36-1,.02-1.37,.24-.24,.58-.34,.91-.26,.05,.01,.09,.01,.14,0l4.29,.68-3.16,3.16-2.12-2.12Zm14.23,11.64c-.01,.07,0,.14,.02,.21,.15,.37,.07,.79-.21,1.07-.19,.19-.43,.29-.7,.29h0c-.26,0-.51-.1-.69-.29-.01-.01-.02-.03-.04-.05l-.04-.05s-.08-.08-.13-.1l-2.07-2.08,3.2-3.21,.66,4.2Zm5.48-12.04c-.06,.14-.13,.25-.22,.34l-10.86,10.89c-.21,.21-.48,.32-.77,.32h0c-.11,0-.22-.02-.32-.05s-.2-.08-.29-.14c-.06-.04-.11-.09-.17-.14l-1-1.01c-.1-.1-.23-.15-.37-.15-.08,0-.16,.02-.24,.06l-.14,.07-2.57-2.58,.07-.14c.1-.2,.06-.45-.1-.61l-.97-.98c-.43-.43-.43-1.12,0-1.55l10.86-10.89c.13-.13,.3-.21,.54-.27,.02,0,.03,0,.05-.01l8.32-2.75s.03,0,.04-.01c.03-.01,.06-.02,.09-.03,0,0,.02,0,.03,0,.26-.06,.53,.01,.72,.2,.18,.18,.25,.43,.21,.68,0,0,0,.01,0,.02-.01,.06-.03,.12-.05,.17,0,.02-.02,.03-.02,.05l-2.8,8.44s-.02,.04-.03,.07Z" fill="#666"/>
        <path d="M25.43,23.58c-.36-.36-.83-.56-1.34-.56h0c-.51,0-.98,.2-1.34,.56l-2.32,2.33c-.74,.74-.74,1.94,0,2.69l1.1,1.1c.36,.36,.83,.56,1.34,.56h0c.51,0,.98-.2,1.34-.56l2.32-2.33c.36-.36,.55-.84,.55-1.34,0-.51-.2-.98-.55-1.34l-1.1-1.1Zm.36,3.04l-2.32,2.33h0c-.16,.16-.37,.25-.6,.25h0c-.23,0-.44-.09-.6-.25l-1.09-1.1c-.33-.33-.33-.88,0-1.21l2.32-2.33c.16-.16,.37-.25,.6-.25h0c.23,0,.44,.09,.6,.25l1.1,1.1c.16,.16,.25,.38,.25,.6,0,.23-.09,.44-.25,.6Z" fill="#666"/>
        <path d="M31.14,17.71c-.43-.23-.91-.35-1.41-.35h0c-.8,0-1.55,.31-2.11,.88-.57,.57-.88,1.32-.88,2.12,0,.8,.31,1.55,.88,2.12,.56,.57,1.32,.88,2.11,.88h0c.8,0,1.55-.31,2.12-.88,.57-.57,.88-1.32,.88-2.12,0-.8-.31-1.55-.88-2.12-.21-.21-.45-.39-.71-.53Zm-.03,4.03c-.37,.37-.86,.57-1.38,.57h0c-.52,0-1.01-.2-1.38-.57-.37-.37-.57-.86-.57-1.38,0-.52,.2-1.01,.57-1.38,.37-.37,.86-.57,1.38-.57h0c.52,0,1.01,.2,1.38,.57,.37,.37,.57,.86,.57,1.38s-.2,1.01-.57,1.38Z" fill="#666"/>
      </g>
    </g>
  </g>
</svg>