<?xml version="1.0" encoding="UTF-8"?>
<svg id="Layer_2" data-name="Layer 2" xmlns="http://www.w3.org/2000/svg" width="177.9" height="46.9" viewBox="0 0 177.9 46.9">
  <g id="Capa_1" data-name="Capa 1">
    <g>
      <g>
        <rect x=".45" y=".45" width="177" height="46" rx="23" ry="23" fill="#fff" stroke="#666" stroke-miterlimit="10" stroke-width=".9"/>
        <text transform="translate(59.46 31.3)" fill="#666" font-family="Roboto-Regular, Roboto" font-size="25.65"><tspan x="0" y="0">Simple</tspan></text>
      </g>
      <path d="M43.64,16.33v-.12h-.53c-.2-.48-.9-1.06-3.84-1.51-2.22-.35-5.16-.54-8.28-.54s-6.06,.19-8.28,.54c-2.97,.46-3.66,1.05-3.85,1.54h-.11s0,.66,0,.66c0,4.31,1.59,8.36,4.38,11.16-2.2,.59-3.32,1.41-3.32,2.43,0,2.64,7.45,3.33,11.39,3.33s11.39-.7,11.39-3.33c0-1.02-1.12-1.84-3.32-2.44,.16-.16,.3-.3,.43-.45,.78,.12,1.51,.19,2.19,.19,2.05,0,3.72-.53,4.96-1.56,1.38-1.15,2.11-2.86,2.11-4.95,0-3.19-2.83-4.65-5.31-4.95Zm-.14,2.76c1.02,.28,2.15,.93,2.15,2.39,0,1.19-.4,2.16-1.15,2.79-.72,.61-1.74,.9-3.02,.89,1.05-1.81,1.75-3.9,2.03-6.07Zm-12.51-3.7c5.81,0,9.8,.66,10.8,1.19-1,.53-5,1.19-10.8,1.19s-9.8-.66-10.8-1.19c1-.53,5-1.19,10.8-1.19Zm10.37,15.1c0,.74-3.86,2.11-10.16,2.11s-10.16-1.36-10.16-2.11c0-.3,.85-.93,3.19-1.45,2.06,1.65,4.47,2.52,6.97,2.52s4.9-.87,6.96-2.52c2.35,.52,3.2,1.15,3.2,1.45Zm-10.16-.15c-5.91,0-10.78-5.48-11.19-12.52,.63,.25,1.52,.46,2.7,.65,2.22,.35,5.16,.54,8.28,.54s6.06-.19,8.28-.54c1.48-.23,2.51-.51,3.13-.84-.32,7.15-5.19,12.71-11.2,12.71Zm14.86-5.05c-1.24,1.04-3.13,1.45-5.45,1.2,.03-.05,.07-.09,.1-.14,.33,.03,.6,.04,.85,.04,.19,0,.38,0,.56-.02,1.28-.09,2.35-.48,3.16-1.16,.78-.65,1.29-1.54,1.49-2.61,.07-.36,.1-.73,.1-1.12,0-2.51-2.19-3.36-3.26-3.63,0-.09,0-.18,.01-.28,.49,.07,1.15,.22,1.81,.51,1.52,.65,2.28,1.73,2.28,3.19,0,1.71-.58,3.09-1.67,4.01Z" fill="#666"/>
    </g>
  </g>
</svg>