<?xml version="1.0" encoding="UTF-8"?>
<svg id="Layer_2" data-name="Layer 2" xmlns="http://www.w3.org/2000/svg" width="177.9" height="46.9" viewBox="0 0 177.9 46.9">
  <g id="Capa_1" data-name="Capa 1">
    <g>
      <g>
        <rect x=".45" y=".45" width="177" height="46" rx="23" ry="23" fill="#fff" stroke="#666" stroke-miterlimit="10" stroke-width=".9"/>
        <text transform="translate(61.38 31.3)" fill="#666" font-family="Roboto-Regular, Roboto" font-size="25.65"><tspan x="0" y="0" letter-spacing="-.03em">W</tspan><tspan x="20.85" y="0">o</tspan><tspan x="34.94" y="0" letter-spacing="-.01em">r</tspan><tspan x="43.07" y="0" letter-spacing="0em">ds</tspan></text>
      </g>
      <path d="M45.8,33.71h-9.62c1.04-1.07,2.08-2.13,3.12-3.2,.06,0,.11-.01,.15-.03,0,0,.01,0,.02,0,0,0,0,0,.01,0,.1-.04,.19-.12,.25-.25,2.05-4.93,4.11-9.86,6.16-14.79,.29-.7,.58-1.4,.87-2.1,.02-.05,.03-.09,.04-.14,.4-1.32-.13-2.77-1.47-3.33-1.33-.55-2.91,.1-3.47,1.43-2.05,4.93-4.11,9.86-6.16,14.79-.29,.7-.58,1.4-.87,2.1-.07,.17-.03,.37,.09,.51,0,.4-.01,.8-.02,1.19,0,.19,0,.38,0,.57-.02,1.09-.04,2.18-.05,3.27h-13.8c-.68,0-.68,1.3,0,1.3h24.75c.68,0,.68-1.3,0-1.3Zm.19-21.23c-1-.41-1.99-.83-2.99-1.24,.96-1.27,3.12-.36,2.99,1.24Zm-4.1,1.27c.23-.55,.46-1.1,.69-1.65,1.04,.43,2.08,.87,3.12,1.3-1.99,4.78-3.99,9.56-5.98,14.35-.23,.55-.46,1.1-.69,1.65-1.04-.43-2.08-.87-3.12-1.3,1.99-4.78,3.98-9.56,5.98-14.35Zm-6.01,15.58c.77,.32,1.54,.64,2.31,.96-.44,.45-.88,.91-1.33,1.36-.34-.14-.68-.28-1.01-.42,.01-.63,.02-1.27,.03-1.9Z" fill="#666"/>
    </g>
  </g>
</svg>